<svg xmlns="http://www.w3.org/2000/svg" xmlns:xlink="http://www.w3.org/1999/xlink" width="100.209" height="100.209" viewBox="0 0 100.209 100.209">
  <defs>
    <filter id="Trazado_874925" x="0" y="0" width="100.209" height="100.209" filterUnits="userSpaceOnUse">
      <feOffset dy="3" input="SourceAlpha"/>
      <feGaussianBlur stdDeviation="3" result="blur"/>
      <feFlood flood-opacity="0.161"/>
      <feComposite operator="in" in2="blur"/>
      <feComposite in="SourceGraphic"/>
    </filter>
  </defs>
  <g id="Grupo_1110384" data-name="Grupo 1110384" transform="translate(-614.051 -990)">
    <g transform="matrix(1, 0, 0, 1, 614.05, 990)" filter="url(#Trazado_874925)">
      <g id="Trazado_874925-2" data-name="Trazado 874925" transform="translate(9 6)" fill="#efd42f">
        <path d="M 41.10445785522461 80.70938110351562 C 35.75723266601562 80.70938110351562 30.57073974609375 79.66245269775391 25.6890811920166 77.59768676757812 C 20.97318649291992 75.60303497314453 16.73756408691406 72.74720001220703 13.09988117218018 69.10951232910156 C 9.462186813354492 65.47181701660156 6.606351852416992 61.23620986938477 4.611693382263184 56.52031326293945 C 2.546928405761719 51.63864517211914 1.499999046325684 46.4521598815918 1.499999046325684 41.10492706298828 C 1.499999046325684 35.75723266601562 2.546928405761719 30.57073783874512 4.611693382263184 25.68907928466797 C 6.606351852416992 20.97318458557129 9.462186813354492 16.7375602722168 13.09988117218018 13.09987831115723 C 16.73756408691406 9.462184906005859 20.97318649291992 6.606349468231201 25.6890811920166 4.611690521240234 C 30.57073974609375 2.546925783157349 35.75723266601562 1.499996423721313 41.10445785522461 1.499996423721313 C 46.45169448852539 1.499996423721313 51.63817596435547 2.546925783157349 56.51984786987305 4.611690521240234 C 61.23574066162109 6.606349468231201 65.47135162353516 9.462184906005859 69.10904693603516 13.09987831115723 C 72.74672698974609 16.7375602722168 75.60256195068359 20.97318458557129 77.59722137451172 25.68907928466797 C 79.6619873046875 30.57073783874512 80.70891571044922 35.75723266601562 80.70891571044922 41.10445404052734 C 80.70891571044922 46.4521598815918 79.6619873046875 51.63864517211914 77.59722137451172 56.52031326293945 C 75.60256195068359 61.23620986938477 72.74672698974609 65.47181701660156 69.10904693603516 69.10951232910156 C 65.47135162353516 72.74720001220703 61.23574066162109 75.60303497314453 56.51984786987305 77.59768676757812 C 51.63817596435547 79.66245269775391 46.45169448852539 80.70938110351562 41.10445785522461 80.70938110351562 Z" stroke="none"/>
        <path d="M 41.10445785522461 3 C 35.95907211303711 3 30.96917724609375 4.007049560546875 26.27340316772461 5.993194580078125 C 21.73631286621094 7.912239074707031 17.66094970703125 10.66011810302734 14.16053771972656 14.16053009033203 C 10.66012573242188 17.66095733642578 7.9122314453125 21.73630523681641 5.993202209472656 26.27341079711914 C 4.007057189941406 30.96918487548828 3.000007629394531 35.95906448364258 3.000007629394531 41.10493087768555 C 3.000007629394531 46.25031661987305 4.007057189941406 51.24021148681641 5.993202209472656 55.93598175048828 C 7.9122314453125 60.47307586669922 10.66012573242188 64.54843902587891 14.16053771972656 68.04885101318359 C 17.66094970703125 71.54926300048828 21.73631286621094 74.29715728759766 26.27340316772461 76.2161865234375 C 30.96917724609375 78.20233154296875 35.95907211303711 79.20938110351562 41.10445785522461 79.20938110351562 C 46.24984359741211 79.20938110351562 51.23973846435547 78.20233154296875 55.93550872802734 76.2161865234375 C 60.47260284423828 74.29715728759766 64.54796600341797 71.54926300048828 68.04837799072266 68.04885101318359 C 71.54878997802734 64.54843902587891 74.29668426513672 60.47307586669922 76.21571350097656 55.93598175048828 C 78.20185852050781 51.24021148681641 79.20890808105469 46.25031661987305 79.20890808105469 41.10446548461914 C 79.20890808105469 35.95906448364258 78.20185852050781 30.96918487548828 76.21571350097656 26.27341079711914 C 74.29668426513672 21.73630523681641 71.54878997802734 17.66095733642578 68.04837799072266 14.16053009033203 C 64.54796600341797 10.66011810302734 60.47260284423828 7.912239074707031 55.93550872802734 5.993194580078125 C 51.23973846435547 4.007049560546875 46.24984359741211 3 41.10445785522461 3 M 41.10445785522461 0 C 63.80583190917969 0 82.20890808105469 18.40309143066406 82.20890808105469 41.10446548461914 L 82.20890808105469 41.10493087768555 C 82.20890808105469 63.80630493164062 63.80583190917969 82.20938110351562 41.10445785522461 82.20938110351562 C 18.40308380126953 82.20938110351562 7.62939453125e-06 63.80630493164062 7.62939453125e-06 41.10493087768555 L 7.62939453125e-06 41.10446548461914 C 7.62939453125e-06 18.40309143066406 18.40308380126953 0 41.10445785522461 0 Z" stroke="none" fill="#fff"/>
      </g>
    </g>
    <g id="Page-1" transform="translate(644.055 1017)">
      <g id="_059---Car-Mechanics" data-name="059---Car-Mechanics" transform="translate(-0.004 0)">
        <path id="Shape" d="M12.978,31A5.914,5.914,0,0,1,14,34.332a6.019,6.019,0,0,1-3.073,5.253A.619.619,0,0,1,10,39.052V35.665a2,2,0,0,0-2.107-2A2.079,2.079,0,0,0,6,35.772v3.28a.621.621,0,0,1-.927.533,5.992,5.992,0,0,1,.26-10.606V11.685a5.992,5.992,0,0,1-.26-10.606A.621.621,0,0,1,6,1.612v3.28A2.079,2.079,0,0,0,7.891,7,2,2,0,0,0,10,5V1.612a.619.619,0,0,1,.927-.533A6.019,6.019,0,0,1,14,6.332a6.333,6.333,0,0,1-.06.873,6.007,6.007,0,0,1-3.273,4.5V28.958A5.947,5.947,0,0,1,12.978,31Z" transform="translate(-1.329 -0.332)" fill="#9e9e9e"/>
        <path id="Shape-2" data-name="Shape" d="M14,28.958V11.705a6.007,6.007,0,0,0,3.273-4.5,6.333,6.333,0,0,0,.06-.873A6.019,6.019,0,0,0,14.26,1.079a.619.619,0,0,0-.927.533v.249a6,6,0,0,1,2,4.471,6.333,6.333,0,0,1-.06.873,6.009,6.009,0,0,1-2.925,4.313A.679.679,0,0,0,12,12.1V28.562a.68.68,0,0,0,.349.584,6.042,6.042,0,0,1,2.985,5.185,6,6,0,0,1-2,4.471v.249a.619.619,0,0,0,.927.533A6.012,6.012,0,0,0,14,28.958Z" transform="translate(-4.664 -0.332)" fill="#707070"/>
        <path id="Shape-3" data-name="Shape" d="M40.146,18.848a99.69,99.69,0,0,0-14.48-.853c-4.453,0-7.947.167-10.666.407V14.7a6.007,6.007,0,0,0,3.273-4.5c1.74-.113,4.147-.207,7.393-.207a80.884,80.884,0,0,1,10.146.473,1.994,1.994,0,0,1,1.6,1.26l1.64,4.267Z" transform="translate(-5.664 -3.328)" fill="#00bcd4"/>
        <path id="Shape-4" data-name="Shape" d="M38.668,10.468a1.994,1.994,0,0,1,1.6,1.26l1.64,4.267.989,2.581q1.164.133,2.1.273l-1.093-2.853-1.64-4.267a1.994,1.994,0,0,0-1.6-1.26,80.884,80.884,0,0,0-10.146-.473c-.329,0-.644,0-.957,0a76.029,76.029,0,0,1,9.1.47Z" transform="translate(-10.519 -3.328)" fill="#00838f"/>
        <path id="Shape-5" data-name="Shape" d="M45,24.935v7.06H36.333a9.071,9.071,0,0,0-2.227-4.32,1.323,1.323,0,0,0-.9-.347H18.127a1.323,1.323,0,0,0-.9.347A9.07,9.07,0,0,0,15,31.995V22.4c2.72-.24,6.213-.407,10.666-.407a99.69,99.69,0,0,1,14.48.853c.72.107,1.347.213,1.887.32h.007c.887.18,1.547.347,2.007.487A1.333,1.333,0,0,1,45,24.935Z" transform="translate(-5.664 -7.329)" fill="#f44335"/>
        <path id="Shape-6" data-name="Shape" d="M48.94,23.655c-.46-.14-1.12-.307-2.007-.487h-.007c-.54-.107-1.167-.213-1.887-.32A99.69,99.69,0,0,0,30.56,22c-.3,0-.587,0-.88,0a96.1,96.1,0,0,1,13.36.849c.72.107,1.347.213,1.887.32h.007c.887.18,1.547.347,2.007.487a1.333,1.333,0,0,1,.953,1.28v7.06h2v-7.06A1.333,1.333,0,0,0,48.94,23.655Z" transform="translate(-10.557 -7.329)" fill="#c81e1e"/>
        <path id="Shape-7" data-name="Shape" d="M45,37v1.333a1.337,1.337,0,0,1-1.333,1.333H15V37Z" transform="translate(-5.664 -12.334)" fill="#ff9801"/>
        <path id="Shape-8" data-name="Shape" d="M56.333,37v1.333A1.337,1.337,0,0,1,55,39.667h2a1.337,1.337,0,0,0,1.333-1.333V37Z" transform="translate(-18.998 -12.334)" fill="#f57c00"/>
        <path id="Shape-9" data-name="Shape" d="M43.666,41v2a1.337,1.337,0,0,1-1.333,1.333H17.313A5.947,5.947,0,0,0,15,42.293V41Z" transform="translate(-5.664 -13.667)" fill="#9e9e9e"/>
        <path id="Shape-10" data-name="Shape" d="M54.333,41v2A1.337,1.337,0,0,1,53,44.333h2A1.337,1.337,0,0,0,56.333,43V41Z" transform="translate(-18.331 -13.667)" fill="#707070"/>
        <path id="Shape-11" data-name="Shape" d="M52.333,46v2.667A1.337,1.337,0,0,1,51,50H46.333A1.337,1.337,0,0,1,45,48.667V46Z" transform="translate(-15.664 -15.334)" fill="#607d8b"/>
        <path id="Shape-12" data-name="Shape" d="M52.333,46v2.667A1.337,1.337,0,0,1,51,50h2a1.337,1.337,0,0,0,1.333-1.333V46Z" transform="translate(-17.664 -15.334)" fill="#37474f"/>
        <path id="Shape-13" data-name="Shape" d="M36.333,34.667H15a9.07,9.07,0,0,1,2.227-4.32,1.323,1.323,0,0,1,.9-.347h15.08a1.323,1.323,0,0,1,.9.347A9.071,9.071,0,0,1,36.333,34.667Z" transform="translate(-5.664 -10)" fill="#9e9e9e"/>
        <path id="Shape-14" data-name="Shape" d="M42.21,30.347a1.323,1.323,0,0,0-.9-.347h-2a1.323,1.323,0,0,1,.9.347,9.07,9.07,0,0,1,2.227,4.32h2A9.07,9.07,0,0,0,42.21,30.347Z" transform="translate(-13.767 -10)" fill="#707070"/>
        <path id="Shape-15" data-name="Shape" d="M50.667,29h2a1.333,1.333,0,1,1,0,2.667H51.333A1.333,1.333,0,0,1,50,30.333v-.667A.667.667,0,0,1,50.667,29Z" transform="translate(-17.331 -9.667)" fill="#ffdc00"/>
        <path id="Shape-16" data-name="Shape" d="M55.027,20.667a1.667,1.667,0,0,1-.487,1.18,1.579,1.579,0,0,1-.473.327H54.06c-.54-.107-1.167-.213-1.887-.32L51.08,19h2.28A1.667,1.667,0,0,1,55.027,20.667Z" transform="translate(-17.691 -6.334)" fill="#c81e1e"/>
        <path id="Shape-17" data-name="Shape" d="M22.667,15a.667.667,0,0,1-.471-1.138l.667-.667a.667.667,0,0,1,.943.943l-.667.667a.667.667,0,0,1-.471.2Z" transform="translate(-7.997 -4.338)" fill="#fff"/>
        <path id="Shape-18" data-name="Shape" d="M24.667,17a.667.667,0,0,1-.471-1.138L26.862,13.2a.667.667,0,0,1,.943.943l-2.667,2.667a.667.667,0,0,1-.471.2Z" transform="translate(-8.664 -4.338)" fill="#fff"/>
        <g id="Grupo_1110383" data-name="Grupo 1110383">
          <path id="Shape-19" data-name="Shape" d="M39.57,15.689c-.245-.073-.537-.153-.871-.235A2.316,2.316,0,0,0,36.665,12H34.841L33.365,8.156a2.662,2.662,0,0,0-2.133-1.677A81.281,81.281,0,0,0,21,6c-2.495,0-4.725.058-6.677.166,0-.055.011-.109.011-.165A6.689,6.689,0,0,0,10.921.169,1.286,1.286,0,0,0,9,1.282V4.667a1.32,1.32,0,0,1-.411.965A1.391,1.391,0,0,1,7.6,6,1.415,1.415,0,0,1,6.332,4.561V1.282a1.267,1.267,0,0,0-.625-1.1A1.29,1.29,0,0,0,4.416.167,6.655,6.655,0,0,0,4.332,11.75v16.5a6.655,6.655,0,0,0,.086,11.586,1.3,1.3,0,0,0,1.287-.02,1.267,1.267,0,0,0,.627-1.1V35.438A1.413,1.413,0,0,1,7.59,34,1.333,1.333,0,0,1,9,35.333v3.386a1.286,1.286,0,0,0,1.919,1.115,6.684,6.684,0,0,0,2.858-8.5h15.89v2a2,2,0,0,0,2,2h4.667a2,2,0,0,0,2-2V31.21a2,2,0,0,0,1.333-1.877V27.877A2,2,0,0,0,41,26V17.606A1.985,1.985,0,0,0,39.57,15.689Zm.095,1.917V24H32.187a9.059,9.059,0,0,0-2.3-4.15,2.011,2.011,0,0,0-1.348-.517H13.457a2.011,2.011,0,0,0-1.347.516A6.255,6.255,0,0,0,11,21.207V15.689c2.923-.235,6.279-.356,10-.356,11.472,0,16.542,1.143,18.191,1.633a.662.662,0,0,1,.475.639ZM30.8,24H11.2A7.369,7.369,0,0,1,13,20.841a.68.68,0,0,1,.459-.175H28.539a.68.68,0,0,1,.457.175A7.365,7.365,0,0,1,30.8,24Zm5.867-10.666a1,1,0,0,1,.707,1.709.9.9,0,0,1-.137.095c-.385-.074-.812-.148-1.275-.221l-.607-1.583ZM21,7.333A80.151,80.151,0,0,1,31.06,7.8a1.329,1.329,0,0,1,1.063.837L34.449,14.7A107.35,107.35,0,0,0,21,14c-3.711,0-7.067.119-10,.351V11.773a6.605,6.605,0,0,0,3.151-4.262c1.983-.117,4.274-.178,6.849-.178Zm-10.666,31.3v-3.3a2.667,2.667,0,0,0-2.81-2.667A2.729,2.729,0,0,0,5,35.438v3.193a5.339,5.339,0,0,1-2.667-4.8A5.415,5.415,0,0,1,5.3,29.241a.667.667,0,0,0,.367-.6V11.354a.667.667,0,0,0-.366-.595,5.415,5.415,0,0,1-2.967-4.59A5.339,5.339,0,0,1,5,1.369V4.563A2.733,2.733,0,0,0,7.532,7.333a2.667,2.667,0,0,0,2.8-2.667v-3.3a5.345,5.345,0,0,1-.3,9.409.667.667,0,0,0-.371.6V28.625a.667.667,0,0,0,.371.6,5.345,5.345,0,0,1,.3,9.406ZM37,33.333a.667.667,0,0,1-.667.667H31.665A.667.667,0,0,1,31,33.333v-2h6ZM37.664,30H13a6.65,6.65,0,0,0-2-1.773V28H38.331v1.333A.667.667,0,0,1,37.664,30ZM39,26.666H11V25.333H39.664V26A.667.667,0,0,1,39,26.666Z" transform="translate(-0.996 0)"/>
          <path id="Shape-20" data-name="Shape" d="M51,32h1.333a2,2,0,0,0,0-4h-2A1.333,1.333,0,0,0,49,29.333V30A2,2,0,0,0,51,32Zm-.667-2.667h2a.667.667,0,1,1,0,1.333H51A.667.667,0,0,1,50.333,30Z" transform="translate(-16.998 -9.334)"/>
          <path id="Shape-21" data-name="Shape" d="M28,25.667a.667.667,0,0,0,.667.667h2.667a.667.667,0,1,0,0-1.333H28.667A.667.667,0,0,0,28,25.667Z" transform="translate(-9.997 -8.334)"/>
        </g>
      </g>
    </g>
  </g>
</svg>
