<svg xmlns="http://www.w3.org/2000/svg" xmlns:xlink="http://www.w3.org/1999/xlink" width="504.898" height="381" viewBox="0 0 504.898 381">
  <defs>
    <clipPath id="clip-path">
      <rect id="Rectángulo_404612" data-name="Rectángulo 404612" width="107.072" height="76.068" transform="translate(0 0)" fill="none"/>
    </clipPath>
    <clipPath id="clip-path-2">
      <rect id="Rectángulo_404626" data-name="Rectángulo 404626" width="134.551" height="129.552" fill="none"/>
    </clipPath>
    <clipPath id="clip-path-3">
      <rect id="Rectángulo_404627" data-name="Rectángulo 404627" width="110.536" height="111.418" fill="none"/>
    </clipPath>
    <clipPath id="clip-path-4">
      <rect id="Rectángulo_404628" data-name="Rectángulo 404628" width="129.927" height="123.941" transform="translate(0 0)" fill="none"/>
    </clipPath>
  </defs>
  <g id="Grupo_1110515" data-name="Grupo 1110515" transform="translate(-705.051 -3034)">
    <g id="Trazado_899801" data-name="Trazado 899801" transform="translate(705.051 3034)" fill="#fbfaf8">
      <path d="M 496.8984680175781 380 L 8.000031471252441 380 C 4.140218734741211 380 1.000031232833862 376.9308776855469 1.000031232833862 373.1583862304688 L 1.000031232833862 7.841687679290771 C 1.000031232833862 4.069187641143799 4.140218734741211 1 8.000031471252441 1 L 496.8984680175781 1 C 500.7582702636719 1 503.8984680175781 4.069187641143799 503.8984680175781 7.841687679290771 L 503.8984680175781 373.1583862304688 C 503.8984680175781 376.9308776855469 500.7582702636719 380 496.8984680175781 380 Z" stroke="none"/>
      <path d="M 8.000030517578125 2 C 4.691619873046875 2 2.000030517578125 4.62054443359375 2.000030517578125 7.8416748046875 L 2.000030517578125 373.1583251953125 C 2.000030517578125 376.3794555664062 4.691619873046875 379 8.000030517578125 379 L 496.8984069824219 379 C 500.2068176269531 379 502.8984069824219 376.3794555664062 502.8984069824219 373.1583251953125 L 502.8984069824219 7.8416748046875 C 502.8984069824219 4.62054443359375 500.2068176269531 2 496.8984069824219 2 L 8.000030517578125 2 M 8.000030517578125 0 L 496.8984069824219 0 C 501.3166809082031 0 504.8984069824219 3.51080322265625 504.8984069824219 7.8416748046875 L 504.8984069824219 373.1583251953125 C 504.8984069824219 377.4891357421875 501.3166809082031 381 496.8984069824219 381 L 8.000030517578125 381 C 3.581695556640625 381 3.0517578125e-05 377.4891357421875 3.0517578125e-05 373.1583251953125 L 3.0517578125e-05 7.8416748046875 C 3.0517578125e-05 3.51080322265625 3.581695556640625 0 8.000030517578125 0 Z" stroke="none" fill="#bdd9fd"/>
    </g>
    <g id="Grupo_1110514" data-name="Grupo 1110514" transform="translate(-26 4)">
      <g id="Grupo_1110513" data-name="Grupo 1110513" transform="translate(14 -7.336)">
        <g id="Grupo_1110503" data-name="Grupo 1110503" transform="translate(1019.932 3167.477) rotate(90)">
          <g id="Grupo_1110500" data-name="Grupo 1110500">
            <g id="Grupo_1110504" data-name="Grupo 1110504">
              <path id="Trazado_901060" data-name="Trazado 901060" d="M52.985,136.428h-4.52c-.7,0-8.213,5.243-8.213,5.243l-3.146-2.622H32.039L19.98,144.642l-6.815-2.1-6.117-.175-6.466,3.5V80.48L2.621,47.535H52.485" fill="#7d7d7d"/>
              <path id="Trazado_901061" data-name="Trazado 901061" d="M52.985,136.428h-4.52c-.7,0-8.213,5.243-8.213,5.243l-3.146-2.622H32.039L19.98,144.642l-6.815-2.1-6.117-.175-6.466,3.5V80.48L2.621,47.535H52.485" fill="none" stroke="#000" stroke-miterlimit="10" stroke-width="1"/>
              <rect id="Rectángulo_404605" data-name="Rectángulo 404605" width="18.757" height="3.262" transform="translate(4.719 11.301)" fill="#514257"/>
              <rect id="Rectángulo_404606" data-name="Rectángulo 404606" width="18.757" height="3.262" transform="translate(4.719 11.301)" fill="none" stroke="#000" stroke-miterlimit="10" stroke-width="1"/>
              <path id="Trazado_901062" data-name="Trazado 901062" d="M26.229,22.836H19.4v-7.07a3.416,3.416,0,0,1,6.832,0Z" fill="#ac3fa2"/>
              <path id="Trazado_901063" data-name="Trazado 901063" d="M26.229,22.836H19.4v-7.07a3.416,3.416,0,0,1,6.832,0Z" fill="none" stroke="#000" stroke-miterlimit="10" stroke-width="1"/>
              <path id="Trazado_901064" data-name="Trazado 901064" d="M52.4,9.2S31.98,8.1,22.077,22.836H2.039v24.7H52.485" fill="#29fd2f"/>
              <path id="Trazado_901065" data-name="Trazado 901065" d="M52.4,9.2S31.98,8.1,22.077,22.836H2.039v24.7H52.485" fill="none" stroke="#000" stroke-miterlimit="10" stroke-width="1"/>
              <path id="Trazado_901066" data-name="Trazado 901066" d="M21.845,68.622,14.5,75.263l-7.34-6.641V22.836h14.68Z" fill="#b03fb0"/>
              <path id="Trazado_901067" data-name="Trazado 901067" d="M21.845,68.622,14.5,75.263l-7.34-6.641V22.836h14.68Z" fill="none" stroke="#000" stroke-miterlimit="10" stroke-width="1"/>
              <rect id="Rectángulo_404607" data-name="Rectángulo 404607" width="14.68" height="27.262" transform="translate(7.165 41.36)" fill="#6e3e70"/>
              <path id="Trazado_901068" data-name="Trazado 901068" d="M52.4,20.918S29.718,18.814,25.55,41.9c-4.171,23.109,16.8,29.166,16.8,29.166l2.8-8.038H52.4" fill="#ff0"/>
              <path id="Trazado_901069" data-name="Trazado 901069" d="M52.4,20.918S29.718,18.814,25.55,41.9c-4.171,23.109,16.8,29.166,16.8,29.166l2.8-8.038H52.4" fill="none" stroke="#000" stroke-miterlimit="10" stroke-width="1"/>
              <path id="Trazado_901070" data-name="Trazado 901070" d="M19.4,22.836H8.912v-7.07a3.415,3.415,0,0,1,3.416-3.415h3.654A3.414,3.414,0,0,1,19.4,15.766Z" fill="#a565a7"/>
              <path id="Trazado_901071" data-name="Trazado 901071" d="M19.4,22.836H8.912v-7.07a3.415,3.415,0,0,1,3.416-3.415h3.654A3.414,3.414,0,0,1,19.4,15.766Z" fill="none" stroke="#000" stroke-miterlimit="10" stroke-width="1"/>
              <path id="Trazado_901072" data-name="Trazado 901072" d="M8.912,22.836H2.082v-7.07a3.415,3.415,0,1,1,6.83,0Z" fill="#ac3fa2"/>
              <path id="Trazado_901073" data-name="Trazado 901073" d="M8.912,22.836H2.082v-7.07a3.415,3.415,0,1,1,6.83,0Z" fill="none" stroke="#000" stroke-miterlimit="10" stroke-width="1"/>
              <line id="Línea_247" data-name="Línea 247" x2="14.756" transform="translate(7.165 41.36)" fill="none" stroke="#000" stroke-miterlimit="10" stroke-width="1"/>
              <line id="Línea_248" data-name="Línea 248" x2="14.756" transform="translate(7.165 44.068)" fill="none" stroke="#000" stroke-miterlimit="10" stroke-width="1"/>
              <line id="Línea_249" data-name="Línea 249" x2="14.756" transform="translate(7.165 50.681)" fill="none" stroke="#000" stroke-miterlimit="10" stroke-width="1"/>
              <line id="Línea_250" data-name="Línea 250" x2="14.756" transform="translate(7.165 53.389)" fill="none" stroke="#000" stroke-miterlimit="10" stroke-width="1"/>
              <line id="Línea_251" data-name="Línea 251" x2="14.756" transform="translate(7.165 56.098)" fill="none" stroke="#000" stroke-miterlimit="10" stroke-width="1"/>
              <line id="Línea_252" data-name="Línea 252" x2="14.756" transform="translate(7.165 58.807)" fill="none" stroke="#000" stroke-miterlimit="10" stroke-width="1"/>
              <line id="Línea_253" data-name="Línea 253" x2="14.756" transform="translate(7.165 61.516)" fill="none" stroke="#000" stroke-miterlimit="10" stroke-width="1"/>
              <line id="Línea_254" data-name="Línea 254" x2="14.756" transform="translate(7.165 64.224)" fill="none" stroke="#000" stroke-miterlimit="10" stroke-width="1"/>
              <line id="Línea_255" data-name="Línea 255" x2="14.756" transform="translate(7.165 68.272)" fill="none" stroke="#000" stroke-miterlimit="10" stroke-width="1"/>
              <path id="Trazado_901074" data-name="Trazado 901074" d="M0,80.479H26.971s5.485,8.59,25.431,8.59" fill="none" stroke="#000" stroke-miterlimit="10" stroke-width="1"/>
            </g>
          </g>
          <path id="Trazado_901075" data-name="Trazado 901075" d="M51.819,136.428h4.52c.7,0,8.213,5.243,8.213,5.243l3.146-2.622h5.067l12.059,5.593,6.815-2.1,6.117-.175,6.466,3.5V80.48l-2.039-32.945H52.319" fill="#7d7d7d"/>
          <path id="Trazado_901076" data-name="Trazado 901076" d="M51.819,136.428h4.52c.7,0,8.213,5.243,8.213,5.243l3.146-2.622h5.067l12.059,5.593,6.815-2.1,6.117-.175,6.466,3.5V80.48l-2.039-32.945H52.319" fill="none" stroke="#000" stroke-miterlimit="10" stroke-width="1"/>
          <rect id="Rectángulo_404609" data-name="Rectángulo 404609" width="18.757" height="3.262" transform="translate(81.33 11.301)" fill="#514257"/>
          <rect id="Rectángulo_404610" data-name="Rectángulo 404610" width="18.757" height="3.262" transform="translate(81.33 11.301)" fill="none" stroke="#000" stroke-miterlimit="10" stroke-width="1"/>
          <path id="Trazado_901077" data-name="Trazado 901077" d="M78.576,22.836h6.831v-7.07a3.416,3.416,0,0,0-6.831,0Z" fill="#ac3fa2"/>
          <path id="Trazado_901078" data-name="Trazado 901078" d="M78.576,22.836h6.831v-7.07a3.416,3.416,0,0,0-6.831,0Z" fill="none" stroke="#000" stroke-miterlimit="10" stroke-width="1"/>
          <path id="Trazado_901079" data-name="Trazado 901079" d="M52.4,9.2S72.824,8.1,82.727,22.836h20.038v24.7H52.319" fill="#29fd2f"/>
          <path id="Trazado_901080" data-name="Trazado 901080" d="M51.964,9.224S72.824,8.1,82.727,22.836h20.038v24.7H52.319" fill="none" stroke="#000" stroke-miterlimit="10" stroke-width="1"/>
          <path id="Trazado_901081" data-name="Trazado 901081" d="M82.96,68.622l7.34,6.641,7.34-6.641V22.836H82.96Z" fill="#b03fb0"/>
          <path id="Trazado_901082" data-name="Trazado 901082" d="M82.96,68.622l7.34,6.641,7.34-6.641V22.836H82.96Z" fill="none" stroke="#000" stroke-miterlimit="10" stroke-width="1"/>
          <rect id="Rectángulo_404611" data-name="Rectángulo 404611" width="14.68" height="27.262" transform="translate(82.961 41.36)" fill="#6e3e70"/>
          <path id="Trazado_901083" data-name="Trazado 901083" d="M51.31,21.1s23.776-2.285,27.944,20.8c4.171,23.109-16.8,29.166-16.8,29.166l-2.8-8.038-8.329-.539" fill="#ff0"/>
          <path id="Trazado_901084" data-name="Trazado 901084" d="M51.165,20.9S75.086,18.814,79.254,41.9c4.171,23.109-16.8,29.166-16.8,29.166l-2.8-8.038H52.191" fill="none" stroke="#000" stroke-miterlimit="10" stroke-width="1"/>
          <path id="Trazado_901085" data-name="Trazado 901085" d="M85.407,22.836H95.892v-7.07a3.415,3.415,0,0,0-3.416-3.415H88.822a3.414,3.414,0,0,0-3.415,3.415Z" fill="#a565a7"/>
          <path id="Trazado_901086" data-name="Trazado 901086" d="M85.407,22.836H95.892v-7.07a3.415,3.415,0,0,0-3.416-3.415H88.822a3.414,3.414,0,0,0-3.415,3.415Z" fill="none" stroke="#000" stroke-miterlimit="10" stroke-width="1"/>
          <path id="Trazado_901087" data-name="Trazado 901087" d="M95.893,22.836h6.83v-7.07a3.415,3.415,0,0,0-6.83,0Z" fill="#ac3fa2"/>
          <path id="Trazado_901088" data-name="Trazado 901088" d="M95.893,22.836h6.83v-7.07a3.415,3.415,0,0,0-6.83,0Z" fill="none" stroke="#000" stroke-miterlimit="10" stroke-width="1"/>
          <line id="Línea_256" data-name="Línea 256" x1="14.756" transform="translate(82.884 41.36)" fill="none" stroke="#000" stroke-miterlimit="10" stroke-width="1"/>
          <line id="Línea_257" data-name="Línea 257" x1="14.756" transform="translate(82.884 44.068)" fill="none" stroke="#000" stroke-miterlimit="10" stroke-width="1"/>
          <line id="Línea_258" data-name="Línea 258" x1="14.756" transform="translate(82.884 50.68)" fill="none" stroke="#000" stroke-miterlimit="10" stroke-width="1"/>
          <line id="Línea_259" data-name="Línea 259" x1="14.756" transform="translate(82.884 53.388)" fill="none" stroke="#000" stroke-miterlimit="10" stroke-width="1"/>
          <line id="Línea_260" data-name="Línea 260" x1="14.756" transform="translate(82.884 56.097)" fill="none" stroke="#000" stroke-miterlimit="10" stroke-width="1"/>
          <line id="Línea_261" data-name="Línea 261" x1="14.756" transform="translate(82.884 58.806)" fill="none" stroke="#000" stroke-miterlimit="10" stroke-width="1"/>
          <line id="Línea_262" data-name="Línea 262" x1="14.756" transform="translate(82.884 61.516)" fill="none" stroke="#000" stroke-miterlimit="10" stroke-width="1"/>
          <line id="Línea_263" data-name="Línea 263" x1="14.756" transform="translate(82.884 64.224)" fill="none" stroke="#000" stroke-miterlimit="10" stroke-width="1"/>
          <line id="Línea_264" data-name="Línea 264" x1="14.756" transform="translate(82.884 68.272)" fill="none" stroke="#000" stroke-miterlimit="10" stroke-width="1"/>
          <path id="Trazado_901089" data-name="Trazado 901089" d="M104.805,80.479H77.834s-5.926,8.6-25.872,8.6" fill="none" stroke="#000" stroke-miterlimit="10" stroke-width="1"/>
        </g>
        <g id="Grupo_1110506" data-name="Grupo 1110506" transform="translate(1123.621 3090.498) rotate(90)">
          <g id="Grupo_1110505" data-name="Grupo 1110505" clip-path="url(#clip-path)">
            <path id="Trazado_901090" data-name="Trazado 901090" d="M106.332,72.583H96.039L91.43,70.739,85.9,72.583a16.919,16.919,0,0,0-4.455-.922H67.463L58.552,75.5l-13.98-4.763L30.9,75.5s-5.838-4.916-6.452-4.763-5.992,2.38-5.992,2.38l-7.989-2.383L.94,74.427l15.538-35.48,3.973-9.074S28.133,1.758,53.636.529,92.044,37.094,92.044,37.094Z" fill="#999"/>
            <path id="Trazado_901091" data-name="Trazado 901091" d="M106.332,72.583H96.039L91.43,70.739,85.9,72.583a16.919,16.919,0,0,0-4.455-.922H67.463L58.552,75.5l-13.98-4.763L30.9,75.5s-5.838-4.916-6.452-4.763-5.992,2.38-5.992,2.38l-7.989-2.383L.94,74.427l15.538-35.48,3.973-9.074S28.133,1.758,53.636.529,92.044,37.094,92.044,37.094Z" fill="none" stroke="#000" stroke-miterlimit="10" stroke-width="1"/>
            <path id="Trazado_901092" data-name="Trazado 901092" d="M31.974,39.245V30.181H20.452l-3.974,8.766Z" fill="#52514e"/>
            <path id="Trazado_901093" data-name="Trazado 901093" d="M31.974,39.245V30.181H20.452l-3.974,8.766Z" fill="none" stroke="#000" stroke-miterlimit="10" stroke-width="1"/>
            <path id="Trazado_901094" data-name="Trazado 901094" d="M83,34.17A27.513,27.513,0,1,1,55.484,6.658,27.512,27.512,0,0,1,83,34.17" fill="#02ff06"/>
            <path id="Trazado_901095" data-name="Trazado 901095" d="M83,34.17A27.513,27.513,0,1,1,55.485,6.658,27.512,27.512,0,0,1,83,34.17Z" fill="none" stroke="#000" stroke-miterlimit="10" stroke-width="1" stroke-dasharray="7.855 7.855"/>
            <path id="Trazado_901096" data-name="Trazado 901096" d="M78.118,34.17A22.634,22.634,0,1,1,55.484,11.536,22.634,22.634,0,0,1,78.118,34.17" fill="#ffff02"/>
            <circle id="Elipse_11641" data-name="Elipse 11641" cx="22.634" cy="22.634" r="22.634" transform="translate(32.85 11.536)" fill="none" stroke="#000" stroke-miterlimit="10" stroke-width="1"/>
            <path id="Trazado_901097" data-name="Trazado 901097" d="M74.232,34.17A18.748,18.748,0,1,1,55.484,15.422,18.748,18.748,0,0,1,74.232,34.17Z" fill="none" stroke="#000" stroke-miterlimit="10" stroke-width="1" stroke-dasharray="0.998 0.998"/>
          </g>
        </g>
        <g id="Grupo_1110508" data-name="Grupo 1110508" transform="translate(1177.105 3247.5) rotate(90)">
          <g id="Grupo_1110507" data-name="Grupo 1110507" clip-path="url(#clip-path-2)">
            <path id="Trazado_901098" data-name="Trazado 901098" d="M4.89,127.9.521,125.8l3.32-50.155s0-5.593,5.593-6.816,113.417,0,113.417,0,5.243-.524,6.815,4.02,4.369,53.126,4.369,53.126l-2.971,1.922s-3.844-2.272-4.543-1.922-3.67,1.922-3.67,1.922l-5.418-2.971-7.412,2.1s-3.248-3.145-4.121-2.971-7.923.7-7.923.7l-3.32,1.923-4.66.174s-2.683-1.921-3.264-2.184-9.144,4.282-9.144,4.282-3.061-2.748-3.977-2.685-6.6,1.461-6.6,1.461l-6.029-6.466-8.039-.349-3.5-1.4-3.32,2.1-20.272.349S21,118.811,20.9,118.811s-5.17.349-5.17.349a6.119,6.119,0,0,0-3.146,1.748,32.9,32.9,0,0,0-2.272,2.971s-2.8-.175-3.145.349S4.89,127.9,4.89,127.9" fill="#999"/>
            <path id="Trazado_901099" data-name="Trazado 901099" d="M4.89,127.9.521,125.8l3.32-50.155s0-5.593,5.593-6.816,113.417,0,113.417,0,5.243-.524,6.815,4.02,4.369,53.126,4.369,53.126l-2.971,1.922s-3.844-2.272-4.543-1.922-3.67,1.922-3.67,1.922l-5.418-2.971-7.412,2.1s-3.248-3.145-4.121-2.971-7.923.7-7.923.7l-3.32,1.923-4.66.174s-2.683-1.921-3.264-2.184-9.144,4.282-9.144,4.282-3.061-2.748-3.977-2.685-6.6,1.461-6.6,1.461l-6.029-6.466-8.039-.349-3.5-1.4-3.32,2.1-20.272.349S21,118.811,20.9,118.811s-5.17.349-5.17.349a6.119,6.119,0,0,0-3.146,1.748,32.9,32.9,0,0,0-2.272,2.971s-2.8-.175-3.145.349S4.89,127.9,4.89,127.9Z" fill="none" stroke="#000" stroke-miterlimit="10" stroke-width="1"/>
            <path id="Trazado_901100" data-name="Trazado 901100" d="M51.987,30.669c0,9.4-6.142,17.015-13.718,17.015S24.55,40.066,24.55,30.669s6.142-17.015,13.719-17.015,13.718,7.618,13.718,17.015" fill="#f803ff"/>
            <path id="Trazado_901101" data-name="Trazado 901101" d="M51.987,30.669c0,9.4-6.142,17.015-13.718,17.015S24.55,40.066,24.55,30.669s6.142-17.015,13.719-17.015S51.987,21.272,51.987,30.669Z" fill="none" stroke="#000" stroke-miterlimit="10" stroke-width="1"/>
            <path id="Trazado_901102" data-name="Trazado 901102" d="M110.021,30.669c0,9.4-6.441,17.015-14.387,17.015S81.246,40.066,81.246,30.669s6.442-17.015,14.388-17.015,14.387,7.618,14.387,17.015" fill="#f803ff"/>
            <path id="Trazado_901103" data-name="Trazado 901103" d="M110.021,30.669c0,9.4-6.441,17.015-14.387,17.015S81.246,40.066,81.246,30.669s6.442-17.015,14.388-17.015S110.021,21.272,110.021,30.669Z" fill="none" stroke="#000" stroke-miterlimit="10" stroke-width="1"/>
            <path id="Trazado_901104" data-name="Trazado 901104" d="M99.958,30.959c0,16.822-14.67,30.459-32.767,30.459S34.424,47.781,34.424,30.959,49.094.5,67.191.5,99.958,14.137,99.958,30.959" fill="#06fa00"/>
            <ellipse id="Elipse_11642" data-name="Elipse 11642" cx="32.767" cy="30.459" rx="32.767" ry="30.459" transform="translate(34.424 0.5)" fill="none" stroke="#000" stroke-miterlimit="10" stroke-width="1"/>
            <path id="Trazado_901105" data-name="Trazado 901105" d="M120.863,71.277H13.17a3.736,3.736,0,0,1-3.736-3.736V37.928a3.736,3.736,0,0,1,3.736-3.736H120.863a3.736,3.736,0,0,1,3.736,3.736V67.541a3.736,3.736,0,0,1-3.736,3.736" fill="#999"/>
            <rect id="Rectángulo_404613" data-name="Rectángulo 404613" width="115.165" height="37.085" rx="3.736" transform="translate(9.434 34.192)" fill="none" stroke="#000" stroke-miterlimit="10" stroke-width="1"/>
            <rect id="Rectángulo_404614" data-name="Rectángulo 404614" width="14.68" height="37.085" transform="translate(23.589 34.192)" fill="#ff76ff"/>
            <rect id="Rectángulo_404615" data-name="Rectángulo 404615" width="14.68" height="37.085" transform="translate(23.589 34.192)" fill="none" stroke="#000" stroke-miterlimit="10" stroke-width="1"/>
            <rect id="Rectángulo_404616" data-name="Rectángulo 404616" width="14.68" height="37.085" transform="translate(96.113 34.192)" fill="#ff76ff"/>
            <rect id="Rectángulo_404617" data-name="Rectángulo 404617" width="14.68" height="37.085" transform="translate(96.113 34.192)" fill="none" stroke="#000" stroke-miterlimit="10" stroke-width="1"/>
            <path id="Trazado_901106" data-name="Trazado 901106" d="M96.7,33.495a2.561,2.561,0,0,0-2.174-2.63c-.039-.248-.066-.487-.111-.739C90.247,7.038,67.564,9.141,67.564,9.141S44.88,7.038,40.712,30.126c-.049.27-.078.527-.12.793a2.154,2.154,0,0,0-.558-.079,2.668,2.668,0,0,0,0,5.31c.044,0,.086-.012.131-.014.094,18.17,17.345,23.156,17.345,23.156l2.8-8.039H74.821l2.8,8.039s17.311-5.006,17.344-23.257a2.623,2.623,0,0,0,1.74-2.54" fill="#ffff02"/>
            <path id="Trazado_901107" data-name="Trazado 901107" d="M96.7,33.495a2.561,2.561,0,0,0-2.174-2.63c-.039-.248-.066-.487-.111-.739C90.247,7.038,67.564,9.141,67.564,9.141S44.88,7.038,40.712,30.126c-.049.27-.078.527-.12.793a2.154,2.154,0,0,0-.558-.079,2.668,2.668,0,0,0,0,5.31c.044,0,.086-.012.131-.014.094,18.17,17.345,23.156,17.345,23.156l2.8-8.039H74.821l2.8,8.039s17.311-5.006,17.344-23.257A2.623,2.623,0,0,0,96.7,33.495Z" fill="none" stroke="#000" stroke-miterlimit="10" stroke-width="1"/>
            <rect id="Rectángulo_404618" data-name="Rectángulo 404618" width="14.68" height="10.252" transform="translate(23.589 80.889)" fill="#b602c4"/>
            <rect id="Rectángulo_404619" data-name="Rectángulo 404619" width="14.68" height="10.252" transform="translate(23.589 80.889)" fill="none" stroke="#000" stroke-miterlimit="10" stroke-width="1"/>
            <rect id="Rectángulo_404620" data-name="Rectángulo 404620" width="23.417" height="3.146" transform="translate(19.745 71.276)" fill="#9f9901"/>
            <rect id="Rectángulo_404621" data-name="Rectángulo 404621" width="23.417" height="3.146" transform="translate(19.745 71.276)" fill="none" stroke="#000" stroke-miterlimit="10" stroke-width="1"/>
            <path id="Trazado_901108" data-name="Trazado 901108" d="M22.045,82.287h2.563a2.3,2.3,0,0,0,2.3-2.3V74.423H19.744v5.563a2.3,2.3,0,0,0,2.3,2.3" fill="#0038ec"/>
            <path id="Trazado_901109" data-name="Trazado 901109" d="M22.045,82.287h2.563a2.3,2.3,0,0,0,2.3-2.3V74.423H19.744v5.563A2.3,2.3,0,0,0,22.045,82.287Z" fill="none" stroke="#000" stroke-miterlimit="10" stroke-width="1"/>
            <path id="Trazado_901110" data-name="Trazado 901110" d="M39.068,82.287H40.18a2.3,2.3,0,0,0,2.3-2.3V74.423H36.767v5.563a2.3,2.3,0,0,0,2.3,2.3" fill="#0038ec"/>
            <path id="Trazado_901111" data-name="Trazado 901111" d="M39.068,82.287H40.18a2.3,2.3,0,0,0,2.3-2.3V74.423H36.767v5.563A2.3,2.3,0,0,0,39.068,82.287Z" fill="none" stroke="#000" stroke-miterlimit="10" stroke-width="1"/>
            <path id="Trazado_901112" data-name="Trazado 901112" d="M29.211,82.287h5.255a2.3,2.3,0,0,0,2.3-2.3V74.423H26.91v5.563a2.3,2.3,0,0,0,2.3,2.3" fill="#6991ff"/>
            <path id="Trazado_901113" data-name="Trazado 901113" d="M29.211,82.287h5.255a2.3,2.3,0,0,0,2.3-2.3V74.423H26.91v5.563A2.3,2.3,0,0,0,29.211,82.287Z" fill="none" stroke="#000" stroke-miterlimit="10" stroke-width="1"/>
            <line id="Línea_265" data-name="Línea 265" x2="14.68" transform="translate(23.589 83.918)" fill="none" stroke="#000" stroke-miterlimit="10" stroke-width="1"/>
            <line id="Línea_266" data-name="Línea 266" x2="14.68" transform="translate(23.589 85.549)" fill="none" stroke="#000" stroke-miterlimit="10" stroke-width="1"/>
            <line id="Línea_267" data-name="Línea 267" x2="14.68" transform="translate(23.589 87.18)" fill="none" stroke="#000" stroke-miterlimit="10" stroke-width="1"/>
            <line id="Línea_268" data-name="Línea 268" x2="14.68" transform="translate(23.589 88.811)" fill="none" stroke="#000" stroke-miterlimit="10" stroke-width="1"/>
            <rect id="Rectángulo_404622" data-name="Rectángulo 404622" width="14.68" height="10.252" transform="translate(94.657 80.889)" fill="#b602c4"/>
            <rect id="Rectángulo_404623" data-name="Rectángulo 404623" width="14.68" height="10.252" transform="translate(94.657 80.889)" fill="none" stroke="#000" stroke-miterlimit="10" stroke-width="1"/>
            <rect id="Rectángulo_404624" data-name="Rectángulo 404624" width="23.417" height="3.146" transform="translate(90.813 71.276)" fill="#9f9901"/>
            <rect id="Rectángulo_404625" data-name="Rectángulo 404625" width="23.417" height="3.146" transform="translate(90.813 71.276)" fill="none" stroke="#000" stroke-miterlimit="10" stroke-width="1"/>
            <path id="Trazado_901114" data-name="Trazado 901114" d="M93.113,82.287h2.563a2.3,2.3,0,0,0,2.3-2.3V74.423H90.812v5.563a2.3,2.3,0,0,0,2.3,2.3" fill="#0038ec"/>
            <path id="Trazado_901115" data-name="Trazado 901115" d="M93.113,82.287h2.563a2.3,2.3,0,0,0,2.3-2.3V74.423H90.812v5.563A2.3,2.3,0,0,0,93.113,82.287Z" fill="none" stroke="#000" stroke-miterlimit="10" stroke-width="1"/>
            <path id="Trazado_901116" data-name="Trazado 901116" d="M110.136,82.287h1.112a2.3,2.3,0,0,0,2.3-2.3V74.423h-5.714v5.563a2.3,2.3,0,0,0,2.3,2.3" fill="#0038ec"/>
            <path id="Trazado_901117" data-name="Trazado 901117" d="M110.136,82.287h1.112a2.3,2.3,0,0,0,2.3-2.3V74.423h-5.714v5.563A2.3,2.3,0,0,0,110.136,82.287Z" fill="none" stroke="#000" stroke-miterlimit="10" stroke-width="1"/>
            <path id="Trazado_901118" data-name="Trazado 901118" d="M100.278,82.287h5.256a2.3,2.3,0,0,0,2.3-2.3V74.423H97.977v5.563a2.3,2.3,0,0,0,2.3,2.3" fill="#6991ff"/>
            <path id="Trazado_901119" data-name="Trazado 901119" d="M100.278,82.287h5.256a2.3,2.3,0,0,0,2.3-2.3V74.423H97.977v5.563A2.3,2.3,0,0,0,100.278,82.287Z" fill="none" stroke="#000" stroke-miterlimit="10" stroke-width="1"/>
            <line id="Línea_269" data-name="Línea 269" x2="14.68" transform="translate(94.657 83.918)" fill="none" stroke="#000" stroke-miterlimit="10" stroke-width="1"/>
            <line id="Línea_270" data-name="Línea 270" x2="14.68" transform="translate(94.657 85.549)" fill="none" stroke="#000" stroke-miterlimit="10" stroke-width="1"/>
            <line id="Línea_271" data-name="Línea 271" x2="14.68" transform="translate(94.657 87.18)" fill="none" stroke="#000" stroke-miterlimit="10" stroke-width="1"/>
            <line id="Línea_272" data-name="Línea 272" x2="14.68" transform="translate(94.657 88.811)" fill="none" stroke="#000" stroke-miterlimit="10" stroke-width="1"/>
          </g>
        </g>
        <g id="Grupo_1110510" data-name="Grupo 1110510" transform="translate(845.469 3082.379) rotate(90)">
          <g id="Grupo_1110509" data-name="Grupo 1110509" clip-path="url(#clip-path-3)">
            <path id="Trazado_901120" data-name="Trazado 901120" d="M.537,104.4,11.393,39.032S15.917,2.844,51.2.583,97.115,43.33,97.115,43.33l12.892,64.686-4.976,2.714-12.892-6.107L83.77,104.4,75.4,109.373l-1.131,1.357-3.445-3.168-6.28-1.581-9.274,2.488L50.3,110.73,48.034,105.3l-9.5-2.036s-2.036,2.036-6.786,3.166-9.725,2.488-9.725,2.488-4.071,2.488-5.2,1.809-3.4-6.245-3.4-6.245l-7.906,4.662Z" transform="translate(-0.016 -0.015)" fill="#7d7d7d"/>
            <path id="Trazado_901121" data-name="Trazado 901121" d="M.537,104.4,11.393,39.032S15.917,2.844,51.2.583,97.115,43.33,97.115,43.33l12.892,64.686-4.976,2.714-12.892-6.107L83.77,104.4,75.4,109.373l-1.131,1.357-3.445-3.168-6.28-1.581-9.274,2.488L50.3,110.73,48.034,105.3l-9.5-2.036s-2.036,2.036-6.786,3.166-9.725,2.488-9.725,2.488-4.071,2.488-5.2,1.809-3.4-6.245-3.4-6.245l-7.906,4.662Z" transform="translate(-0.016 -0.015)" fill="none" stroke="#000" stroke-miterlimit="10" stroke-width="1"/>
            <path id="Trazado_901122" data-name="Trazado 901122" d="M84.434,42.914A30.617,30.617,0,1,1,53.817,12.3,30.617,30.617,0,0,1,84.434,42.914" transform="translate(-0.68 -0.361)" fill="#fffe00"/>
            <path id="Trazado_901123" data-name="Trazado 901123" d="M84.434,42.914A30.617,30.617,0,1,1,53.817,12.3,30.617,30.617,0,0,1,84.434,42.914Z" transform="translate(-0.68 -0.361)" fill="none" stroke="#000" stroke-miterlimit="10" stroke-width="1"/>
            <path id="Trazado_901124" data-name="Trazado 901124" d="M45.078,43.182V47H57.631s4.75,1.357,6.276-5.768V32.409S65.769,26.15,73.576,28,85.791,67.014,55.087,68.371,30.66,35.8,30.66,35.8s4.071-12.044,11.535-5.258a7.9,7.9,0,0,1,2.375,7.633H48.3s3.732-14.08-9.159-14.419S23.2,40.891,23.2,40.891,21.164,71.933,53.816,73.8,85.209,41.926,83.836,37.143s-2.447-11.056-8.459-15.7c0,0-5.192,1.124-10.112,2.142s-6.446,5.767-6.107,10.347,1.361,8.994-5.342,9.247a67.565,67.565,0,0,1-8.738,0" transform="translate(-0.68 -0.629)" fill="#f70000"/>
            <path id="Trazado_901125" data-name="Trazado 901125" d="M45.078,43.182V47H57.631s4.75,1.357,6.276-5.768V32.409S65.769,26.15,73.576,28,85.791,67.014,55.087,68.371,30.66,35.8,30.66,35.8s4.071-12.044,11.535-5.258a7.9,7.9,0,0,1,2.375,7.633H48.3s3.732-14.08-9.159-14.419S23.2,40.891,23.2,40.891,21.164,71.933,53.816,73.8,85.209,41.926,83.836,37.143s-2.447-11.056-8.459-15.7c0,0-5.192,1.124-10.112,2.142s-6.446,5.767-6.107,10.347,1.361,8.994-5.342,9.247A67.565,67.565,0,0,1,45.078,43.182Z" transform="translate(-0.68 -0.629)" fill="none" stroke="#000" stroke-miterlimit="10" stroke-width="1"/>
          </g>
        </g>
        <g id="Grupo_1110512" data-name="Grupo 1110512" transform="translate(857.992 3236.008) rotate(90)">
          <g id="Grupo_1110511" data-name="Grupo 1110511" clip-path="url(#clip-path-4)">
            <path id="Trazado_901126" data-name="Trazado 901126" d="M.531,116.4l9.782-74.081s8.321-35.73,49.85-38.176,58.119,41.7,58.119,41.7l11.1,74.468-5.857,2.935-15.174-6.6L98.5,116.4l-9.85,5.381-1.331,1.467-4.055-3.426-7.392-1.71L64.955,120.8,59.1,123.248l-2.662-5.87-11.181-2.2s-2.4,2.2-7.986,3.424-11.448,2.69-11.448,2.69-4.791,2.691-6.123,1.957-4-6.754-4-6.754l-9.306,5.042Z" fill="#7d7d7d"/>
            <path id="Trazado_901127" data-name="Trazado 901127" d="M.531,116.4l9.782-74.081s8.321-35.73,49.85-38.176,58.119,41.7,58.119,41.7l11.1,74.468-5.857,2.935-15.174-6.6L98.5,116.4l-9.85,5.381-1.331,1.467-4.055-3.426-7.392-1.71L64.955,120.8,59.1,123.248l-2.662-5.87-11.181-2.2s-2.4,2.2-7.986,3.424-11.448,2.69-11.448,2.69-4.791,2.691-6.123,1.957-4-6.754-4-6.754l-9.306,5.042Z" fill="none" stroke="#000" stroke-miterlimit="10" stroke-width="1"/>
            <path id="Trazado_901128" data-name="Trazado 901128" d="M119.011,41.919c0,8.034-8.651,13-15.241,19.349C91.6,73,76.16,83.338,62.592,83.338,51.2,83.338,38.8,74.81,27.963,66.209c-9.055-7.188-17.651-13.477-17.651-23.891,0-8.763,6.56-13.93,13.416-20.7C34.768,10.729,49.691.5,62.592.5c13.667,0,29.94,9.25,42.089,21.123,6.441,6.3,14.33,12.37,14.33,20.3" fill="#ffff02"/>
            <path id="Trazado_901129" data-name="Trazado 901129" d="M119.011,41.919c0,8.034-8.651,13-15.241,19.349C91.6,73,76.16,83.338,62.592,83.338,51.2,83.338,38.8,74.81,27.963,66.209c-9.055-7.188-17.651-13.477-17.651-23.891,0-8.763,6.56-13.93,13.416-20.7C34.768,10.729,49.691.5,62.592.5c13.667,0,29.94,9.25,42.089,21.123C111.122,27.918,119.011,33.993,119.011,41.919Z" fill="none" stroke="#000" stroke-miterlimit="10" stroke-width="1"/>
            <path id="Trazado_901130" data-name="Trazado 901130" d="M15.031,34.927l.7-3.32,3.845,1.66,5.417-9.7,5.942,3.145v4.369s4.369,2.272,7.864.525,14.854-10.486,25.864-9.962S95.419,31.781,95.419,31.781s-.874-3.692,0-3.506,5.767.8,5.767.8L110.1,47.509l-8.214,10.835L95.943,57.3s2.622-7.515-.873-8.214-20.8,11.36-25.515,11.534-6.815,3.146-26.213-5.242L25.516,48.733Z" fill="#00ff02"/>
            <path id="Trazado_901131" data-name="Trazado 901131" d="M15.031,34.927l.7-3.32,3.845,1.66,5.417-9.7,5.942,3.145v4.369s4.369,2.272,7.864.525,14.854-10.486,25.864-9.962S95.419,31.781,95.419,31.781s-.874-3.692,0-3.506,5.767.8,5.767.8L110.1,47.509l-8.214,10.835L95.943,57.3s2.622-7.515-.873-8.214-20.8,11.36-25.515,11.534-6.815,3.146-26.213-5.242L25.516,48.733Z" fill="none" stroke="#000" stroke-miterlimit="10" stroke-width="1"/>
            <path id="Trazado_901132" data-name="Trazado 901132" d="M114.7,45.9l-10.271,6.95L93.5,47l-.66-12.809,10.271-6.95L114.041,33.1Z" fill="#f0f"/>
            <path id="Trazado_901133" data-name="Trazado 901133" d="M114.7,45.9l-10.271,6.95L93.5,47l-.66-12.809,10.271-6.95L114.041,33.1Z" fill="none" stroke="#000" stroke-miterlimit="10" stroke-width="1"/>
            <path id="Trazado_901134" data-name="Trazado 901134" d="M113.231,40.3a9.485,9.485,0,1,1-9.485-9.485,9.485,9.485,0,0,1,9.485,9.485" fill="#ff74ff"/>
            <path id="Trazado_901135" data-name="Trazado 901135" d="M113.231,40.3a9.485,9.485,0,1,1-9.485-9.485A9.485,9.485,0,0,1,113.231,40.3Z" fill="none" stroke="#000" stroke-miterlimit="10" stroke-width="1"/>
            <path id="Trazado_901136" data-name="Trazado 901136" d="M34.66,48.176l-10.271,6.95L13.458,49.268,12.8,36.459l10.271-6.95L34,35.367Z" fill="#f0f"/>
            <path id="Trazado_901137" data-name="Trazado 901137" d="M34.66,48.176l-10.271,6.95L13.458,49.268,12.8,36.459l10.271-6.95L34,35.367Z" fill="none" stroke="#000" stroke-miterlimit="10" stroke-width="1"/>
            <path id="Trazado_901138" data-name="Trazado 901138" d="M33.189,42.576A9.484,9.484,0,1,1,23.7,33.091a9.485,9.485,0,0,1,9.485,9.485" fill="#ff74ff"/>
            <path id="Trazado_901139" data-name="Trazado 901139" d="M33.189,42.576A9.484,9.484,0,1,1,23.7,33.091,9.485,9.485,0,0,1,33.189,42.576Z" fill="none" stroke="#000" stroke-miterlimit="10" stroke-width="1"/>
          </g>
        </g>
      </g>
      <path id="Trazado_901278" data-name="Trazado 901278" d="M-35.162-2.052a.827.827,0,0,0-.322-.7,4.227,4.227,0,0,0-1.16-.516A8.224,8.224,0,0,1-37.971-3.8,2.168,2.168,0,0,1-39.3-5.742a1.888,1.888,0,0,1,.357-1.131,2.33,2.33,0,0,1,1.026-.776,3.861,3.861,0,0,1,1.5-.279,3.515,3.515,0,0,1,1.493.3,2.378,2.378,0,0,1,1.018.857,2.242,2.242,0,0,1,.363,1.257h-1.611a1.055,1.055,0,0,0-.338-.835,1.391,1.391,0,0,0-.951-.3,1.486,1.486,0,0,0-.918.25.788.788,0,0,0-.328.658.754.754,0,0,0,.384.639,4.339,4.339,0,0,0,1.131.483,4.885,4.885,0,0,1,2,1.026,2.043,2.043,0,0,1,.628,1.525A1.882,1.882,0,0,1-34.313-.47a3.362,3.362,0,0,1-2.068.577,3.993,3.993,0,0,1-1.644-.33,2.6,2.6,0,0,1-1.131-.905,2.318,2.318,0,0,1-.389-1.332h1.617q0,1.294,1.547,1.294a1.5,1.5,0,0,0,.9-.234A.76.76,0,0,0-35.162-2.052Zm5.28,2.159a2.853,2.853,0,0,1-2.081-.784,2.787,2.787,0,0,1-.8-2.089v-.15a3.511,3.511,0,0,1,.338-1.566,2.483,2.483,0,0,1,.959-1.063,2.691,2.691,0,0,1,1.415-.373,2.412,2.412,0,0,1,1.877.752,3.056,3.056,0,0,1,.685,2.132V-2.4h-3.7a1.442,1.442,0,0,0,.454.913,1.372,1.372,0,0,0,.959.344,1.675,1.675,0,0,0,1.4-.65l.763.854a2.33,2.33,0,0,1-.945.771A3.1,3.1,0,0,1-29.882.107Zm-.177-4.775a.97.97,0,0,0-.749.313,1.62,1.62,0,0,0-.368.9h2.159v-.124a1.156,1.156,0,0,0-.279-.8A1,1,0,0,0-30.059-4.667Zm3.223,1.719A3.406,3.406,0,0,1-26.2-5.1a2.062,2.062,0,0,1,1.716-.816A1.809,1.809,0,0,1-23-5.264l.064-.548h1.407V-.193a2.484,2.484,0,0,1-.346,1.327,2.225,2.225,0,0,1-.975.859,3.427,3.427,0,0,1-1.472.3,3.187,3.187,0,0,1-1.246-.255,2.212,2.212,0,0,1-.918-.658l.688-.945a1.818,1.818,0,0,0,1.407.65,1.331,1.331,0,0,0,.961-.33,1.239,1.239,0,0,0,.344-.937V-.5a1.8,1.8,0,0,1-1.413.607,2.057,2.057,0,0,1-1.695-.819,3.405,3.405,0,0,1-.647-2.173Zm1.552.11a2.132,2.132,0,0,0,.317,1.244,1.007,1.007,0,0,0,.87.451,1.077,1.077,0,0,0,1.015-.534V-4.133a1.075,1.075,0,0,0-1-.534,1.014,1.014,0,0,0-.878.459A2.4,2.4,0,0,0-25.284-2.838Zm8.433,2.247a1.947,1.947,0,0,1-1.59.7A1.836,1.836,0,0,1-19.868-.43,2.293,2.293,0,0,1-20.37-2V-5.812h1.552v3.759q0,.909.827.909a1.121,1.121,0,0,0,1.085-.549V-5.812h1.558V0h-1.461Zm5.94-3.765A4.217,4.217,0,0,0-11.47-4.4a1.137,1.137,0,0,0-1.155.6V0h-1.552V-5.812h1.466l.043.693a1.438,1.438,0,0,1,1.294-.8,1.626,1.626,0,0,1,.483.07Zm.312,1.4A3.447,3.447,0,0,1-10.267-4.5a2.438,2.438,0,0,1,.959-1.047,2.8,2.8,0,0,1,1.453-.371,2.646,2.646,0,0,1,1.92.72,2.889,2.889,0,0,1,.83,1.955l.011.4A3.038,3.038,0,0,1-5.841-.7a2.6,2.6,0,0,1-2,.808A2.608,2.608,0,0,1-9.851-.7,3.091,3.091,0,0,1-10.6-2.89Zm1.552.11a2.172,2.172,0,0,0,.312,1.267,1.028,1.028,0,0,0,.892.438,1.03,1.03,0,0,0,.881-.433,2.377,2.377,0,0,0,.317-1.385,2.151,2.151,0,0,0-.317-1.259,1.03,1.03,0,0,0-.892-.446,1.013,1.013,0,0,0-.881.444A2.417,2.417,0,0,0-9.048-2.849Zm7.407-.1a3.5,3.5,0,0,1,.61-2.165A1.978,1.978,0,0,1,.636-5.919a1.78,1.78,0,0,1,1.4.634V-8.25H3.6V0h-1.4L2.119-.618A1.827,1.827,0,0,1,.626.107,1.973,1.973,0,0,1-1.021-.7,3.615,3.615,0,0,1-1.641-2.949Zm1.552.11A2.307,2.307,0,0,0,.2-1.581a.927.927,0,0,0,.827.437,1.038,1.038,0,0,0,1.015-.61v-2.3a1.023,1.023,0,0,0-1-.61Q-.089-4.667-.089-2.838ZM7.474.107A2.853,2.853,0,0,1,5.393-.677a2.787,2.787,0,0,1-.8-2.089v-.15a3.511,3.511,0,0,1,.338-1.566,2.483,2.483,0,0,1,.959-1.063A2.691,2.691,0,0,1,7.3-5.919a2.412,2.412,0,0,1,1.877.752,3.056,3.056,0,0,1,.685,2.132V-2.4h-3.7a1.442,1.442,0,0,0,.454.913,1.372,1.372,0,0,0,.959.344,1.675,1.675,0,0,0,1.4-.65L9.74-.94A2.33,2.33,0,0,1,8.8-.169,3.1,3.1,0,0,1,7.474.107ZM7.3-4.667a.97.97,0,0,0-.749.313,1.62,1.62,0,0,0-.368.9H8.339v-.124a1.156,1.156,0,0,0-.279-.8A1,1,0,0,0,7.3-4.667ZM16.852,0A1.724,1.724,0,0,1,16.7-.521,1.878,1.878,0,0,1,15.23.107a2.063,2.063,0,0,1-1.415-.494,1.589,1.589,0,0,1-.561-1.246,1.642,1.642,0,0,1,.685-1.418,3.379,3.379,0,0,1,1.979-.5h.714v-.333a.958.958,0,0,0-.207-.645.813.813,0,0,0-.653-.242.925.925,0,0,0-.615.188.639.639,0,0,0-.223.516H13.382A1.559,1.559,0,0,1,13.694-5a2.059,2.059,0,0,1,.881-.674,3.21,3.21,0,0,1,1.278-.244,2.536,2.536,0,0,1,1.705.54,1.888,1.888,0,0,1,.631,1.517v2.519A2.778,2.778,0,0,0,18.42-.091V0ZM15.568-1.08a1.337,1.337,0,0,0,.634-.153,1,1,0,0,0,.43-.411v-1h-.58q-1.166,0-1.241.806l-.005.091a.621.621,0,0,0,.2.478A.793.793,0,0,0,15.568-1.08ZM20.81-5.812l.048.671a2.029,2.029,0,0,1,1.67-.779,1.686,1.686,0,0,1,1.375.542,2.531,2.531,0,0,1,.462,1.622V0H22.814V-3.725a1.011,1.011,0,0,0-.215-.719.96.96,0,0,0-.714-.223,1.067,1.067,0,0,0-.983.56V0H19.349V-5.812ZM27.18,0H25.623V-5.812H27.18ZM25.531-7.315a.764.764,0,0,1,.234-.575.878.878,0,0,1,.636-.226.88.88,0,0,1,.634.226.76.76,0,0,1,.236.575.762.762,0,0,1-.239.58.882.882,0,0,1-.631.226.882.882,0,0,1-.631-.226A.762.762,0,0,1,25.531-7.315ZM30.1,0H28.539V-8.25H30.1Zm2.917,0H31.456V-8.25h1.558ZM34.05-2.959A3.447,3.447,0,0,1,34.383-4.5a2.438,2.438,0,0,1,.959-1.047,2.8,2.8,0,0,1,1.453-.371,2.646,2.646,0,0,1,1.92.72,2.889,2.889,0,0,1,.83,1.955l.011.4A3.038,3.038,0,0,1,38.809-.7a2.6,2.6,0,0,1-2,.808A2.608,2.608,0,0,1,34.8-.7,3.091,3.091,0,0,1,34.05-2.89Zm1.552.11a2.172,2.172,0,0,0,.312,1.267,1.028,1.028,0,0,0,.892.438,1.03,1.03,0,0,0,.881-.433A2.377,2.377,0,0,0,38-2.962a2.151,2.151,0,0,0-.317-1.259,1.03,1.03,0,0,0-.892-.446,1.013,1.013,0,0,0-.881.444A2.417,2.417,0,0,0,35.6-2.849Z" transform="translate(823.051 3192)" fill="#12263f"/>
      <path id="Trazado_901277" data-name="Trazado 901277" d="M-26.428-6.515h-2.4V0h-1.611V-6.515H-32.8V-7.82h6.37ZM-23.147,0A1.724,1.724,0,0,1-23.3-.521a1.878,1.878,0,0,1-1.466.628,2.063,2.063,0,0,1-1.415-.494,1.589,1.589,0,0,1-.561-1.246,1.642,1.642,0,0,1,.685-1.418,3.379,3.379,0,0,1,1.979-.5h.714v-.333a.958.958,0,0,0-.207-.645.813.813,0,0,0-.653-.242.925.925,0,0,0-.615.188.639.639,0,0,0-.223.516h-1.552A1.559,1.559,0,0,1-26.3-5a2.059,2.059,0,0,1,.881-.674,3.21,3.21,0,0,1,1.278-.244,2.536,2.536,0,0,1,1.705.54,1.888,1.888,0,0,1,.631,1.517v2.519a2.778,2.778,0,0,0,.231,1.251V0ZM-24.43-1.08a1.337,1.337,0,0,0,.634-.153,1,1,0,0,0,.43-.411v-1h-.58q-1.166,0-1.241.806l-.005.091a.621.621,0,0,0,.2.478A.793.793,0,0,0-24.43-1.08Zm9.045-1.772A3.485,3.485,0,0,1-16-.7a1.955,1.955,0,0,1-1.646.808A1.811,1.811,0,0,1-19.065-.5V2.234h-1.552V-5.812h1.439l.054.569a1.824,1.824,0,0,1,1.472-.677,1.968,1.968,0,0,1,1.67.795,3.58,3.58,0,0,1,.6,2.191Zm-1.552-.118a2.3,2.3,0,0,0-.287-1.255.935.935,0,0,0-.835-.442,1.016,1.016,0,0,0-1,.56v2.387a1.033,1.033,0,0,0,1.015.576Q-16.938-1.144-16.938-2.97ZM-11.056,0a1.724,1.724,0,0,1-.156-.521,1.878,1.878,0,0,1-1.466.628,2.063,2.063,0,0,1-1.415-.494,1.589,1.589,0,0,1-.561-1.246,1.642,1.642,0,0,1,.685-1.418,3.379,3.379,0,0,1,1.979-.5h.714v-.333a.958.958,0,0,0-.207-.645.813.813,0,0,0-.653-.242.925.925,0,0,0-.615.188.639.639,0,0,0-.223.516h-1.552A1.559,1.559,0,0,1-14.215-5a2.059,2.059,0,0,1,.881-.674,3.21,3.21,0,0,1,1.278-.244,2.536,2.536,0,0,1,1.705.54,1.888,1.888,0,0,1,.631,1.517v2.519A2.778,2.778,0,0,0-9.488-.091V0ZM-12.34-1.08a1.337,1.337,0,0,0,.634-.153,1,1,0,0,0,.43-.411v-1h-.58q-1.166,0-1.241.806l-.005.091a.621.621,0,0,0,.2.478A.793.793,0,0,0-12.34-1.08Zm6.311-1.869a3.5,3.5,0,0,1,.61-2.165,1.978,1.978,0,0,1,1.668-.806,1.78,1.78,0,0,1,1.4.634V-8.25H-.792V0h-1.4l-.075-.618A1.827,1.827,0,0,1-3.762.107,1.973,1.973,0,0,1-5.409-.7,3.615,3.615,0,0,1-6.029-2.949Zm1.552.11a2.307,2.307,0,0,0,.285,1.257.927.927,0,0,0,.827.437,1.038,1.038,0,0,0,1.015-.61v-2.3a1.023,1.023,0,0,0-1-.61Q-4.477-4.667-4.477-2.838ZM3.086.107A2.853,2.853,0,0,1,1-.677,2.787,2.787,0,0,1,.2-2.766v-.15A3.511,3.511,0,0,1,.54-4.482,2.483,2.483,0,0,1,1.5-5.546a2.691,2.691,0,0,1,1.415-.373,2.412,2.412,0,0,1,1.877.752,3.056,3.056,0,0,1,.685,2.132V-2.4h-3.7a1.442,1.442,0,0,0,.454.913,1.372,1.372,0,0,0,.959.344,1.675,1.675,0,0,0,1.4-.65l.763.854a2.33,2.33,0,0,1-.945.771A3.1,3.1,0,0,1,3.086.107ZM2.908-4.667a.97.97,0,0,0-.749.313,1.62,1.62,0,0,0-.368.9H3.95v-.124a1.156,1.156,0,0,0-.279-.8A1,1,0,0,0,2.908-4.667ZM8.854-2.949a3.5,3.5,0,0,1,.61-2.165,1.978,1.978,0,0,1,1.668-.806,1.78,1.78,0,0,1,1.4.634V-8.25h1.558V0h-1.4l-.075-.618a1.827,1.827,0,0,1-1.493.725A1.973,1.973,0,0,1,9.475-.7,3.615,3.615,0,0,1,8.854-2.949Zm1.552.11a2.307,2.307,0,0,0,.285,1.257.927.927,0,0,0,.827.437,1.038,1.038,0,0,0,1.015-.61v-2.3a1.023,1.023,0,0,0-1-.61Q10.406-4.667,10.406-2.838ZM18.662,0a1.724,1.724,0,0,1-.156-.521A1.878,1.878,0,0,1,17.04.107a2.063,2.063,0,0,1-1.415-.494,1.589,1.589,0,0,1-.561-1.246,1.642,1.642,0,0,1,.685-1.418,3.379,3.379,0,0,1,1.979-.5h.714v-.333a.958.958,0,0,0-.207-.645.813.813,0,0,0-.653-.242.925.925,0,0,0-.615.188.639.639,0,0,0-.223.516H15.192A1.559,1.559,0,0,1,15.5-5a2.059,2.059,0,0,1,.881-.674,3.21,3.21,0,0,1,1.278-.244,2.536,2.536,0,0,1,1.705.54A1.888,1.888,0,0,1,20-3.862v2.519A2.778,2.778,0,0,0,20.23-.091V0ZM17.378-1.08a1.337,1.337,0,0,0,.634-.153,1,1,0,0,0,.43-.411v-1h-.58q-1.166,0-1.241.806l-.005.091a.621.621,0,0,0,.2.478A.793.793,0,0,0,17.378-1.08ZM20.95-2.949a3.5,3.5,0,0,1,.61-2.165,1.978,1.978,0,0,1,1.668-.806,1.78,1.78,0,0,1,1.4.634V-8.25h1.558V0h-1.4L24.71-.618a1.827,1.827,0,0,1-1.493.725A1.973,1.973,0,0,1,21.57-.7,3.615,3.615,0,0,1,20.95-2.949Zm1.552.11a2.307,2.307,0,0,0,.285,1.257.927.927,0,0,0,.827.437,1.038,1.038,0,0,0,1.015-.61v-2.3a1.023,1.023,0,0,0-1-.61Q22.5-4.667,22.5-2.838Zm4.646-.121A3.447,3.447,0,0,1,27.481-4.5a2.438,2.438,0,0,1,.959-1.047,2.8,2.8,0,0,1,1.453-.371,2.646,2.646,0,0,1,1.92.72,2.889,2.889,0,0,1,.83,1.955l.011.4A3.038,3.038,0,0,1,31.907-.7a2.6,2.6,0,0,1-2,.808A2.608,2.608,0,0,1,27.9-.7a3.091,3.091,0,0,1-.749-2.191Zm1.552.11a2.172,2.172,0,0,0,.312,1.267,1.028,1.028,0,0,0,.892.438,1.03,1.03,0,0,0,.881-.433A2.377,2.377,0,0,0,31.1-2.962a2.151,2.151,0,0,0-.317-1.259,1.03,1.03,0,0,0-.892-.446,1.013,1.013,0,0,0-.881.444A2.417,2.417,0,0,0,28.7-2.849Z" transform="translate(863.051 3360)" fill="#12263f"/>
      <path id="Trazado_901276" data-name="Trazado 901276" d="M-27.954-6.515h-2.4V0h-1.611V-6.515h-2.363V-7.82h6.37ZM-24.672,0a1.724,1.724,0,0,1-.156-.521,1.878,1.878,0,0,1-1.466.628,2.063,2.063,0,0,1-1.415-.494,1.589,1.589,0,0,1-.561-1.246,1.642,1.642,0,0,1,.685-1.418,3.379,3.379,0,0,1,1.979-.5h.714v-.333a.958.958,0,0,0-.207-.645.813.813,0,0,0-.653-.242.925.925,0,0,0-.615.188.639.639,0,0,0-.223.516h-1.552A1.559,1.559,0,0,1-27.83-5a2.059,2.059,0,0,1,.881-.674,3.21,3.21,0,0,1,1.278-.244,2.536,2.536,0,0,1,1.705.54,1.888,1.888,0,0,1,.631,1.517v2.519A2.778,2.778,0,0,0-23.1-.091V0Zm-1.284-1.08a1.337,1.337,0,0,0,.634-.153,1,1,0,0,0,.43-.411v-1h-.58q-1.166,0-1.241.806l-.005.091a.621.621,0,0,0,.2.478A.793.793,0,0,0-25.956-1.08Zm9.045-1.772A3.485,3.485,0,0,1-17.521-.7a1.955,1.955,0,0,1-1.646.808A1.811,1.811,0,0,1-20.59-.5V2.234h-1.552V-5.812H-20.7l.054.569a1.824,1.824,0,0,1,1.472-.677,1.968,1.968,0,0,1,1.67.795,3.58,3.58,0,0,1,.6,2.191Zm-1.552-.118a2.3,2.3,0,0,0-.287-1.255.935.935,0,0,0-.835-.442,1.016,1.016,0,0,0-1,.56v2.387a1.033,1.033,0,0,0,1.015.576Q-18.463-1.144-18.463-2.97ZM-12.582,0a1.724,1.724,0,0,1-.156-.521A1.878,1.878,0,0,1-14.2.107a2.063,2.063,0,0,1-1.415-.494,1.589,1.589,0,0,1-.561-1.246A1.642,1.642,0,0,1-15.5-3.051a3.379,3.379,0,0,1,1.979-.5h.714v-.333a.958.958,0,0,0-.207-.645.813.813,0,0,0-.653-.242.925.925,0,0,0-.615.188.639.639,0,0,0-.223.516h-1.552A1.559,1.559,0,0,1-15.74-5a2.059,2.059,0,0,1,.881-.674,3.21,3.21,0,0,1,1.278-.244,2.536,2.536,0,0,1,1.705.54,1.888,1.888,0,0,1,.631,1.517v2.519a2.778,2.778,0,0,0,.231,1.251V0Zm-1.284-1.08a1.337,1.337,0,0,0,.634-.153,1,1,0,0,0,.43-.411v-1h-.58q-1.166,0-1.241.806l-.005.091a.621.621,0,0,0,.2.478A.793.793,0,0,0-13.865-1.08ZM-5.143-2.2l1.074-3.615H-2.4L-4.74.9l-.129.306A1.771,1.771,0,0,1-6.588,2.347a2.442,2.442,0,0,1-.687-.1V1.069l.236.005A1.277,1.277,0,0,0-6.381.94.882.882,0,0,0-6.04.494l.183-.478L-7.893-5.812h1.67ZM6.179-2.852A3.485,3.485,0,0,1,5.57-.7,1.955,1.955,0,0,1,3.924.107,1.811,1.811,0,0,1,2.5-.5V2.234H.948V-5.812H2.387l.054.569a1.824,1.824,0,0,1,1.472-.677,1.968,1.968,0,0,1,1.67.795,3.58,3.58,0,0,1,.6,2.191ZM4.627-2.97A2.3,2.3,0,0,0,4.34-4.226.935.935,0,0,0,3.5-4.667a1.016,1.016,0,0,0-1,.56v2.387a1.033,1.033,0,0,0,1.015.576Q4.627-1.144,4.627-2.97ZM9.816.107A2.853,2.853,0,0,1,7.734-.677a2.787,2.787,0,0,1-.8-2.089v-.15A3.511,3.511,0,0,1,7.27-4.482a2.483,2.483,0,0,1,.959-1.063,2.691,2.691,0,0,1,1.415-.373,2.412,2.412,0,0,1,1.877.752,3.056,3.056,0,0,1,.685,2.132V-2.4h-3.7a1.442,1.442,0,0,0,.454.913,1.372,1.372,0,0,0,.959.344,1.675,1.675,0,0,0,1.4-.65l.763.854a2.33,2.33,0,0,1-.945.771A3.1,3.1,0,0,1,9.816.107ZM9.638-4.667a.97.97,0,0,0-.749.313,1.62,1.62,0,0,0-.368.9H10.68v-.124a1.156,1.156,0,0,0-.279-.8A1,1,0,0,0,9.638-4.667Zm6.714.312a4.217,4.217,0,0,0-.559-.043,1.137,1.137,0,0,0-1.155.6V0H13.087V-5.812h1.466l.043.693a1.438,1.438,0,0,1,1.294-.8,1.626,1.626,0,0,1,.483.07Zm2.175-1.456.048.671a2.029,2.029,0,0,1,1.67-.779,1.686,1.686,0,0,1,1.375.542,2.531,2.531,0,0,1,.462,1.622V0H20.531V-3.725a1.011,1.011,0,0,0-.215-.719.96.96,0,0,0-.714-.223,1.067,1.067,0,0,0-.983.56V0H17.067V-5.812Zm4.49,2.852A3.447,3.447,0,0,1,23.351-4.5a2.438,2.438,0,0,1,.959-1.047,2.8,2.8,0,0,1,1.453-.371,2.646,2.646,0,0,1,1.92.72,2.889,2.889,0,0,1,.83,1.955l.011.4A3.038,3.038,0,0,1,27.777-.7a2.6,2.6,0,0,1-2,.808A2.608,2.608,0,0,1,23.767-.7a3.091,3.091,0,0,1-.749-2.191Zm1.552.11a2.172,2.172,0,0,0,.312,1.267,1.028,1.028,0,0,0,.892.438,1.03,1.03,0,0,0,.881-.433,2.377,2.377,0,0,0,.317-1.385,2.151,2.151,0,0,0-.317-1.259,1.03,1.03,0,0,0-.892-.446,1.013,1.013,0,0,0-.881.444A2.417,2.417,0,0,0,24.57-2.849Zm8.057,1.243a.5.5,0,0,0-.282-.448,3.2,3.2,0,0,0-.905-.293q-2.073-.435-2.073-1.762A1.6,1.6,0,0,1,30.008-5.4a2.589,2.589,0,0,1,1.678-.518,2.787,2.787,0,0,1,1.77.521,1.642,1.642,0,0,1,.663,1.354H32.568a.751.751,0,0,0-.215-.551.909.909,0,0,0-.671-.218.929.929,0,0,0-.607.177.56.56,0,0,0-.215.451.478.478,0,0,0,.244.416,2.514,2.514,0,0,0,.824.274,6.734,6.734,0,0,1,.978.26,1.606,1.606,0,0,1,1.23,1.563,1.516,1.516,0,0,1-.682,1.286,2.943,2.943,0,0,1-1.762.491,3.073,3.073,0,0,1-1.3-.26,2.176,2.176,0,0,1-.889-.714,1.66,1.66,0,0,1-.322-.98h1.472a.81.81,0,0,0,.306.634,1.214,1.214,0,0,0,.763.22,1.124,1.124,0,0,0,.674-.169A.526.526,0,0,0,32.627-1.606Z" transform="translate(990.051 3283)" fill="#12263f"/>
      <path id="Trazado_901275" data-name="Trazado 901275" d="M-29.283-2.755V0h-1.611V-7.82h3.051a3.53,3.53,0,0,1,1.55.322,2.375,2.375,0,0,1,1.029.916,2.553,2.553,0,0,1,.36,1.351,2.245,2.245,0,0,1-.787,1.813,3.277,3.277,0,0,1-2.178.663Zm0-1.305h1.439a1.415,1.415,0,0,0,.975-.3,1.094,1.094,0,0,0,.336-.859,1.29,1.29,0,0,0-.338-.929,1.264,1.264,0,0,0-.935-.365h-1.477ZM-21.3.107a2.853,2.853,0,0,1-2.081-.784,2.787,2.787,0,0,1-.8-2.089v-.15a3.511,3.511,0,0,1,.338-1.566,2.483,2.483,0,0,1,.959-1.063,2.691,2.691,0,0,1,1.415-.373,2.412,2.412,0,0,1,1.877.752,3.056,3.056,0,0,1,.685,2.132V-2.4h-3.7a1.442,1.442,0,0,0,.454.913,1.372,1.372,0,0,0,.959.344,1.675,1.675,0,0,0,1.4-.65l.763.854a2.33,2.33,0,0,1-.945.771A3.1,3.1,0,0,1-21.3.107Zm-.177-4.775a.97.97,0,0,0-.749.313,1.62,1.62,0,0,0-.368.9h2.159v-.124a1.156,1.156,0,0,0-.279-.8A1,1,0,0,0-21.474-4.667Zm6.714.312a4.217,4.217,0,0,0-.559-.043,1.137,1.137,0,0,0-1.155.6V0h-1.552V-5.812h1.466l.043.693a1.438,1.438,0,0,1,1.294-.8,1.626,1.626,0,0,1,.483.07Zm2.175-1.456.048.671a2.029,2.029,0,0,1,1.67-.779,1.686,1.686,0,0,1,1.375.542,2.531,2.531,0,0,1,.462,1.622V0h-1.552V-3.725a1.011,1.011,0,0,0-.215-.719.96.96,0,0,0-.714-.223,1.067,1.067,0,0,0-.983.56V0h-1.552V-5.812Zm4.49,2.852A3.447,3.447,0,0,1-7.761-4.5,2.438,2.438,0,0,1-6.8-5.548,2.8,2.8,0,0,1-5.35-5.919a2.646,2.646,0,0,1,1.92.72A2.889,2.889,0,0,1-2.6-3.244l.011.4A3.038,3.038,0,0,1-3.335-.7a2.6,2.6,0,0,1-2,.808A2.608,2.608,0,0,1-7.345-.7,3.091,3.091,0,0,1-8.094-2.89Zm1.552.11A2.172,2.172,0,0,0-6.23-1.582a1.028,1.028,0,0,0,.892.438,1.03,1.03,0,0,0,.881-.433,2.377,2.377,0,0,0,.317-1.385,2.151,2.151,0,0,0-.317-1.259,1.03,1.03,0,0,0-.892-.446,1.013,1.013,0,0,0-.881.444A2.417,2.417,0,0,0-6.542-2.849Zm7.407-.1a3.5,3.5,0,0,1,.61-2.165,1.978,1.978,0,0,1,1.668-.806,1.78,1.78,0,0,1,1.4.634V-8.25H6.1V0H4.7L4.625-.618A1.827,1.827,0,0,1,3.131.107,1.973,1.973,0,0,1,1.485-.7,3.615,3.615,0,0,1,.865-2.949Zm1.552.11A2.307,2.307,0,0,0,2.7-1.581a.927.927,0,0,0,.827.437,1.038,1.038,0,0,0,1.015-.61v-2.3a1.023,1.023,0,0,0-1-.61Q2.417-4.667,2.417-2.838ZM9.979.107A2.853,2.853,0,0,1,7.9-.677a2.787,2.787,0,0,1-.8-2.089v-.15a3.511,3.511,0,0,1,.338-1.566,2.483,2.483,0,0,1,.959-1.063,2.691,2.691,0,0,1,1.415-.373,2.412,2.412,0,0,1,1.877.752,3.056,3.056,0,0,1,.685,2.132V-2.4h-3.7a1.442,1.442,0,0,0,.454.913,1.372,1.372,0,0,0,.959.344,1.675,1.675,0,0,0,1.4-.65l.763.854a2.33,2.33,0,0,1-.945.771A3.1,3.1,0,0,1,9.979.107ZM9.8-4.667a.97.97,0,0,0-.749.313,1.62,1.62,0,0,0-.368.9h2.159v-.124a1.156,1.156,0,0,0-.279-.8A1,1,0,0,0,9.8-4.667Zm7.17-3.765.73.424a2.865,2.865,0,0,0-.478,1.482v.9H16v-.806a2.446,2.446,0,0,1,.282-1.077A2.808,2.808,0,0,1,16.973-8.433Zm1.842,0,.73.424a2.865,2.865,0,0,0-.478,1.482v.9h-1.23v-.806a2.446,2.446,0,0,1,.282-1.077A2.808,2.808,0,0,1,18.815-8.433Zm7.659.612v5.151a2.637,2.637,0,0,1-.8,2.03,3.1,3.1,0,0,1-2.194.747A3.131,3.131,0,0,1,21.3-.618,2.592,2.592,0,0,1,20.48-2.61V-7.82h1.611v5.162a1.49,1.49,0,0,0,.368,1.12,1.412,1.412,0,0,0,1.018.352q1.359,0,1.38-1.429v-5.2Zm1.74,2.4-.73-.424a2.868,2.868,0,0,0,.478-1.5V-8.25H29.2v.833a2.454,2.454,0,0,1-.269,1.047A2.879,2.879,0,0,1,28.214-5.419Zm1.864,0-.73-.424a2.868,2.868,0,0,0,.478-1.5V-8.25h1.235v.833a2.454,2.454,0,0,1-.269,1.047A2.879,2.879,0,0,1,30.078-5.419Z" transform="translate(1157.051 3387)" fill="#12263f"/>
      <path id="Trazado_901274" data-name="Trazado 901274" d="M-12.034,0V-7.82h2.406a3.654,3.654,0,0,1,1.845.465,3.24,3.24,0,0,1,1.27,1.321,4.075,4.075,0,0,1,.457,1.947v.36A4.087,4.087,0,0,1-6.5-1.789,3.212,3.212,0,0,1-7.769-.473,3.682,3.682,0,0,1-9.612,0Zm1.611-6.515v5.221h.779A1.75,1.75,0,0,0-8.2-1.912a2.791,2.791,0,0,0,.51-1.767v-.414A2.836,2.836,0,0,0-8.183-5.9a1.744,1.744,0,0,0-1.445-.615ZM-1.619,0a1.724,1.724,0,0,1-.156-.521A1.878,1.878,0,0,1-3.241.107,2.063,2.063,0,0,1-4.657-.387a1.589,1.589,0,0,1-.561-1.246,1.642,1.642,0,0,1,.685-1.418,3.379,3.379,0,0,1,1.979-.5h.714v-.333a.958.958,0,0,0-.207-.645A.813.813,0,0,0-2.7-4.77a.925.925,0,0,0-.615.188.639.639,0,0,0-.223.516H-5.089A1.559,1.559,0,0,1-4.778-5,2.059,2.059,0,0,1-3.9-5.675a3.21,3.21,0,0,1,1.278-.244,2.536,2.536,0,0,1,1.705.54A1.888,1.888,0,0,1-.282-3.862v2.519A2.778,2.778,0,0,0-.051-.091V0ZM-2.9-1.08a1.337,1.337,0,0,0,.634-.153,1,1,0,0,0,.43-.411v-1h-.58q-1.166,0-1.241.806l-.005.091a.621.621,0,0,0,.2.478A.793.793,0,0,0-2.9-1.08ZM.669-2.949a3.5,3.5,0,0,1,.61-2.165,1.978,1.978,0,0,1,1.668-.806,1.78,1.78,0,0,1,1.4.634V-8.25H5.906V0H4.5L4.428-.618A1.827,1.827,0,0,1,2.935.107,1.973,1.973,0,0,1,1.289-.7,3.615,3.615,0,0,1,.669-2.949Zm1.552.11a2.307,2.307,0,0,0,.285,1.257.927.927,0,0,0,.827.437,1.038,1.038,0,0,0,1.015-.61v-2.3a1.023,1.023,0,0,0-1-.61Q2.221-4.667,2.221-2.838Zm4.646-.121A3.447,3.447,0,0,1,7.2-4.5a2.438,2.438,0,0,1,.959-1.047,2.8,2.8,0,0,1,1.453-.371,2.646,2.646,0,0,1,1.92.72,2.889,2.889,0,0,1,.83,1.955l.011.4A3.038,3.038,0,0,1,11.626-.7a2.6,2.6,0,0,1-2,.808A2.608,2.608,0,0,1,7.616-.7,3.091,3.091,0,0,1,6.867-2.89Zm1.552.11a2.172,2.172,0,0,0,.312,1.267,1.028,1.028,0,0,0,.892.438,1.03,1.03,0,0,0,.881-.433,2.377,2.377,0,0,0,.317-1.385A2.151,2.151,0,0,0,10.5-4.221a1.03,1.03,0,0,0-.892-.446,1.013,1.013,0,0,0-.881.444A2.417,2.417,0,0,0,8.419-2.849Z" transform="translate(1137.051 3192)" fill="#12263f"/>
      <path id="Trazado_901273" data-name="Trazado 901273" d="M-31.389-1.611h-2.825L-34.751,0h-1.713l2.911-7.82h1.493L-29.133,0h-1.713Zm-2.39-1.305h1.955l-.983-2.927Zm6.445-2.9.048.671a2.029,2.029,0,0,1,1.67-.779,1.686,1.686,0,0,1,1.375.542,2.531,2.531,0,0,1,.462,1.622V0H-25.33V-3.725a1.011,1.011,0,0,0-.215-.719.96.96,0,0,0-.714-.223,1.067,1.067,0,0,0-.983.56V0h-1.552V-5.812ZM-20.963,0h-1.558V-5.812h1.558Zm-1.649-7.315a.764.764,0,0,1,.234-.575.878.878,0,0,1,.636-.226.88.88,0,0,1,.634.226.76.76,0,0,1,.236.575.762.762,0,0,1-.239.58.882.882,0,0,1-.631.226.882.882,0,0,1-.631-.226A.762.762,0,0,1-22.612-7.315ZM-18.047,0H-19.6V-8.25h1.558Zm2.917,0h-1.558V-8.25h1.558Zm1.037-2.959A3.447,3.447,0,0,1-13.761-4.5,2.438,2.438,0,0,1-12.8-5.548a2.8,2.8,0,0,1,1.453-.371,2.646,2.646,0,0,1,1.92.72A2.889,2.889,0,0,1-8.6-3.244l.011.4A3.038,3.038,0,0,1-9.335-.7a2.6,2.6,0,0,1-2,.808A2.608,2.608,0,0,1-13.344-.7a3.091,3.091,0,0,1-.749-2.191Zm1.552.11a2.172,2.172,0,0,0,.312,1.267,1.028,1.028,0,0,0,.892.438,1.03,1.03,0,0,0,.881-.433,2.377,2.377,0,0,0,.317-1.385,2.151,2.151,0,0,0-.317-1.259,1.03,1.03,0,0,0-.892-.446,1.013,1.013,0,0,0-.881.444A2.417,2.417,0,0,0-12.542-2.849Zm12.88,0A3.485,3.485,0,0,1-.271-.7,1.955,1.955,0,0,1-1.917.107,1.811,1.811,0,0,1-3.341-.5V2.234H-4.893V-5.812h1.439l.054.569a1.824,1.824,0,0,1,1.472-.677,1.968,1.968,0,0,1,1.67.795,3.58,3.58,0,0,1,.6,2.191ZM-1.214-2.97A2.3,2.3,0,0,0-1.5-4.226a.935.935,0,0,0-.835-.442,1.016,1.016,0,0,0-1,.56v2.387a1.033,1.033,0,0,0,1.015.576Q-1.214-1.144-1.214-2.97ZM2.938,0H1.38V-8.25H2.938ZM7.584,0a1.724,1.724,0,0,1-.156-.521A1.878,1.878,0,0,1,5.962.107,2.063,2.063,0,0,1,4.547-.387a1.589,1.589,0,0,1-.561-1.246A1.642,1.642,0,0,1,4.67-3.051a3.379,3.379,0,0,1,1.979-.5h.714v-.333a.958.958,0,0,0-.207-.645A.813.813,0,0,0,6.5-4.77a.925.925,0,0,0-.615.188.639.639,0,0,0-.223.516H4.114A1.559,1.559,0,0,1,4.426-5a2.059,2.059,0,0,1,.881-.674,3.21,3.21,0,0,1,1.278-.244,2.536,2.536,0,0,1,1.705.54,1.888,1.888,0,0,1,.631,1.517v2.519A2.778,2.778,0,0,0,9.152-.091V0ZM6.3-1.08a1.337,1.337,0,0,0,.634-.153,1,1,0,0,0,.43-.411v-1h-.58q-1.166,0-1.241.806l-.005.091a.621.621,0,0,0,.2.478A.793.793,0,0,0,6.3-1.08Zm.591-7.17H8.583L7.1-6.585H5.833Zm6.37,6.644a.5.5,0,0,0-.282-.448,3.2,3.2,0,0,0-.905-.293Q10-2.782,10-4.109A1.6,1.6,0,0,1,10.643-5.4a2.589,2.589,0,0,1,1.678-.518,2.787,2.787,0,0,1,1.77.521,1.642,1.642,0,0,1,.663,1.354H13.2a.751.751,0,0,0-.215-.551.909.909,0,0,0-.671-.218.929.929,0,0,0-.607.177.56.56,0,0,0-.215.451.478.478,0,0,0,.244.416,2.514,2.514,0,0,0,.824.274,6.734,6.734,0,0,1,.978.26,1.606,1.606,0,0,1,1.23,1.563,1.516,1.516,0,0,1-.682,1.286,2.943,2.943,0,0,1-1.762.491,3.073,3.073,0,0,1-1.3-.26,2.176,2.176,0,0,1-.889-.714,1.66,1.66,0,0,1-.322-.98H11.29a.81.81,0,0,0,.306.634,1.214,1.214,0,0,0,.763.22,1.124,1.124,0,0,0,.674-.169A.526.526,0,0,0,13.261-1.606ZM17.628-7.24v1.429h.994v1.139h-.994v2.9a.693.693,0,0,0,.124.462.62.62,0,0,0,.473.14,2.475,2.475,0,0,0,.457-.038V-.032a3.2,3.2,0,0,1-.94.14,1.482,1.482,0,0,1-1.665-1.649V-4.673h-.849V-5.812h.849V-7.24ZM21.125,0H19.567V-5.812h1.558ZM19.476-7.315a.764.764,0,0,1,.234-.575.878.878,0,0,1,.636-.226.88.88,0,0,1,.634.226.76.76,0,0,1,.236.575.762.762,0,0,1-.239.58.882.882,0,0,1-.631.226.882.882,0,0,1-.631-.226A.762.762,0,0,1,19.476-7.315ZM24.82-1.144a1.018,1.018,0,0,0,.7-.236.828.828,0,0,0,.279-.628h1.456a1.991,1.991,0,0,1-.322,1.082,2.126,2.126,0,0,1-.867.763,2.715,2.715,0,0,1-1.217.271,2.523,2.523,0,0,1-1.966-.792,3.135,3.135,0,0,1-.72-2.189v-.1a3.1,3.1,0,0,1,.714-2.143,2.494,2.494,0,0,1,1.96-.8,2.444,2.444,0,0,1,1.748.62,2.2,2.2,0,0,1,.669,1.652H25.8a1.067,1.067,0,0,0-.279-.737.931.931,0,0,0-.709-.283.935.935,0,0,0-.819.4,2.291,2.291,0,0,0-.277,1.283v.161a2.32,2.32,0,0,0,.274,1.291A.947.947,0,0,0,24.82-1.144ZM27.9-2.959A3.447,3.447,0,0,1,28.23-4.5a2.438,2.438,0,0,1,.959-1.047,2.8,2.8,0,0,1,1.453-.371,2.646,2.646,0,0,1,1.92.72,2.889,2.889,0,0,1,.83,1.955l.011.4A3.038,3.038,0,0,1,32.656-.7a2.6,2.6,0,0,1-2,.808A2.608,2.608,0,0,1,28.647-.7,3.091,3.091,0,0,1,27.9-2.89Zm1.552.11a2.172,2.172,0,0,0,.312,1.267,1.028,1.028,0,0,0,.892.438,1.03,1.03,0,0,0,.881-.433,2.377,2.377,0,0,0,.317-1.385,2.151,2.151,0,0,0-.317-1.259,1.03,1.03,0,0,0-.892-.446,1.013,1.013,0,0,0-.881.444A2.417,2.417,0,0,0,29.45-2.849ZM-21.887,11h-1.558V5.188h1.558Zm-1.649-7.315A.764.764,0,0,1-23.3,3.11a.878.878,0,0,1,.636-.226.88.88,0,0,1,.634.226.76.76,0,0,1,.236.575.762.762,0,0,1-.239.58.882.882,0,0,1-.631.226.882.882,0,0,1-.631-.226A.762.762,0,0,1-23.536,3.685Zm4.356,1.5.048.671a2.029,2.029,0,0,1,1.67-.779,1.686,1.686,0,0,1,1.375.542,2.531,2.531,0,0,1,.462,1.622V11h-1.552V7.275a1.011,1.011,0,0,0-.215-.719.96.96,0,0,0-.714-.223,1.067,1.067,0,0,0-.983.56V11h-1.552V5.188Zm6.9,3.615L-11.2,5.188h1.665L-11.875,11.9l-.129.306a1.771,1.771,0,0,1-1.719,1.139,2.442,2.442,0,0,1-.687-.1V12.069l.236.005a1.277,1.277,0,0,0,.658-.134.882.882,0,0,0,.341-.446l.183-.478-2.036-5.828h1.67Zm5.957,2.3A2.853,2.853,0,0,1-8.4,10.323a2.787,2.787,0,0,1-.8-2.089v-.15a3.511,3.511,0,0,1,.338-1.566,2.483,2.483,0,0,1,.959-1.063,2.691,2.691,0,0,1,1.415-.373,2.412,2.412,0,0,1,1.877.752,3.056,3.056,0,0,1,.685,2.132V8.6h-3.7a1.442,1.442,0,0,0,.454.913,1.372,1.372,0,0,0,.959.344,1.675,1.675,0,0,0,1.4-.65l.763.854A2.33,2.33,0,0,1-5,10.831,3.1,3.1,0,0,1-6.322,11.107ZM-6.5,6.333a.97.97,0,0,0-.749.313,1.62,1.62,0,0,0-.368.9h2.159V7.417a1.156,1.156,0,0,0-.279-.8A1,1,0,0,0-6.5,6.333ZM-.634,9.856a1.018,1.018,0,0,0,.7-.236.828.828,0,0,0,.279-.628H1.8a1.991,1.991,0,0,1-.322,1.082,2.126,2.126,0,0,1-.867.763,2.715,2.715,0,0,1-1.217.271,2.523,2.523,0,0,1-1.966-.792,3.135,3.135,0,0,1-.72-2.189v-.1a3.1,3.1,0,0,1,.714-2.143,2.494,2.494,0,0,1,1.96-.8,2.444,2.444,0,0,1,1.748.62A2.2,2.2,0,0,1,1.8,7.353H.344a1.067,1.067,0,0,0-.279-.737.931.931,0,0,0-.709-.283.935.935,0,0,0-.819.4A2.291,2.291,0,0,0-1.74,8.011v.161a2.32,2.32,0,0,0,.274,1.291A.947.947,0,0,0-.634,9.856Zm5.178-6.1V5.188h.994V6.327H4.544v2.9a.693.693,0,0,0,.124.462.62.62,0,0,0,.473.14A2.475,2.475,0,0,0,5.6,9.792v1.176a3.2,3.2,0,0,1-.94.14A1.482,1.482,0,0,1,2.992,9.458V6.327H2.143V5.188h.849V3.76ZM9.77,11a1.724,1.724,0,0,1-.156-.521,1.878,1.878,0,0,1-1.466.628,2.063,2.063,0,0,1-1.415-.494,1.589,1.589,0,0,1-.561-1.246,1.642,1.642,0,0,1,.685-1.418,3.379,3.379,0,0,1,1.979-.5H9.55V7.117a.958.958,0,0,0-.207-.645A.813.813,0,0,0,8.69,6.23a.925.925,0,0,0-.615.188.639.639,0,0,0-.223.516H6.3A1.559,1.559,0,0,1,6.612,6a2.059,2.059,0,0,1,.881-.674,3.21,3.21,0,0,1,1.278-.244,2.536,2.536,0,0,1,1.705.54,1.888,1.888,0,0,1,.631,1.517V9.657a2.778,2.778,0,0,0,.231,1.251V11ZM8.486,9.92a1.337,1.337,0,0,0,.634-.153,1,1,0,0,0,.43-.411v-1H8.97q-1.166,0-1.241.806l-.005.091a.621.621,0,0,0,.2.478A.793.793,0,0,0,8.486,9.92Zm3.572-1.869a3.5,3.5,0,0,1,.61-2.165,1.978,1.978,0,0,1,1.668-.806,1.78,1.78,0,0,1,1.4.634V2.75h1.558V11h-1.4l-.075-.618a1.827,1.827,0,0,1-1.493.725,1.973,1.973,0,0,1-1.646-.808A3.615,3.615,0,0,1,12.058,8.051Zm1.552.11A2.307,2.307,0,0,0,13.9,9.419a.927.927,0,0,0,.827.437,1.038,1.038,0,0,0,1.015-.61v-2.3a1.023,1.023,0,0,0-1-.61Q13.61,6.333,13.61,8.162Zm4.646-.121A3.447,3.447,0,0,1,18.589,6.5a2.438,2.438,0,0,1,.959-1.047A2.8,2.8,0,0,1,21,5.081a2.646,2.646,0,0,1,1.92.72,2.889,2.889,0,0,1,.83,1.955l.011.4a3.038,3.038,0,0,1-.747,2.146,2.6,2.6,0,0,1-2,.808,2.608,2.608,0,0,1-2.006-.806,3.091,3.091,0,0,1-.749-2.191Zm1.552.11a2.172,2.172,0,0,0,.312,1.267,1.119,1.119,0,0,0,1.772.005,2.377,2.377,0,0,0,.317-1.385,2.151,2.151,0,0,0-.317-1.259A1.03,1.03,0,0,0,21,6.333a1.013,1.013,0,0,0-.881.444A2.417,2.417,0,0,0,19.809,8.151Z" transform="translate(1182.051 3128)" fill="#12263f"/>
      <path id="Trazado_901272" data-name="Trazado 901272" d="M-43.355-3.733a4.721,4.721,0,0,1-.408,2.025A3.074,3.074,0,0,1-44.932-.365a3.232,3.232,0,0,1-1.743.473A3.253,3.253,0,0,1-48.41-.36a3.1,3.1,0,0,1-1.182-1.335,4.586,4.586,0,0,1-.424-2v-.387A4.7,4.7,0,0,1-49.6-6.11a3.1,3.1,0,0,1,1.176-1.348,3.236,3.236,0,0,1,1.738-.47,3.236,3.236,0,0,1,1.738.47A3.1,3.1,0,0,1-43.772-6.11a4.683,4.683,0,0,1,.416,2.028Zm-1.633-.354a3.291,3.291,0,0,0-.44-1.869A1.435,1.435,0,0,0-46.686-6.6a1.436,1.436,0,0,0-1.251.631,3.253,3.253,0,0,0-.446,1.85v.381a3.332,3.332,0,0,0,.44,1.858,1.432,1.432,0,0,0,1.268.661,1.419,1.419,0,0,0,1.246-.636,3.313,3.313,0,0,0,.44-1.856Zm5.967-.269A4.217,4.217,0,0,0-39.58-4.4a1.137,1.137,0,0,0-1.155.6V0h-1.552V-5.812h1.466l.043.693a1.438,1.438,0,0,1,1.294-.8,1.626,1.626,0,0,1,.483.07ZM-36.636,0h-1.558V-5.812h1.558Zm-1.649-7.315a.764.764,0,0,1,.234-.575.878.878,0,0,1,.636-.226.88.88,0,0,1,.634.226.76.76,0,0,1,.236.575.762.762,0,0,1-.239.58.882.882,0,0,1-.631.226.882.882,0,0,1-.631-.226A.762.762,0,0,1-38.285-7.315ZM-34.982,0V-4.673h-.865V-5.812h.865V-6.08a2.179,2.179,0,0,1,.674-1.689,2.712,2.712,0,0,1,1.872-.594,6.209,6.209,0,0,1,1.762.317L-30.9-6.762a6.874,6.874,0,0,0-.816-.2,4.011,4.011,0,0,0-.623-.046q-1.085,0-1.085.961v.236h1.144v1.139h-1.144V0Zm5.033,0h-1.558V-5.812h1.558Zm3.7-1.144a1.018,1.018,0,0,0,.7-.236.828.828,0,0,0,.279-.628h1.456a1.991,1.991,0,0,1-.322,1.082,2.126,2.126,0,0,1-.867.763,2.715,2.715,0,0,1-1.217.271,2.523,2.523,0,0,1-1.966-.792,3.135,3.135,0,0,1-.72-2.189v-.1a3.1,3.1,0,0,1,.714-2.143,2.494,2.494,0,0,1,1.96-.8,2.444,2.444,0,0,1,1.748.62,2.2,2.2,0,0,1,.669,1.652h-1.456a1.067,1.067,0,0,0-.279-.737.931.931,0,0,0-.709-.283.935.935,0,0,0-.819.4,2.291,2.291,0,0,0-.277,1.283v.161a2.32,2.32,0,0,0,.274,1.291A.947.947,0,0,0-26.249-1.144ZM-21.291,0h-1.558V-5.812h1.558ZM-22.94-7.315a.764.764,0,0,1,.234-.575.878.878,0,0,1,.636-.226.88.88,0,0,1,.634.226.76.76,0,0,1,.236.575.762.762,0,0,1-.239.58.882.882,0,0,1-.631.226.882.882,0,0,1-.631-.226A.762.762,0,0,1-22.94-7.315Zm2.686,4.356A3.447,3.447,0,0,1-19.921-4.5a2.438,2.438,0,0,1,.959-1.047,2.8,2.8,0,0,1,1.453-.371,2.646,2.646,0,0,1,1.92.72,2.889,2.889,0,0,1,.83,1.955l.011.4A3.038,3.038,0,0,1-15.5-.7a2.6,2.6,0,0,1-2,.808A2.608,2.608,0,0,1-19.505-.7a3.091,3.091,0,0,1-.749-2.191Zm1.552.11a2.172,2.172,0,0,0,.312,1.267,1.028,1.028,0,0,0,.892.438,1.03,1.03,0,0,0,.881-.433A2.377,2.377,0,0,0-16.3-2.962a2.151,2.151,0,0,0-.317-1.259,1.03,1.03,0,0,0-.892-.446,1.013,1.013,0,0,0-.881.444A2.417,2.417,0,0,0-18.7-2.849Zm7.407-.1a3.5,3.5,0,0,1,.61-2.165,1.978,1.978,0,0,1,1.668-.806,1.78,1.78,0,0,1,1.4.634V-8.25h1.558V0h-1.4l-.075-.618A1.827,1.827,0,0,1-9.029.107,1.973,1.973,0,0,1-10.675-.7,3.615,3.615,0,0,1-11.3-2.949Zm1.552.11a2.307,2.307,0,0,0,.285,1.257.927.927,0,0,0,.827.437,1.038,1.038,0,0,0,1.015-.61v-2.3a1.023,1.023,0,0,0-1-.61Q-9.743-4.667-9.743-2.838ZM-2.181.107A2.853,2.853,0,0,1-4.262-.677a2.787,2.787,0,0,1-.8-2.089v-.15a3.511,3.511,0,0,1,.338-1.566,2.483,2.483,0,0,1,.959-1.063,2.691,2.691,0,0,1,1.415-.373,2.412,2.412,0,0,1,1.877.752A3.056,3.056,0,0,1,.209-3.035V-2.4h-3.7a1.442,1.442,0,0,0,.454.913,1.372,1.372,0,0,0,.959.344,1.675,1.675,0,0,0,1.4-.65L.086-.94a2.33,2.33,0,0,1-.945.771A3.1,3.1,0,0,1-2.181.107Zm-.177-4.775a.97.97,0,0,0-.749.313,1.62,1.62,0,0,0-.368.9h2.159v-.124a1.156,1.156,0,0,0-.279-.8A1,1,0,0,0-2.358-4.667ZM5.468,0H3.91V-5.812H5.468ZM3.819-7.315a.764.764,0,0,1,.234-.575.878.878,0,0,1,.636-.226.88.88,0,0,1,.634.226.76.76,0,0,1,.236.575.762.762,0,0,1-.239.58.882.882,0,0,1-.631.226.882.882,0,0,1-.631-.226A.762.762,0,0,1,3.819-7.315Zm4.356,1.5.048.671a2.029,2.029,0,0,1,1.67-.779,1.686,1.686,0,0,1,1.375.542,2.531,2.531,0,0,1,.462,1.622V0H10.178V-3.725a1.011,1.011,0,0,0-.215-.719.96.96,0,0,0-.714-.223,1.067,1.067,0,0,0-.983.56V0H6.714V-5.812Zm6.9,3.615,1.074-3.615h1.665L15.479.9l-.129.306a1.771,1.771,0,0,1-1.719,1.139,2.442,2.442,0,0,1-.687-.1V1.069l.236.005A1.277,1.277,0,0,0,13.839.94.882.882,0,0,0,14.18.494l.183-.478L12.327-5.812H14Zm5.957,2.3a2.853,2.853,0,0,1-2.081-.784,2.787,2.787,0,0,1-.8-2.089v-.15a3.511,3.511,0,0,1,.338-1.566,2.483,2.483,0,0,1,.959-1.063,2.691,2.691,0,0,1,1.415-.373,2.412,2.412,0,0,1,1.877.752,3.056,3.056,0,0,1,.685,2.132V-2.4h-3.7a1.442,1.442,0,0,0,.454.913,1.372,1.372,0,0,0,.959.344,1.675,1.675,0,0,0,1.4-.65L23.3-.94a2.33,2.33,0,0,1-.945.771A3.1,3.1,0,0,1,21.033.107Zm-.177-4.775a.97.97,0,0,0-.749.313,1.62,1.62,0,0,0-.368.9H21.9v-.124a1.156,1.156,0,0,0-.279-.8A1,1,0,0,0,20.856-4.667Zm5.865,3.523a1.018,1.018,0,0,0,.7-.236.828.828,0,0,0,.279-.628h1.456a1.991,1.991,0,0,1-.322,1.082,2.126,2.126,0,0,1-.867.763,2.715,2.715,0,0,1-1.217.271,2.523,2.523,0,0,1-1.966-.792,3.135,3.135,0,0,1-.72-2.189v-.1a3.1,3.1,0,0,1,.714-2.143,2.494,2.494,0,0,1,1.96-.8,2.444,2.444,0,0,1,1.748.62,2.2,2.2,0,0,1,.669,1.652H27.7a1.067,1.067,0,0,0-.279-.737.931.931,0,0,0-.709-.283.935.935,0,0,0-.819.4,2.291,2.291,0,0,0-.277,1.283v.161a2.32,2.32,0,0,0,.274,1.291A.947.947,0,0,0,26.721-1.144Zm5.736,0a1.018,1.018,0,0,0,.7-.236.828.828,0,0,0,.279-.628h1.456a1.991,1.991,0,0,1-.322,1.082,2.126,2.126,0,0,1-.867.763,2.715,2.715,0,0,1-1.217.271,2.523,2.523,0,0,1-1.966-.792,3.135,3.135,0,0,1-.72-2.189v-.1a3.1,3.1,0,0,1,.714-2.143,2.494,2.494,0,0,1,1.96-.8,2.444,2.444,0,0,1,1.748.62,2.2,2.2,0,0,1,.669,1.652H33.435a1.067,1.067,0,0,0-.279-.737.931.931,0,0,0-.709-.283.935.935,0,0,0-.819.4,2.291,2.291,0,0,0-.277,1.283v.161a2.32,2.32,0,0,0,.274,1.291A.947.947,0,0,0,32.458-1.144ZM37.415,0H35.857V-5.812h1.558ZM35.766-7.315A.764.764,0,0,1,36-7.89a.878.878,0,0,1,.636-.226.88.88,0,0,1,.634.226.76.76,0,0,1,.236.575.762.762,0,0,1-.239.58.882.882,0,0,1-.631.226.882.882,0,0,1-.631-.226A.762.762,0,0,1,35.766-7.315Zm2.686,4.356A3.447,3.447,0,0,1,38.785-4.5a2.438,2.438,0,0,1,.959-1.047A2.8,2.8,0,0,1,41.2-5.919a2.646,2.646,0,0,1,1.92.72,2.889,2.889,0,0,1,.83,1.955l.011.4A3.038,3.038,0,0,1,43.21-.7a2.6,2.6,0,0,1-2,.808A2.608,2.608,0,0,1,39.2-.7a3.091,3.091,0,0,1-.749-2.191ZM40-2.849a2.172,2.172,0,0,0,.312,1.267,1.028,1.028,0,0,0,.892.438,1.03,1.03,0,0,0,.881-.433A2.377,2.377,0,0,0,42.4-2.962a2.151,2.151,0,0,0-.317-1.259,1.03,1.03,0,0,0-.892-.446,1.013,1.013,0,0,0-.881.444A2.417,2.417,0,0,0,40-2.849Zm1.5-5.4h1.692L41.707-6.585H40.444Zm4.839,2.438.048.671a2.029,2.029,0,0,1,1.67-.779,1.686,1.686,0,0,1,1.375.542A2.531,2.531,0,0,1,49.9-3.754V0H48.345V-3.725a1.011,1.011,0,0,0-.215-.719.96.96,0,0,0-.714-.223,1.067,1.067,0,0,0-.983.56V0H44.881V-5.812Z" transform="translate(1114.051 3062)" fill="#12263f"/>
      <g id="Unión_7" data-name="Unión 7" transform="translate(-3703 -8537)" fill="#29fd2f">
        <path d="M 4807.55126953125 11633.2216796875 L 4794.12158203125 11617.16796875 L 4799.6171875 11617.16796875 L 4800.1171875 11617.16796875 L 4800.1171875 11616.66796875 L 4800.1171875 11608.5 L 4814.9853515625 11608.5 L 4814.9853515625 11616.66796875 L 4814.9853515625 11617.16796875 L 4815.4853515625 11617.16796875 L 4820.98095703125 11617.16796875 L 4807.55126953125 11633.2216796875 Z" stroke="none"/>
        <path d="M 4800.6171875 11609 L 4800.6171875 11617.66796875 L 4795.19140625 11617.66796875 L 4807.55126953125 11632.4423828125 L 4819.9111328125 11617.66796875 L 4814.4853515625 11617.66796875 L 4814.4853515625 11609 L 4800.6171875 11609 M 4799.6171875 11608 L 4815.4853515625 11608 L 4815.4853515625 11616.66796875 L 4822.05126953125 11616.66796875 L 4807.55126953125 11634.0009765625 L 4793.05126953125 11616.66796875 L 4799.6171875 11616.66796875 L 4799.6171875 11608 Z" stroke="none" fill="#000"/>
      </g>
      <line id="Línea_273" data-name="Línea 273" x2="20" y2="36" transform="translate(1104.551 3146.5)" fill="none" stroke="#2d3bf3" stroke-width="2"/>
      <line id="Línea_275" data-name="Línea 275" x1="16" y2="36.5" transform="translate(990.551 3237)" fill="none" stroke="#2d3bf3" stroke-width="2"/>
      <line id="Línea_278" data-name="Línea 278" x1="7.5" y2="42.75" transform="translate(1164.551 3331.75)" fill="none" stroke="#2d3bf3" stroke-width="2"/>
      <line id="Línea_276" data-name="Línea 276" x2="10" y2="28" transform="translate(853.051 3317)" fill="none" stroke="#2d3bf3" stroke-width="2"/>
      <line id="Línea_277" data-name="Línea 277" x2="10" y2="28" transform="translate(835.051 3147)" fill="none" stroke="#2d3bf3" stroke-width="2"/>
      <line id="Línea_274" data-name="Línea 274" x2="26" y2="12" transform="translate(1124.551 3125.5)" fill="none" stroke="#2d3bf3" stroke-width="2"/>
    </g>
  </g>
</svg>
