<svg xmlns="http://www.w3.org/2000/svg" xmlns:xlink="http://www.w3.org/1999/xlink" width="102.031" height="102.032" viewBox="0 0 102.031 102.032">
  <defs>
    <filter id="Trazado_874925" x="0" y="0" width="102.031" height="102.032" filterUnits="userSpaceOnUse">
      <feOffset dy="3" input="SourceAlpha"/>
      <feGaussianBlur stdDeviation="3" result="blur"/>
      <feFlood flood-opacity="0.161"/>
      <feComposite operator="in" in2="blur"/>
      <feComposite in="SourceGraphic"/>
    </filter>
  </defs>
  <g id="Grupo_1110295" data-name="Grupo 1110295" transform="translate(9 6)">
    <g transform="matrix(1, 0, 0, 1, -9, -6)" filter="url(#Trazado_874925)">
      <g id="Trazado_874925-2" data-name="Trazado 874925" transform="translate(9 6)" fill="#f3d913">
        <path d="M 42.01561737060547 82.53173828125 C 36.54538345336914 82.53173828125 31.23958206176758 81.46073150634766 26.24558258056641 79.34843444824219 C 21.42118263244629 77.30789184570312 17.0881233215332 74.38636016845703 13.36675834655762 70.66500091552734 C 9.645393371582031 66.94361877441406 6.723864555358887 62.61056137084961 4.683323383331299 57.78617477416992 C 2.571029186248779 52.79216384887695 1.500017404556274 47.48635101318359 1.500017404556274 42.01611709594727 C 1.500017404556274 36.5453987121582 2.571029186248779 31.23958587646484 4.683323383331299 26.24557495117188 C 6.723864555358887 21.42118644714355 9.645393371582031 17.08811569213867 13.36675834655762 13.3667516708374 C 17.0881233215332 9.645386695861816 21.42118263244629 6.723845481872559 26.24558258056641 4.683304309844971 C 31.23958206176758 2.571022033691406 36.54538345336914 1.499998569488525 42.01561737060547 1.499998569488525 C 47.4858512878418 1.499998569488525 52.79165267944336 2.571022033691406 57.78565216064453 4.683304309844971 C 62.61005401611328 6.723845481872559 66.943115234375 9.645386695861816 70.66447448730469 13.3667516708374 C 74.38584136962891 17.08811569213867 77.307373046875 21.42118644714355 79.34790802001953 26.24557495117188 C 81.460205078125 31.23958587646484 82.53121948242188 36.5453987121582 82.53121948242188 42.01563262939453 C 82.53121948242188 47.48635101318359 81.460205078125 52.79216384887695 79.34790802001953 57.78617477416992 C 77.307373046875 62.61056137084961 74.38584136962891 66.94361877441406 70.66447448730469 70.66500091552734 C 66.943115234375 74.38636016845703 62.61005401611328 77.30789184570312 57.78565216064453 79.34843444824219 C 52.79165267944336 81.46073150634766 47.4858512878418 82.53173828125 42.01561737060547 82.53173828125 Z" stroke="none"/>
        <path d="M 42.01561737060547 3 C 36.74721908569336 3 31.63800430297852 4.031150817871094 26.82989883422852 6.0648193359375 C 22.18431091308594 8.029739379882812 18.01151275634766 10.84332275390625 14.42741394042969 14.42741394042969 C 10.84332275390625 18.01151275634766 8.029739379882812 22.18431091308594 6.0648193359375 26.82989501953125 C 4.031166076660156 31.63801574707031 3.000015258789062 36.74723052978516 3.000015258789062 42.01610946655273 C 3.000015258789062 47.28450775146484 4.031166076660156 52.39372253417969 6.0648193359375 57.20184326171875 C 8.029739379882812 61.84742736816406 10.84332275390625 66.02023315429688 14.42741394042969 69.60432434082031 C 18.01151275634766 73.18841552734375 22.18431091308594 76.00199890136719 26.82989883422852 77.9669189453125 C 31.63800430297852 80.00058746337891 36.74721908569336 81.03173828125 42.01561737060547 81.03173828125 C 47.28401565551758 81.03173828125 52.39321899414062 80.00058746337891 57.20132446289062 77.9669189453125 C 61.846923828125 76.00199890136719 66.01972198486328 73.18841552734375 69.60382080078125 69.60432434082031 C 73.18791198730469 66.02023315429688 76.00148010253906 61.84742736816406 77.96640014648438 57.20184326171875 C 80.00006866455078 52.39372253417969 81.03121948242188 47.28450775146484 81.03121948242188 42.01562881469727 C 81.03121948242188 36.74723052978516 80.00006866455078 31.63801574707031 77.96640014648438 26.82989501953125 C 76.00148010253906 22.18431091308594 73.18791198730469 18.01151275634766 69.60382080078125 14.42741394042969 C 66.01972198486328 10.84332275390625 61.846923828125 8.029739379882812 57.20132446289062 6.0648193359375 C 52.39321899414062 4.031150817871094 47.28401565551758 3 42.01561737060547 3 M 42.01561737060547 0 C 65.22019195556641 0 84.03121948242188 18.81102752685547 84.03121948242188 42.01562881469727 L 84.03121948242188 42.01610946655273 C 84.03121948242188 65.22071075439453 65.22019195556641 84.03173828125 42.01561737060547 84.03173828125 C 18.81102752685547 84.03173828125 1.52587890625e-05 65.22071075439453 1.52587890625e-05 42.01610946655273 L 1.52587890625e-05 42.01562881469727 C 1.52587890625e-05 18.81102752685547 18.81102752685547 0 42.01561737060547 0 Z" stroke="none" fill="#fff"/>
      </g>
    </g>
    <g id="Layer_1" transform="translate(11.961 21)">
      <g id="Grupo_1110537" data-name="Grupo 1110537" transform="translate(0)">
        <g id="Grupo_1110521" data-name="Grupo 1110521" transform="translate(53.102 30.318)">
          <path id="Trazado_901146" data-name="Trazado 901146" d="M240.565,2500.775H242.8a2.369,2.369,0,0,0,2.365-2.365v-6.245a2.369,2.369,0,0,0-2.365-2.365h-2.238a2.369,2.369,0,0,0-2.365,2.365v6.245A2.369,2.369,0,0,0,240.565,2500.775Zm2.238-8.911a.305.305,0,0,1,.3.3v6.245a.307.307,0,0,1-.3.3h-2.238a.306.306,0,0,1-.3-.3v-6.245a.307.307,0,0,1,.3-.3Z" transform="translate(-238.2 -2489.8)" fill-rule="evenodd"/>
        </g>
        <g id="Grupo_1110522" data-name="Grupo 1110522" transform="translate(0 30.318)">
          <path id="Trazado_901147" data-name="Trazado 901147" d="M3246.665,2500.775h2.238a2.369,2.369,0,0,0,2.365-2.365v-6.245a2.369,2.369,0,0,0-2.365-2.365h-2.238a2.369,2.369,0,0,0-2.365,2.365v6.245A2.366,2.366,0,0,0,3246.665,2500.775Zm2.238-8.911a.307.307,0,0,1,.3.3v6.245a.307.307,0,0,1-.3.3h-2.238a.307.307,0,0,1-.3-.3v-6.245a.307.307,0,0,1,.3-.3Z" transform="translate(-3244.3 -2489.8)" fill-rule="evenodd"/>
        </g>
        <g id="Grupo_1110523" data-name="Grupo 1110523" transform="translate(4.905 32.81)">
          <path id="Trazado_901148" data-name="Trazado 901148" d="M516.932,2632.964h48.2a1.032,1.032,0,0,0,0-2.063h-48.2a1.032,1.032,0,0,0,0,2.063Z" transform="translate(-515.9 -2630.9)" fill-rule="evenodd"/>
        </g>
        <g id="Grupo_1110524" data-name="Grupo 1110524" transform="translate(4.905 36.737)">
          <path id="Trazado_901149" data-name="Trazado 901149" d="M516.932,2855.263h48.2a1.031,1.031,0,1,0,0-2.063h-48.2a1.031,1.031,0,1,0,0,2.063Z" transform="translate(-515.9 -2853.2)" fill-rule="evenodd"/>
        </g>
        <g id="Grupo_1110536" data-name="Grupo 1110536" transform="translate(0 0)">
          <g id="Grupo_1110525" data-name="Grupo 1110525" transform="translate(2.192 9.988)">
            <path id="Trazado_901150" data-name="Trazado 901150" d="M413.516,1352.165a1.032,1.032,0,0,0,1.032-1.032v-7.907a4.33,4.33,0,0,0-4.326-4.326H368.487c-.041,0-4.116.087-5.2.97l-2.89,2.349a4.253,4.253,0,0,0-1.6,3.356v5.556a1.032,1.032,0,0,0,2.063,0v-5.556a2.168,2.168,0,0,1,.836-1.756l2.863-2.328a15.823,15.823,0,0,1,3.927-.53h41.733a2.268,2.268,0,0,1,2.265,2.265v7.907A1.029,1.029,0,0,0,413.516,1352.165Z" transform="translate(-358.8 -1338.9)" fill-rule="evenodd"/>
          </g>
          <g id="Grupo_1110526" data-name="Grupo 1110526" transform="translate(2.19 10.187)">
            <path id="Trazado_901151" data-name="Trazado 901151" d="M3048.734,1359.193h2.892a4.33,4.33,0,0,0,4.326-4.324v-3.637a1.032,1.032,0,0,0-2.063,0v3.635a2.268,2.268,0,0,1-2.265,2.265h-2.892a1.031,1.031,0,1,0,0,2.061Z" transform="translate(-3047.7 -1350.2)" fill-rule="evenodd"/>
          </g>
          <g id="Grupo_1110527" data-name="Grupo 1110527" transform="translate(0 21.185)">
            <path id="Trazado_901152" data-name="Trazado 901152" d="M241.457,1979.319h4.61a1.032,1.032,0,0,0,0-2.063h-4.61a1.2,1.2,0,1,1,0-2.392h6.63a1.032,1.032,0,0,0,0-2.063h-6.63a3.259,3.259,0,0,0,0,6.519Zm16.449,0h18.742a1.032,1.032,0,0,0,0-2.063H257.907a1.032,1.032,0,0,0,0,2.063Zm30.579,0h6.527a3.258,3.258,0,0,0,0-6.515h-8.546a1.032,1.032,0,0,0,0,2.063h8.546a1.2,1.2,0,0,1,0,2.392h-6.527a1.03,1.03,0,1,0,0,2.06Zm-32.6-4.453h22.782a1.032,1.032,0,0,0,0-2.063H255.886a1.032,1.032,0,0,0,0,2.063Z" transform="translate(-238.2 -1972.8)" fill-rule="evenodd"/>
          </g>
          <g id="Grupo_1110528" data-name="Grupo 1110528" transform="translate(37.421 19.723)">
            <path id="Trazado_901153" data-name="Trazado 901153" d="M734.628,1897.981a1.032,1.032,0,0,0,1.032-1.031,4.888,4.888,0,1,1,9.776,0,1.032,1.032,0,0,0,2.063,0,6.949,6.949,0,1,0-13.9,0A1.026,1.026,0,0,0,734.628,1897.981Z" transform="translate(-733.6 -1890)" fill-rule="evenodd"/>
          </g>
          <g id="Grupo_1110529" data-name="Grupo 1110529" transform="translate(6.84 19.723)">
            <path id="Trazado_901154" data-name="Trazado 901154" d="M2465.829,1897.981a1.031,1.031,0,0,0,1.031-1.031,4.888,4.888,0,1,1,9.776,0,1.032,1.032,0,0,0,2.063,0,6.949,6.949,0,1,0-13.9,0A1.029,1.029,0,0,0,2465.829,1897.981Z" transform="translate(-2464.801 -1890)" fill-rule="evenodd"/>
          </g>
          <g id="Grupo_1110530" data-name="Grupo 1110530" transform="translate(10.6 0.002)">
            <path id="Trazado_901155" data-name="Trazado 901155" d="M531.83,785.649a1.023,1.023,0,0,0,.776-.352l7.43-8.475a2.659,2.659,0,0,1,1.994-1.161h23.8a7.216,7.216,0,0,1,7.207,7.207v1.749a1.032,1.032,0,1,0,2.063,0v-1.749a9.278,9.278,0,0,0-9.269-9.269h-23.8a4.717,4.717,0,0,0-3.547,1.864l-7.43,8.474a1.032,1.032,0,0,0,.774,1.712Z" transform="translate(-530.8 -773.6)" fill-rule="evenodd"/>
          </g>
          <g id="Grupo_1110531" data-name="Grupo 1110531" transform="translate(50.971 13.459)">
            <path id="Trazado_901156" data-name="Trazado 901156" d="M361.957,1541.719h2.78a1.031,1.031,0,1,0,0-2.063h-2.779a1.1,1.1,0,1,1,0-2.192h2.779a1.032,1.032,0,1,0,0-2.063h-2.779a3.159,3.159,0,0,0,0,6.319Z" transform="translate(-358.8 -1535.4)" fill-rule="evenodd"/>
          </g>
          <g id="Grupo_1110532" data-name="Grupo 1110532" transform="translate(25.284)">
            <path id="Trazado_901157" data-name="Trazado 901157" d="M2091.732,785.551a1.032,1.032,0,0,0,1.032-1.032v-9.988a1.031,1.031,0,1,0-2.063,0v9.988A1.031,1.031,0,0,0,2091.732,785.551Z" transform="translate(-2090.7 -773.5)" fill-rule="evenodd"/>
          </g>
          <g id="Grupo_1110533" data-name="Grupo 1110533" transform="translate(38.152)">
            <path id="Trazado_901158" data-name="Trazado 901158" d="M1363.232,785.551a1.032,1.032,0,0,0,1.031-1.032v-9.988a1.032,1.032,0,1,0-2.063,0v9.988A1.034,1.034,0,0,0,1363.232,785.551Z" transform="translate(-1362.2 -773.5)" fill-rule="evenodd"/>
          </g>
          <g id="Grupo_1110534" data-name="Grupo 1110534" transform="translate(35.064 13.796)">
            <path id="Trazado_901159" data-name="Trazado 901159" d="M1363.232,1556.563h3.088a1.032,1.032,0,0,0,0-2.063h-3.088a1.032,1.032,0,1,0,0,2.063Z" transform="translate(-1362.2 -1554.5)" fill-rule="evenodd"/>
          </g>
          <g id="Grupo_1110535" data-name="Grupo 1110535" transform="translate(22.194 13.796)">
            <path id="Trazado_901160" data-name="Trazado 901160" d="M2091.832,1556.563h3.088a1.032,1.032,0,1,0,0-2.063h-3.088a1.032,1.032,0,0,0,0,2.063Z" transform="translate(-2090.8 -1554.5)" fill-rule="evenodd"/>
          </g>
        </g>
      </g>
      <g id="Grupo_1110538" data-name="Grupo 1110538" transform="translate(2.061 2.063)">
        <path id="Trazado_901161" data-name="Trazado 901161" d="M647.6,898.224V890.3h5.416a7.216,7.216,0,0,1,7.207,7.207v.717Z" transform="translate(-609.446 -890.3)" fill="#a6f5ff" fill-rule="evenodd"/>
        <path id="Trazado_901162" data-name="Trazado 901162" d="M1489.707,890.3H1478.9v7.925h10.807Z" transform="translate(-1453.615 -890.3)" fill="#a6f5ff" fill-rule="evenodd"/>
        <path id="Trazado_901163" data-name="Trazado 901163" d="M2218.876,890.3v7.925H2207.5l5.928-6.764a2.66,2.66,0,0,1,1.994-1.161Z" transform="translate(-2195.654 -890.3)" fill="#a6f5ff" fill-rule="evenodd"/>
        <path id="Trazado_901164" data-name="Trazado 901164" d="M494.569,1459.41h3.088a1.032,1.032,0,1,0,0-2.063h-3.088a1.032,1.032,0,1,0,0,2.063Zm-11.346-3.81h41.733a2.268,2.268,0,0,1,2.1,1.41h-1.581a3.159,3.159,0,0,0,0,6.317h1.749v1.411h-7.244a6.935,6.935,0,0,0-8.527,0H489.393a6.935,6.935,0,0,0-8.527,0H475.6v-2.009h1.86a4.33,4.33,0,0,0,4.326-4.324v-2.719C482.338,1455.634,482.862,1455.6,483.223,1455.6Zm24.217,3.81h3.088a1.032,1.032,0,1,0,0-2.063h-3.088a1.032,1.032,0,1,0,0,2.063Z" transform="translate(-473.404 -1445.614)" fill="#ff9801" fill-rule="evenodd"/>
        <path id="Trazado_901165" data-name="Trazado 901165" d="M475.6,1653.3a1.1,1.1,0,0,1,1.1-1.1h1.749v2.192H476.7A1.1,1.1,0,0,1,475.6,1653.3Z" transform="translate(-424.63 -1638.741)" fill="#e83f33" fill-rule="evenodd"/>
        <path id="Trazado_901166" data-name="Trazado 901166" d="M3168.525,1477.8v2.413a2.268,2.268,0,0,1-2.264,2.265h-1.86v-.454a2.168,2.168,0,0,1,.836-1.756l2.864-2.328A1.911,1.911,0,0,1,3168.525,1477.8Z" transform="translate(-3162.206 -1467.422)" fill="#ffeb3a" fill-rule="evenodd"/>
        <path id="Trazado_901167" data-name="Trazado 901167" d="M3201.9,2089.7h4.482a6.9,6.9,0,0,0-.825,2.39H3201.9a1.2,1.2,0,0,1-.036-2.39Z" transform="translate(-3200.7 -2068.513)" fill="#f5f5f5" fill-rule="evenodd"/>
        <path id="Trazado_901168" data-name="Trazado 901168" d="M1470.327,2091.992a6.9,6.9,0,0,0-.827-2.392h18.486a6.9,6.9,0,0,0-.827,2.392Z" transform="translate(-1451.728 -2068.415)" fill="#f5f5f5" fill-rule="evenodd"/>
        <path id="Trazado_901169" data-name="Trazado 901169" d="M355.725,2092.09a6.932,6.932,0,0,0-.825-2.39h6.4a1.2,1.2,0,1,1,0,2.392Z" transform="translate(-306.545 -2068.513)" fill="#f5f5f5" fill-rule="evenodd"/>
        <path id="Trazado_901170" data-name="Trazado 901170" d="M355,2606.9a.307.307,0,0,1,.3-.3h2.238a.306.306,0,0,1,.3.3v6.245a.307.307,0,0,1-.3.3H355.3a.306.306,0,0,1-.3-.3V2606.9Z" transform="translate(-301.896 -2576.282)" fill="#7f8e94" fill-rule="evenodd"/>
        <path id="Trazado_901171" data-name="Trazado 901171" d="M678.735,2747.7H632.6v1.865h46.135Z" transform="translate(-627.693 -2714.89)" fill="#b6bbbd" fill-rule="evenodd"/>
        <path id="Trazado_901172" data-name="Trazado 901172" d="M3363.846,2608.093v5.056a.307.307,0,0,1-.3.3H3361.3a.308.308,0,0,1-.3-.3V2606.9a.307.307,0,0,1,.3-.3h2.238a.307.307,0,0,1,.3.3v1.157A.229.229,0,0,0,3363.846,2608.093Z" transform="translate(-3361 -2576.283)" fill="#7f8e94" fill-rule="evenodd"/>
        <path id="Trazado_901173" data-name="Trazado 901173" d="M2306.765,891.461l-5.93,6.764H2299l5.93-6.764a2.659,2.659,0,0,1,1.994-1.161h1.837A2.666,2.666,0,0,0,2306.765,891.461Z" transform="translate(-2287.156 -890.3)" fill="#86c7cf" fill-rule="evenodd"/>
        <path id="Trazado_901174" data-name="Trazado 901174" d="M3166.722,1480.266a2.167,2.167,0,0,0-.836,1.756v.454H3164.4v-.454a2.168,2.168,0,0,1,.836-1.756l2.863-2.328a2.106,2.106,0,0,1,.426-.138v1Z" transform="translate(-3162.206 -1467.422)" fill="#cfbf2f" fill-rule="evenodd"/>
        <path id="Trazado_901175" data-name="Trazado 901175" d="M3317.447,1859.3H3316v2.008h1.447Z" transform="translate(-3313.806 -1842.183)" fill="#cf7b01" fill-rule="evenodd"/>
        <path id="Trazado_901176" data-name="Trazado 901176" d="M3351.594,2089.7h0Zm-.772.284a1.2,1.2,0,0,0,.774,2.107h1.835a1.2,1.2,0,0,1-.005-2.392h-1.83A1.242,1.242,0,0,0,3350.823,2089.984Z" transform="translate(-3350.398 -2068.513)" fill="#c7c7c7" fill-rule="evenodd"/>
        <path id="Trazado_901177" data-name="Trazado 901177" d="M3380.042,2613.452h0Zm-1.292-6.548v6.245a.307.307,0,0,0,.3.3h-1.25a.307.307,0,0,1-.3-.3V2606.9a.307.307,0,0,1,.3-.3h1.238A.309.309,0,0,0,3378.75,2606.9Z" transform="translate(-3377.5 -2576.282)" fill="#677378" fill-rule="evenodd"/>
      </g>
    </g>
  </g>
</svg>
