<svg xmlns="http://www.w3.org/2000/svg" xmlns:xlink="http://www.w3.org/1999/xlink" width="504.898" height="240.73" viewBox="0 0 504.898 240.73">
  <defs>
    <linearGradient id="linear-gradient" x1="-0.162" y1="0.5" x2="1.876" y2="0.5" gradientUnits="objectBoundingBox">
      <stop offset="0" stop-color="#efefef"/>
      <stop offset="1" stop-color="#0f0e0e"/>
    </linearGradient>
    <linearGradient id="linear-gradient-2" x1="1.299" y1="0.209" x2="0.227" y2="1.163" gradientUnits="objectBoundingBox">
      <stop offset="0" stop-color="#c4c4c4"/>
      <stop offset="0.158" stop-color="#6f6b68"/>
      <stop offset="0.35" stop-color="#b7b2b0"/>
      <stop offset="0.502" stop-color="#6f6862"/>
      <stop offset="0.704" stop-color="#c6c4c2"/>
      <stop offset="0.833" stop-color="#605f5e"/>
      <stop offset="1" stop-color="#cecece"/>
    </linearGradient>
    <linearGradient id="linear-gradient-3" x1="0.5" x2="0.5" y2="1" gradientUnits="objectBoundingBox">
      <stop offset="0" stop-color="#b4b4b4"/>
      <stop offset="1" stop-color="#5a5a5a"/>
    </linearGradient>
    <linearGradient id="linear-gradient-4" x1="0.5" y1="0" x2="0.5" y2="1" xlink:href="#linear-gradient"/>
    <linearGradient id="linear-gradient-5" x1="0.12" x2="0.799" y2="1.141" gradientUnits="objectBoundingBox">
      <stop offset="0" stop-color="#c4c4c4"/>
      <stop offset="0.158" stop-color="#6f6b68"/>
      <stop offset="0.35" stop-color="#b7b2b0"/>
      <stop offset="0.502" stop-color="#6f6862"/>
      <stop offset="0.704" stop-color="#c6c4c2"/>
      <stop offset="0.867" stop-color="#858382"/>
      <stop offset="0.942" stop-color="#605f5e"/>
      <stop offset="1" stop-color="#cecece"/>
    </linearGradient>
    <linearGradient id="linear-gradient-9" x1="-1.2" y1="-0.085" x2="1.132" y2="1.524" xlink:href="#linear-gradient"/>
    <linearGradient id="linear-gradient-10" x1="-0.088" y1="0.08" x2="0.702" y2="1.136" xlink:href="#linear-gradient-3"/>
    <linearGradient id="linear-gradient-11" x1="-0.142" y1="0.128" x2="0.5" y2="1" gradientUnits="objectBoundingBox">
      <stop offset="0" stop-color="#c4c4c4"/>
      <stop offset="0.158" stop-color="#6f6b68"/>
      <stop offset="0.35" stop-color="#b7b2b0"/>
      <stop offset="0.502" stop-color="#6f6862"/>
      <stop offset="0.704" stop-color="#c6c4c2"/>
      <stop offset="0.867" stop-color="#858382"/>
      <stop offset="1" stop-color="#605f5e"/>
      <stop offset="1" stop-color="#cecece"/>
    </linearGradient>
    <linearGradient id="linear-gradient-12" x1="-0.133" y1="-0.079" x2="1.738" y2="2.301" gradientUnits="objectBoundingBox">
      <stop offset="0" stop-color="#75716f"/>
      <stop offset="1" stop-color="#3b3938"/>
    </linearGradient>
    <linearGradient id="linear-gradient-13" x1="1.142" y1="0.128" xlink:href="#linear-gradient-11"/>
    <linearGradient id="linear-gradient-14" x1="-0.079" y1="1.09" x2="1.338" y2="-0.134" xlink:href="#linear-gradient-12"/>
    <clipPath id="clip-path">
      <rect id="Rectángulo_404576" data-name="Rectángulo 404576" width="24.428" height="14.135" fill="url(#linear-gradient)"/>
    </clipPath>
    <linearGradient id="linear-gradient-16" x1="-0.045" y1="0.399" x2="1.872" y2="0.5" xlink:href="#linear-gradient-11"/>
    <linearGradient id="linear-gradient-17" x1="0.5" y1="0" x2="1.309" y2="1.848" xlink:href="#linear-gradient-12"/>
    <linearGradient id="linear-gradient-20" x1="-0.517" y1="0.219" x2="0.94" y2="0.545" xlink:href="#linear-gradient-3"/>
  </defs>
  <g id="Grupo_1110518" data-name="Grupo 1110518" transform="translate(-762.051 -731)">
    <g id="Grupo_1110458" data-name="Grupo 1110458">
      <path id="Trazado_899830" data-name="Trazado 899830" d="M8,0H496.9a8,8,0,0,1,8,8V232.73a8,8,0,0,1-8,8H8a8,8,0,0,1-8-8V8A8,8,0,0,1,8,0Z" transform="translate(762.051 731)" fill="#e5f0fe"/>
      <g id="Grupo_1110457" data-name="Grupo 1110457" transform="translate(31 4)">
        <g id="Grupo_1110454" data-name="Grupo 1110454" transform="translate(874.959 757)">
          <g id="Grupo_1110449" data-name="Grupo 1110449" transform="translate(0 0.001)">
            <g id="Grupo_1110455" data-name="Grupo 1110455">
              <path id="Trazado_900923" data-name="Trazado 900923" d="M92.071,18.513S74.3,4.484,72.13,3.028c-11.88-7.959-31.838.314-44.577,18.479-9.867,14.072-12.474,29.925-7.642,40.068L23.13,66.32a16.832,16.832,0,0,0,2.209,1.972l16.779,15L56.544,64.58A58.613,58.613,0,0,0,70.576,50.335a59.476,59.476,0,0,0,6.846-12.828Z" transform="translate(15.465 0)" fill="url(#linear-gradient-2)"/>
              <path id="Trazado_900924" data-name="Trazado 900924" d="M94.787,20.177S85.257,9.32,80.8,8.583C70.279,6.844,56.083,11.88,43.9,22.72,26.561,38.152,19.874,59.5,28.964,70.4a15.5,15.5,0,0,0,1.2,1.213l26.181,2.871S70.283,68.02,76.822,62.2C87.216,52.951,95.38,31.614,95.38,31.614l5.732-6.3Z" transform="translate(21.946 7.266)" fill="url(#linear-gradient-3)"/>
              <path id="Trazado_900925" data-name="Trazado 900925" d="M95.028,21.044c8.612,9.748,2.609,29.074-13.406,43.165S45.646,81.821,37.034,72.073,34.425,43,50.439,28.908,86.416,11.3,95.028,21.044" transform="translate(29.17 13.686)" fill="url(#linear-gradient-4)"/>
              <path id="Trazado_900926" data-name="Trazado 900926" d="M97.225,22.248c9.034,10.23,3.715,29.65-11.886,43.377S49.766,82.187,40.729,71.957s-3.714-29.65,11.887-43.375S88.19,12.018,97.225,22.248" transform="translate(32.012 14.19)" fill="#141215"/>
              <path id="Trazado_900927" data-name="Trazado 900927" d="M97.192,22.732c8.2,9.288,2.459,27.725-12.834,41.18s-34.34,16.835-42.544,7.546-2.461-27.723,12.832-41.18,34.342-16.833,42.546-7.546" transform="translate(33.551 15.411)" fill="#656263"/>
              <path id="Trazado_900928" data-name="Trazado 900928" d="M93.7,29.136c4.65,8.053-1.114,20.067-12.875,26.832S55.755,61.686,51.1,53.633,52.218,33.566,63.979,26.8,89.047,21.082,93.7,29.136" transform="translate(43.615 19.685)" fill="#4b494a"/>
              <path id="Trazado_900929" data-name="Trazado 900929" d="M99.651,14.091s21.692-6.479,24.249-7.03c13.979-3.012,29.473,12.044,34.607,33.631,3.977,16.718.547,32.413-7.687,40.057l-4.744,3.223a17.1,17.1,0,0,1-2.78,1.018l-21.128,7.739-6.5-22.71A58.6,58.6,0,0,1,107.881,51.6a59.423,59.423,0,0,1-1.627-14.448Z" transform="translate(87.814 5.883)" fill="url(#linear-gradient-5)"/>
              <path id="Trazado_900930" data-name="Trazado 900930" d="M97,15.9s12.864-6.573,17.281-5.612c10.418,2.269,21.753,12.19,29.07,26.758,10.42,20.742,8.757,43.052-3.715,49.828a16.105,16.105,0,0,1-1.56.689l-25.393-7s-10.571-11.156-14.5-18.978c-6.244-12.431-5.956-35.277-5.956-35.277l-3-7.967Z" transform="translate(78.623 8.98)" fill="url(#linear-gradient-3)"/>
              <path id="Trazado_900931" data-name="Trazado 900931" d="M92.842,16.119C81.24,22,79.684,42.176,89.367,61.184S116.3,90.832,127.9,84.951s13.157-26.057,3.475-45.065S104.443,10.239,92.842,16.119" transform="translate(73.151 12.777)" fill="url(#linear-gradient-4)"/>
              <path id="Trazado_900932" data-name="Trazado 900932" d="M90.476,16.069c-12.173,6.17-14.4,26.185-4.965,44.7s26.947,28.523,39.122,22.353,14.4-26.185,4.965-44.7S102.649,9.9,90.476,16.069" transform="translate(70.205 12.553)" fill="#141215"/>
              <path id="Trazado_900933" data-name="Trazado 900933" d="M88.716,16.483c-11.054,5.6-12.52,24.858-3.273,43.008s25.7,28.322,36.753,22.718,12.519-24.858,3.275-43.008S99.77,10.879,88.716,16.483" transform="translate(69.936 13.168)" fill="#656263"/>
              <path id="Trazado_900934" data-name="Trazado 900934" d="M82.261,22.425c-7.3,5.762-4.78,21.062,5.629,34.17s24.762,19.064,32.062,13.3,4.78-21.06-5.629-34.169S89.56,16.663,82.261,22.425" transform="translate(68.81 17.823)" fill="#4b494a"/>
              <path id="Trazado_900935" data-name="Trazado 900935" d="M42.328,55.3l74.246-34.09S134,26.8,143.2,41.921s9.067,20.138,9.067,20.138L87.643,112.933l-12.164,6.246S52.9,55.2,42.328,55.3" transform="translate(37.3 18.689)" fill="#747273"/>
              <path id="Trazado_900936" data-name="Trazado 900936" d="M75.024,104.714s-5.649-9.419-8.279-9.748,1.64-36.02,21.694-46.079,25.442-6.778,25.442-6.778Z" transform="translate(58.2 36.655)" fill="#656263"/>
              <path id="Trazado_900937" data-name="Trazado 900937" d="M149.939,60.389s-19.9-14.611-22.324-16.113C114.369,36.063,93.042,45.97,79.98,66.405c-10.117,15.829-12.271,33.3-6.59,44.2l3.7,5.059a18.21,18.21,0,0,0,2.483,2.067l18.869,15.71,14.873-21.1a64.008,64.008,0,0,0,14.632-16.2,65.3,65.3,0,0,0,6.889-14.339Z" transform="translate(61.956 36.472)" fill="url(#linear-gradient-3)"/>
              <path id="Trazado_900941" data-name="Trazado 900941" d="M64.768,110.134s7.85-7.681,10.476-7.333,7.538-35.262-9.316-50.072-22.894-13-22.894-13Z" transform="translate(37.922 34.948)" fill="url(#linear-gradient-9)"/>
              <path id="Trazado_900942" data-name="Trazado 900942" d="M20.122,48.683S43.077,39.59,45.8,38.751c14.894-4.592,33.017,10.392,40.478,33.469,5.779,17.875,3.439,35.324-4.82,44.432L76.6,120.608a18.192,18.192,0,0,1-2.925,1.371L51.439,132.4l-9.045-24.177A64.046,64.046,0,0,1,32.339,88.847a65.322,65.322,0,0,1-3.033-15.614Z" transform="translate(17.732 33.418)" fill="url(#linear-gradient-10)"/>
              <path id="Trazado_900943" data-name="Trazado 900943" d="M9.841,53.746S32.734,43.429,35.459,42.451c14.9-5.354,33.77,9.2,42.143,32.517C84.089,93.024,82.347,111,74.32,120.687l-4.776,4.265a18.635,18.635,0,0,1-2.908,1.533L44.519,138.128,34.5,113.757a65.168,65.168,0,0,1-10.866-19.4,67.354,67.354,0,0,1-3.627-15.861Z" transform="translate(8.672 36.431)" fill="url(#linear-gradient-11)"/>
              <path id="Trazado_900944" data-name="Trazado 900944" d="M4.24,102.254c8.671,24.138,27.78,39.366,42.683,34.012s19.952-29.26,11.282-53.4S30.425,43.5,15.524,48.856-4.43,78.116,4.24,102.254" transform="translate(0 42.108)" fill="#807e7d"/>
              <path id="Trazado_900945" data-name="Trazado 900945" d="M10.371,87.04c4.368,12.162,14,19.836,21.506,17.138s10.055-14.743,5.687-26.905-14-19.836-21.508-17.14S6,74.878,10.371,87.04" transform="translate(7.256 52.514)" fill="url(#linear-gradient-12)"/>
              <path id="Trazado_900946" data-name="Trazado 900946" d="M66.693,99.148s3.717-16.636-1.137-33.725c-2.116-7.454-13.6-21.277-13.6-21.277s9.3,3.127,14.742,18.035c2.82,7.722,3.937,19.876,2.94,35.791Z" transform="translate(46.088 38.72)" fill="#232122"/>
              <path id="Trazado_900950" data-name="Trazado 900950" d="M71.725,12.4S48.832,2.087,46.106,1.108c-14.9-5.354-33.77,9.2-42.143,32.517C-2.523,51.681-.781,69.654,7.246,79.344l4.776,4.265a18.635,18.635,0,0,0,2.908,1.533L37.046,96.785,47.062,72.414a65.168,65.168,0,0,0,10.866-19.4,67.354,67.354,0,0,0,3.627-15.861Z" transform="translate(160.694 80.559) rotate(13)" fill="url(#linear-gradient-13)"/>
              <path id="Trazado_900939" data-name="Trazado 900939" d="M149.172,115.113c-14.5,21.154-36.844,31.048-49.9,22.095s-11.893-33.36,2.607-54.514,36.846-31.048,49.9-22.095,11.893,33.36-2.607,54.514" transform="translate(79.729 49.1)" fill="#807e7d"/>
              <path id="Trazado_900940" data-name="Trazado 900940" d="M129.227,97.4c-7.307,10.659-18.566,15.644-25.146,11.133s-5.994-16.809,1.315-27.47,18.564-15.644,25.144-11.133,5.994,16.811-1.313,27.47" transform="translate(87.941 58.768)" fill="url(#linear-gradient-14)"/>
            </g>
          </g>
          <g id="Grupo_1110453" data-name="Grupo 1110453">
            <g id="Grupo_1110516" data-name="Grupo 1110516">
              <g id="Grupo_1110456" data-name="Grupo 1110456" transform="translate(119.687 65.209)">
                <g id="Grupo_1110456-2" data-name="Grupo 1110456" transform="translate(0 0)" clip-path="url(#clip-path)">
                  <path id="Trazado_900951" data-name="Trazado 900951" d="M0,0V7.746c0,3.527,5.469,6.389,12.213,6.389s12.215-2.862,12.215-6.389V0Z" transform="translate(0 0)" fill="url(#linear-gradient)"/>
                </g>
              </g>
              <path id="Trazado_900948" data-name="Trazado 900948" d="M61.589,25.308V37.931c0,5.751,7.293,10.413,16.289,10.413s16.289-4.662,16.289-10.413V25.308H61.589Z" transform="translate(54.273 22.302)" fill="url(#linear-gradient-16)"/>
              <path id="Trazado_900949" data-name="Trazado 900949" d="M93.318,28.124c0,4.237-7.293,7.672-16.289,7.672S60.739,32.36,60.739,28.124s7.293-7.672,16.289-7.672,16.289,3.435,16.289,7.672" transform="translate(55.123 19.486)" fill="url(#linear-gradient-17)"/>
            </g>
          </g>
        </g>
        <path id="Trazado_901258" data-name="Trazado 901258" d="M-19.4-1.527A4.322,4.322,0,0,1-21.3-.278a7.961,7.961,0,0,1-2.723.444,5.393,5.393,0,0,1-2.752-.685A4.568,4.568,0,0,1-28.6-2.507a7,7,0,0,1-.66-3.063v-.822a7.431,7.431,0,0,1,.61-3.134,4.513,4.513,0,0,1,1.76-2.025,5.069,5.069,0,0,1,2.694-.7,5.048,5.048,0,0,1,3.362,1.025A4.381,4.381,0,0,1-19.4-8.243h-2.424a2.41,2.41,0,0,0-.735-1.519,2.346,2.346,0,0,0-1.565-.481,2.208,2.208,0,0,0-1.934.955,5.019,5.019,0,0,0-.672,2.839v.772a4.778,4.778,0,0,0,.722,2.872,2.473,2.473,0,0,0,2.117.971,2.762,2.762,0,0,0,2-.6V-4.516h-2.266V-6.35H-19.4Zm6.906-5.2A6.517,6.517,0,0,0-13.36-6.8a1.757,1.757,0,0,0-1.785.921V0h-2.4V-8.981h2.266l.066,1.071a2.223,2.223,0,0,1,2-1.237,2.514,2.514,0,0,1,.747.108ZM-6.387,0a2.664,2.664,0,0,1-.241-.805A2.9,2.9,0,0,1-8.894.166,3.189,3.189,0,0,1-11.082-.6a2.456,2.456,0,0,1-.867-1.926,2.538,2.538,0,0,1,1.058-2.191,5.222,5.222,0,0,1,3.059-.772h1.1V-6a1.48,1.48,0,0,0-.32-1,1.257,1.257,0,0,0-1.009-.374,1.429,1.429,0,0,0-.95.291.987.987,0,0,0-.344.8h-2.4a2.41,2.41,0,0,1,.481-1.444A3.182,3.182,0,0,1-9.907-8.77a4.961,4.961,0,0,1,1.976-.378A3.92,3.92,0,0,1-5.3-8.313a2.918,2.918,0,0,1,.975,2.345v3.893A4.294,4.294,0,0,0-3.964-.141V0ZM-8.371-1.668a2.066,2.066,0,0,0,.979-.237,1.554,1.554,0,0,0,.664-.635V-4.084h-.9q-1.8,0-1.917,1.245L-9.55-2.7a.96.96,0,0,0,.315.739A1.225,1.225,0,0,0-8.371-1.668ZM2.386-2.482a.773.773,0,0,0-.436-.693,4.95,4.95,0,0,0-1.4-.452q-3.2-.672-3.2-2.723a2.468,2.468,0,0,1,.992-2,4,4,0,0,1,2.594-.8,4.307,4.307,0,0,1,2.735.805A2.538,2.538,0,0,1,4.694-6.25H2.3A1.161,1.161,0,0,0,1.963-7.1,1.405,1.405,0,0,0,.926-7.437a1.436,1.436,0,0,0-.938.274.865.865,0,0,0-.332.7.739.739,0,0,0,.378.643A3.885,3.885,0,0,0,1.307-5.4,10.407,10.407,0,0,1,2.818-5a2.482,2.482,0,0,1,1.9,2.416A2.343,2.343,0,0,1,3.665-.594,4.548,4.548,0,0,1,.942.166a4.75,4.75,0,0,1-2-.4,3.363,3.363,0,0,1-1.374-1.1,2.565,2.565,0,0,1-.5-1.515H-.66a1.252,1.252,0,0,0,.473.979,1.877,1.877,0,0,0,1.179.34A1.737,1.737,0,0,0,2.034-1.8.814.814,0,0,0,2.386-2.482ZM10.4.166A4.409,4.409,0,0,1,7.18-1.046,4.308,4.308,0,0,1,5.939-4.275v-.232a5.426,5.426,0,0,1,.523-2.42A3.838,3.838,0,0,1,7.944-8.571a4.159,4.159,0,0,1,2.187-.577,3.727,3.727,0,0,1,2.9,1.162,4.722,4.722,0,0,1,1.058,3.3v.979H8.371a2.229,2.229,0,0,0,.7,1.411,2.12,2.12,0,0,0,1.482.531,2.589,2.589,0,0,0,2.167-1L13.9-1.453A3.6,3.6,0,0,1,12.439-.261,4.793,4.793,0,0,1,10.4.166Zm-.274-7.379a1.5,1.5,0,0,0-1.158.484A2.5,2.5,0,0,0,8.4-5.346h3.337v-.192A1.786,1.786,0,0,0,11.3-6.776,1.547,1.547,0,0,0,10.123-7.213ZM20.5-6.732a6.517,6.517,0,0,0-.863-.066,1.757,1.757,0,0,0-1.785.921V0h-2.4V-8.981h2.266l.066,1.071a2.223,2.223,0,0,1,2-1.237,2.514,2.514,0,0,1,.747.108Zm.481,2.158a5.327,5.327,0,0,1,.515-2.382,3.768,3.768,0,0,1,1.482-1.619,4.323,4.323,0,0,1,2.245-.573,4.09,4.09,0,0,1,2.968,1.112,4.464,4.464,0,0,1,1.282,3.021l.017.614a4.694,4.694,0,0,1-1.154,3.316,4.011,4.011,0,0,1-3.1,1.249,4.031,4.031,0,0,1-3.1-1.245A4.777,4.777,0,0,1,20.98-4.466Zm2.4.17a3.357,3.357,0,0,0,.481,1.958,1.588,1.588,0,0,0,1.378.678A1.592,1.592,0,0,0,26.6-2.437a3.674,3.674,0,0,0,.49-2.141,3.324,3.324,0,0,0-.49-1.945,1.592,1.592,0,0,0-1.378-.69,1.566,1.566,0,0,0-1.361.686A3.735,3.735,0,0,0,23.379-4.4Z" transform="translate(1032.051 757)" fill="#12263f"/>
        <path id="Trazado_901260" data-name="Trazado 901260" d="M-19.308-4.026a4.277,4.277,0,0,1-1.44,3.071A5.058,5.058,0,0,1-24.172.166,4.548,4.548,0,0,1-27.828-1.4a6.416,6.416,0,0,1-1.332-4.3v-.739A7.245,7.245,0,0,1-28.546-9.5a4.6,4.6,0,0,1,1.756-2.038,4.918,4.918,0,0,1,2.652-.71,4.927,4.927,0,0,1,3.37,1.121,4.6,4.6,0,0,1,1.478,3.146h-2.49a2.524,2.524,0,0,0-.652-1.7,2.413,2.413,0,0,0-1.706-.527A2.116,2.116,0,0,0-26-9.318a5,5,0,0,0-.635,2.768v.913a5.352,5.352,0,0,0,.594,2.864,2.077,2.077,0,0,0,1.872.9,2.458,2.458,0,0,0,1.722-.527A2.381,2.381,0,0,0-21.8-4.026Zm6.524-2.706a6.517,6.517,0,0,0-.863-.066,1.757,1.757,0,0,0-1.785.921V0h-2.4V-8.981h2.266l.066,1.071a2.223,2.223,0,0,1,2-1.237,2.514,2.514,0,0,1,.747.108ZM-6.25-.913A3.008,3.008,0,0,1-8.708.166a2.837,2.837,0,0,1-2.2-.83A3.543,3.543,0,0,1-11.687-3.1V-8.981h2.4v5.809q0,1.4,1.278,1.4a1.732,1.732,0,0,0,1.677-.848V-8.981h2.407V0H-6.184Zm7.869-.855A1.573,1.573,0,0,0,2.7-2.133,1.28,1.28,0,0,0,3.129-3.1h2.25a3.077,3.077,0,0,1-.5,1.673A3.286,3.286,0,0,1,3.54-.253,4.2,4.2,0,0,1,1.66.166,3.9,3.9,0,0,1-1.378-1.058,4.845,4.845,0,0,1-2.49-4.441V-4.6a4.79,4.79,0,0,1,1.1-3.312,3.854,3.854,0,0,1,3.03-1.237,3.778,3.778,0,0,1,2.7.959A3.4,3.4,0,0,1,5.379-5.636H3.129A1.648,1.648,0,0,0,2.7-6.775a1.439,1.439,0,0,0-1.1-.438A1.445,1.445,0,0,0,.336-6.6,3.541,3.541,0,0,0-.091-4.62v.249a3.586,3.586,0,0,0,.423,2A1.463,1.463,0,0,0,1.619-1.768ZM10.882.166A4.409,4.409,0,0,1,7.666-1.046,4.308,4.308,0,0,1,6.425-4.275v-.232a5.426,5.426,0,0,1,.523-2.42A3.838,3.838,0,0,1,8.429-8.571a4.159,4.159,0,0,1,2.187-.577,3.727,3.727,0,0,1,2.9,1.162,4.722,4.722,0,0,1,1.058,3.3v.979H8.857a2.229,2.229,0,0,0,.7,1.411,2.12,2.12,0,0,0,1.482.531,2.589,2.589,0,0,0,2.167-1l1.179,1.32A3.6,3.6,0,0,1,12.924-.261,4.793,4.793,0,0,1,10.882.166Zm-.274-7.379A1.5,1.5,0,0,0,9.45-6.73a2.5,2.5,0,0,0-.569,1.384h3.337v-.192a1.786,1.786,0,0,0-.432-1.238A1.547,1.547,0,0,0,10.608-7.213Zm8.2-3.976v2.208h1.536v1.76H18.81v4.482A1.07,1.07,0,0,0,19-2.025a.959.959,0,0,0,.73.216,3.826,3.826,0,0,0,.706-.058V-.05a4.939,4.939,0,0,1-1.453.216,2.29,2.29,0,0,1-2.573-2.548V-7.222H15.1v-1.76h1.312v-2.208ZM26.886,0a2.664,2.664,0,0,1-.241-.805,2.9,2.9,0,0,1-2.266.971A3.189,3.189,0,0,1,22.192-.6a2.456,2.456,0,0,1-.867-1.926,2.538,2.538,0,0,1,1.058-2.191,5.222,5.222,0,0,1,3.059-.772h1.1V-6a1.48,1.48,0,0,0-.32-1,1.257,1.257,0,0,0-1.009-.374,1.429,1.429,0,0,0-.95.291.987.987,0,0,0-.344.8h-2.4a2.41,2.41,0,0,1,.481-1.444A3.182,3.182,0,0,1,23.367-8.77a4.961,4.961,0,0,1,1.976-.378,3.92,3.92,0,0,1,2.635.834,2.918,2.918,0,0,1,.975,2.345v3.893A4.294,4.294,0,0,0,29.31-.141V0ZM24.9-1.668a2.066,2.066,0,0,0,.979-.237,1.554,1.554,0,0,0,.664-.635V-4.084h-.9q-1.8,0-1.917,1.245l-.008.141a.96.96,0,0,0,.315.739A1.225,1.225,0,0,0,24.9-1.668Z" transform="translate(987.051 949)" fill="#12263f"/>
        <path id="Trazado_901259" data-name="Trazado 901259" d="M-18.6,0V-12.086h3.719a5.647,5.647,0,0,1,2.851.718,5.007,5.007,0,0,1,1.963,2.042,6.3,6.3,0,0,1,.706,3.009v.556a6.316,6.316,0,0,1-.693,3A4.964,4.964,0,0,1-12.007-.73,5.69,5.69,0,0,1-14.854,0Zm2.49-10.069V-2h1.2a2.7,2.7,0,0,0,2.233-.955,4.314,4.314,0,0,0,.789-2.731v-.639a4.382,4.382,0,0,0-.764-2.793,2.7,2.7,0,0,0-2.233-.95ZM-2.5,0a2.664,2.664,0,0,1-.241-.805A2.9,2.9,0,0,1-5.01.166,3.189,3.189,0,0,1-7.2-.6a2.456,2.456,0,0,1-.867-1.926A2.538,2.538,0,0,1-7.006-4.715a5.222,5.222,0,0,1,3.059-.772h1.1V-6a1.48,1.48,0,0,0-.32-1,1.257,1.257,0,0,0-1.009-.374,1.429,1.429,0,0,0-.95.291.987.987,0,0,0-.344.8h-2.4a2.41,2.41,0,0,1,.481-1.444A3.182,3.182,0,0,1-6.022-8.77a4.961,4.961,0,0,1,1.976-.378,3.92,3.92,0,0,1,2.635.834A2.918,2.918,0,0,1-.436-5.968v3.893A4.294,4.294,0,0,0-.079-.141V0ZM-4.487-1.668a2.066,2.066,0,0,0,.979-.237,1.554,1.554,0,0,0,.664-.635V-4.084h-.9q-1.8,0-1.917,1.245l-.008.141a.96.96,0,0,0,.315.739A1.225,1.225,0,0,0-4.487-1.668Zm5.52-2.889A5.413,5.413,0,0,1,1.976-7.9,3.057,3.057,0,0,1,4.553-9.147a2.751,2.751,0,0,1,2.167.979V-12.75H9.127V0H6.96L6.844-.955A2.823,2.823,0,0,1,4.536.166,3.049,3.049,0,0,1,1.992-1.083,5.587,5.587,0,0,1,1.033-4.557Zm2.4.171a3.565,3.565,0,0,0,.44,1.943,1.432,1.432,0,0,0,1.278.675A1.6,1.6,0,0,0,6.719-2.71V-6.271a1.582,1.582,0,0,0-1.552-.942Q3.432-7.213,3.432-4.386Zm7.18-.187a5.327,5.327,0,0,1,.515-2.382,3.768,3.768,0,0,1,1.482-1.619,4.323,4.323,0,0,1,2.245-.573,4.09,4.09,0,0,1,2.968,1.112A4.464,4.464,0,0,1,19.1-5.014l.017.614a4.694,4.694,0,0,1-1.154,3.316,4.011,4.011,0,0,1-3.1,1.249,4.031,4.031,0,0,1-3.1-1.245,4.777,4.777,0,0,1-1.158-3.387Zm2.4.17a3.357,3.357,0,0,0,.481,1.958,1.588,1.588,0,0,0,1.378.678,1.592,1.592,0,0,0,1.361-.669,3.674,3.674,0,0,0,.49-2.141,3.324,3.324,0,0,0-.49-1.945,1.592,1.592,0,0,0-1.378-.69,1.566,1.566,0,0,0-1.361.686A3.735,3.735,0,0,0,13.011-4.4Z" transform="translate(815.051 834)" fill="#12263f"/>
        <line id="Línea_221" data-name="Línea 221" y1="45" x2="20" transform="translate(1007.551 761.5)" fill="none" stroke="#2d3bf3" stroke-width="2"/>
        <line id="Línea_223" data-name="Línea 223" y1="67" x2="2.5" transform="translate(994.551 866.5)" fill="none" stroke="#2d3bf3" stroke-width="2"/>
        <line id="Línea_222" data-name="Línea 222" x1="74.5" y1="20" transform="translate(839.551 827.5)" fill="none" stroke="#2d3bf3" stroke-width="2"/>
      </g>
    </g>
    <g id="Grupo_1110517" data-name="Grupo 1110517" transform="translate(4 14.89)">
      <path id="Trazado_901142" data-name="Trazado 901142" d="M-3743.986-10808.066l-5.94,4.871.294,7.957,4.965,4.23,4.446-2.236,1.593-10.977Z" transform="translate(4791.799 11608.001)" fill="url(#linear-gradient-4)"/>
      <path id="Trazado_901141" data-name="Trazado 901141" d="M-3742.021-10799.271a7.662,7.662,0,0,1,3.116-6.122c2.076-1.73,5.7-.4,5.7-.4l-.516,12.7s-3.737.2-5.813-1.346S-3742.177-10796.534-3742.021-10799.271Z" transform="translate(4789.293 11608.206)" fill="url(#linear-gradient-3)"/>
      <path id="Trazado_901140" data-name="Trazado 901140" d="M-3727.961-10796.572v-5.547s-2.569-2.922-3.9-3.451-3.567.936-3.567.936-6.239,4.721-1.634,9.922a5.416,5.416,0,0,0,4.849,1.676c2.164-.361,3.807-3.115,3.807-3.115" transform="translate(4788.249 11608.018)" fill="url(#linear-gradient-20)"/>
      <ellipse id="Elipse_11644" data-name="Elipse 11644" cx="3" cy="4.5" rx="3" ry="4.5" transform="translate(1055.051 804.11)" fill="url(#linear-gradient-3)"/>
      <ellipse id="Elipse_11643" data-name="Elipse 11643" cx="1" cy="2" rx="1" ry="2" transform="translate(1057.051 806.11)" fill="url(#linear-gradient-3)"/>
      <path id="Trazado_901143" data-name="Trazado 901143" d="M-3745.771-10785.05h-2.921l-5.069-3.812,2.944-.472Z" transform="translate(4793.019 11602.043)" fill="url(#linear-gradient-3)"/>
      <path id="Trazado_901144" data-name="Trazado 901144" d="M-3751.178-10801h-2.684v8.345l2.983-.368Z" transform="translate(4793.051 11605.754)" fill="url(#linear-gradient-3)"/>
      <path id="Trazado_901145" data-name="Trazado 901145" d="M-3753.862-10803.1l5.1-4.514h3.447l-5.668,4.514Z" transform="translate(4793.051 11607.858)" fill="url(#linear-gradient-3)"/>
    </g>
  </g>
</svg>
