<svg xmlns="http://www.w3.org/2000/svg" xmlns:xlink="http://www.w3.org/1999/xlink" width="85.957" height="85.958" viewBox="0 0 85.957 85.958">
  <defs>
    <filter id="Trazado_874925" x="0" y="0" width="85.957" height="85.958" filterUnits="userSpaceOnUse">
      <feOffset dy="3" input="SourceAlpha"/>
      <feGaussianBlur stdDeviation="3" result="blur"/>
      <feFlood flood-opacity="0.161"/>
      <feComposite operator="in" in2="blur"/>
      <feComposite in="SourceGraphic"/>
    </filter>
  </defs>
  <g id="Grupo_1110571" data-name="Grupo 1110571" transform="translate(9 6)">
    <g transform="matrix(1, 0, 0, 1, -9, -6)" filter="url(#Trazado_874925)">
      <g id="Trazado_874925-2" data-name="Trazado 874925" transform="translate(9 6)" fill="#efd42f">
        <path d="M 33.97851181030273 66.45741271972656 C 29.59328269958496 66.45741271972656 25.34002113342285 65.59889984130859 21.33687210083008 63.90570449829102 C 17.46953201293945 62.26996612548828 13.99599170684814 59.92793655395508 11.0127420425415 56.94468688964844 C 8.029481887817383 53.96142578125 5.687451839447021 50.48788452148438 4.051712036132812 46.62054824829102 C 2.358521699905396 42.61740493774414 1.500001788139343 38.3641357421875 1.500001788139343 33.97890472412109 C 1.500001788139343 29.59328651428223 2.358521699905396 25.34001541137695 4.051712036132812 21.33686637878418 C 5.687451839447021 17.46952629089355 8.029481887817383 13.99598598480225 11.0127420425415 11.01273632049561 C 13.99599170684814 8.029476165771484 17.46953201293945 5.687446594238281 21.33687210083008 4.051706314086914 C 25.34002113342285 2.358516454696655 29.59328269958496 1.499996304512024 33.97851181030273 1.499996304512024 C 38.36374282836914 1.499996304512024 42.61701202392578 2.358516454696655 46.62015151977539 4.051706314086914 C 50.48749160766602 5.687446594238281 53.96103286743164 8.029476165771484 56.94429016113281 11.01273632049561 C 59.92754364013672 13.99598598480225 62.26957321166992 17.46952629089355 63.90531158447266 21.33686637878418 C 65.59850311279297 25.34001541137695 66.45702362060547 29.59328651428223 66.45702362060547 33.978515625 C 66.45702362060547 38.3641357421875 65.59850311279297 42.61740493774414 63.90531158447266 46.62054824829102 C 62.26957321166992 50.48788452148438 59.92754364013672 53.96142578125 56.94429016113281 56.94468688964844 C 53.96103286743164 59.92793655395508 50.48749160766602 62.26996612548828 46.62015151977539 63.90570449829102 C 42.61701202392578 65.59889984130859 38.36374282836914 66.45741271972656 33.97851181030273 66.45741271972656 Z" stroke="none"/>
        <path d="M 33.97851181030273 2.999992370605469 C 29.79512405395508 2.999992370605469 25.73845672607422 3.818649291992188 21.92119979858398 5.433204650878906 C 18.2326545715332 6.993328094482422 14.91938018798828 9.227405548095703 12.07340240478516 12.07339477539062 C 9.227413177490234 14.91937255859375 6.993335723876953 18.23265075683594 5.433212280273438 21.92119598388672 C 3.818656921386719 25.73844909667969 3 29.79511642456055 3 33.97890472412109 C 3 38.16230773925781 3.818656921386719 42.21897125244141 5.433212280273438 46.03621673583984 C 6.993335723876953 49.72476196289062 9.227413177490234 53.03804016113281 12.07340240478516 55.88401794433594 C 14.91938018798828 58.72999572753906 18.2326545715332 60.96407318115234 21.92119979858398 62.52419662475586 C 25.73845672607422 64.13874816894531 29.79512405395508 64.95740509033203 33.97851181030273 64.95740509033203 C 38.16191101074219 64.95740509033203 42.21857833862305 64.13874816894531 46.03583526611328 62.52419662475586 C 49.724365234375 60.96407318115234 53.03765487670898 58.72999572753906 55.88363265991211 55.88401794433594 C 58.72961044311523 53.03804016113281 60.96369171142578 49.72476196289062 62.52381134033203 46.03621673583984 C 64.13836669921875 42.21897125244141 64.95702362060547 38.16230773925781 64.95702362060547 33.97850799560547 C 64.95702362060547 29.79511642456055 64.13836669921875 25.73844909667969 62.52381134033203 21.92119598388672 C 60.96369171142578 18.23265075683594 58.72961044311523 14.91937255859375 55.88363265991211 12.07339477539062 C 53.03764343261719 9.227405548095703 49.724365234375 6.993328094482422 46.03583526611328 5.433204650878906 C 42.21857833862305 3.818649291992188 38.16191101074219 2.999992370605469 33.97851181030273 2.999992370605469 M 33.97851181030273 -7.62939453125e-06 C 52.74433517456055 -7.62939453125e-06 67.95702362060547 15.21269607543945 67.95702362060547 33.97850799560547 L 67.95702362060547 33.97890472412109 C 67.95702362060547 52.74472808837891 52.74433517456055 67.95740509033203 33.97851181030273 67.95740509033203 C 15.21269989013672 67.95740509033203 0 52.74472808837891 0 33.97890472412109 L 0 33.97850799560547 C 0 15.21269607543945 15.21269989013672 -7.62939453125e-06 33.97851181030273 -7.62939453125e-06 Z" stroke="none" fill="#fff"/>
      </g>
    </g>
    <g id="Layer_2" data-name="Layer 2" transform="translate(10.381 10.38)">
      <path id="Trazado_897972" data-name="Trazado 897972" d="M45.672,20.857l-1.955-.245a19.918,19.918,0,0,0-.952-3.575l1.566-1.186a1.483,1.483,0,0,0,.389-1.928l-1.656-2.869a1.483,1.483,0,0,0-1.861-.625l-1.814.766a20.094,20.094,0,0,0-2.616-2.616l.766-1.81a1.483,1.483,0,0,0-.625-1.861L34.043,3.251a1.483,1.483,0,0,0-1.924.389L30.933,5.206a19.919,19.919,0,0,0-3.575-.952L27.113,2.3A1.483,1.483,0,0,0,25.642,1H22.329a1.483,1.483,0,0,0-1.472,1.3l-.245,1.955a19.919,19.919,0,0,0-3.575.952L15.851,3.64a1.483,1.483,0,0,0-1.928-.389L11.058,4.908a1.483,1.483,0,0,0-.625,1.861L11.2,8.583A20.094,20.094,0,0,0,8.583,11.2l-1.814-.766a1.483,1.483,0,0,0-1.861.625L3.251,13.927a1.483,1.483,0,0,0,.389,1.928l1.566,1.186a19.919,19.919,0,0,0-.952,3.575L2.3,20.862A1.483,1.483,0,0,0,1,22.329v3.313a1.483,1.483,0,0,0,1.3,1.472l1.955.245a19.919,19.919,0,0,0,.952,3.575L3.64,32.12a1.483,1.483,0,0,0-.389,1.924l1.656,2.869a1.483,1.483,0,0,0,1.861.625l1.814-.766A20.094,20.094,0,0,0,11.2,39.389L10.433,41.2a1.483,1.483,0,0,0,.625,1.861l2.869,1.656a1.483,1.483,0,0,0,1.928-.389l1.186-1.566a19.919,19.919,0,0,0,3.575.952l.245,1.955a1.483,1.483,0,0,0,1.467,1.3h3.313a1.483,1.483,0,0,0,1.472-1.3l.245-1.955a19.919,19.919,0,0,0,3.575-.952l1.186,1.566a1.483,1.483,0,0,0,1.924.389l2.869-1.656a1.483,1.483,0,0,0,.625-1.861l-.766-1.814a20.094,20.094,0,0,0,2.616-2.616l1.814.766a1.483,1.483,0,0,0,1.861-.625l1.656-2.869a1.483,1.483,0,0,0-.389-1.924l-1.566-1.186a19.919,19.919,0,0,0,.952-3.575l1.955-.245a1.483,1.483,0,0,0,1.3-1.471V22.329a1.483,1.483,0,0,0-1.3-1.472ZM24.048,39.62a15.6,15.6,0,1,1,15.6-15.6A15.6,15.6,0,0,1,24.048,39.62Z" transform="translate(-0.259 -0.259)" fill="#f8c460"/>
      <path id="Trazado_897979" data-name="Trazado 897979" d="M37.339,43.979a23,23,0,0,1-30.1-30.1l-.47-.2A1.483,1.483,0,0,0,4.9,14.3L3.248,17.172A1.483,1.483,0,0,0,3.637,19.1L5.2,20.286a19.919,19.919,0,0,0-.952,3.575L2.3,24.106A1.483,1.483,0,0,0,1,25.576v3.313a1.483,1.483,0,0,0,1.3,1.472l1.955.245a19.919,19.919,0,0,0,.952,3.575L3.64,35.367a1.483,1.483,0,0,0-.389,1.924l1.656,2.869a1.483,1.483,0,0,0,1.861.625l1.814-.766A20.093,20.093,0,0,0,11.2,42.636l-.766,1.814a1.483,1.483,0,0,0,.625,1.861l2.869,1.656a1.483,1.483,0,0,0,1.928-.389l1.186-1.566a19.918,19.918,0,0,0,3.575.952l.245,1.955a1.483,1.483,0,0,0,1.467,1.3h3.313a1.483,1.483,0,0,0,1.472-1.3l.245-1.955a19.918,19.918,0,0,0,3.575-.952l1.186,1.566a1.483,1.483,0,0,0,1.924.389l2.869-1.656a1.483,1.483,0,0,0,.625-1.861Z" transform="translate(-0.259 -3.506)" fill="#faaf42"/>
      <path id="Trazado_897980" data-name="Trazado 897980" d="M26.384,10A16.345,16.345,0,1,0,42.729,26.345,16.345,16.345,0,0,0,26.384,10Zm0,31.206A14.862,14.862,0,1,1,41.246,26.344,14.862,14.862,0,0,1,26.384,41.206Z" transform="translate(-2.595 -2.585)"/>
      <path id="Trazado_897981" data-name="Trazado 897981" d="M45.505,19.863l-1.416-.177a20.753,20.753,0,0,0-.7-2.644l1.133-.858A2.224,2.224,0,0,0,45.1,13.3L43.45,10.428a2.224,2.224,0,0,0-2.794-.937l-1.315.555a20.969,20.969,0,0,0-1.934-1.934L37.963,6.8A2.224,2.224,0,0,0,37.025,4L34.156,2.35a2.229,2.229,0,0,0-2.886.584l-.858,1.134a20.805,20.805,0,0,0-2.644-.7l-.177-1.415A2.224,2.224,0,0,0,25.383,0H22.07a2.224,2.224,0,0,0-2.207,1.949l-.177,1.415a20.805,20.805,0,0,0-2.644.7l-.858-1.134A2.229,2.229,0,0,0,13.3,2.35L10.429,4A2.224,2.224,0,0,0,9.491,6.8l.555,1.314a20.969,20.969,0,0,0-1.934,1.934L6.8,9.491A2.224,2.224,0,0,0,4,10.428L2.35,13.3a2.224,2.224,0,0,0,.584,2.884l1.134.859a20.754,20.754,0,0,0-.7,2.644l-1.416.177A2.224,2.224,0,0,0,0,22.07v3.313a2.224,2.224,0,0,0,1.949,2.207l1.416.177a20.755,20.755,0,0,0,.7,2.644l-1.133.858a2.224,2.224,0,0,0-.584,2.885l1.657,2.871a2.229,2.229,0,0,0,2.79.937l1.315-.555a20.969,20.969,0,0,0,1.934,1.934l-.555,1.313a2.224,2.224,0,0,0,.938,2.795L13.3,45.106a2.228,2.228,0,0,0,2.886-.584l.858-1.134a20.806,20.806,0,0,0,2.644.7l.177,1.415a2.224,2.224,0,0,0,2.207,1.946h3.313a2.224,2.224,0,0,0,2.207-1.949l.177-1.415a20.805,20.805,0,0,0,2.644-.7l.858,1.134a2.229,2.229,0,0,0,2.886.584l2.869-1.656a2.224,2.224,0,0,0,.938-2.792l-.555-1.314a20.968,20.968,0,0,0,1.934-1.934l1.314.554a2.224,2.224,0,0,0,2.794-.936l1.656-2.871a2.224,2.224,0,0,0-.584-2.884l-1.134-.859a20.755,20.755,0,0,0,.7-2.644l1.416-.177a2.224,2.224,0,0,0,1.946-2.207V22.07a2.224,2.224,0,0,0-1.949-2.207Zm.466,5.52a.741.741,0,0,1-.65.736l-1.955.245a.741.741,0,0,0-.639.612,19.181,19.181,0,0,1-.916,3.442.741.741,0,0,0,.248.848l1.566,1.186a.741.741,0,0,1,.2.964l-1.656,2.871a.741.741,0,0,1-.931.311l-1.814-.765a.741.741,0,0,0-.862.207,19.5,19.5,0,0,1-2.521,2.521.741.741,0,0,0-.209.858l.765,1.814a.741.741,0,0,1-.312.931l-2.866,1.658a.741.741,0,0,1-.964-.194L31.263,42.06a.741.741,0,0,0-.849-.248,19.256,19.256,0,0,1-3.443.916.741.741,0,0,0-.611.638l-.245,1.955a.741.741,0,0,1-.736.65H22.07a.741.741,0,0,1-.736-.65l-.245-1.955a.741.741,0,0,0-.611-.638,19.256,19.256,0,0,1-3.443-.916.741.741,0,0,0-.849.248L15,43.626a.741.741,0,0,1-.964.194l-2.87-1.657a.741.741,0,0,1-.311-.931l.765-1.814a.741.741,0,0,0-.209-.858A19.5,19.5,0,0,1,8.89,36.04a.741.741,0,0,0-.859-.21l-1.81.765a.741.741,0,0,1-.93-.311L3.633,33.413a.741.741,0,0,1,.2-.964l1.566-1.186a.741.741,0,0,0,.248-.848,19.181,19.181,0,0,1-.916-3.442.741.741,0,0,0-.639-.612l-1.955-.245a.741.741,0,0,1-.648-.733V22.07a.741.741,0,0,1,.65-.736l1.955-.245a.741.741,0,0,0,.639-.612,19.181,19.181,0,0,1,.916-3.442.741.741,0,0,0-.248-.848L3.83,15a.741.741,0,0,1-.2-.964l1.656-2.871a.741.741,0,0,1,.931-.311l1.814.765a.741.741,0,0,0,.862-.207,19.5,19.5,0,0,1,2.521-2.521.741.741,0,0,0,.209-.858l-.77-1.813a.741.741,0,0,1,.312-.931l2.87-1.659A.741.741,0,0,1,15,3.827l1.186,1.566a.741.741,0,0,0,.849.248,19.255,19.255,0,0,1,3.443-.916.741.741,0,0,0,.611-.638l.245-1.955a.741.741,0,0,1,.733-.648h3.313a.741.741,0,0,1,.736.65l.245,1.955a.741.741,0,0,0,.611.638,19.255,19.255,0,0,1,3.443.916.741.741,0,0,0,.849-.248l1.186-1.566a.741.741,0,0,1,.964-.194l2.87,1.657a.741.741,0,0,1,.311.931l-.765,1.814a.741.741,0,0,0,.206.862,19.5,19.5,0,0,1,2.521,2.521.741.741,0,0,0,.859.21l1.814-.766a.741.741,0,0,1,.93.311l1.657,2.867a.741.741,0,0,1-.2.964L42.06,16.191a.741.741,0,0,0-.248.848,19.181,19.181,0,0,1,.916,3.442.741.741,0,0,0,.639.612l1.955.245a.741.741,0,0,1,.65.736Z" transform="translate(0 0)"/>
      <path id="Trazado_901243" data-name="Trazado 901243" d="M-.108-10.867a2.564,2.564,0,0,0,1.961-.686,2.717,2.717,0,0,0,.641-1.93,2.364,2.364,0,0,0-.673-1.727,2.513,2.513,0,0,0-1.879-.686,2.46,2.46,0,0,0-1.708.622,2.039,2.039,0,0,0-.692,1.587h-3.58l-.025-.076a4.2,4.2,0,0,1,1.676-3.58A6.686,6.686,0,0,1-.057-18.751,7.088,7.088,0,0,1,4.5-17.4a4.679,4.679,0,0,1,1.688,3.878,4.02,4.02,0,0,1-.73,2.33,4.988,4.988,0,0,1-2,1.669A4.668,4.668,0,0,1,5.694-7.865,4.524,4.524,0,0,1,6.481-5.18,4.816,4.816,0,0,1,4.646-1.187,7.343,7.343,0,0,1-.057.267,7.328,7.328,0,0,1-4.475-1.1,4.328,4.328,0,0,1-6.3-4.951l.025-.076h3.605a2.329,2.329,0,0,0,.73,1.746,2.6,2.6,0,0,0,1.885.7A2.86,2.86,0,0,0,2-3.326a2.5,2.5,0,0,0,.787-1.892A2.869,2.869,0,0,0,2.05-7.382a3.006,3.006,0,0,0-2.158-.7H-2.152v-2.78Z" transform="translate(23.721 32.598)" fill="#12263f"/>
    </g>
  </g>
</svg>
