<svg xmlns="http://www.w3.org/2000/svg" xmlns:xlink="http://www.w3.org/1999/xlink" width="109.652" height="109.653" viewBox="0 0 109.652 109.653">
  <defs>
    <filter id="Trazado_874925" x="0" y="0" width="109.652" height="109.653" filterUnits="userSpaceOnUse">
      <feOffset dy="3" input="SourceAlpha"/>
      <feGaussianBlur stdDeviation="3" result="blur"/>
      <feFlood flood-opacity="0.161"/>
      <feComposite operator="in" in2="blur"/>
      <feComposite in="SourceGraphic"/>
    </filter>
  </defs>
  <g id="Grupo_1110170" data-name="Grupo 1110170" transform="translate(-440.703 -3588)">
    <g transform="matrix(1, 0, 0, 1, 440.7, 3588)" filter="url(#Trazado_874925)">
      <g id="Trazado_874925-2" data-name="Trazado 874925" transform="translate(9 6)" fill="#efd42f">
        <path d="M 45.82614517211914 90.15280151367188 C 39.84149551391602 90.15280151367188 34.03665924072266 88.98104095458984 28.5728702545166 86.67005157470703 C 23.29473304748535 84.43759155273438 18.55415725708008 81.24130249023438 14.48283290863037 77.16998291015625 C 10.41150760650635 73.09866333007812 7.215232849121094 68.35809326171875 4.982757568359375 63.07994079589844 C 2.671770095825195 57.61616897583008 1.500007629394531 51.81131744384766 1.500007629394531 45.82666778564453 C 1.500007629394531 39.84149169921875 2.671770095825195 34.03665542602539 4.982757568359375 28.57286643981934 C 7.215232849121094 23.29472923278809 10.41150760650635 18.55415534973145 14.48283290863037 14.48283004760742 C 18.55415725708008 10.4115047454834 23.29473304748535 7.215229511260986 28.5728702545166 4.982754707336426 C 34.03665924072266 2.671766996383667 39.84149551391602 1.500004529953003 45.82614517211914 1.500004529953003 C 51.81079483032227 1.500004529953003 57.61564636230469 2.671766996383667 63.07942199707031 4.982754707336426 C 68.35756683349609 7.215229511260986 73.09814453125 10.4115047454834 77.16947174072266 14.48283004760742 C 81.24078369140625 18.55415534973145 84.43707275390625 23.29472923278809 86.66954803466797 28.57286643981934 C 88.98052978515625 34.03665542602539 90.15229797363281 39.84149169921875 90.15229797363281 45.82614135742188 C 90.15229797363281 51.81131744384766 88.98052978515625 57.61616897583008 86.66954803466797 63.07994079589844 C 84.43707275390625 68.35809326171875 81.24078369140625 73.09866333007812 77.16947174072266 77.16998291015625 C 73.09814453125 81.24130249023438 68.35756683349609 84.43759155273438 63.07942199707031 86.67005157470703 C 57.61564636230469 88.98104095458984 51.81079483032227 90.15280151367188 45.82614517211914 90.15280151367188 Z" stroke="none"/>
        <path d="M 45.82614517211914 3.000007629394531 C 40.04333114624023 3.000007629394531 34.43508911132812 4.131904602050781 29.15720367431641 6.364265441894531 C 24.05784606933594 8.521102905273438 19.47753143310547 11.60944366455078 15.54348754882812 15.54348754882812 C 11.60944366455078 19.47753143310547 8.521102905273438 24.05784606933594 6.3642578125 29.15720367431641 C 4.131904602050781 34.43508911132812 3 40.0433349609375 3 45.82667541503906 C 3 51.60948944091797 4.131904602050781 57.21773147583008 6.3642578125 62.49562072753906 C 8.521102905273438 67.59497833251953 11.60944366455078 72.17527770996094 15.54348754882812 76.10932922363281 C 19.47753143310547 80.04337310791016 24.05784606933594 83.13170623779297 29.15718841552734 85.28854370117188 C 34.43508911132812 87.52090454101562 40.04333114624023 88.65280151367188 45.82614517211914 88.65280151367188 C 51.60895919799805 88.65280151367188 57.21720123291016 87.52090454101562 62.49510192871094 85.28854370117188 C 67.59444427490234 83.13170623779297 72.17475891113281 80.04337310791016 76.10880279541016 76.10932922363281 C 80.0428466796875 72.17527770996094 83.13118743896484 67.59497833251953 85.28803253173828 62.49562072753906 C 87.5203857421875 57.21773147583008 88.65229034423828 51.60948944091797 88.65229034423828 45.82614898681641 C 88.65229034423828 40.0433349609375 87.5203857421875 34.43508911132812 85.28803253173828 29.15720367431641 C 83.13118743896484 24.05784606933594 80.0428466796875 19.47753143310547 76.10880279541016 15.54348754882812 C 72.17475891113281 11.60944366455078 67.59444427490234 8.521102905273438 62.49508666992188 6.364265441894531 C 57.21720123291016 4.131904602050781 51.60895919799805 3.000007629394531 45.82614517211914 3.000007629394531 M 45.82614517211914 7.62939453125e-06 C 71.13523101806641 7.62939453125e-06 91.65229034423828 20.51705932617188 91.65229034423828 45.82614898681641 L 91.65229034423828 45.82667541503906 C 91.65229034423828 71.13575744628906 71.13523101806641 91.65280151367188 45.82614517211914 91.65280151367188 C 20.51705932617188 91.65280151367188 0 71.13575744628906 0 45.82667541503906 L 0 45.82614898681641 C 0 20.51705932617188 20.51705932617188 7.62939453125e-06 45.82614517211914 7.62939453125e-06 Z" stroke="none" fill="#fff"/>
      </g>
    </g>
    <g id="Layer_2" data-name="Layer 2" transform="translate(463.703 3608)">
      <path id="Trazado_897972" data-name="Trazado 897972" d="M61.248,27.781l-2.637-.33a26.864,26.864,0,0,0-1.284-4.822l2.112-1.6a2,2,0,0,0,.525-2.6l-2.234-3.87a2,2,0,0,0-2.51-.843l-2.447,1.033a27.1,27.1,0,0,0-3.528-3.528L50.278,8.78a2,2,0,0,0-.843-2.51l-3.87-2.234a2,2,0,0,0-2.6.525l-1.6,2.112a26.864,26.864,0,0,0-4.822-1.284l-.33-2.637A2,2,0,0,0,34.234,1H29.766a2,2,0,0,0-1.985,1.752l-.33,2.637a26.864,26.864,0,0,0-4.822,1.284l-1.6-2.112a2,2,0,0,0-2.6-.525L14.565,6.27a2,2,0,0,0-.843,2.51l1.033,2.447a27.1,27.1,0,0,0-3.528,3.528L8.78,13.722a2,2,0,0,0-2.51.843l-2.234,3.87a2,2,0,0,0,.525,2.6l2.112,1.6a26.864,26.864,0,0,0-1.284,4.822l-2.637.33A2,2,0,0,0,1,29.766v4.468a2,2,0,0,0,1.752,1.985l2.637.33a26.864,26.864,0,0,0,1.284,4.822l-2.112,1.6a2,2,0,0,0-.525,2.6l2.234,3.87a2,2,0,0,0,2.51.843l2.447-1.033a27.1,27.1,0,0,0,3.528,3.528L13.722,55.22a2,2,0,0,0,.843,2.51l3.87,2.234a2,2,0,0,0,2.6-.525l1.6-2.112a26.864,26.864,0,0,0,4.822,1.284l.33,2.637A2,2,0,0,0,29.766,63h4.468a2,2,0,0,0,1.985-1.752l.33-2.637a26.865,26.865,0,0,0,4.822-1.284l1.6,2.112a2,2,0,0,0,2.6.525l3.87-2.234a2,2,0,0,0,.843-2.51l-1.033-2.447a27.1,27.1,0,0,0,3.528-3.528l2.447,1.033a2,2,0,0,0,2.51-.843l2.234-3.87a2,2,0,0,0-.525-2.6l-2.112-1.6a26.864,26.864,0,0,0,1.284-4.822l2.637-.33A2,2,0,0,0,63,34.234V29.766a2,2,0,0,0-1.752-1.985Zm-29.164,25.3A21.043,21.043,0,1,1,53.127,32.043,21.043,21.043,0,0,1,32.084,53.086Z" fill="#f8c460"/>
      <path id="Trazado_897973" data-name="Trazado 897973" d="M25.645,18.584l-.706-.707a3,3,0,0,0-4.237,0l1.412,1.413a2,2,0,0,1-2.824,2.824L17.877,20.7a3,3,0,0,0,0,4.237l.707.706a3,3,0,0,0,4.236,0L38.355,41.18a3,3,0,0,0,0,4.236l.706.707a3,3,0,0,0,4.237,0L41.886,44.71a2,2,0,1,1,2.824-2.824L46.123,43.3a3,3,0,0,0,0-4.237l-.707-.706a3,3,0,0,0-4.236,0L25.645,22.82a3,3,0,0,0,0-4.236Z" fill="#d6e4e8"/>
      <path id="Trazado_897974" data-name="Trazado 897974" d="M40.561,44.622l-.706-.706a3,3,0,0,1,0-4.236L24.32,24.145a3,3,0,0,1-4.236,0l-.706-.706a2.991,2.991,0,0,1-.878-2.114l-.622-.623a3,3,0,0,0,0,4.237l.706.706a3,3,0,0,0,4.236,0L38.355,41.18a3,3,0,0,0,0,4.236l.706.706a3,3,0,0,0,4.237,0l-.623-.622A2.991,2.991,0,0,1,40.561,44.622Z" fill="#baced3"/>
      <path id="Trazado_897975" data-name="Trazado 897975" d="M26.443,33.368l4.189,4.189-7.076,7.075a2.961,2.961,0,1,1-4.188-4.188Z" fill="#7a838b"/>
      <path id="Trazado_897976" data-name="Trazado 897976" d="M28.632,35.557l-7.076,7.075a2.949,2.949,0,0,1-2.924.736,2.92,2.92,0,0,0,.736,1.264,2.96,2.96,0,0,0,4.188,0l7.076-7.075Z" fill="#5d6972"/>
      <path id="Trazado_897977" data-name="Trazado 897977" d="M41.009,20.2l3.491-.7-.7,3.49L29.934,36.859l-2.793-2.793Z" fill="#d6e4e8"/>
      <path id="Trazado_897978" data-name="Trazado 897978" d="M43.25,19.75a7.539,7.539,0,0,1-2.064,3.856L28.934,35.859l1,1L43.8,22.99l.7-3.49Z" fill="#baced3"/>
      <path id="Trazado_897979" data-name="Trazado 897979" d="M50.01,54.586a31.014,31.014,0,0,1-40.6-40.6l-.634-.268a2,2,0,0,0-2.51.843l-2.234,3.87a2,2,0,0,0,.525,2.6l2.112,1.6a26.864,26.864,0,0,0-1.284,4.822l-2.637.33A2,2,0,0,0,1,29.766v4.468a2,2,0,0,0,1.752,1.985l2.637.33a26.864,26.864,0,0,0,1.284,4.822l-2.112,1.6a2,2,0,0,0-.525,2.6l2.234,3.87a2,2,0,0,0,2.51.843l2.447-1.033a27.1,27.1,0,0,0,3.528,3.528L13.722,55.22a2,2,0,0,0,.843,2.51l3.87,2.234a2,2,0,0,0,2.6-.525l1.6-2.112a26.864,26.864,0,0,0,4.822,1.284l.33,2.637A2,2,0,0,0,29.766,63h4.468a2,2,0,0,0,1.985-1.752l.33-2.637a26.864,26.864,0,0,0,4.822-1.284l1.6,2.112a2,2,0,0,0,2.6.525l3.87-2.234a2,2,0,0,0,.843-2.51Z" fill="#faaf42"/>
      <path id="Trazado_897980" data-name="Trazado 897980" d="M32.083,10A22.044,22.044,0,1,0,54.127,32.044,22.044,22.044,0,0,0,32.083,10Zm0,42.087A20.044,20.044,0,1,1,52.127,32.043,20.044,20.044,0,0,1,32.083,52.087Z"/>
      <path id="Trazado_897981" data-name="Trazado 897981" d="M61.372,26.789l-1.91-.239a27.991,27.991,0,0,0-.948-3.566l1.528-1.157a3,3,0,0,0,.788-3.891L58.6,14.064A3,3,0,0,0,54.832,12.8l-1.773.748a28.28,28.28,0,0,0-2.608-2.608L51.2,9.169A3,3,0,0,0,49.935,5.4l-3.87-2.23a3.006,3.006,0,0,0-3.892.787L41.016,5.486a28.06,28.06,0,0,0-3.566-.949l-.239-1.909A3,3,0,0,0,34.234,0H29.766a3,3,0,0,0-2.977,2.628L26.55,4.537a28.06,28.06,0,0,0-3.566.949L21.827,3.957a3.006,3.006,0,0,0-3.892-.787L14.065,5.4A3,3,0,0,0,12.8,9.169l.748,1.772a28.28,28.28,0,0,0-2.608,2.608L9.169,12.8A3,3,0,0,0,5.4,14.064L3.17,17.936a3,3,0,0,0,.787,3.89l1.529,1.158a27.991,27.991,0,0,0-.948,3.566l-1.91.239A3,3,0,0,0,0,29.766v4.468a3,3,0,0,0,2.628,2.977l1.91.239a27.991,27.991,0,0,0,.948,3.566L3.958,42.173a3,3,0,0,0-.788,3.891L5.4,49.936A3.006,3.006,0,0,0,9.168,51.2l1.773-.748a28.28,28.28,0,0,0,2.608,2.608L12.8,54.831A3,3,0,0,0,14.065,58.6l3.87,2.234a3,3,0,0,0,3.892-.787l1.157-1.529a28.059,28.059,0,0,0,3.566.949l.239,1.909A3,3,0,0,0,29.766,64h4.468a3,3,0,0,0,2.977-2.628l.239-1.909a28.059,28.059,0,0,0,3.566-.949l1.157,1.529a3.006,3.006,0,0,0,3.892.787l3.87-2.234A3,3,0,0,0,51.2,54.831l-.748-1.772a28.279,28.279,0,0,0,2.608-2.608l1.772.747A3,3,0,0,0,58.6,49.936l2.234-3.872a3,3,0,0,0-.787-3.89l-1.529-1.158a27.993,27.993,0,0,0,.948-3.566l1.91-.239A3,3,0,0,0,64,34.234V29.766a3,3,0,0,0-2.628-2.977ZM62,34.234a1,1,0,0,1-.876.993l-2.637.33a1,1,0,0,0-.862.825,25.869,25.869,0,0,1-1.236,4.642,1,1,0,0,0,.334,1.144l2.112,1.6a1,1,0,0,1,.263,1.3L56.864,48.94a1,1,0,0,1-1.255.419l-2.447-1.032A1,1,0,0,0,52,48.606a26.294,26.294,0,0,1-3.4,3.4,1,1,0,0,0-.282,1.157l1.032,2.446a1,1,0,0,1-.421,1.255L45.064,59.1a1,1,0,0,1-1.3-.262l-1.6-2.112a1,1,0,0,0-1.145-.334,25.97,25.97,0,0,1-4.643,1.236,1,1,0,0,0-.824.861l-.33,2.637a1,1,0,0,1-.993.876H29.766a1,1,0,0,1-.993-.876l-.33-2.637a1,1,0,0,0-.824-.861,25.97,25.97,0,0,1-4.643-1.236,1,1,0,0,0-1.145.334l-1.6,2.112a1,1,0,0,1-1.3.262L15.06,56.865a1,1,0,0,1-.42-1.255l1.032-2.446a1,1,0,0,0-.282-1.157,26.294,26.294,0,0,1-3.4-3.4,1,1,0,0,0-1.158-.283L8.391,49.356a1,1,0,0,1-1.254-.42L4.9,45.064a1,1,0,0,1,.263-1.3l2.112-1.6a1,1,0,0,0,.334-1.144,25.869,25.869,0,0,1-1.236-4.642,1,1,0,0,0-.862-.825l-2.637-.33A1,1,0,0,1,2,34.234V29.766a1,1,0,0,1,.876-.993l2.637-.33a1,1,0,0,0,.862-.825,25.869,25.869,0,0,1,1.236-4.642,1,1,0,0,0-.334-1.144l-2.112-1.6a1,1,0,0,1-.263-1.3L7.136,15.06a1,1,0,0,1,1.255-.419l2.447,1.032A1,1,0,0,0,12,15.394a26.294,26.294,0,0,1,3.4-3.4,1,1,0,0,0,.282-1.157L14.644,8.392a1,1,0,0,1,.421-1.255L18.936,4.9a1,1,0,0,1,1.3.262l1.6,2.112a1,1,0,0,0,1.145.334,25.969,25.969,0,0,1,4.643-1.236,1,1,0,0,0,.824-.861l.33-2.637A1,1,0,0,1,29.766,2h4.468a1,1,0,0,1,.993.876l.33,2.637a1,1,0,0,0,.824.861A25.969,25.969,0,0,1,41.024,7.61a1,1,0,0,0,1.145-.334l1.6-2.112a1,1,0,0,1,1.3-.262L48.94,7.137a1,1,0,0,1,.42,1.255l-1.032,2.446A1,1,0,0,0,48.606,12a26.294,26.294,0,0,1,3.4,3.4,1,1,0,0,0,1.158.283l2.447-1.033a1,1,0,0,1,1.254.42L59.1,18.936a1,1,0,0,1-.263,1.3l-2.112,1.6a1,1,0,0,0-.334,1.144,25.868,25.868,0,0,1,1.236,4.642,1,1,0,0,0,.862.825l2.637.33A1,1,0,0,1,62,29.77Z"/>
      <path id="Trazado_897982" data-name="Trazado 897982" d="M41.27,37.031l-5.048-5.047L44.509,23.7a1,1,0,0,0,.273-.51l.7-3.491A1,1,0,0,0,44.3,18.52l-3.491.7a1.01,1.01,0,0,0-.511.273L32.012,27.78,26.97,22.73a4,4,0,0,0-.618-4.853l-.706-.706a3.994,3.994,0,0,0-5.651,0,1,1,0,0,0,0,1.414L21.407,20a1,1,0,0,1,0,1.41,1.02,1.02,0,0,1-1.41,0L18.584,20a1,1,0,0,0-1.414,0,4,4,0,0,0,0,5.651l.706.706a4,4,0,0,0,4.854.617l5.047,5.047-.637.638a1,1,0,0,0-1.4.007l-7.075,7.075a3.962,3.962,0,0,0,5.6,5.6l7.076-7.076a1,1,0,0,0,.007-1.4l.638-.638L37.03,41.27a4,4,0,0,0,.618,4.853l.706.706a3.994,3.994,0,0,0,5.651,0,1,1,0,0,0,0-1.414L42.593,44a1,1,0,0,1,0-1.41,1.02,1.02,0,0,1,1.41,0L45.416,44a1,1,0,0,0,1.414,0,4,4,0,0,0,0-5.651l-.706-.706a4,4,0,0,0-4.854-.614Zm.23-15.912,1.723-.345L42.88,22.5,29.934,35.444l-1.379-1.378ZM23.527,24.938a1,1,0,0,0-1.414,0,2,2,0,0,1-2.822,0l-.707-.707a2,2,0,0,1-.516-1.924l.515.514a3.068,3.068,0,0,0,4.239,0,3,3,0,0,0,0-4.238l-.516-.517a2.032,2.032,0,0,1,1.927.519l.706.706a2,2,0,0,1,0,2.822,1,1,0,0,0,0,1.414L30.6,29.192,29.191,30.6Zm-.678,18.988a1.962,1.962,0,1,1-2.774-2.776l6.368-6.368,2.775,2.775Zm23.084-2.232-.516-.515a3.068,3.068,0,0,0-4.239,0,3,3,0,0,0,0,4.238l.516.517a2.033,2.033,0,0,1-1.927-.519l-.706-.706a2,2,0,0,1,0-2.822,1,1,0,0,0,0-1.414L33.4,34.808l1.41-1.41,5.665,5.664a1,1,0,0,0,1.414,0,2,2,0,0,1,2.822,0l.707.707a2,2,0,0,1,.517,1.925Z"/>
      <path id="Trazado_897983" data-name="Trazado 897983" d="M26.707,37.293a1,1,0,0,0-1.414,0l-4,4a1,1,0,1,0,1.414,1.414l4-4A1,1,0,0,0,26.707,37.293Z"/>
    </g>
  </g>
</svg>
