<svg xmlns="http://www.w3.org/2000/svg" xmlns:xlink="http://www.w3.org/1999/xlink" width="296" height="230" viewBox="0 0 296 230">
  <defs>
    <clipPath id="clip-path">
      <rect id="Rectángulo_404638" data-name="Rectángulo 404638" width="296" height="230" transform="translate(285.051 1125)" fill="#2d3bf3"/>
    </clipPath>
  </defs>
  <g id="Grupo_1110586" data-name="Grupo 1110586" transform="translate(-285.051 -1125)">
    <g id="Enmascarar_grupo_1098738" data-name="Enmascarar grupo 1098738" clip-path="url(#clip-path)">
      <rect id="Rectángulo_404374" data-name="Rectángulo 404374" width="296" height="230" transform="translate(285.051 1125)" fill="#2d3bf3"/>
      <g id="Grupo_1110460" data-name="Grupo 1110460" transform="translate(414.53 1119.475)">
        <path id="Trazado_901246" data-name="Trazado 901246" d="M44.83,0A44.83,44.83,0,1,1,0,44.83,44.83,44.83,0,0,1,44.83,0Z" transform="translate(38.79 58.11)" fill="#efd42f"/>
        <g id="Grupo_1110459" data-name="Grupo 1110459" transform="translate(18.52 44.132)">
          <path id="Trazado_900952" data-name="Trazado 900952" d="M362.491,317.735l-1.03,1.048a1.762,1.762,0,0,0,2.513,2.47l1.03-1.048a1.762,1.762,0,1,0-2.513-2.47Z" transform="translate(-274.761 -248.472)" fill="#0f0e0e"/>
          <path id="Trazado_900953" data-name="Trazado 900953" d="M30.065,207.69H43.939a6.706,6.706,0,0,0,5.509,2.887H89.231a11.017,11.017,0,0,0,7.81-3.274l6.524-6.638a1.762,1.762,0,0,0-2.513-2.47l-6.524,6.638a7.472,7.472,0,0,1-5.3,2.221H49.448a3.189,3.189,0,0,1-3.186-3.186V173.7a2.9,2.9,0,0,1,2.9-2.9h39a5.782,5.782,0,0,1,5.29,3.45l2.784,6.32a1.763,1.763,0,0,0,2.259.929l23.679-9.333,6.479,2.331v5.444l-5.855-2.332a1.762,1.762,0,0,0-1.908.4l-10.377,10.557a1.762,1.762,0,0,0,2.513,2.47l9.556-9.722,7.182,2.86a1.762,1.762,0,0,0,2.414-1.637v-9.281a1.762,1.762,0,0,0-1.166-1.658l-8.269-2.975a1.765,1.765,0,0,0-1.242.019L98.78,177.6l-2.1-4.77a9.308,9.308,0,0,0-8.515-5.553H80.653v-5.222a5.836,5.836,0,0,0-.266-11.667H72.63a1.762,1.762,0,1,0,0,3.524h7.757a2.313,2.313,0,1,1,0,4.625H57.2a2.313,2.313,0,1,1,0-4.625h2.866a1.762,1.762,0,1,0,0-3.524H57.2a5.836,5.836,0,0,0-.266,11.667v5.222H49.16a6.431,6.431,0,0,0-6.333,5.364H30.065A11.558,11.558,0,0,0,18.52,184.185v11.96A11.558,11.558,0,0,0,30.065,207.69Zm30.39-45.629H77.129v5.215H60.455Zm-17.717,36.1H33.5a4.445,4.445,0,0,1-4.44-4.439v-6.833a4.445,4.445,0,0,1,4.44-4.439h9.238ZM22.044,184.185a8.03,8.03,0,0,1,8.021-8.021H42.738v2.761H33.5a7.972,7.972,0,0,0-7.964,7.963v6.833a7.972,7.972,0,0,0,7.964,7.963h9.238v2.48H30.065a8.03,8.03,0,0,1-8.021-8.021Z" transform="translate(-18.52 -123.642)" fill="#0f0e0e"/>
          <path id="Trazado_900954" data-name="Trazado 900954" d="M201.349,153.911h1.039a1.762,1.762,0,1,0,0-3.524h-1.039a1.762,1.762,0,1,0,0,3.524Z" transform="translate(-154.011 -123.642)" fill="#0f0e0e"/>
          <path id="Trazado_900955" data-name="Trazado 900955" d="M397.269,302.12a1.762,1.762,0,0,0-2.252,0c-.456.379-11.161,9.378-11.161,18.773,0,7.143,4.593,11.407,12.287,11.407s12.286-4.264,12.286-11.407C408.429,311.5,397.725,302.5,397.269,302.12Zm7.636,18.773c0,3.149-1.028,5.3-3.141,6.565a12.652,12.652,0,0,1-11.242,0c-2.114-1.269-3.141-3.417-3.141-6.565,0-6.144,6.172-12.605,8.764-15.049a42.222,42.222,0,0,1,3.888,4.191C402.255,312.8,404.905,316.924,404.905,320.893Z" transform="translate(-291.898 -236.877)" fill="#0f0e0e"/>
          <path id="Trazado_900956" data-name="Trazado 900956" d="M302.21,71.433l2.037.18a19.355,19.355,0,0,0,2.22,5.357l-1.314,1.568a1.762,1.762,0,0,0,.1,2.377l4,4a1.762,1.762,0,0,0,2.377.1L313.2,83.7a19.354,19.354,0,0,0,5.357,2.22l.18,2.037a1.762,1.762,0,0,0,1.755,1.607h5.654a1.762,1.762,0,0,0,1.755-1.607l.18-2.037a19.354,19.354,0,0,0,5.357-2.22l1.568,1.314a1.762,1.762,0,0,0,2.377-.1l4-4a1.762,1.762,0,0,0,.1-2.377l-1.314-1.568a19.355,19.355,0,0,0,2.22-5.357l2.037-.18a1.762,1.762,0,0,0,1.607-1.755V64.023a1.762,1.762,0,0,0-1.607-1.755l-2.037-.18a19.361,19.361,0,0,0-2.22-5.357l1.314-1.568a1.762,1.762,0,0,0-.1-2.377l-4-4a1.762,1.762,0,0,0-2.377-.1L333.44,50a19.361,19.361,0,0,0-5.357-2.22l-.18-2.037a1.762,1.762,0,0,0-1.755-1.607h-5.654a1.762,1.762,0,0,0-1.755,1.607l-.18,2.037A19.365,19.365,0,0,0,313.2,50l-1.568-1.314a1.762,1.762,0,0,0-2.378.1l-4,4a1.762,1.762,0,0,0-.1,2.377l1.314,1.568a19.36,19.36,0,0,0-2.22,5.357l-2.037.18a1.762,1.762,0,0,0-1.607,1.755v5.654A1.762,1.762,0,0,0,302.21,71.433Zm1.917-5.8,1.728-.153a1.762,1.762,0,0,0,1.58-1.45,15.937,15.937,0,0,1,2.662-6.425A1.762,1.762,0,0,0,310,55.467l-1.115-1.33,1.717-1.717,1.33,1.114a1.762,1.762,0,0,0,2.142.093,15.945,15.945,0,0,1,6.426-2.662,1.762,1.762,0,0,0,1.45-1.58l.153-1.728h2.428l.153,1.728a1.762,1.762,0,0,0,1.45,1.58,15.939,15.939,0,0,1,6.425,2.662,1.763,1.763,0,0,0,2.142-.093l1.33-1.114,1.717,1.717-1.115,1.33a1.762,1.762,0,0,0-.092,2.142,15.936,15.936,0,0,1,2.662,6.425,1.762,1.762,0,0,0,1.58,1.45l1.728.153v2.428l-1.728.153a1.762,1.762,0,0,0-1.58,1.45,15.938,15.938,0,0,1-2.662,6.425,1.762,1.762,0,0,0,.092,2.142l1.115,1.33-1.717,1.717-1.33-1.114a1.761,1.761,0,0,0-2.142-.092,15.933,15.933,0,0,1-6.425,2.662,1.762,1.762,0,0,0-1.45,1.58l-.153,1.728h-2.428l-.153-1.728a1.762,1.762,0,0,0-1.45-1.58,15.933,15.933,0,0,1-6.425-2.662,1.761,1.761,0,0,0-2.142.092l-1.33,1.114-1.717-1.717L310,78.234a1.762,1.762,0,0,0,.092-2.142,15.939,15.939,0,0,1-2.662-6.425,1.762,1.762,0,0,0-1.58-1.45l-1.728-.153Z" transform="translate(-229.6 -44.132)" fill="#0f0e0e"/>
          <path id="Trazado_900957" data-name="Trazado 900957" d="M362.983,115.889a9.376,9.376,0,1,0-9.376-9.376A9.387,9.387,0,0,0,362.983,115.889Zm0-15.229a5.852,5.852,0,1,1-5.852,5.852A5.859,5.859,0,0,1,362.983,100.66Z" transform="translate(-269.262 -83.795)" fill="#0f0e0e"/>
        </g>
      </g>
      <g id="Grupo_1110544" data-name="Grupo 1110544" transform="translate(303.647 1137.299)">
        <g id="Grupo_1110587" data-name="Grupo 1110587">
          <path id="Trazado_900670" data-name="Trazado 900670" d="M239.84,303c-3.229.678-6.315,1.428-9.271,2.348-.058-.191-.117-.382-.177-.572-4.3-13.392-15.928-24.328-17.2-38.231-.918-10.062-4.623-13.508-7.5-20.675-.521-1.3-.974-2.628-1.377-3.974-1.718-5.721-2.579-11.756-4.333-17.192l19.055,5.7c6.486,1.531,7.314,26.206,11.754,34.288,6.325,11.509,4.976,25.952,9.046,38.313" transform="translate(-108.067 -121.423)" fill="#e8a273"/>
          <path id="Trazado_900671" data-name="Trazado 900671" d="M235.7,323.284c-.068-.17-.141-.341-.213-.509-4.3-13.392-15.928-24.328-17.2-38.231-.918-10.062-4.623-13.508-7.5-20.675-.521-1.3-.973-2.627-1.377-3.974l7.426-1.88c1.828,1.513,1.947,9.385,2.262,12.567.409,4.154.248,7.914.5,12.064.491,8.047,5.394,15.912,9.108,23.122,2.642,5.129,7,11.766,6.987,17.517" transform="translate(-113.161 -139.425)" fill="#c87e53"/>
          <path id="Trazado_900672" data-name="Trazado 900672" d="M230.263,299.608q-.011.5-.046,1.007c1.548.995,3.532,1.807,4.718,1.377,1.9-.69,3.088-4.906,3.475-6.9-2.228,3.376-4.8,5.328-8.147,4.518" transform="translate(-124.404 -159.459)" fill="#c87e53"/>
          <path id="Trazado_900673" data-name="Trazado 900673" d="M276.158,407.559c-1.145,2.6-3.642,5.469-5.046,7.126-2.013.359-2.831.722-4.553-.66a19.371,19.371,0,0,1-2.549-3.167c-1.008-1.274-.995-1.14-.534-2.444.149-.422.319-.829.495-1.225.289-.639.6-1.253.9-1.861a10.659,10.659,0,0,0,1.458-4.993,8.058,8.058,0,0,1,.528-3.85,8.7,8.7,0,0,1,.948-1.412,5.894,5.894,0,0,0,.929-1.549l5.04.032a73.28,73.28,0,0,1,2.954,11.108,5.474,5.474,0,0,1-.573,2.894" transform="translate(-142.213 -212.651)" fill="#e8a273"/>
          <path id="Trazado_900674" data-name="Trazado 900674" d="M260.358,419.335l4.274,17.477-9.384-.524,2.206-16.516Z" transform="translate(-137.93 -226.598)" fill="#dd3514"/>
          <path id="Trazado_900675" data-name="Trazado 900675" d="M270.344,457.13a2.657,2.657,0,0,1-2.658,2.657H207.746a2.658,2.658,0,1,1,0-5.315h59.941a2.658,2.658,0,0,1,2.658,2.658" transform="translate(-110.824 -245.585)" fill="#ff4817"/>
          <path id="Trazado_900676" data-name="Trazado 900676" d="M269.725,543.054v4.06a2.953,2.953,0,0,1-2.953,2.953H211.78a2.952,2.952,0,0,1-2.9-2.4,2.906,2.906,0,0,1-.053-.555v-4.06a2.9,2.9,0,0,1,.053-.554,2.952,2.952,0,0,1,2.9-2.4h54.992a2.953,2.953,0,0,1,2.935,2.63,2.9,2.9,0,0,1,.018.323" transform="translate(-112.845 -291.857)" fill="#343b3f"/>
          <path id="Trazado_900677" data-name="Trazado 900677" d="M260.22,463.027v5.693c0,1.465-3.193,3.974-6.074,5.726H202.684c-2.777-1.685-5.948-4.213-5.948-5.726v-5.693c0-.083,0-.164.006-.245.084-2.3,1.372-4.134,2.947-4.134h57.579c1.575,0,2.863,1.829,2.947,4.134,0,.081.006.162.006.245" transform="translate(-106.311 -247.842)" fill="#1c262b"/>
          <path id="Trazado_900678" data-name="Trazado 900678" d="M261.5,484.024v35.74H211.842a2.951,2.951,0,0,1-2.9-2.4V484.024Z" transform="translate(-112.907 -261.555)" fill="#1c262b"/>
          <rect id="Rectángulo_404417" data-name="Rectángulo 404417" width="42.536" height="32.48" transform="translate(115.393 222.469)" fill="#343b3f"/>
          <path id="Trazado_900679" data-name="Trazado 900679" d="M292.98,463.027v5.693c0,1.465-2.644,3.974-5.029,5.726H245.346c-2.3-1.685-4.925-4.213-4.925-5.726v-5.693c0-.083,0-.164.005-.245.07-2.3,1.136-4.134,2.44-4.134h47.67c1.3,0,2.37,1.829,2.439,4.134,0,.081.005.162.005.245" transform="translate(-129.918 -247.842)" fill="#444c51"/>
          <path id="Trazado_900680" data-name="Trazado 900680" d="M292.98,467.887V470.3H240.421v-2.413c0-.083,0-.164.005-.245h52.549c0,.081.005.162.005.245" transform="translate(-129.918 -252.702)" fill="#1c262b"/>
          <path id="Trazado_900681" data-name="Trazado 900681" d="M293.414,543.054v4.06a2.735,2.735,0,0,1-2.444,2.953H253.142a2.735,2.735,0,0,1-2.445-2.953v-4.06a3.47,3.47,0,0,1,.166-1.07,2.5,2.5,0,0,1,2.278-1.883H293.4v2.63c.01.107.015.214.015.323" transform="translate(-135.47 -291.857)" fill="#343b3f"/>
          <rect id="Rectángulo_404418" data-name="Rectángulo 404418" width="7.474" height="8.858" transform="translate(97.613 213.906)" fill="#ff4817"/>
          <rect id="Rectángulo_404419" data-name="Rectángulo 404419" width="2.686" height="8.858" transform="translate(101.689 213.906)" fill="#343b3f"/>
          <path id="Trazado_900682" data-name="Trazado 900682" d="M276.158,421.918c-1.145,2.6-3.642,5.469-5.046,7.126-2.013.359-2.831.722-4.553-.66a19.367,19.367,0,0,1-2.549-3.167c-1.008-1.274-.995-1.14-.534-2.444.149-.422.319-.829.495-1.225a3.574,3.574,0,0,1,1.341-.321,10.848,10.848,0,0,0,2.655-.357c.959-.289,1.764-.929,2.735-.738.721.142,1.587.773,2.413,1a20.144,20.144,0,0,0,2.686.759,2.784,2.784,0,0,0,.356.022" transform="translate(-142.213 -227.01)" fill="#c87e53"/>
          <path id="Trazado_900683" data-name="Trazado 900683" d="M275.567,417.435l5.5,18.462-9.048.237,1.064-15.859Z" transform="translate(-146.992 -225.571)" fill="#ff4817"/>
          <path id="Trazado_900684" data-name="Trazado 900684" d="M270.583,418.849c0,.645-.8,1.169-1.787,1.169h-4.468c-.987,0-1.787-.524-1.787-1.169v-2.338c0-.645.8-1.169,1.787-1.169H268.8c.987,0,1.787.523,1.787,1.169Z" transform="translate(-141.87 -224.441)" fill="#ff4817"/>
          <path id="Trazado_900685" data-name="Trazado 900685" d="M263.069,403.23a17.809,17.809,0,0,1-4.425,3.742,2.192,2.192,0,0,0-.5.355c-1.133,1.083-.449,2.941-1.668,3.941-1.837,1.5-1.875-2.668-1.755-3.617a14.506,14.506,0,0,1,.568-2.411,25.981,25.981,0,0,1,2.329-5.295c.876-1.431,3.984-5.4,3.984-5.4,1.4.358,3.448,3,3.71,4.59.3,1.842-1.059,2.76-2.247,4.1" transform="translate(-137.625 -213.201)" fill="#e8a273"/>
          <path id="Trazado_900686" data-name="Trazado 900686" d="M256.479,423.846c-1.837,1.5-1.875-2.668-1.755-3.617a14.466,14.466,0,0,1,.568-2.411,3.653,3.653,0,0,0,1.174,1.317,5.243,5.243,0,0,0,1.68.769c-1.133,1.083-.448,2.941-1.668,3.941" transform="translate(-137.625 -225.778)" fill="#c87e53"/>
          <path id="Trazado_900687" data-name="Trazado 900687" d="M43.295,225.8c-.091.244-.176.478-.255.7-1.667,4.712-4.266,8.531-6.518,12.865-2.369,4.563,1.042,11.583,1.523,16.473.736,7.486-1.66,13.98-1.257,21.615.1,1.924.282,3.784.523,5.593a96.342,96.342,0,0,0,2.936,13.569l-10.5-.313c-.144.25-9.325-23.7-10.3-34.935a119.79,119.79,0,0,1-.752-12.817,29.538,29.538,0,0,1,.967-6.484c.176-.714.36-1.4.545-2.038.1-.359.208-.7.308-1.02a43.129,43.129,0,0,0,1.432-7.1c1.349-8.771,4.9-21.446,11.527-28.143,3.461,1.364,10.445,4.018,12.523,7.572,1.97,3.366-1.153,10.33-2.7,14.467" transform="translate(-10.102 -110.11)" fill="#e8a273"/>
          <path id="Trazado_900688" data-name="Trazado 900688" d="M52.859,255.859c-2.369,4.563,1.042,11.583,1.523,16.473.735,7.487-1.661,13.98-1.257,21.616.1,1.924.281,3.783.523,5.593-.02-.077-.039-.154-.057-.23-1.2-4.957-1.322-10.353-1.322-15.769,0-5.988-1.167-10.778-2.354-16.42-1.059-5.02-1.588-10.6.091-15.678,1.865-5.642,5.688-11.342,6.955-17.165l2.671,8.014q-.136.367-.255.7c-1.667,4.712-4.266,8.531-6.518,12.865" transform="translate(-26.439 -126.599)" fill="#c87e53"/>
          <path id="Trazado_900689" data-name="Trazado 900689" d="M27.05,283.093c-1.537,1.515-4.028,1.853-6.253,1.619.176-.714.36-1.4.544-2.038a9.3,9.3,0,0,0,5.709.419" transform="translate(-11.238 -152.75)" fill="#c87e53"/>
          <path id="Trazado_900690" data-name="Trazado 900690" d="M34.424,283.465c-.007.007-.015.013-.022.02l.037-.006q.13-.15-.015-.014" transform="translate(-18.59 -153.143)" fill="#c87e53"/>
          <path id="Trazado_900691" data-name="Trazado 900691" d="M133.971,179.38a33.325,33.325,0,0,1-.991,4.389,31.547,31.547,0,0,1-1.409,3.8,30.572,30.572,0,0,1-2.155,4c-3.24,5.075-3.021,22.666-3.445,36.535,0,.067,0,.132-.006.2q-.03,1.011-.067,1.987c-.082,2.2-.188,4.273-.336,6.154-.017.21-.033.417-.05.621v0q-.048.57-.1,1.114c-.075.757-.159,1.474-.255,2.145-.481,3.413-1.228,5.625-2.431,5.875a41.5,41.5,0,0,0-4.978,1.411c-3.532,1.195-6.833,2.523-10.98,2.737l-.975.05c-6.441.349-12.15.8-18.25.393-1.441-.1-2.9-.238-4.4-.443a12.7,12.7,0,0,1-1.463-.293c-4.439-1.15-9.824-4.691-13.249-7.55-1.417-1.183-1.548-3.386-1.255-5.848.007-.052.013-.105.02-.159,0-.01,0-.018,0-.028.051-.4.111-.8.179-1.2v0c.353-2.14.9-4.363,1.1-6.208a11.71,11.71,0,0,0,.084-1.33c0-11.981-6.432-26.589-8.584-38.25-.426-2.306-1-5.05-1.659-7.828a90.658,90.658,0,0,0-2.959-10.186c-6.888-18.383,9.48-22.711,18.569-24.583,3.182-.654,5.471-1.007,5.56-1.557l.208.017c2.849.222,34.075,2.673,36.208,3.447q.4.143.793.292a86.651,86.651,0,0,1,8.058,3.472c.623.308,1.21.612,1.754.907a23.505,23.505,0,0,1,3.583,2.255c.5.419,1.917,3.274,2.991,7.5a40.946,40.946,0,0,1,.893,16.163" transform="translate(-29.022 -78.531)" fill="#e5f0fe"/>
          <path id="Trazado_900692" data-name="Trazado 900692" d="M131.381,253.915q-.03,1.01-.067,1.987c-.082,2.2-.187,4.273-.335,6.154-.017.21-.034.417-.05.621l0,0q-.048.57-.1,1.114c-.075.757-.16,1.474-.255,2.145-.481,3.413-1.228,5.625-2.431,5.874a41.566,41.566,0,0,0-4.978,1.411,113.845,113.845,0,0,1-18.635,2.626,135.666,135.666,0,0,1-17.436-.181c-4.439-1.15-9.824-4.691-13.249-7.55-1.417-1.183-1.548-3.387-1.255-5.848.007-.052.013-.105.02-.159,0-.01,0-.018,0-.029q.076-.594.18-1.2v0c.353-2.14.9-4.363,1.1-6.208a11.925,11.925,0,0,0,.084-1.33c0-11.981-6.432-26.589-8.584-38.251-.426-2.305-1-5.05-1.659-7.828l10.11-14.543c1.594,1.1,3.016,15.848,3.016,20.107,0,7.795-1.838,24.8.749,31.9a21.656,21.656,0,0,1,9.512.065c-1.569.687-6.17.985-8.066,2.917A19.309,19.309,0,0,1,86,250.21a21.47,21.47,0,0,0-6.409.706,6.466,6.466,0,0,0-.516,4.362c17.141,4.03,36.1,4.762,52.305-1.362" transform="translate(-34.439 -104.141)" fill="#bdd9fd"/>
          <path id="Trazado_900693" data-name="Trazado 900693" d="M190.267,69.735c6.029-4.689,4.37,7.964,2.312,10.917-1.549,2.222-3.048,1.463-3.745-1.648-.553-2.47.015-8.166,1.433-9.269" transform="translate(-101.929 -37.126)" fill="#e8a273"/>
          <path id="Trazado_900694" data-name="Trazado 900694" d="M191.046,73.416c.448-.982,1.354-2.053,2.247-1.652,1.115.5,1.088,2.52.786,3.741.138-1.009-.006-2.755-.968-2.75-.737,0-1.282,1.393-1.737,2.018,1.141.409,1.826,2.381,1.61,3.946-.285,2.064-1.508,1.886-2.553,1.126,0,0,.039-.032.132.024a2.437,2.437,0,0,0,.744-3.188c-.326-.662-.653-.6-.7-1.445a4.451,4.451,0,0,1,.438-1.821" transform="translate(-102.904 -38.733)" fill="#c87e53"/>
          <path id="Trazado_900695" data-name="Trazado 900695" d="M144.235,116.9c-13.392,18.662-38.092-2.625-38.092-2.625s4.747-2.037,6.2-5.864c.866-2.282,1.677-3.465,2.079-6.089a35.17,35.17,0,0,0,.374-3.691c.122-2.663,1.374-10.781-.005-12.314l24.127,8.043c-.551,4.07-1.48,8.782-1.019,13.068a16.8,16.8,0,0,0,.9,3.68c1.232,3.432,3.859,4.726,5.435,5.794" transform="translate(-57.357 -46.645)" fill="#e8a273"/>
          <path id="Trazado_900696" data-name="Trazado 900696" d="M147.633,107.43a16.791,16.791,0,0,0,.9,3.679,10.849,10.849,0,0,1-2.081,1.292c-9.966,4.68-18.269-1.721-22.3-10.077a35.054,35.054,0,0,0,.374-3.692c.122-2.662,1.374-10.78-.005-12.314l24.127,8.043c-.552,4.07-1.48,8.782-1.019,13.068" transform="translate(-67.091 -46.645)" fill="#c87e53"/>
          <path id="Trazado_900697" data-name="Trazado 900697" d="M185.952,41.024l-.335.168c2.936.067,3.938,6.314,4.03,8.378.152,3.414.155,6.876.159,10.338.851-4.421,6.853-21.875-3.854-18.884" transform="translate(-100.303 -21.983)" fill="#4c3431"/>
          <path id="Trazado_900698" data-name="Trazado 900698" d="M155.3,71.725c-3.579,4.388-11.58,5.926-17.264,3.914a24.366,24.366,0,0,1-6.657-3.912A35.155,35.155,0,0,1,127.3,67.94c-3.338-3.661-2.6-10.476-2.6-15.171,0-3.258,1.93-14.863-.336-16.421l8.043-5.7a21.87,21.87,0,0,1,5.7-2.607c4.3-1.3,11-2.223,15.008.336,4.465,2.853,4.177,24.669,3.349,30.087a12.109,12.109,0,0,0-.136,1.806c-.011,4.3,2.007,7.73-1.03,11.453" transform="translate(-67.207 -14.459)" fill="#e8a273"/>
          <path id="Trazado_900699" data-name="Trazado 900699" d="M150.712,21.75a15.905,15.905,0,0,0-10.679-3.8c-6.3.333-15.868,2.417-20.358,6.534,0,0-5.84,5.023,1.658,25.864,3.04-3.774,4.22-12.115,4.524-17.259,4.407-2.675,6.887-4.774,11.913-5.332a30.676,30.676,0,0,1,8.35.19c2.343.384,6.211,1.959,6.714,4.807.482-2.988.323-8.771-2.123-11" transform="translate(-63.499 -9.691)" fill="#4c3431"/>
          <path id="Trazado_900700" data-name="Trazado 900700" d="M116.222,69.968c-8.115-5.922-6.306,7.671-3.586,11.117,2.047,2.592,4.136,2.038,5.21-1.124.853-2.511.285-8.6-1.624-9.993" transform="translate(-59.624 -37.012)" fill="#e8a273"/>
          <path id="Trazado_900701" data-name="Trazado 900701" d="M118.336,74c-.579-1.107-1.785-2.383-3.028-2.106-1.552.345-1.59,2.476-1.221,3.811-.151-1.085.111-2.9,1.434-2.737,1.014.125,1.71,1.676,2.314,2.408-1.585.244-2.6,2.209-2.361,3.892.314,2.22,2,2.231,3.468,1.6,0,0-.052-.039-.182,0a2.359,2.359,0,0,1-.9-3.478c.473-.643.92-.526,1.014-1.407A4.088,4.088,0,0,0,118.336,74" transform="translate(-61.545 -38.83)" fill="#c87e53"/>
          <path id="Trazado_900702" data-name="Trazado 900702" d="M151.92,13.883a12.105,12.105,0,0,0-7.553,1.187,8.965,8.965,0,0,0-.905.513l-1.317.158-.253.03-12.64,4.049a41.929,41.929,0,0,0-7.285,4.508l0,0-.2.164c-1.634,1.349-4.3,4.755-4.8,6.52-1.132-2.549-1.512-6.7-1.782-9.65a24.407,24.407,0,0,1,.633-9.155c.553-1.72,2.577-4.324,5.469-6.685,7.087-5.787,19.4-10.12,28.081,3.553q.459.721.906,1.515.212.376.421.768.631,1.187,1.229,2.522" transform="translate(-62.158 0)" fill="#0c60bc"/>
          <path id="Trazado_900703" data-name="Trazado 900703" d="M161.918,33.319,152.7,32.313c-1.836,1.106-3.614,3.926-5.906,5.2-1.969,1.1-4.386,1.451-6.276,2.338,1.643,1.172,5.794.284,7.653-.2a18.1,18.1,0,0,0,6.514-2.921c-.589,2.778-2.95,4.751-5.152,6.1a18.847,18.847,0,0,0,7.859-3.192c1.445-1.03,5.263-4.447,4.524-6.325" transform="translate(-75.934 -17.461)" fill="#4c3431"/>
          <path id="Trazado_900704" data-name="Trazado 900704" d="M182.01,41.595a5.9,5.9,0,0,1-.221,1.806l-.039.022c-1.672.92-3.609,2.13-7.786-.449-.272-3.333-1.649-7.486-7.436-9.023-.6-.161-1.193-.3-1.77-.407-4.7-.92-8.53-.376-12.207-.233l7.7-2.927c1.629-.432,3.381-.82,5.263-1.144a19.089,19.089,0,0,1,5.92.223c4.946,1.3,9.433,6.221,10.575,12.133" transform="translate(-82.435 -15.727)" fill="#1b3572"/>
          <path id="Trazado_900705" data-name="Trazado 900705" d="M160.811,109.088c-3.579,4.389-11.58,5.926-17.264,3.914a24.366,24.366,0,0,1-6.657-3.912,13.57,13.57,0,0,1-1.228-2.709c-.823-2.5-2.849-7.619,2.262-9.211,1.964-.612,14.243-2.765,23.917.466-.011,4.3,2.007,7.73-1.03,11.453" transform="translate(-72.716 -51.822)" fill="#705250"/>
          <path id="Trazado_900706" data-name="Trazado 900706" d="M139.622,62.947c.281-1.178.923-1.592,2.436-1.7,2.262-.168,6.2-.5,7.456.419.419,1.676-.877,4.07-1.64,4.078-.612-.246-4.822-2.316-5.733-2.151s-2.355.781-2.586,1.873a5.2,5.2,0,0,1,.066-2.515" transform="translate(-75.343 -32.986)" fill="#382523"/>
          <path id="Trazado_900707" data-name="Trazado 900707" d="M180.167,68.385c-2.876.262-3.826,1.938-4.636,4.5,0,0,3.016,1.492,7.7.143.04-2.5-1.057-4.831-3.059-4.648" transform="translate(-94.853 -36.948)" fill="#c87e53"/>
          <path id="Trazado_900708" data-name="Trazado 900708" d="M183.225,74.274a14.727,14.727,0,0,1-1.654.377c-.23.04-.453.071-.671.1a12.43,12.43,0,0,1-2.684.035,10.222,10.222,0,0,1-1.054-.155,7.1,7.1,0,0,1-1.632-.5,14.331,14.331,0,0,1,1.3-1.806q.2-.23.417-.438a3.784,3.784,0,0,1,2.806-1.211,2.744,2.744,0,0,1,.486.059,2.917,2.917,0,0,1,1.885,1.352,5.666,5.666,0,0,1,.8,2.188" transform="translate(-94.852 -38.189)" fill="#fff"/>
          <path id="Trazado_900709" data-name="Trazado 900709" d="M182.43,74.748a12.43,12.43,0,0,1-2.684.035,10.2,10.2,0,0,1-1.054-.155,8.413,8.413,0,0,1-.332-2.3q.2-.23.417-.438a3.781,3.781,0,0,1,2.806-1.211,2.739,2.739,0,0,1,.486.059c1.106.665.6,3.283.36,4.014" transform="translate(-96.381 -38.19)" fill="#4c1710"/>
          <path id="Trazado_900710" data-name="Trazado 900710" d="M185.23,74.167c0,.506-.213.916-.475.916s-.475-.41-.475-.916.213-.916.475-.916.475.41.475.916" transform="translate(-99.58 -39.583)" fill="#fff"/>
          <path id="Trazado_900711" data-name="Trazado 900711" d="M144.224,67.606c3.127.285,4.159,2.106,5.039,4.9,0,0-3.279,1.623-8.365.156-.045-2.719,1.148-5.252,3.325-5.053" transform="translate(-76.137 -36.527)" fill="#c87e53"/>
          <path id="Trazado_900712" data-name="Trazado 900712" d="M149.265,73.852a7.741,7.741,0,0,1-1.774.541,11.207,11.207,0,0,1-1.146.169l-.025,0a13.566,13.566,0,0,1-2.893-.04c-.237-.028-.479-.062-.729-.1-.2-.034-.4-.07-.607-.115q-.576-.119-1.191-.3a6.159,6.159,0,0,1,.869-2.378c.029-.045.06-.092.093-.137a3.126,3.126,0,0,1,1.956-1.333,3.034,3.034,0,0,1,.529-.064,3.739,3.739,0,0,1,2.233.654,5.549,5.549,0,0,1,.818.662c.157.152.307.31.454.476a15.636,15.636,0,0,1,1.413,1.964" transform="translate(-76.139 -37.876)" fill="#fff"/>
          <path id="Trazado_900713" data-name="Trazado 900713" d="M147.769,71.142a19.22,19.22,0,0,1-.319,3.421,13.562,13.562,0,0,1-2.892-.04c-.237-.028-.479-.062-.729-.1-.2-.034-.4-.07-.607-.115a18.03,18.03,0,0,1-.229-2.81,3.124,3.124,0,0,1,1.956-1.333,2.992,2.992,0,0,1,.528-.064,3.738,3.738,0,0,1,2.233.654,1.023,1.023,0,0,0,.058.393" transform="translate(-77.27 -37.876)" fill="#4c1710"/>
          <path id="Trazado_900714" data-name="Trazado 900714" d="M144.465,74.314c0,.57.231,1.033.516,1.033s.516-.462.516-1.033-.231-1.033-.516-1.033-.516.462-.516,1.033" transform="translate(-78.065 -39.599)" fill="#fff"/>
          <path id="Trazado_900715" data-name="Trazado 900715" d="M169.8,83.979c-.743-1.094-1.511-6.676-1.82-7.736a50.628,50.628,0,0,0-.867,7.935,14.67,14.67,0,0,0-2.874.361c1.127,2.015,7.57,2.4,5.561-.56" transform="translate(-88.752 -41.2)" fill="#c87e53"/>
          <path id="Trazado_900716" data-name="Trazado 900716" d="M183.636,60.066c-.452-1.115-1.065-1.421-2.354-1.295-1.927.188-5.288.474-6.173,1.576-.044,1.713,1.481,3.864,2.122,3.752.468-.338,3.617-3.03,4.411-3.009a2.77,2.77,0,0,1,2.511,1.437,6.074,6.074,0,0,0-.516-2.462" transform="translate(-94.624 -31.744)" fill="#382523"/>
          <path id="Trazado_900717" data-name="Trazado 900717" d="M167.659,102.7a15.228,15.228,0,0,1-3.156,4.5,8.888,8.888,0,0,1-4.684,2.46,9.539,9.539,0,0,1-6.608-1.8c-1.434-1.165-2.665-5.6-2.668-5.74l.116.118c1.558,1.047,9.4,1.4,14.025,1a11.264,11.264,0,0,0,2.976-.54" transform="translate(-81.35 -55.187)" fill="#c87e53"/>
          <path id="Trazado_900718" data-name="Trazado 900718" d="M164.1,106.245a2.888,2.888,0,0,0,.4.957,8.885,8.885,0,0,1-4.684,2.461,9.454,9.454,0,0,1-6.608-1.8,8.289,8.289,0,0,1-2.668-5.74l.116.118c1.558,1.047,9.4,1.4,14.025,1a5.648,5.648,0,0,0-.577,1.535,3.463,3.463,0,0,0-.006,1.467" transform="translate(-81.35 -55.186)" fill="#fff"/>
          <path id="Trazado_900719" data-name="Trazado 900719" d="M166.5,108.611c-3.037.356-9.33.2-11.52-2.107a27.765,27.765,0,0,0,11.526.64,3.463,3.463,0,0,0-.006,1.467" transform="translate(-83.746 -57.552)" fill="#ead9d8"/>
          <path id="Trazado_900720" data-name="Trazado 900720" d="M152.387,21.235c-2.913.978-7.473-.848-10.243,1l-.253.03-12.64,4.048a41.987,41.987,0,0,0-7.285,4.509l0,0-.2.164c-1.634,1.349-4.3,4.755-4.8,6.52-1.132-2.549-1.512-6.7-1.782-9.65a24.407,24.407,0,0,1,.633-9.155c.553-1.721,2.577-4.324,5.469-6.685-.815,2.963-2.15,9.972.8,11.89,2.161,1.405,9.116-3.346,11.542-4.455a42.539,42.539,0,0,1,12.017-3.687,25.1,25.1,0,0,1,3.721-.195q.459.722.906,1.515c.142.25,1.979,3.886,2.118,4.147" transform="translate(-62.158 -6.495)" fill="#1b3572"/>
          <path id="Trazado_900721" data-name="Trazado 900721" d="M169.656,41.595a5.9,5.9,0,0,1-.221,1.806l-.039.022c-1.092-5.487-4.6-9.316-9.167-10.449a13.24,13.24,0,0,0-7.606.489c-.072.025-.146.052-.219.08q-.347.136-.716.312c-6.355,3.038-16.788,14.792-22,6.248a.22.22,0,0,0,.022-.02l0,0c.422-.394,5.6-6.366,18.185-9.7,1.629-.432,3.381-.82,5.263-1.144a19.089,19.089,0,0,1,5.92.223c4.946,1.3,9.433,6.221,10.575,12.133" transform="translate(-70.081 -15.727)" fill="#0a64d4"/>
          <path id="Trazado_900722" data-name="Trazado 900722" d="M226.291,214.629c-.1-.164-.2-.325-.3-.487-5.654-.069-21.078,6.44-24.487,12.458a51.274,51.274,0,0,1-1.667-8.563c-.969-6.964-1.886-15.137-4.32-17.33l7.536-36.212c10.538,3.974,11.8,10.521,13.433,13.583,2.16,4.054,3.234,8.612,4.146,12.989,1.375,6.6,2.451,15.428,4.808,21.57.267.7.552,1.368.857,1.992" transform="translate(-105.649 -88.89)" fill="#e5f0fe"/>
          <path id="Trazado_900723" data-name="Trazado 900723" d="M231.37,231.13c-.1-.164-.2-.325-.3-.487-5.654-.069-21.078,6.44-24.487,12.458a51.278,51.278,0,0,1-1.667-8.563l9.714-39.507c4.871,10.077-3.493,26.868,2.817,36.106,4.014-2.239,8.577-2.456,13.071-2,.267.7.552,1.368.857,1.992" transform="translate(-110.729 -105.39)" fill="#bdd9fd"/>
          <path id="Trazado_900724" data-name="Trazado 900724" d="M47.371,178.854a43.549,43.549,0,0,1-.572,4.407c-1.867,10.082-5.157,26.334-8.378,32.171-12.513-4.219-26.458-14.772-26.594-14.62a36.01,36.01,0,0,0,3.44-6.215c2.446-5.447,4.432-11.976,6.4-17.084,1.676-4.35,3.556-8.857,6.537-12.693,2.25-2.9,4.65-9.417,16.713-11.93,0,0,3.44,13.639,2.45,25.963" transform="translate(-6.392 -82.619)" fill="#e5f0fe"/>
          <path id="Trazado_900725" data-name="Trazado 900725" d="M47.371,209.379a43.548,43.548,0,0,1-.572,4.407c-1.867,10.082-5.157,26.334-8.378,32.171-12.513-4.219-26.458-14.772-26.594-14.62a36.011,36.011,0,0,0,3.44-6.215c1.253,2.478,2.457,5.139,5.04,6.843,3.9,2.566,9.764,6.159,14.427,6.617,8.835.868,10.818-20.9,12.138-27.143.147-.7.352-1.364.5-2.061" transform="translate(-6.392 -113.143)" fill="#bdd9fd"/>
          <path id="Trazado_900726" data-name="Trazado 900726" d="M93.46,594.458l.052-.023-.052-.014q-.373.019,0,.037" transform="translate(-50.403 -321.21)" fill="#991027"/>
          <path id="Trazado_900727" data-name="Trazado 900727" d="M31.158,741.558c-10.418.558-15.656.808-24.187-.186a7.034,7.034,0,0,1,1.185-4.828,5.937,5.937,0,0,1,5.142-2.987A11.227,11.227,0,0,0,19.02,732.1c4.5-2.605,5.8-7.868,5.23-8.781l4.094,6.326c.016,2.693,2.994,8.368,2.814,11.917" transform="translate(-3.713 -390.862)" fill="#2b3238"/>
          <path id="Trazado_900728" data-name="Trazado 900728" d="M28.37,747.016c-4.085-.49-7.712-1.644-12.076-1.265a26.42,26.42,0,0,0-5.768.776,6.075,6.075,0,0,0-.862.34,5.936,5.936,0,0,1,5.141-2.987,11.23,11.23,0,0,0,5.723-1.461c.261.089.521.188.779.294,2.032.839,6.192,2.109,7.062,4.3" transform="translate(-5.223 -401.185)" fill="#191e21"/>
          <path id="Trazado_900729" data-name="Trazado 900729" d="M179.7,741.558c10.418.558,15.655.808,24.187-.186a7.031,7.031,0,0,0-1.185-4.828,5.938,5.938,0,0,0-5.142-2.987,11.227,11.227,0,0,1-5.723-1.461c-4.5-2.605-5.8-7.868-5.23-8.781l-4.093,6.326c-.016,2.693-2.994,8.368-2.814,11.917" transform="translate(-97.099 -390.862)" fill="#2b3238"/>
          <path id="Trazado_900730" data-name="Trazado 900730" d="M189.055,747.016c4.085-.49,7.712-1.644,12.075-1.265a26.42,26.42,0,0,1,5.768.776,6.109,6.109,0,0,1,.863.34,5.938,5.938,0,0,0-5.142-2.987,11.231,11.231,0,0,1-5.723-1.461c-.26.089-.521.188-.779.294-2.032.839-6.192,2.109-7.062,4.3" transform="translate(-102.161 -401.185)" fill="#191e21"/>
          <path id="Trazado_900731" data-name="Trazado 900731" d="M96.226,336.679c.007.6.011,1.2.013,1.788.005,1.06,0,2.117-.028,3.185-.025.989-.067,1.99-.132,3.02a68.922,68.922,0,0,1-.972,7.885c-.181,1.01-.4,1.958-.647,2.857-.028.107-.059.216-.089.323-1.565,5.505-4.175,9.214-6.056,14.971q-.156.472-.3.962-.236.786-.531,1.683c-.376,1.147-.82,2.425-1.321,3.814v0c-.337.938-.7,1.927-1.087,2.959-1.036,2.778-2.228,5.88-3.505,9.189-7.876,20.392-18.939,48.574-15.92,56.7,2.622,7.052.111,18.526-3.971,30.122-.568,1.617-1.168,3.236-1.788,4.846q-.312.8-.626,1.605c-.106.268-.211.535-.319.8-.182.455-.367.911-.55,1.363-.063.154-.125.307-.189.459q-.276.676-.556,1.349l-.33.786c-.22.52-.439,1.041-.66,1.554-2.652,6.188-5.382,11.92-7.57,16.453-.092.188-.181.376-.272.559l-.265.548c-.087.179-.173.357-.258.533s-.17.35-.253.521c-.124.257-.246.509-.365.756-.04.082-.08.162-.119.244q-.116.241-.232.478l-.112.233-.432.9c-.069.144-.137.285-.2.424-.034.07-.067.139-.1.208-.064.135-.127.269-.191.4-.032.066-.062.131-.092.194-.06.129-.119.256-.178.377-.03.061-.058.123-.085.182-.055.12-.11.238-.164.352s-.1.225-.154.333q-.224.489-.4.893c-.059.136-.114.263-.166.386l-.1.232c-.03.075-.058.145-.085.214-.04.1-.075.194-.105.281-.061.005-.126.01-.2.014l-.148.006h-.079c-.109,0-.228,0-.353,0-.046,0-.091,0-.136,0-.288-.006-.608-.023-.951-.046l-.114-.009c-.379-.028-.781-.064-1.191-.107-.129-.014-.258-.027-.387-.042-.268-.032-.54-.064-.806-.1l-.268-.036c-.2-.027-.392-.056-.583-.084l-.2-.03-.125-.02-.305-.05c-.027-.005-.053-.011-.08-.014l-.224-.04c-.119-.02-.233-.041-.343-.063-.24-.046-.462-.094-.666-.141l-.109-.025-.03-.007-.173-.044,0,0-.186-.052c-.087-.027-.167-.052-.238-.077-.569-2.366-.98-15.181-.556-29.145q.028-.9.06-1.806.053-1.515.121-3.041.055-1.213.117-2.428.033-.609.065-1.216t.071-1.207c.025-.4.05-.806.075-1.208s.053-.8.08-1.195.055-.8.085-1.194.061-.788.091-1.179c.047-.588.1-1.175.146-1.756.034-.386.069-.769.1-1.151v0q.106-1.149.225-2.265c.216-2.047.462-4.014.739-5.864.744-4.975,1.717-9.091,2.972-11.635.694-1.406,1.292-2.775,1.815-4.119l.08-.208c.37-.962.7-1.911,1-2.853.28-.882.529-1.756.756-2.63.31-1.19.578-2.373.816-3.565.291-1.46.54-2.929.769-4.427.548-3.576.989-7.312,1.662-11.47,1.824-11.258,3.29-34.75,4.7-49.827.1-1.117.208-2.189.313-3.206q.04-.4.082-.794c.172-1.657.347-3.155.521-4.453.084-.624.167-1.2.251-1.729.032-.2.064-.4.1-.585.543-3.163,1.265-10.057,2.1-16.014.144-1.03.293-2.033.445-2.983.307-1.912.625-3.613.954-4.9l.035.008c2.346.568,5.148,1.076,8.271,1.511,1.934.267,3.99.506,6.136.716.05-.2.1-.4.153-.6.464-1.818.985-4.046,1.523-6.6l6.15.9v0l.568.082,3.261-.831,2.559-.652h0l1.949-.5.089-.023,1.78-.455,6.166-1.571c-.02.533-.035,1.052-.049,1.563-.02.849-.034,1.669-.039,2.466,0,.024,0,.047,0,.071q-.008,1.095,0,2.136c.009,1.7.035,3.313.054,4.886" transform="translate(-19.525 -175.923)" fill="#e01235"/>
          <path id="Trazado_900732" data-name="Trazado 900732" d="M61.678,632.994c-6.067,17.244-15.608,34.768-16.918,38.464a31.8,31.8,0,0,1-7.9-.97c-.929-3.854-1.437-35.569,1.422-54.659a24.889,24.889,0,0,0,.569,4.161c2.375,10.177,13.526,15.75,22.824,13" transform="translate(-19.525 -332.779)" fill="#991027"/>
          <path id="Trazado_900733" data-name="Trazado 900733" d="M169.136,462.333c.007,2.653-.089,5.538-.265,8.547-1.061,18.272-5.014,41.128-6.284,44.2a7.493,7.493,0,0,1-.761.092,38.381,38.381,0,0,1-6.689-.183c-.194-.03-.364-.06-.5-.094-.759-3.738-7.648-21.932-11.141-39.366-2.351-11.725-2.922-22.979.454-29.519,5.813-11.252-.893-41.863-6.734-67.631-.079-.345-.156-.687-.235-1.029v0c-3.477-15.318-6.58-28.79-6.456-35.255.171-8.9-.977-4.35.163-12.254,0-.022.006-.046.008-.067s.008-.059.013-.089v0c.171-1.2.334-2.458.486-3.8l5.871,2.383.03.013h0l1.664.674,4.378,1.778,3.1,1.26.747-.023,18.936-.559c-1.047,1.056,1.873,4.64,2.21,6.734.107.662.186,1.491.241,2.441.362,6.2-.243,17.586-.134,21.937,0,.182.007.376.01.575q.01.779,0,1.7c0,.152-.005.307-.008.464-.02,1.159-.062,2.465-.124,3.89-.052,1.218-.116,2.525-.191,3.9-.8,14.693-2.768,37.483-2.6,48.562.06,4.093-.046,7.747-.025,11.262.01,1.471.04,2.921.117,4.365.062,1.178.154,2.354.288,3.542q.083.742.188,1.49c.151,1.065.34,2.145.575,3.244.07.33.144.662.223,1,.322,1.366.716,2.767,1.2,4.216.871,2.622,1.235,6.719,1.248,11.607" transform="translate(-70.344 -176.1)" fill="#e01235"/>
          <path id="Trazado_900734" data-name="Trazado 900734" d="M118.7,227.612c.66,16.162-2.021,34.108-4.433,45.726-.037.176-1.935,8.294-2.009,8.562a14.276,14.276,0,0,1-1.332,3.837l3.13.143.895.04,21.679.987,3.063.139,17.222.781a2.134,2.134,0,0,1,.149-.742c.056-.186.121-.4.2-.645.188-.6.443-1.354.734-2.2.477-1.4,5.686-15.486,7.276-59.568-20.5-1.741-44.228,2.42-46.572,2.942" transform="translate(-59.939 -121.177)" fill="#e01235"/>
          <path id="Trazado_900735" data-name="Trazado 900735" d="M141.022,352.12l-.315.055c-.31.054-.623.107-.937.158a144.529,144.529,0,0,1-17.914,1.612c-.868.028-1.719.052-2.547.07-1.659.037-3.231.05-4.677.05-2.143,0-4.015-.032-5.5-.07-3.643-.092-7.552-.286-11.454-.6-4.243-.34-8.48-.818-12.366-1.45-2.068-.337-4.036-.717-5.855-1.146-.074-.017-.149-.033-.223-.051l-.109-.027.02-.165.3-1.255v0c.369-2.223.932-4.536,1.145-6.453l.266.065.035.009c2.346.568,5.148,1.076,8.271,1.511,1.934.266,3.99.506,6.136.716a209.978,209.978,0,0,0,24.162.874,132.147,132.147,0,0,0,20.823-1.895c.012,0,.022-.006.034-.007.085-.017.172-.032.258-.051.632-.12,1.252-.248,1.853-.382a46.546,46.546,0,0,0-1.4,8.432" transform="translate(-42.756 -185.266)" fill="#991027"/>
          <path id="Trazado_900736" data-name="Trazado 900736" d="M139.941,412.547q-.344.063-.675.132c.212-.032.438-.076.675-.132" transform="translate(-75.256 -222.93)" fill="#991027"/>
          <path id="Trazado_900737" data-name="Trazado 900737" d="M153.316,379.991a10.949,10.949,0,0,1-2.8,1.147c-.831.229-1.7.405-2.58.556-1.218.211-2.441.377-3.562.583a14.881,14.881,0,0,0,3.77-1.513,8.2,8.2,0,0,0,2.339-1.858,3.086,3.086,0,0,0,.449-.746c.588-1.451.56-15.05.728-23.1l1.846-.387c.7,7.719.11,21.944-.194,25.321" transform="translate(-78.018 -191.655)" fill="#991027"/>
          <path id="Trazado_900738" data-name="Trazado 900738" d="M177.147,514.93c-1.061,18.272-5.014,41.128-6.284,44.2a7.491,7.491,0,0,1-.761.092,38.435,38.435,0,0,1-6.689-.183c-.194-.03-.364-.06-.5-.094-.759-3.738-7.648-21.932-11.141-39.367-2.351-11.726-2.922-22.978.454-29.518,5.813-11.252-.893-41.863-6.734-67.631.742-1.9,1.922-7.213,3.051-12.237.068-.312.139-.621.207-.93a8.189,8.189,0,0,0,2.339-1.858c.008.727.018,1.474.034,2.232a116.938,116.938,0,0,0,1.008,15.047c1.073,5.769,2.071,11.609,3.016,17.426.9,5.558,1.531,11.195,2.084,16.756.458,4.6,2,24.415.051,24.514-1.056,9.083-6.168,15.5-1.139,24.749,4.693,8.628,13.348,9.846,21.005,6.806" transform="translate(-78.619 -220.149)" fill="#991027"/>
          <path id="Trazado_900739" data-name="Trazado 900739" d="M193.828,581.546c-4.7.27-10.124-1.115-13.023-3.928,3.44,1.486,8.351,1.617,12.448.684.151,1.065.34,2.145.575,3.244" transform="translate(-97.703 -312.13)" fill="#991027"/>
          <path id="Trazado_900740" data-name="Trazado 900740" d="M62.49,572.515c-2.507,2.433-6.9,3.8-11.082,3.946.37-.962.7-1.912,1-2.853a20.392,20.392,0,0,0,10.086-1.093" transform="translate(-27.78 -309.373)" fill="#991027"/>
          <path id="Trazado_900741" data-name="Trazado 900741" d="M86.579,377.794c-2.518,2.8-8.225,3.093-13.385,2.425q.04-.4.082-.795c.172-1.657.347-3.155.521-4.452.084-.625.167-1.2.251-1.729.032-.2.064-.4.1-.585.543-3.164,1.265-10.057,2.1-16.014.144-1.03.293-2.034.445-2.984l15.328,1.094c.027,6.21-1.113,18.232-5.446,23.039" transform="translate(-39.552 -191.109)" fill="#991027"/>
          <path id="Trazado_900742" data-name="Trazado 900742" d="M204.962,380.383q.01.779,0,1.7c0,.153-.005.307-.008.464a6.1,6.1,0,0,1-1.4-1.134c-4.333-4.807-5.471-16.83-5.444-23.04l6.981-.5c.362,6.2-.243,17.586-.134,21.937,0,.182.007.375.01.575" transform="translate(-107.051 -193.385)" fill="#991027"/>
          <path id="Trazado_900743" data-name="Trazado 900743" d="M118.284,187.572h-5.528a46.879,46.879,0,0,0-.5-6.284c-.137-.945-.3-1.884-.483-2.812-.005-.029-.01-.059-.017-.087-.377-1.905-.842-3.768-1.357-5.556-.046-.159-.092-.318-.139-.478-.278-.943-.571-1.863-.871-2.758-.682-2.032-1.407-3.927-2.115-5.634a73.283,73.283,0,0,0-9.577-17.081c3.182-.654,5.47-1.007,5.559-1.556,0,0,.072,0,.208.017a85.933,85.933,0,0,1,8.917,16.5c.791,1.905,1.6,4.035,2.359,6.325.272.823.538,1.666.793,2.527.047.159.094.317.139.478.536,1.851,1.024,3.784,1.428,5.767.025.119.049.238.072.357.177.893.337,1.8.478,2.709a53.053,53.053,0,0,1,.638,7.562" transform="translate(-52.791 -78.531)" fill="#e01235"/>
          <path id="Rectángulo_404420" data-name="Rectángulo 404420" d="M3.615,0h0A3.617,3.617,0,0,1,7.232,3.617v.975A3.616,3.616,0,0,1,3.616,8.207h0A3.615,3.615,0,0,1,0,4.592V3.615A3.615,3.615,0,0,1,3.615,0Z" transform="translate(56.292 93.163) rotate(-14.901)" fill="#0b0e0f"/>
          <path id="Trazado_900744" data-name="Trazado 900744" d="M129.224,196.859a4.658,4.658,0,0,0-.766-1.983l-5.848,1.558a4.645,4.645,0,0,0,.322,2.1c2.669,2.737,2.909,5.532,2.008,7.538a4.75,4.75,0,0,0,.862,2.125l5.739-1.529a4.758,4.758,0,0,0-.309-2.272c-1.45-.37-3.537-4.1-2.008-7.538" transform="translate(-66.25 -105.306)" fill="#191e21"/>
          <path id="Trazado_900745" data-name="Trazado 900745" d="M217.5,178.585v0c0,.166-.006.329-.011.5-.047,1.927-.165,3.916-.377,5.93q-.017.181-.04.362-.148,1.357-.36,2.728a53.054,53.054,0,0,1-1.672,7.4l-5.27-1.666a46.764,46.764,0,0,0,1.412-6.145h0q.232-1.413.389-2.823c0-.028.009-.059.01-.089.215-1.93.334-3.847.381-5.707,0,0,0,0,0,0,.005-.164.008-.33.011-.494h0c.02-.982.017-1.949,0-2.892-.039-2.143-.158-4.169-.319-6.009-.206-2.366-.488-4.593-.819-6.652a23.52,23.52,0,0,1,3.582,2.255c.5.419,1.917,3.274,2.991,7.5.049,1.019.084,2.076.1,3.159.01.866.01,1.749-.007,2.647" transform="translate(-113.353 -88.093)" fill="#e01235"/>
          <path id="Rectángulo_404421" data-name="Rectángulo 404421" d="M3.616,0h.976A3.616,3.616,0,0,1,8.207,3.616v0A3.616,3.616,0,0,1,4.591,7.232H3.615A3.615,3.615,0,0,1,0,3.617v0A3.616,3.616,0,0,1,3.616,0Z" transform="translate(97.322 97.698) rotate(-87.37)" fill="#0b0e0f"/>
          <path id="Trazado_900746" data-name="Trazado 900746" d="M219.33,192.941a4.658,4.658,0,0,0-.132-2.121l-6.046-.278a4.653,4.653,0,0,0-.326,2.1c1.72,3.415,1.106,6.152-.358,7.793a4.757,4.757,0,0,0,.181,2.286l5.934.273a4.757,4.757,0,0,0,.39-2.26c-1.271-.791-2.135-4.979.358-7.792" transform="translate(-114.775 -102.964)" fill="#191e21"/>
          <path id="Trazado_900747" data-name="Trazado 900747" d="M148.65,241.96c.836,1.451.62,24.433-.153,28.146,3.824,1.063,21.766.823,23.764.728,2.06-.1,5.864-20.286,5.864-28.687v-1.306Z" transform="translate(-80.244 -130.144)" fill="#991027"/>
          <path id="Trazado_900748" data-name="Trazado 900748" d="M153.424,244.867c.73.786.541,13.233-.134,15.244,1.689-.349,21.658-.782,23.4-.834,1.8-.053,2.489-9.759,2.489-14.309v-.707Z" transform="translate(-82.834 -131.993)" fill="#e01235"/>
          <path id="Trazado_900749" data-name="Trazado 900749" d="M186.766,268.665a1.759,1.759,0,1,1-1.759-1.759,1.76,1.76,0,0,1,1.759,1.759" transform="translate(-99.022 -144.229)" fill="#991027"/>
          <path id="Trazado_900750" data-name="Trazado 900750" d="M201.031,397.089c.2-2.308-1.914-4.5-1.193-6.835l.578.123c3.073-.747,7.134-1.217,9.093,1.63,1.7,2.467,2.086,6.544,2.835,9.375.931,3.522,1.781,6.919,1.01,10.487-.605,2.8-1.4,8.44-3.421,10.419-4.006-3.328,2.171-11.623.607-15.739-.038,2.061-2.552,14.86-5,13.622-1.246-.631-.053-9.821.337-12.918-.431,1.249-.362,10.2-2.964,9.292-2.519-2,1.285-10.553,1.06-14.532-.215,1.99-2.533,8.151-4.118,9.394-3.569,2.8-1.656-2.152-1.222-4.188.863-4.047,2.205-8,2.394-10.131" transform="translate(-106.851 -210.642)" fill="#7c7976"/>
          <path id="Trazado_900751" data-name="Trazado 900751" d="M208.812,403.866c-.924-2.125-3.831-3.034-4.317-5.432l.566-.168c2.341-2.126,5.684-4.481,8.766-2.918,2.67,1.355,4.961,4.749,6.973,6.878,2.5,2.648,4.873,5.225,5.9,8.726.809,2.751,2.8,8.083,1.978,10.786-5.11-1.006-3.652-11.245-6.994-14.113.952,1.828,4.866,14.271,2.127,14.354-1.4.042-4.745-8.6-5.882-11.506.218,1.3,4.558,9.127,1.84,9.578-3.169-.553-3.919-9.883-6.018-13.269.763,1.85,1.674,8.37.876,10.22-1.8,4.162-2.484-1.1-3.076-3.094-1.177-3.966-1.888-8.08-2.741-10.042" transform="translate(-110.504 -213.362)" fill="#a3a09d"/>
          <path id="Trazado_900752" data-name="Trazado 900752" d="M10.575,414.59l33.877,15.94a6.816,6.816,0,0,1,3.284,3.34,7.214,7.214,0,0,0,4.753,3.985c2.177.566,5.785.444,7.67-.729a.221.221,0,0,0-.065-.4l-6.286-1.633c-2.265-.589-.133-8.794,2.133-8.2l6.287,1.633a.22.22,0,0,0,.251-.316c-1.107-2.021-4.314-3.933-6.626-4.439a7.167,7.167,0,0,0-4.3.4,6.869,6.869,0,0,1-5.556-.2L14.257,409.033a7.1,7.1,0,0,1-3.179-3.122A5.483,5.483,0,0,0,7.619,403.2a8.825,8.825,0,0,0-5.831.552.168.168,0,0,0,.045.306L6.616,405.3c1.724.449.1,6.69-1.623,6.242L.21,410.3a.169.169,0,0,0-.188.246,8.646,8.646,0,0,0,5.039,3.372,5.4,5.4,0,0,0,1.914.07,6.4,6.4,0,0,1,3.6.606" transform="translate(0 -217.743)" fill="#adadad"/>
          <path id="Trazado_900753" data-name="Trazado 900753" d="M108.1,449.553l-.023.009a7.176,7.176,0,0,0-3.707,9.343,6.563,6.563,0,0,0,4.773,3.665c2.048.437,5.228.366,7-.542a.084.084,0,0,0-.022-.154l-5.824-1.463a1.732,1.732,0,0,1-1.267-.779c-.66-1.345-.553-3.479.523-5.823.7-1.514,1.225-2.379,2.969-1.8l5.776,1.407a.085.085,0,0,0,.1-.124,11.529,11.529,0,0,0-6.131-4.03,6.9,6.9,0,0,0-4.162.286" transform="translate(-56.085 -242.667)" fill="#cfd0d1"/>
          <path id="Trazado_900754" data-name="Trazado 900754" d="M5.161,414.235a4.546,4.546,0,0,0,5.478-2.778c2.272-4.828-1.719-6.882-3.169-7.191a11.819,11.819,0,0,0-5.727.3.066.066,0,0,0,.013.124l4.837,1.2a1,1,0,0,1,.774.49c.525,1.028.163,3.139-.475,4.5-.557,1.184-1.25,1.729-1.948,1.532l-4.6-1.4a.068.068,0,0,0-.074.1,10.383,10.383,0,0,0,4.889,3.118" transform="translate(-0.14 -218.343)" fill="#cfd0d1"/>
          <path id="Trazado_900755" data-name="Trazado 900755" d="M30.859,424.44a1.519,1.519,0,0,1,1.293-2.749l28.5,13.411a1.519,1.519,0,0,1-1.293,2.749Z" transform="translate(-16.204 -227.793)" fill="#cfd0d1"/>
          <path id="Trazado_900756" data-name="Trazado 900756" d="M59.624,418.176c-1.277-.037-2.559.57-3.614-1.31-.029.085-.055.169-.079.251a16.986,16.986,0,0,0-.4,4.916,0,0,0,0,1,0,.005c-.01.228-.027.456-.054.687a4.056,4.056,0,0,1-.239.9c-3.881.945-3.842-1.175-3.564-3.695-.017.107-.032.216-.047.325a.058.058,0,0,0,0,.016c-.017.112-.03.221-.044.323a8.542,8.542,0,0,1-.923,3.366c-2.01.558-3.789-.172-3.963-2.453,0-.062-.008-.128-.013-.191,0,.105,0,.206-.005.3,0,.045,0,.091-.005.136a.086.086,0,0,1,0,.019c0,.075-.007.151-.013.226-.1,1.17-.52,1.336-1.92.845A2.13,2.13,0,0,1,43.4,421.6a7.642,7.642,0,0,1-.357-2.327c-.008-.128-.02-.25-.034-.37,0,.045.007.091.007.136a1.824,1.824,0,0,1-3.023,1.457,5.51,5.51,0,0,1-1.117-2.84c-.014-.074-.027-.149-.039-.223a15.445,15.445,0,0,1-.218-3.2,75.1,75.1,0,0,1,1.426-10.6A32.963,32.963,0,0,0,40.774,398l9.921,2.072c1.116,6.014,7.917,10.4,8.832,16.982a10.569,10.569,0,0,1,.1,1.118" transform="translate(-20.858 -215.072)" fill="#e8a273"/>
          <path id="Trazado_900757" data-name="Trazado 900757" d="M59.8,437.562c-1.356.035-3.592-1.193-4.456-1.614-1.108,3.016-3.013,5.3-4.266,1-.439,3.691-3.939,2.449-4.776-.258-.258,3.006-3.428,1.972-4.022-.244-.429,1.349-1.788,1.679-3.175,1.489.011.074.025.15.039.223A7.772,7.772,0,0,0,40.264,441a3.272,3.272,0,0,0,3.4,1.118.047.047,0,0,0,0-.013,2.13,2.13,0,0,0,1.337,1.242c1.4.49,1.823.325,1.92-.845.006-.075.01-.151.014-.226a.129.129,0,0,0,0-.019c0-.046,0-.091.006-.136,0-.1.005-.2.005-.3.005.064.008.129.013.192.175,2.28,1.952,3.011,3.963,2.453a8.534,8.534,0,0,0,.923-3.366c.014-.1.027-.211.044-.323a.035.035,0,0,1,0-.015c.013-.1.029-.213.046-.325-.279,2.52-.317,4.639,3.564,3.694a4.076,4.076,0,0,0,.24-.9,4.638,4.638,0,0,0,.053-.687v0a12.928,12.928,0,0,1,.4-4.917c.023-.082.051-.166.079-.251,1.055,1.88,2.337,1.274,3.614,1.31a10.681,10.681,0,0,0-.1-1.117M43.287,439.54c0-.045,0-.091-.007-.136.014.12.025.243.034.37a2.01,2.01,0,0,1-.026-.234" transform="translate(-21.133 -235.575)" fill="#c87e53"/>
        </g>
      </g>
    </g>
  </g>
</svg>
