<svg xmlns="http://www.w3.org/2000/svg" xmlns:xlink="http://www.w3.org/1999/xlink" width="100.209" height="100.209" viewBox="0 0 100.209 100.209">
  <defs>
    <filter id="Trazado_874925" x="0" y="0" width="100.209" height="100.209" filterUnits="userSpaceOnUse">
      <feOffset dy="3" input="SourceAlpha"/>
      <feGaussianBlur stdDeviation="3" result="blur"/>
      <feFlood flood-opacity="0.161"/>
      <feComposite operator="in" in2="blur"/>
      <feComposite in="SourceGraphic"/>
    </filter>
  </defs>
  <g id="Grupo_1110382" data-name="Grupo 1110382" transform="translate(-299.051 -990)">
    <g transform="matrix(1, 0, 0, 1, 299.05, 990)" filter="url(#Trazado_874925)">
      <g id="Trazado_874925-2" data-name="Trazado 874925" transform="translate(9 6)" fill="#efd42f">
        <path d="M 41.10445785522461 80.70938110351562 C 35.75723266601562 80.70938110351562 30.57073974609375 79.66245269775391 25.6890811920166 77.59768676757812 C 20.97318649291992 75.60303497314453 16.73756408691406 72.74720001220703 13.09988117218018 69.10951232910156 C 9.462186813354492 65.47181701660156 6.606351852416992 61.23620986938477 4.611693382263184 56.52031326293945 C 2.546928405761719 51.63864517211914 1.499999046325684 46.4521598815918 1.499999046325684 41.10492706298828 C 1.499999046325684 35.75723266601562 2.546928405761719 30.57073783874512 4.611693382263184 25.68907928466797 C 6.606351852416992 20.97318458557129 9.462186813354492 16.7375602722168 13.09988117218018 13.09987831115723 C 16.73756408691406 9.462184906005859 20.97318649291992 6.606349468231201 25.6890811920166 4.611690521240234 C 30.57073974609375 2.546925783157349 35.75723266601562 1.499996423721313 41.10445785522461 1.499996423721313 C 46.45169448852539 1.499996423721313 51.63817596435547 2.546925783157349 56.51984786987305 4.611690521240234 C 61.23574066162109 6.606349468231201 65.47135162353516 9.462184906005859 69.10904693603516 13.09987831115723 C 72.74672698974609 16.7375602722168 75.60256195068359 20.97318458557129 77.59722137451172 25.68907928466797 C 79.6619873046875 30.57073783874512 80.70891571044922 35.75723266601562 80.70891571044922 41.10445404052734 C 80.70891571044922 46.4521598815918 79.6619873046875 51.63864517211914 77.59722137451172 56.52031326293945 C 75.60256195068359 61.23620986938477 72.74672698974609 65.47181701660156 69.10904693603516 69.10951232910156 C 65.47135162353516 72.74720001220703 61.23574066162109 75.60303497314453 56.51984786987305 77.59768676757812 C 51.63817596435547 79.66245269775391 46.45169448852539 80.70938110351562 41.10445785522461 80.70938110351562 Z" stroke="none"/>
        <path d="M 41.10445785522461 3 C 35.95907211303711 3 30.96917724609375 4.007049560546875 26.27340316772461 5.993194580078125 C 21.73631286621094 7.912239074707031 17.66094970703125 10.66011810302734 14.16053771972656 14.16053009033203 C 10.66012573242188 17.66095733642578 7.9122314453125 21.73630523681641 5.993202209472656 26.27341079711914 C 4.007057189941406 30.96918487548828 3.000007629394531 35.95906448364258 3.000007629394531 41.10493087768555 C 3.000007629394531 46.25031661987305 4.007057189941406 51.24021148681641 5.993202209472656 55.93598175048828 C 7.9122314453125 60.47307586669922 10.66012573242188 64.54843902587891 14.16053771972656 68.04885101318359 C 17.66094970703125 71.54926300048828 21.73631286621094 74.29715728759766 26.27340316772461 76.2161865234375 C 30.96917724609375 78.20233154296875 35.95907211303711 79.20938110351562 41.10445785522461 79.20938110351562 C 46.24984359741211 79.20938110351562 51.23973846435547 78.20233154296875 55.93550872802734 76.2161865234375 C 60.47260284423828 74.29715728759766 64.54796600341797 71.54926300048828 68.04837799072266 68.04885101318359 C 71.54878997802734 64.54843902587891 74.29668426513672 60.47307586669922 76.21571350097656 55.93598175048828 C 78.20185852050781 51.24021148681641 79.20890808105469 46.25031661987305 79.20890808105469 41.10446548461914 C 79.20890808105469 35.95906448364258 78.20185852050781 30.96918487548828 76.21571350097656 26.27341079711914 C 74.29668426513672 21.73630523681641 71.54878997802734 17.66095733642578 68.04837799072266 14.16053009033203 C 64.54796600341797 10.66011810302734 60.47260284423828 7.912239074707031 55.93550872802734 5.993194580078125 C 51.23973846435547 4.007049560546875 46.24984359741211 3 41.10445785522461 3 M 41.10445785522461 0 C 63.80583190917969 0 82.20890808105469 18.40309143066406 82.20890808105469 41.10446548461914 L 82.20890808105469 41.10493087768555 C 82.20890808105469 63.80630493164062 63.80583190917969 82.20938110351562 41.10445785522461 82.20938110351562 C 18.40308380126953 82.20938110351562 7.62939453125e-06 63.80630493164062 7.62939453125e-06 41.10493087768555 L 7.62939453125e-06 41.10446548461914 C 7.62939453125e-06 18.40309143066406 18.40308380126953 0 41.10445785522461 0 Z" stroke="none" fill="#fff"/>
      </g>
    </g>
    <g id="Grupo_1110381" data-name="Grupo 1110381" transform="translate(319.053 900)">
      <g id="Grupo_1110380" data-name="Grupo 1110380" transform="translate(0.876 122.876)">
        <path id="Trazado_900332" data-name="Trazado 900332" d="M42.857,157.046l-2.032-1.564-2.029,1.564v3.543l2.134,1.318,1.928-1.318Z" transform="translate(-35.185 -152.486)" fill="#ececec" fill-rule="evenodd"/>
        <path id="Trazado_900333" data-name="Trazado 900333" d="M22.4,130.418l-7.53-.833a.572.572,0,0,0-.59.59v3.376a.592.592,0,0,0,.59.59H22.4a.592.592,0,0,0,.59-.59v-2.544A.619.619,0,0,0,22.4,130.418Z" transform="translate(-13.507 -129.582)" fill="#fe636e" fill-rule="evenodd"/>
        <path id="Trazado_900334" data-name="Trazado 900334" d="M23.263,130.174a.641.641,0,0,1,.59.629v2.707a.612.612,0,0,1-.587.626h2.642a.592.592,0,0,0,.59-.59V131a.619.619,0,0,0-.59-.59l-7.53-.833a.439.439,0,0,0-.131,0Z" transform="translate(-17.015 -129.577)" fill="#fb2a39" fill-rule="evenodd"/>
        <path id="Trazado_900335" data-name="Trazado 900335" d="M15.258,154.783H10.1c-1.288,0-2.554.9-2.514,3.091v11.237a1.475,1.475,0,0,0,.977,1.662l4.173,1.151,45.588.747h4.511c1.57.046,2.173-.564,2.17-1.587v-9.5c0-2.255-1.387-2.56-6.527-3.553l-5.229-1.01c-1.7-.331-1.334-.18-3.612-2.154L44.1,150.082c-1.593-1.377-1.773-1.154-4.881-1.151H26.845a4.831,4.831,0,0,0-2.9,1.055l-5.661,4.281a2.538,2.538,0,0,1-2.052.515h-.97Z" transform="translate(-7.586 -146.68)" fill="#fe636e" fill-rule="evenodd"/>
        <path id="Trazado_900336" data-name="Trazado 900336" d="M158.57,323.018h-26.7a4.361,4.361,0,0,1,.121,1.177,6.48,6.48,0,0,1-.551,2.439h27.627a6.607,6.607,0,0,1-.6-2.537A3.937,3.937,0,0,1,158.57,323.018Z" transform="translate(-117.112 -300.643)" fill="#acacac" fill-rule="evenodd"/>
        <path id="Trazado_900337" data-name="Trazado 900337" d="M7.593,233.015v4.73l2.511-.557c1.262-.279,1.829-.2,2.731-1.491l.974-1.393a.8.8,0,0,0-.577-1.288H7.593Z" transform="translate(-7.592 -221.05)" fill="#a6e7f0" fill-rule="evenodd"/>
        <path id="Trazado_900338" data-name="Trazado 900338" d="M11.763,234.6c-.9,1.291-1.412,1.028-2.67,1.307l-1.5.332v1.508l2.511-.557c1.262-.279,1.829-.2,2.731-1.491l.974-1.393a.8.8,0,0,0-.577-1.288h-.39a1.035,1.035,0,0,1-.108.19Z" transform="translate(-7.592 -221.051)" fill="#6bd9e7" fill-rule="evenodd"/>
        <path id="Trazado_900339" data-name="Trazado 900339" d="M145.927,179.064a2.072,2.072,0,0,0-1.485.616l-2.74,1.973a1.274,1.274,0,0,0-.544,1.187v.859c0,.112.147.206.331.21l5.461.01c1.216.02,1.216-.849,1.216-1.37v-2.908c-.01-.125.013-.58-.715-.58Z" transform="translate(-125.708 -173.337)" fill="#a6e7f0" fill-rule="evenodd"/>
        <path id="Trazado_900340" data-name="Trazado 900340" d="M182.392,183.914l1.023,0c1.216.02,1.216-.849,1.216-1.37v-2.907c-.01-.125.013-.58-.715-.58-.508,0-1.016,0-1.524,0Z" transform="translate(-162.172 -173.335)" fill="#6bd9e7" fill-rule="evenodd"/>
        <path id="Trazado_900341" data-name="Trazado 900341" d="M358.953,283.288a5.672,5.672,0,0,0-5.569,4.6,5.569,5.569,0,0,0-.1,1.078,5.674,5.674,0,1,0,5.674-5.674Z" transform="translate(-313.293 -265.508)" fill="#838383" fill-rule="evenodd"/>
        <path id="Trazado_900342" data-name="Trazado 900342" d="M55.578,284.138a5.674,5.674,0,0,0-5.674,5.674,5.76,5.76,0,0,0,.256,1.691,5.676,5.676,0,0,0,10.542.747,5.615,5.615,0,0,0,.551-2.439,5.8,5.8,0,0,0-.121-1.177A5.675,5.675,0,0,0,55.578,284.138Z" transform="translate(-45.009 -266.26)" fill="#838383" fill-rule="evenodd"/>
        <path id="Trazado_900343" data-name="Trazado 900343" d="M84.4,316.727a1.9,1.9,0,1,0,1.9,1.9A1.9,1.9,0,0,0,84.4,316.727Z" transform="translate(-73.83 -295.079)" fill="#ececec" fill-rule="evenodd"/>
        <path id="Trazado_900344" data-name="Trazado 900344" d="M387.775,315.877a1.9,1.9,0,1,0,1.9,1.9A1.906,1.906,0,0,0,387.775,315.877Z" transform="translate(-342.114 -294.328)" fill="#ececec" fill-rule="evenodd"/>
        <path id="Trazado_900345" data-name="Trazado 900345" d="M464.846,270.223a1.216,1.216,0,0,0-1.213,1.213v.911a1.219,1.219,0,0,0,1.213,1.213H468.3v-3.337h-3.455Z" transform="translate(-410.882 -253.954)" fill="#a6e7f0" fill-rule="evenodd"/>
        <path id="Trazado_900346" data-name="Trazado 900346" d="M482.989,270.224h2.429v3.337h-2.429Z" transform="translate(-427.999 -253.955)" fill="#6bd9e7" fill-rule="evenodd"/>
        <path id="Trazado_900347" data-name="Trazado 900347" d="M96.143,288.635a5.675,5.675,0,0,0-5.553-4.5,5.738,5.738,0,0,0-1.095.1,5.68,5.68,0,0,1,4.458,4.392,5.581,5.581,0,0,1,.121,1.177,5.639,5.639,0,0,1-.3,1.832,6.171,6.171,0,0,1-.246.606,5.678,5.678,0,0,1-4.032,3.13,5.74,5.74,0,0,0,1.095.1,5.669,5.669,0,0,0,5.124-3.235,5.483,5.483,0,0,0,.236-.57,5.673,5.673,0,0,0,.315-1.868,5.812,5.812,0,0,0-.121-1.177Z" transform="translate(-80.021 -266.26)" fill="#595959" fill-rule="evenodd"/>
        <path id="Trazado_900348" data-name="Trazado 900348" d="M399.543,287.785a5.683,5.683,0,0,0-6.645-4.392,5.676,5.676,0,0,1,4.455,4.392,5.581,5.581,0,0,1,.125,1.177,5.668,5.668,0,0,1-.3,1.832,5.753,5.753,0,0,1-.246.606,5.675,5.675,0,0,1-4.029,3.127,5.46,5.46,0,0,0,1.092.108,5.683,5.683,0,0,0,5.127-3.235,5.342,5.342,0,0,0,.233-.57,5.728,5.728,0,0,0,.193-3.045Z" transform="translate(-348.329 -265.508)" fill="#595959" fill-rule="evenodd"/>
        <path id="Trazado_900349" data-name="Trazado 900349" d="M230.083,179.371c-.731,0-.708.452-.718.577v3.334c0,.518-.079.957.793.941H241.33c.184,0,.331-.1.331-.21v-.718a.722.722,0,0,0-.3-.593l-3.675-2.708a2.077,2.077,0,0,0-1.485-.623Z" transform="translate(-203.71 -173.611)" fill="#a6e7f0" fill-rule="evenodd"/>
        <path id="Trazado_900350" data-name="Trazado 900350" d="M266.844,179.994a2.077,2.077,0,0,0-1.485-.623h-3.022a2.078,2.078,0,0,1,1.485.623L267.5,182.7a.722.722,0,0,1,.3.593v.718c0,.112-.147.206-.331.21h3.022c.184,0,.331-.1.331-.21v-.718a.722.722,0,0,0-.3-.593Z" transform="translate(-232.87 -173.611)" fill="#6bd9e7" fill-rule="evenodd"/>
        <path id="Trazado_900351" data-name="Trazado 900351" d="M8.566,300.83a1.405,1.405,0,0,1-.977-1.531v2.8a1.475,1.475,0,0,0,.977,1.662l4.173,1.151a5.755,5.755,0,0,1-.256-1.691,5.573,5.573,0,0,1,.144-1.269Z" transform="translate(-7.589 -279.667)" fill="#fb2a39" fill-rule="evenodd"/>
        <path id="Trazado_900352" data-name="Trazado 900352" d="M56.95,169h-.613v3.543h2.032V169Z" transform="translate(-50.698 -164.439)" fill="#cecece" fill-rule="evenodd"/>
        <path id="Trazado_900353" data-name="Trazado 900353" d="M470.507,234.5c0-1.9-.987-2.416-4.379-3.127a5.183,5.183,0,0,1,1.95,4.074v.42h2.429Z" transform="translate(-413.088 -219.597)" fill="#fb2a39" fill-rule="evenodd"/>
        <path id="Trazado_900354" data-name="Trazado 900354" d="M482.989,299.071v6.385h.259c1.57.046,2.173-.564,2.17-1.587v-4.8h-2.429Z" transform="translate(-427.999 -279.466)" fill="#fb2a39" fill-rule="evenodd"/>
      </g>
      <path id="Trazado_900355" data-name="Trazado 900355" d="M226.436,250.539a.874.874,0,1,0,0,1.748h3.347a.874.874,0,1,0,0-1.748Z" transform="translate(-199.473 -113.671)"/>
      <path id="Trazado_900356" data-name="Trazado 900356" d="M140.858,171.5l-1.522,0a2.647,2.647,0,0,0-1.824.657l-.175.127-2.739,1.973a2.126,2.126,0,0,0-.912,1.884v.874a1.145,1.145,0,0,0,1.193,1.084h.014l5.459.01h.047a2.043,2.043,0,0,0,1.492-.537,2.268,2.268,0,0,0,.562-1.708v-2.914c0-.023,0-.051,0-.073A1.435,1.435,0,0,0,140.858,171.5Zm-.154,4.368a1.638,1.638,0,0,1-.041.46.723.723,0,0,1-.29.036h-.012l-4.926-.009v-.212c0-.255,0-.332.184-.464l2.739-1.973.189-.138c.383-.282.433-.318.791-.318l1.366,0Z" transform="translate(-118.223 -43.777)"/>
      <path id="Trazado_900357" data-name="Trazado 900357" d="M77.774,309.313a2.78,2.78,0,1,0,2.782,2.782A2.783,2.783,0,0,0,77.774,309.313Zm0,3.812a1.032,1.032,0,1,1,1.034-1.031A1.032,1.032,0,0,1,77.774,313.125Z" transform="translate(-66.322 -165.647)"/>
      <path id="Trazado_900358" data-name="Trazado 900358" d="M381.434,308.463a2.78,2.78,0,1,0,2.782,2.779A2.783,2.783,0,0,0,381.434,308.463Zm0,3.812a1.032,1.032,0,1,1,1.034-1.034A1.035,1.035,0,0,1,381.434,312.275Z" transform="translate(-334.855 -164.895)"/>
      <path id="Trazado_900359" data-name="Trazado 900359" d="M51.98,133.373l-5.464-1.054a3.42,3.42,0,0,1-1.006-.267,9.2,9.2,0,0,1-1.2-.974c-.219-.192-.473-.413-.771-.671L38,125.618c-1.533-1.325-2.085-1.373-4.185-1.364-.364,0-.777,0-1.264,0l-3.344-.039h-.011a.874.874,0,0,0-.01,1.748l3.344.039c.5.006.921,0,1.292,0,1.866-.008,1.939-.008,3.034.939l5.54,4.789c.3.255.546.474.763.664,1.443,1.262,1.587,1.365,3.032,1.642l5.461,1.054c5.335,1.033,5.825,1.26,5.825,2.7v.5H54.889a2.089,2.089,0,0,0-2.087,2.087v.911a2.089,2.089,0,0,0,2.087,2.087h2.584V147.3c0,.348-.1.448-.134.48-.079.077-.349.254-1.141.233h-3.28a6.555,6.555,0,0,0-12.6-3.619H30.556a.874.874,0,1,0,0,1.748h9.473c0,.067-.005.134-.005.2a6.539,6.539,0,0,0,.216,1.67H17.816a6.539,6.539,0,0,0,.191-1.568c0-.1,0-.2-.008-.3h8.935a.874.874,0,1,0,0-1.748H17.676A6.552,6.552,0,0,0,4.9,146.448c0,.161.008.321.019.479l-2.833-.78c-.214-.059-.344-.143-.339-.805,0,0,0-.012,0-.014v-5.041l1.831-.406c.179-.04.343-.072.5-.1a3.608,3.608,0,0,0,2.765-1.745l.976-1.4a1.641,1.641,0,0,0,.151-1.738,1.723,1.723,0,0,0-1.447-.921H1.749a2.367,2.367,0,0,1,.539-1.687,1.513,1.513,0,0,1,1.1-.433H9.524c.112,0,.215,0,.311,0a3.055,3.055,0,0,0,2.269-.695l5.668-4.284A3.982,3.982,0,0,1,20.148,126h4.911a.874.874,0,1,0,0-1.748H20.151a5.676,5.676,0,0,0-3.434,1.236l-5.669,4.285a1.39,1.39,0,0,1-1.184.341c-.105,0-.217,0-.339,0h-.1v-1.8h.349a1.467,1.467,0,0,0,1.468-1.464V124.3a1.483,1.483,0,0,0-1.372-1.459l-7.535-.832a1.371,1.371,0,0,0-1.063.346,1.493,1.493,0,0,0-.5,1.112v3.38a1.466,1.466,0,0,0,1.464,1.464H3.612v1.8H3.388a3.254,3.254,0,0,0-2.347.956A4.031,4.031,0,0,0,0,134.085v11.243a2.253,2.253,0,0,0,1.622,2.5l3.742,1.031a6.55,6.55,0,0,0,11.739.9H40.988a6.551,6.551,0,0,0,11.182,0h3.992l.164,0a3.053,3.053,0,0,0,2.233-.732,2.313,2.313,0,0,0,.661-1.734v-9.512c0-3.013-2.12-3.423-7.242-4.415ZM2.521,123.787l6.971.77v2H2.521ZM5.36,128.31H7.677v1.8H5.36Zm.045,8.721a1.97,1.97,0,0,1-1.669,1.031c-.166.033-.345.068-.537.111l-1.451.322v-2.77H6.319Zm6.047,14.22a4.8,4.8,0,1,1,4.807-4.8,4.809,4.809,0,0,1-4.807,4.8Zm35.127-.1a4.805,4.805,0,1,1,4.807-4.807A4.812,4.812,0,0,1,46.579,151.153Zm8.31-9.532a.339.339,0,0,1-.339-.339v-.911a.339.339,0,0,1,.339-.339h2.584v1.589H54.889Z" transform="translate(0 0)"/>
      <path id="Trazado_900360" data-name="Trazado 900360" d="M222.007,173.269V176.6c0,.037,0,.074,0,.11a1.65,1.65,0,0,0,.4,1.287,1.687,1.687,0,0,0,1.2.423h11.281a1.137,1.137,0,0,0,1.174-1.083v-.718a1.588,1.588,0,0,0-.657-1.3l-3.685-2.716-.181-.133a2.653,2.653,0,0,0-1.819-.659H223.6a1.434,1.434,0,0,0-1.59,1.391C222.008,173.227,222.007,173.248,222.007,173.269Zm1.748,3.334v-3.04h5.964c.353,0,.4.036.778.315l.191.14,3.6,2.654H223.755C223.755,176.65,223.755,176.626,223.755,176.6Z" transform="translate(-196.327 -44.053)"/>
    </g>
  </g>
</svg>
