<svg xmlns="http://www.w3.org/2000/svg" xmlns:xlink="http://www.w3.org/1999/xlink" width="504.898" height="367.693" viewBox="0 0 504.898 367.693">
  <defs>
    <clipPath id="clip-path">
      <rect id="Rectángulo_404581" data-name="Rectángulo 404581" width="307.714" height="289.679" fill="none"/>
    </clipPath>
    <clipPath id="clip-path-2">
      <rect id="Rectángulo_404589" data-name="Rectángulo 404589" width="150.375" height="289.679" fill="none"/>
    </clipPath>
  </defs>
  <g id="Grupo_1110497" data-name="Grupo 1110497" transform="translate(-285.051 -1615)">
    <g id="Rectángulo_404389" data-name="Rectángulo 404389" transform="translate(285.051 1615)" fill="#fbfaf8" stroke="#2d3bf3" stroke-width="2">
      <rect width="504.898" height="367.693" rx="8" stroke="none"/>
      <rect x="1" y="1" width="502.898" height="365.693" rx="7" fill="none"/>
    </g>
    <g id="Grupo_1110496" data-name="Grupo 1110496" transform="translate(-2 -2)">
      <g id="Grupo_1110495" data-name="Grupo 1110495" transform="translate(406.543 1965.424) rotate(-90)">
        <rect id="Rectángulo_404577" data-name="Rectángulo 404577" width="6.8" height="49.878" transform="translate(300.311 41.741)" fill="#d7cfde"/>
        <path id="Rectángulo_404578" data-name="Rectángulo 404578" d="M-.5-.5H7.3V50.378H-.5ZM6.3.5H.5V49.378H6.3Z" transform="translate(300.311 41.741)"/>
        <rect id="Rectángulo_404579" data-name="Rectángulo 404579" width="6.8" height="49.878" transform="translate(300.311 108.507)" fill="#d7cfde"/>
        <path id="Rectángulo_404580" data-name="Rectángulo 404580" d="M-.5-.5H7.3V50.378H-.5ZM6.3.5H.5V49.378H6.3Z" transform="translate(300.311 108.507)"/>
        <g id="Grupo_1110488" data-name="Grupo 1110488">
          <g id="Grupo_1110487" data-name="Grupo 1110487" clip-path="url(#clip-path)">
            <path id="Trazado_900983" data-name="Trazado 900983" d="M0,137.157H57.818s9.865-1.835,9.865-12.16V9.591s-1.147-6.31,2.977-5.507V0H0Z" transform="translate(232.544 35.854)" fill="#06b5ba"/>
            <path id="Trazado_900984" data-name="Trazado 900984" d="M57.864,137.657H-.5V-.5H71.16V4.691l-.6-.116a3.108,3.108,0,0,0-.589-.061,1.534,1.534,0,0,0-1.256.545c-.911,1.091-.7,3.577-.544,4.443l.008.044V125a12.968,12.968,0,0,1-1.607,6.5,12.014,12.014,0,0,1-3.536,3.856,14.286,14.286,0,0,1-5.131,2.292Zm-57.364-1H57.768a13.631,13.631,0,0,0,4.724-2.138,11.009,11.009,0,0,0,3.227-3.534A11.992,11.992,0,0,0,67.183,125V9.634c-.074-.441-.555-3.63.769-5.217a2.511,2.511,0,0,1,2.023-.9q.091,0,.185,0V.5H.5Z" transform="translate(232.544 35.854)"/>
            <path id="Trazado_900985" data-name="Trazado 900985" d="M2.294,34.645H53s8.031,1.606,8.948-6.654S61.948,0,61.948,0H0V33.727Z" transform="translate(232.544 132.401)" fill="#62ffff"/>
            <path id="Trazado_900986" data-name="Trazado 900986" d="M54.556,35.271h0a9.594,9.594,0,0,1-1.6-.126H2.2L-.5,34.066V-.5H62.425l.022.477c.009.2.909,19.866,0,28.069a7.709,7.709,0,0,1-3.275,5.985A8.555,8.555,0,0,1,54.556,35.271ZM2.391,34.145H53.049l.049.01a8.407,8.407,0,0,0,1.458.116,7.564,7.564,0,0,0,4.07-1.079,6.763,6.763,0,0,0,2.825-5.256c.824-7.414.15-24.374.018-27.436H.5V33.389Z" transform="translate(232.544 132.401)"/>
            <path id="Trazado_900987" data-name="Trazado 900987" d="M0,0S3.671,2.065,6.424,1.606,8.031,7.342,8.031,7.342L0,10.325Z" transform="translate(232.544 59.441)" fill="#6afe09"/>
            <path id="Trazado_900988" data-name="Trazado 900988" d="M-.5-.855l.745.419h0a13.3,13.3,0,0,0,5.33,1.608,4.69,4.69,0,0,0,.767-.06A1.725,1.725,0,0,1,8.03,1.7C9.265,3.187,8.6,7,8.522,7.433l-.052.279L-.5,11.044ZM5.575,2.173A12.914,12.914,0,0,1,.5.815v8.79L7.586,6.974c.236-1.483.337-3.835-.326-4.632a.669.669,0,0,0-.556-.26,1.213,1.213,0,0,0-.2.017A5.69,5.69,0,0,1,5.575,2.173Z" transform="translate(232.544 59.441)"/>
            <path id="Trazado_900989" data-name="Trazado 900989" d="M0,9.407a8.189,8.189,0,0,1,8.03-3.212V0H0Z" transform="translate(232.544 143.184)" fill="#6afe09"/>
            <path id="Trazado_900990" data-name="Trazado 900990" d="M-.5,11.045V-.5h9.03V6.789l-.586-.1a8.326,8.326,0,0,0-1.422-.126A7.373,7.373,0,0,0,1.985,8.109,7.517,7.517,0,0,0,.415,9.685ZM.5.5V8.071a9.313,9.313,0,0,1,.848-.733A8.466,8.466,0,0,1,6.523,5.562a9.1,9.1,0,0,1,1.007.057V.5Z" transform="translate(232.544 143.184)"/>
            <path id="Trazado_900991" data-name="Trazado 900991" d="M.057,4.77S-.86,9.636,4.646,10.554s3.442,4.431,3.442,4.431L8.467,0Z" transform="translate(64.54 140.431)" fill="#fff"/>
            <path id="Trazado_900992" data-name="Trazado 900992" d="M8.989-.871,8.658,12.235a3.321,3.321,0,0,1-.139,3l-.98,1.667L7.651,12.5a4.626,4.626,0,0,0-3.087-1.452A5.967,5.967,0,0,1,.442,8.722,5.776,5.776,0,0,1-.434,4.678l.043-.228ZM7.7,10.6,7.945.871.522,5.082a4.76,4.76,0,0,0,.746,3.076,5.02,5.02,0,0,0,3.46,1.9,7.028,7.028,0,0,1,2.957,1.081L7.7,10.6Z" transform="translate(64.54 140.431)"/>
            <path id="Trazado_900993" data-name="Trazado 900993" d="M.057,10.215S-.86,5.349,4.646,4.431,8.088,0,8.088,0l.379,14.985Z" transform="translate(64.54 56.687)" fill="#fff"/>
            <path id="Trazado_900994" data-name="Trazado 900994" d="M8.989,15.856l-9.38-5.321-.043-.228A5.776,5.776,0,0,1,.442,6.263,5.967,5.967,0,0,1,4.564,3.938,4.626,4.626,0,0,0,7.651,2.486L7.539-1.92l.98,1.667a3.321,3.321,0,0,1,.139,3ZM.521,9.9l7.424,4.211L7.7,4.381h0l-.014-.538A7.028,7.028,0,0,1,4.728,4.924,5.015,5.015,0,0,0,1.262,6.836,4.727,4.727,0,0,0,.521,9.9Z" transform="translate(64.54 56.687)"/>
          </g>
        </g>
        <g id="Grupo_1110490" data-name="Grupo 1110490" transform="translate(2.454)">
          <g id="Grupo_1110489" data-name="Grupo 1110489" clip-path="url(#clip-path-2)">
            <path id="Trazado_900995" data-name="Trazado 900995" d="M102.9,0H0S4.933,2.294,5.736,5.965v38.66h99.575Z" transform="translate(1.113 35.694)" fill="#aff"/>
            <path id="Trazado_900996" data-name="Trazado 900996" d="M0-.5H103.375l2.463,45.625H5.236V6.021C4.461,2.667-.164.475-.211.453L-2.254-.5ZM102.428.5H1.882c1.586,1.04,3.8,2.889,4.343,5.358l.012.053V44.125h98.547Z" transform="translate(1.113 35.694)"/>
            <path id="Trazado_900997" data-name="Trazado 900997" d="M20.729,105.376H6.345A6.345,6.345,0,0,1,0,99.03V6.345A6.345,6.345,0,0,1,6.345,0H20.729a6.345,6.345,0,0,1,6.345,6.345V99.03a6.345,6.345,0,0,1-6.345,6.345" transform="translate(19.009 47.739)" fill="#fff"/>
            <path id="Rectángulo_404582" data-name="Rectángulo 404582" d="M4-.5H23.074a4.505,4.505,0,0,1,4.5,4.5v97.376a4.505,4.505,0,0,1-4.5,4.5H4a4.505,4.505,0,0,1-4.5-4.5V4A4.505,4.505,0,0,1,4-.5ZM23.074,104.876a3.5,3.5,0,0,0,3.5-3.5V4a3.5,3.5,0,0,0-3.5-3.5H4A3.5,3.5,0,0,0,.5,4v97.376a3.5,3.5,0,0,0,3.5,3.5Z" transform="translate(19.009 47.739)"/>
            <path id="Trazado_900998" data-name="Trazado 900998" d="M34.735,0H0V105.311l5.507,5.163v27.533l4.13,3.441h24.09Z" transform="translate(70.288 55.31)" fill="#8aba62"/>
            <path id="Trazado_900999" data-name="Trazado 900999" d="M-.5-.5H35.239L34.223,141.947H9.455L5.007,138.24V110.69L-.5,105.527ZM34.232.5H.5V105.094l5.507,5.163v27.515l3.811,3.176H33.23Z" transform="translate(70.288 55.31)"/>
            <path id="Trazado_901000" data-name="Trazado 901000" d="M20.23,0H1.033V17.381H6.08V62.293H2.754V88.277s-2.581.86-2.754,3.1v45.084H65.633V0Z" transform="translate(84.742 60.299)" fill="#bcfd85"/>
            <path id="Trazado_901001" data-name="Trazado 901001" d="M.533-.5h65.6V136.958H-.5V91.336a4.32,4.32,0,0,1,2.752-3.4V61.793H5.58V17.881H.533Zm64.6,1H1.533V16.881H6.58V62.793H3.254V88.637l-.342.114C2.89,88.759.657,89.535.5,91.394v44.564H65.133Z" transform="translate(84.742 60.299)"/>
            <rect id="Rectángulo_404583" data-name="Rectángulo 404583" width="16.331" height="4.647" transform="translate(82.51 65.635)" fill="#5c094b"/>
            <path id="Rectángulo_404584" data-name="Rectángulo 404584" d="M-.5-.5H16.831V5.147H-.5ZM15.831.5H.5V4.147H15.831Z" transform="translate(82.51 65.635)"/>
            <path id="Trazado_901002" data-name="Trazado 901002" d="M34.53,0H4.674S0,1.147,0,4.13V36.481S0,39.693,7.572,39H34.53Z" transform="translate(85.775 75.042)" fill="#3762fa"/>
            <path id="Trazado_901003" data-name="Trazado 901003" d="M4.614-.5H35.03v40H7.594c-.712.064-1.39.1-2.015.1C-.43,39.6-.5,36.608-.5,36.481V4.13C-.5.793,4.349-.435,4.555-.486ZM34.03.5H4.739C4.238.636.5,1.735.5,4.13V36.473a1.581,1.581,0,0,0,.608,1.015C1.691,38,2.94,38.6,5.579,38.6c.6,0,1.256-.032,1.947-.095l.045,0H34.03Z" transform="translate(85.775 75.042)"/>
            <path id="Trazado_901004" data-name="Trazado 901004" d="M0,5.277H1.95v28.45H0V39.1H16.634V0H0Z" transform="translate(93.805 75.042)" fill="#fff"/>
            <path id="Trazado_901005" data-name="Trazado 901005" d="M17.134,39.6H-.5V33.227H1.45V5.777H-.5V-.5H17.134ZM.5,38.6H16.134V.5H.5V4.777H2.45v29.45H.5Z" transform="translate(93.805 75.042)"/>
            <path id="Línea_224" data-name="Línea 224" d="M.5,289.433h-1V0h1Z" transform="translate(150.375 0.246)"/>
            <path id="Trazado_901006" data-name="Trazado 901006" d="M39.133,0H22.485V8.03L18.814,12.39v5.048H12.39L9.063,20.764V113.9H0V126.19s10.324,26.385,10.324,38.086,1.606,119.994,1.606,119.994h27.2" transform="translate(111.242 0.246)" fill="#00fffb"/>
            <path id="Trazado_901007" data-name="Trazado 901007" d="M39.133,284.771H11.438l-.007-.493c-.016-1.083-1.607-108.431-1.607-120,0-4.733-1.776-12.78-5.137-23.273C2.141,133.05-.44,126.438-.466,126.372l-.034-.088V113.4H8.563V20.557l3.62-3.62h6.132v-4.73l3.671-4.359V-.5H39.133v1H22.985V8.213l-3.671,4.359v5.365H12.6L9.563,20.971V114.4H.5v11.7c.316.814,2.742,7.114,5.138,14.6,1.5,4.692,2.7,8.925,3.559,12.582a51.249,51.249,0,0,1,1.626,11c0,11.161,1.481,111.538,1.6,119.494h26.71Z" transform="translate(111.242 0.246)"/>
            <path id="Trazado_901008" data-name="Trazado 901008" d="M39.233,0H3.441L0,8.03H39.233Z" transform="translate(90.822 0.246)" fill="#fe8afd"/>
            <path id="Trazado_901009" data-name="Trazado 901009" d="M3.112-.5H39.733V8.53H-.758ZM38.733.5H3.771L.758,7.53H38.733Z" transform="translate(90.822 0.246)"/>
            <path id="Trazado_901010" data-name="Trazado 901010" d="M14,21.567H2.065L0,0H39.234V9.407H32.809l-3.327,3.327V66.766H14.225Z" transform="translate(90.822 8.276)" fill="#ff01f5"/>
            <path id="Trazado_901011" data-name="Trazado 901011" d="M-.55-.5H39.734V9.907H33.017l-3.034,3.034V67.266H13.728l-.229-45.2H1.611ZM38.734.5H.55L2.52,21.067H14.493l.229,45.2h14.26V12.527l3.62-3.62h6.132Z" transform="translate(90.822 8.276)"/>
            <path id="Línea_225" data-name="Línea 225" d="M.5,8.03h-1V0h1Z" transform="translate(111.242 0.246)"/>
            <path id="Trazado_901012" data-name="Trazado 901012" d="M4.7,0V9.407H3.327L0,12.734V0Z" transform="translate(120.305 8.276)" fill="#fe8afd"/>
            <path id="Trazado_901013" data-name="Trazado 901013" d="M-.5-.5H5.2V9.907H3.534L-.5,13.941ZM4.2.5H.5V11.527l2.62-2.62H4.2Z" transform="translate(120.305 8.276)"/>
            <path id="Trazado_901014" data-name="Trazado 901014" d="M0,74.337V78.7s6.08.688,9.751-18.126V3.1h9.636V60.112L21.452,77.09l2.065-17.9V0H4.7V60.112S2.868,72.043,0,74.337" transform="translate(120.305 17.912)" fill="#08aaa8"/>
            <path id="Trazado_901015" data-name="Trazado 901015" d="M21.465,81.339l-2.577-21.2V3.6H10.251V60.619l-.009.047C6.8,78.306,1.175,79.2.082,79.2a1.272,1.272,0,0,1-.138-.006l-.444-.05V74.1l.188-.15C1.907,72.171,3.693,63.368,4.2,60.073V-.5H24.017V59.223ZM.5,74.564v3.579a5.865,5.865,0,0,0,3.021-2.249,20.619,20.619,0,0,0,2.915-5.281A57.187,57.187,0,0,0,9.251,60.522V2.6H19.888V60.081l1.551,12.76,1.578-13.676V.5H5.2V60.15l-.006.038c0,.03-.472,3.043-1.286,6.3C2.855,70.714,1.708,73.43.5,74.564Z" transform="translate(120.305 17.912)"/>
            <path id="Línea_226" data-name="Línea 226" d="M.3,3.5l-.6-.8L3.83-.4l.6.8Z" transform="translate(139.692 17.912)"/>
            <path id="Línea_227" data-name="Línea 227" d="M.42,3.369-.42,2.825l2.008-3.1.839.544Z" transform="translate(130.056 17.912)"/>
            <path id="Línea_228" data-name="Línea 228" d="M16.648.5H0v-1H16.648Z" transform="translate(133.727 8.276)"/>
            <path id="Trazado_901016" data-name="Trazado 901016" d="M20.42,8.947c0,4.941-4.571,8.947-10.21,8.947S0,13.888,0,8.947,4.571,0,10.21,0,20.42,4.006,20.42,8.947" transform="translate(93.805 85.598)" fill="#fc0200"/>
            <path id="Elipse_11641" data-name="Elipse 11641" d="M10.21-.5a11.411,11.411,0,0,1,7.549,2.745,8.864,8.864,0,0,1,3.161,6.7,8.864,8.864,0,0,1-3.161,6.7,11.411,11.411,0,0,1-7.549,2.745A11.411,11.411,0,0,1,2.661,15.65,8.864,8.864,0,0,1-.5,8.947a8.864,8.864,0,0,1,3.161-6.7A11.411,11.411,0,0,1,10.21-.5Zm0,17.894c5.354,0,9.71-3.789,9.71-8.447S15.564.5,10.21.5.5,4.289.5,8.947,4.856,17.394,10.21,17.394Z" transform="translate(93.805 85.598)"/>
            <path id="Trazado_901017" data-name="Trazado 901017" d="M0,5.277V2.18H14.11A2.661,2.661,0,0,0,15.716,0h3.327s1.032,4.7-3.671,5.277Z" transform="translate(92.199 75.042)" fill="#9f9992"/>
            <path id="Trazado_901018" data-name="Trazado 901018" d="M15.4,5.777H-.5V1.68H13.995A2.1,2.1,0,0,0,15.216,0V-.5h4.229l.086.393A5.637,5.637,0,0,1,18.8,3.969a4.594,4.594,0,0,1-3.372,1.8Zm-14.9-1H15.341A3.628,3.628,0,0,0,17.988,3.39,4.379,4.379,0,0,0,18.611.5H16.167a3.315,3.315,0,0,1-1.86,2.14l-.094.04H.5Z" transform="translate(92.199 75.042)"/>
            <path id="Trazado_901019" data-name="Trazado 901019" d="M18.7,5.374S19.846.459,15.028,0H0V2.687H14.454a2.9,2.9,0,0,1,.688,2.475Z" transform="translate(91.74 108.769)" fill="#9f9992"/>
            <path id="Trazado_901020" data-name="Trazado 901020" d="M19.09,5.9l-4.478-.267.031-.5a2.9,2.9,0,0,0-.408-1.944H-.5V-.5l15.575,0A4.487,4.487,0,0,1,18.481,1.24a5.767,5.767,0,0,1,.7,4.248ZM15.652,4.692l2.624.156a4.479,4.479,0,0,0-.611-3.029A3.53,3.53,0,0,0,15,.5H.5V2.187H14.629l.137.109A3.073,3.073,0,0,1,15.652,4.692Z" transform="translate(91.74 108.769)"/>
            <rect id="Rectángulo_404585" data-name="Rectángulo 404585" width="14.201" height="4.647" transform="translate(90.822 65.635)" fill="#e29cd6"/>
            <path id="Rectángulo_404586" data-name="Rectángulo 404586" d="M-.5-.5H14.7V5.147H-.5ZM13.7.5H.5V4.147H13.7Z" transform="translate(90.822 65.635)"/>
            <path id="Línea_229" data-name="Línea 229" d="M20.516.5H0v-1H20.516Z" transform="translate(90.822 122.592)"/>
            <path id="Línea_230" data-name="Línea 230" d="M31.142.5H0v-1H31.142Z" transform="translate(87.496 148.529)"/>
            <rect id="Rectángulo_404587" data-name="Rectángulo 404587" width="39.133" height="12.293" transform="translate(111.242 114.143)" fill="#79fcfd"/>
            <path id="Rectángulo_404588" data-name="Rectángulo 404588" d="M-.5-.5H39.633V12.793H-.5ZM38.633.5H.5V11.793H38.633Z" transform="translate(111.242 114.143)"/>
            <path id="Línea_231" data-name="Línea 231" d="M39.362.5H0v-1H39.362Z" transform="translate(111.013 114.143)"/>
            <path id="Línea_232" data-name="Línea 232" d="M39.362.5H0v-1H39.362Z" transform="translate(111.013 126.435)"/>
            <path id="Trazado_901021" data-name="Trazado 901021" d="M8.828,125.157V5.507L3.322,0A4.028,4.028,0,0,0,.6,6.075L1.945,8.26v116.9Z" transform="translate(67.31 160.277)" fill="#f6ff02"/>
            <path id="Trazado_901022" data-name="Trazado 901022" d="M9.328,125.657H1.446V8.4L.175,6.337A4.528,4.528,0,0,1,3.234-.492l.257-.046L9.328,5.3Zm-6.883-1H8.328V5.714L3.16.546A3.473,3.473,0,0,0,.812,2.522a3.479,3.479,0,0,0,.215,3.291L2.446,8.118Z" transform="translate(67.31 160.277)"/>
            <path id="Trazado_901023" data-name="Trazado 901023" d="M63.439,2.65,50.827.494a34.565,34.565,0,0,0-15.2.8L5.666,9.742A7.777,7.777,0,0,0,0,17.227v52.16a23.823,23.823,0,0,0,9.8,7.471l.523.215,28.5,4.055a18.983,18.983,0,0,0,2.669.189h3.541a35.141,35.141,0,0,0,6.245-.559l12.16-2.194Z" transform="translate(6.849 65.308)" fill="#999"/>
            <path id="Trazado_901024" data-name="Trazado 901024" d="M45-.5h0a35.157,35.157,0,0,1,5.908.5L63.939,2.228V78.982L51.368,81.25a35.737,35.737,0,0,1-6.334.567H41.492a19.553,19.553,0,0,1-2.739-.194L10.192,77.559l-.581-.239A24.357,24.357,0,0,1-.4,69.692l-.1-.135V17.227A8.277,8.277,0,0,1,5.53,9.261L35.486.816A35.07,35.07,0,0,1,45-.5ZM62.939,3.071,50.743.987a34.063,34.063,0,0,0-14.985.791L5.8,10.223a7.277,7.277,0,0,0-5.3,7V69.215A23.356,23.356,0,0,0,9.991,76.4l.466.191,28.437,4.047a18.549,18.549,0,0,0,2.6.184h3.541a34.734,34.734,0,0,0,6.156-.551l11.749-2.12Z" transform="translate(6.849 65.308)"/>
          </g>
        </g>
        <g id="Grupo_1110492" data-name="Grupo 1110492" transform="translate(152.829)">
          <g id="Grupo_1110491" data-name="Grupo 1110491" clip-path="url(#clip-path-2)">
            <path id="Trazado_901025" data-name="Trazado 901025" d="M2.41,0h102.9s-4.933,2.294-5.736,5.965v38.66H0Z" transform="translate(43.951 35.694)" fill="#aff"/>
            <path id="Trazado_901026" data-name="Trazado 901026" d="M1.936-.5H107.572l-2.05.953c-.047.022-4.671,2.214-5.447,5.567v39.1H-.528ZM103.429.5H2.883L.528,44.125H99.075V5.911l.012-.053C99.627,3.389,101.843,1.54,103.429.5Z" transform="translate(43.951 35.694)"/>
            <path id="Trazado_901027" data-name="Trazado 901027" d="M6.345,105.376H20.729a6.345,6.345,0,0,0,6.345-6.345V6.345A6.345,6.345,0,0,0,20.729,0H6.345A6.345,6.345,0,0,0,0,6.345V99.03a6.345,6.345,0,0,0,6.345,6.345" transform="translate(104.292 47.739)" fill="#fff"/>
            <path id="Rectángulo_404590" data-name="Rectángulo 404590" d="M6-.5H21.074a6.507,6.507,0,0,1,6.5,6.5V99.376a6.507,6.507,0,0,1-6.5,6.5H6a6.507,6.507,0,0,1-6.5-6.5V6A6.507,6.507,0,0,1,6-.5ZM21.074,104.876a5.506,5.506,0,0,0,5.5-5.5V6a5.506,5.506,0,0,0-5.5-5.5H6A5.506,5.506,0,0,0,.5,6V99.376a5.506,5.506,0,0,0,5.5,5.5Z" transform="translate(104.292 47.739)"/>
            <path id="Trazado_901028" data-name="Trazado 901028" d="M0,0H34.735V105.311l-5.507,5.163v27.533l-4.13,3.441H1.009Z" transform="translate(45.352 55.31)" fill="#8aba62"/>
            <path id="Trazado_901029" data-name="Trazado 901029" d="M-.5-.5H35.235V105.527l-5.507,5.163v27.55l-4.449,3.707H.512ZM34.235.5H.5l1,140.447H24.918l3.811-3.176V110.257l5.507-5.163Z" transform="translate(45.352 55.31)"/>
            <path id="Trazado_901030" data-name="Trazado 901030" d="M45.4,0H64.6V17.381H59.553V62.293H62.88V88.277s2.581.86,2.754,3.1v45.084H0V0Z" transform="translate(0 60.299)" fill="#bcfd85"/>
            <path id="Trazado_901031" data-name="Trazado 901031" d="M45.4-.5H65.1V17.881H60.053V61.793H63.38V87.939a4.32,4.32,0,0,1,2.752,3.4v45.623H-.5V-.5ZM64.1.5H.5V135.958H65.133V91.394c-.157-1.859-2.39-2.636-2.413-2.643l-.34-.115V62.793H59.053V16.881H64.1Z" transform="translate(0 60.299)"/>
            <rect id="Rectángulo_404591" data-name="Rectángulo 404591" width="16.331" height="4.647" transform="translate(51.535 65.635)" fill="#5c094b"/>
            <path id="Rectángulo_404592" data-name="Rectángulo 404592" d="M-.5-.5H16.831V5.147H-.5ZM15.831.5H.5V4.147H15.831Z" transform="translate(51.535 65.635)"/>
            <path id="Trazado_901032" data-name="Trazado 901032" d="M0,0H29.856S34.53,1.147,34.53,4.13V36.481s0,3.212-7.572,2.524H0Z" transform="translate(30.07 75.042)" fill="#3762fa"/>
            <path id="Trazado_901033" data-name="Trazado 901033" d="M-.5-.5H29.916l.059.014C30.181-.435,35.03.793,35.03,4.13V36.481c0,.128-.07,3.12-6.079,3.12-.625,0-1.3-.033-2.015-.1H-.5ZM29.791.5H.5v38l26.5,0c.691.063,1.346.095,1.947.095,2.639,0,3.888-.605,4.471-1.113a1.581,1.581,0,0,0,.608-1.015V4.13C34.03,1.735,30.292.636,29.791.5Z" transform="translate(30.07 75.042)"/>
            <path id="Trazado_901034" data-name="Trazado 901034" d="M16.634,5.277h-1.95v28.45h1.95V39.1H0V0H16.634Z" transform="translate(39.936 75.042)" fill="#fff"/>
            <path id="Trazado_901035" data-name="Trazado 901035" d="M17.134,39.6H-.5V-.5H17.134V5.777h-1.95v27.45h1.95ZM.5,38.6H16.134V34.227h-1.95V4.777h1.95V.5H.5Z" transform="translate(39.936 75.042)"/>
            <path id="Línea_233" data-name="Línea 233" d="M.5,289.433h-1V0h1Z" transform="translate(0 0.246)"/>
            <path id="Trazado_901036" data-name="Trazado 901036" d="M0,0H16.648V8.03l3.671,4.359v5.048h6.424l3.327,3.327V113.9h9.063V126.19s-10.324,26.385-10.324,38.086S27.2,284.271,27.2,284.271H0" transform="translate(0 0.246)" fill="#00fffb"/>
            <path id="Trazado_901037" data-name="Trazado 901037" d="M27.695,284.771H0v-1H26.71c.118-7.957,1.6-108.334,1.6-119.494a51.249,51.249,0,0,1,1.626-11c.859-3.657,2.057-7.89,3.56-12.582,2.4-7.482,4.822-13.782,5.138-14.6V114.4H29.57V20.971l-3.034-3.034H19.819V12.572L16.148,8.213V.5H0v-1H17.148V7.848l3.671,4.359v4.73h6.132l3.62,3.62V113.4h9.063v12.887l-.034.088c-.026.066-2.607,6.678-5.153,14.631-3.36,10.493-5.137,18.541-5.137,23.273,0,11.571-1.591,118.919-1.607,120Z" transform="translate(0 0.246)"/>
            <path id="Trazado_901038" data-name="Trazado 901038" d="M0,0H35.792l3.441,8.03H0Z" transform="translate(20.319 0.246)" fill="#fe8afd"/>
            <path id="Trazado_901039" data-name="Trazado 901039" d="M-.5-.5H36.122l3.87,9.03H-.5ZM35.462.5H.5V7.53H38.475Z" transform="translate(20.319 0.246)"/>
            <path id="Trazado_901040" data-name="Trazado 901040" d="M25.238,21.567H37.169L39.234,0H0V9.407H6.424l3.327,3.327V66.766H25.009Z" transform="translate(20.319 8.276)" fill="#ff01f5"/>
            <path id="Trazado_901041" data-name="Trazado 901041" d="M-.5-.5H39.784L37.623,22.067H25.735l-.229,45.2H9.251V12.941L6.217,9.907H-.5ZM38.684.5H.5V8.907H6.632l3.62,3.62V66.266h14.26l.229-45.2H36.714Z" transform="translate(20.319 8.276)"/>
            <path id="Línea_234" data-name="Línea 234" d="M.5,8.03h-1V0h1Z" transform="translate(39.133 0.246)"/>
            <path id="Trazado_901042" data-name="Trazado 901042" d="M0,0V9.407H1.377L4.7,12.734V0Z" transform="translate(25.367 8.276)" fill="#fe8afd"/>
            <path id="Trazado_901043" data-name="Trazado 901043" d="M-.5-.5H5.2V13.941L1.17,9.907H-.5ZM4.2.5H.5V8.907H1.584l2.62,2.62Z" transform="translate(25.367 8.276)"/>
            <path id="Trazado_901044" data-name="Trazado 901044" d="M23.517,74.337V78.7s-6.08.688-9.751-18.126V3.1H4.13V60.112L2.065,77.09,0,59.194V0H18.813V60.112s1.836,11.931,4.7,14.225" transform="translate(6.553 17.912)" fill="#08aaa8"/>
            <path id="Trazado_901045" data-name="Trazado 901045" d="M2.052,81.339-.5,59.223V-.5H19.313V60.073c.511,3.3,2.3,12.1,4.516,13.873l.188.15v5.046l-.444.05a1.272,1.272,0,0,1-.138.006c-1.093,0-6.718-.894-10.16-18.533l-.009-.047V3.6H4.63V60.142ZM14.266,60.522a57.187,57.187,0,0,0,2.815,10.091A20.618,20.618,0,0,0,20,75.894a5.865,5.865,0,0,0,3.021,2.249V74.564c-1.208-1.135-2.355-3.85-3.412-8.079-.814-3.254-1.281-6.268-1.286-6.3l-.006-.038V.5H.5V59.165L2.078,72.841,3.63,60.081V2.6H14.266Z" transform="translate(6.553 17.912)"/>
            <path id="Línea_235" data-name="Línea 235" d="M3.83,3.5-.3.4.3-.4,4.43,2.7Z" transform="translate(6.553 17.912)"/>
            <path id="Línea_236" data-name="Línea 236" d="M1.588,3.369-.42.272.42-.272l2.008,3.1Z" transform="translate(18.311 17.912)"/>
            <path id="Línea_237" data-name="Línea 237" d="M16.648.5H0v-1H16.648Z" transform="translate(0 8.276)"/>
            <path id="Trazado_901046" data-name="Trazado 901046" d="M0,8.947c0,4.941,4.571,8.947,10.21,8.947s10.21-4.006,10.21-8.947S15.849,0,10.21,0,0,4.006,0,8.947" transform="translate(36.15 85.598)" fill="#fc0200"/>
            <path id="Elipse_11642" data-name="Elipse 11642" d="M10.21-.5a11.411,11.411,0,0,1,7.549,2.745,8.864,8.864,0,0,1,3.161,6.7,8.864,8.864,0,0,1-3.161,6.7,11.411,11.411,0,0,1-7.549,2.745A11.411,11.411,0,0,1,2.661,15.65,8.864,8.864,0,0,1-.5,8.947a8.864,8.864,0,0,1,3.161-6.7A11.411,11.411,0,0,1,10.21-.5Zm0,17.894c5.354,0,9.71-3.789,9.71-8.447S15.564.5,10.21.5.5,4.289.5,8.947,4.856,17.394,10.21,17.394Z" transform="translate(36.15 85.598)"/>
            <path id="Trazado_901047" data-name="Trazado 901047" d="M19.139,5.277V2.18H5.029A2.661,2.661,0,0,1,3.423,0H.1S-.936,4.7,3.767,5.277Z" transform="translate(39.037 75.042)" fill="#9f9992"/>
            <path id="Trazado_901048" data-name="Trazado 901048" d="M19.639,5.777H3.737l-.03,0a4.594,4.594,0,0,1-3.372-1.8A5.637,5.637,0,0,1-.392-.107L-.306-.5H3.923V0a2.075,2.075,0,0,0,1.22,1.68h14.5ZM3.8,4.777H18.639V2.68H4.927l-.094-.04A3.315,3.315,0,0,1,2.972.5H.529a4.4,4.4,0,0,0,.625,2.9A3.631,3.631,0,0,0,3.8,4.777Z" transform="translate(39.037 75.042)"/>
            <path id="Trazado_901049" data-name="Trazado 901049" d="M.119,5.374S-1.028.459,3.79,0H18.818V2.687H4.364a2.9,2.9,0,0,0-.688,2.475Z" transform="translate(39.817 108.769)" fill="#9f9992"/>
            <path id="Trazado_901050" data-name="Trazado 901050" d="M-.272,5.9l-.1-.411a5.767,5.767,0,0,1,.7-4.248A4.487,4.487,0,0,1,3.743-.5l.047,0H19.318V3.187H4.583a2.9,2.9,0,0,0-.408,1.944l.031.5ZM3.814.5A3.53,3.53,0,0,0,1.153,1.819,4.479,4.479,0,0,0,.541,4.848l2.624-.156a3.073,3.073,0,0,1,.886-2.4l.137-.109H18.318V.5Z" transform="translate(39.817 108.769)"/>
            <rect id="Rectángulo_404593" data-name="Rectángulo 404593" width="14.201" height="4.647" transform="translate(45.352 65.635)" fill="#e29cd6"/>
            <path id="Rectángulo_404594" data-name="Rectángulo 404594" d="M-.5-.5H14.7V5.147H-.5ZM13.7.5H.5V4.147H13.7Z" transform="translate(45.352 65.635)"/>
            <path id="Línea_238" data-name="Línea 238" d="M20.516.5H0v-1H20.516Z" transform="translate(39.037 122.592)"/>
            <path id="Línea_239" data-name="Línea 239" d="M31.142.5H0v-1H31.142Z" transform="translate(31.738 148.529)"/>
            <rect id="Rectángulo_404595" data-name="Rectángulo 404595" width="39.133" height="12.293" transform="translate(0 114.143)" fill="#79fcfd"/>
            <path id="Rectángulo_404596" data-name="Rectángulo 404596" d="M-.5-.5H39.633V12.793H-.5ZM38.633.5H.5V11.793H38.633Z" transform="translate(0 114.143)"/>
            <path id="Línea_240" data-name="Línea 240" d="M39.362.5H0v-1H39.362Z" transform="translate(0 114.143)"/>
            <path id="Línea_241" data-name="Línea 241" d="M39.362.5H0v-1H39.362Z" transform="translate(0 126.435)"/>
            <path id="Trazado_901051" data-name="Trazado 901051" d="M0,125.157V5.507L5.507,0A4.028,4.028,0,0,1,8.228,6.075L6.883,8.26v116.9Z" transform="translate(74.237 160.277)" fill="#f6ff02"/>
            <path id="Trazado_901052" data-name="Trazado 901052" d="M7.383,125.657H-.5V5.3L5.338-.538l.257.046A4.528,4.528,0,0,1,8.654,6.337L7.383,8.4Zm-6.883-1H6.383V8.118L7.8,5.813a3.479,3.479,0,0,0,.214-3.291A3.473,3.473,0,0,0,5.668.546L.5,5.714Z" transform="translate(74.237 160.277)"/>
            <path id="Trazado_901053" data-name="Trazado 901053" d="M0,2.65,12.612.494a34.564,34.564,0,0,1,15.2.8L57.773,9.742a7.777,7.777,0,0,1,5.666,7.485v52.16a23.822,23.822,0,0,1-9.8,7.471l-.523.215-28.5,4.055a18.984,18.984,0,0,1-2.669.189H18.405a35.141,35.141,0,0,1-6.245-.559L0,78.564Z" transform="translate(80.087 65.308)" fill="#999"/>
            <path id="Trazado_901054" data-name="Trazado 901054" d="M18.436-.5A35.069,35.069,0,0,1,27.952.816L57.909,9.26a8.277,8.277,0,0,1,6.03,7.966V69.557l-.1.135A24.356,24.356,0,0,1,53.828,77.32l-.581.239L24.686,81.623a19.554,19.554,0,0,1-2.739.194H18.405a35.739,35.739,0,0,1-6.334-.567L-.5,78.982V2.228L12.528,0A35.156,35.156,0,0,1,18.436-.5Zm44.5,69.715V17.227a7.277,7.277,0,0,0-5.3-7L27.681,1.779A34.063,34.063,0,0,0,12.7.987L.5,3.071V78.146l11.749,2.12a34.736,34.736,0,0,0,6.156.551h3.541a18.551,18.551,0,0,0,2.6-.184l28.437-4.047.466-.191A23.356,23.356,0,0,0,62.939,69.215Z" transform="translate(80.087 65.308)"/>
          </g>
        </g>
        <g id="Grupo_1110494" data-name="Grupo 1110494">
          <g id="Grupo_1110493" data-name="Grupo 1110493" clip-path="url(#clip-path)">
            <path id="Trazado_901055" data-name="Trazado 901055" d="M0,5.162,2.1,0S9.174,2.065,9.174,8.259V127.566s.688,6.653,8.26,6.883h29.6v4.13H14.45s-10.554,0-10.985-11.472C3.181,119.538,3.437,8.718,3.437,8.718S2.528,5.277,0,5.162" transform="translate(0.359 35.35)" fill="#06b5ba"/>
            <path id="Trazado_901056" data-name="Trazado 901056" d="M1.8-.606l.433.126A13.225,13.225,0,0,1,5.929,1.4,8.339,8.339,0,0,1,9.674,8.259V127.536a7.946,7.946,0,0,0,1.23,3.144,7.645,7.645,0,0,0,6.537,3.269H47.53v5.13H14.45a12.994,12.994,0,0,1-5.566-1.493,10.544,10.544,0,0,1-3.94-3.574,13.366,13.366,0,0,1-1.979-6.886C2.687,119.713,2.93,12.133,2.937,8.788c-.128-.424-1-3.038-2.96-3.127L-.729,5.63ZM46.53,134.949H17.418c-4.125-.125-6.285-2.109-7.371-3.751a8.76,8.76,0,0,1-1.371-3.58l0-.026V8.259A7.286,7.286,0,0,0,5.34,2.211,12.692,12.692,0,0,0,2.381.626L.7,4.765c2.343.612,3.182,3.684,3.22,3.826l.017.063v.066c0,1.108-.253,110.9.028,118.369a12.388,12.388,0,0,0,1.818,6.378A9.555,9.555,0,0,0,9.355,136.7a12.128,12.128,0,0,0,5.1,1.375H46.53Z" transform="translate(0.359 35.35)"/>
            <rect id="Rectángulo_404598" data-name="Rectángulo 404598" width="24.091" height="6.654" transform="translate(47.389 173.928)" fill="#06b5ba"/>
            <path id="Rectángulo_404599" data-name="Rectángulo 404599" d="M-.5-.5H24.591V7.154H-.5ZM23.591.5H.5V6.154H23.591Z" transform="translate(47.389 173.928)"/>
            <rect id="Rectángulo_404600" data-name="Rectángulo 404600" width="41.528" height="6.654" transform="translate(5.862 173.928)" fill="#fff"/>
            <path id="Rectángulo_404601" data-name="Rectángulo 404601" d="M-.5-.5H42.028V7.154H-.5ZM41.028.5H.5V6.154H41.028Z" transform="translate(5.862 173.928)"/>
            <path id="Trazado_901057" data-name="Trazado 901057" d="M0,16.888H6.8C1.66,11.863,1.66,5.025,6.8,0H0Z" transform="translate(300.311 91.619)" fill="#a754a6"/>
            <path id="Trazado_901058" data-name="Trazado 901058" d="M6.8,17.388H-.5V-.5H8.026L7.149.358a11.277,11.277,0,0,0-3.7,8.086,11.277,11.277,0,0,0,3.7,8.086l-.349.357Zm-6.3-1H5.635a13.417,13.417,0,0,1-2.183-3.347,10.99,10.99,0,0,1,0-9.195A13.417,13.417,0,0,1,5.635.5H.5Z" transform="translate(300.311 91.619)"/>
          </g>
        </g>
      </g>
      <path id="Trazado_901265" data-name="Trazado 901265" d="M-10.9-3.4H-14v2.105h3.631V0h-5.242V-7.82h5.231v1.305H-14v1.864H-10.9Zm3.024-2.412V.317a2.079,2.079,0,0,1-.51,1.5,1.939,1.939,0,0,1-1.472.534,3.156,3.156,0,0,1-.768-.091V1.026a2.914,2.914,0,0,0,.489.048q.7,0,.7-.747V-5.812Zm-1.681-1.5a.764.764,0,0,1,.234-.575.878.878,0,0,1,.636-.226.878.878,0,0,1,.636.226.764.764,0,0,1,.234.575.762.762,0,0,1-.239.58.882.882,0,0,1-.631.226.882.882,0,0,1-.631-.226A.762.762,0,0,1-9.561-7.315ZM-3.991.107A2.853,2.853,0,0,1-6.072-.677a2.787,2.787,0,0,1-.8-2.089v-.15a3.511,3.511,0,0,1,.338-1.566,2.483,2.483,0,0,1,.959-1.063,2.691,2.691,0,0,1,1.415-.373,2.412,2.412,0,0,1,1.877.752A3.056,3.056,0,0,1-1.6-3.035V-2.4H-5.3a1.442,1.442,0,0,0,.454.913,1.372,1.372,0,0,0,.959.344,1.675,1.675,0,0,0,1.4-.65l.763.854a2.33,2.33,0,0,1-.945.771A3.1,3.1,0,0,1-3.991.107Zm-.177-4.775a.97.97,0,0,0-.749.313,1.62,1.62,0,0,0-.368.9h2.159v-.124a1.156,1.156,0,0,0-.279-.8A1,1,0,0,0-4.168-4.667ZM1.778-2.949a3.5,3.5,0,0,1,.61-2.165,1.978,1.978,0,0,1,1.668-.806,1.78,1.78,0,0,1,1.4.634V-8.25H7.015V0h-1.4L5.538-.618A1.827,1.827,0,0,1,4.044.107,1.973,1.973,0,0,1,2.4-.7,3.615,3.615,0,0,1,1.778-2.949Zm1.552.11a2.307,2.307,0,0,0,.285,1.257.927.927,0,0,0,.827.437,1.038,1.038,0,0,0,1.015-.61v-2.3a1.023,1.023,0,0,0-1-.61Q3.33-4.667,3.33-2.838ZM10.893.107A2.853,2.853,0,0,1,8.811-.677a2.787,2.787,0,0,1-.8-2.089v-.15a3.511,3.511,0,0,1,.338-1.566,2.483,2.483,0,0,1,.959-1.063,2.691,2.691,0,0,1,1.415-.373,2.412,2.412,0,0,1,1.877.752,3.056,3.056,0,0,1,.685,2.132V-2.4h-3.7a1.442,1.442,0,0,0,.454.913,1.372,1.372,0,0,0,.959.344,1.675,1.675,0,0,0,1.4-.65l.763.854a2.33,2.33,0,0,1-.945.771A3.1,3.1,0,0,1,10.893.107Zm-.177-4.775a.97.97,0,0,0-.749.313,1.62,1.62,0,0,0-.368.9h2.159v-.124a1.156,1.156,0,0,0-.279-.8A1,1,0,0,0,10.715-4.667ZM-20.4,8.148a3.485,3.485,0,0,1-.61,2.151,1.955,1.955,0,0,1-1.646.808,1.811,1.811,0,0,1-1.423-.612v2.739h-1.552V5.188h1.439l.054.569a1.824,1.824,0,0,1,1.472-.677,1.968,1.968,0,0,1,1.67.795,3.58,3.58,0,0,1,.6,2.191Zm-1.552-.118a2.3,2.3,0,0,0-.287-1.255.935.935,0,0,0-.835-.442,1.016,1.016,0,0,0-1,.56V9.279a1.033,1.033,0,0,0,1.015.576Q-21.949,9.856-21.949,8.03Zm5.779-1.386a4.217,4.217,0,0,0-.559-.043,1.137,1.137,0,0,0-1.155.6V11h-1.552V5.188h1.466l.043.693a1.438,1.438,0,0,1,1.294-.8,1.626,1.626,0,0,1,.483.07Zm.312,1.4A3.447,3.447,0,0,1-15.525,6.5a2.438,2.438,0,0,1,.959-1.047,2.8,2.8,0,0,1,1.453-.371,2.646,2.646,0,0,1,1.92.72,2.889,2.889,0,0,1,.83,1.955l.011.4A3.038,3.038,0,0,1-11.1,10.3a2.6,2.6,0,0,1-2,.808,2.608,2.608,0,0,1-2.006-.806,3.091,3.091,0,0,1-.749-2.191Zm1.552.11a2.172,2.172,0,0,0,.312,1.267,1.028,1.028,0,0,0,.892.438,1.03,1.03,0,0,0,.881-.433,2.377,2.377,0,0,0,.317-1.385,2.151,2.151,0,0,0-.317-1.259,1.03,1.03,0,0,0-.892-.446,1.013,1.013,0,0,0-.881.444A2.417,2.417,0,0,0-14.306,8.151Zm10.141,0a3.485,3.485,0,0,1-.61,2.151,1.955,1.955,0,0,1-1.646.808A1.811,1.811,0,0,1-7.844,10.5v2.739H-9.4V5.188h1.439l.054.569a1.824,1.824,0,0,1,1.472-.677,1.968,1.968,0,0,1,1.67.795,3.58,3.58,0,0,1,.6,2.191ZM-5.718,8.03A2.3,2.3,0,0,0-6,6.774a.935.935,0,0,0-.835-.442,1.016,1.016,0,0,0-1,.56V9.279a1.033,1.033,0,0,0,1.015.576Q-5.718,9.856-5.718,8.03Zm5.994,2.38a1.947,1.947,0,0,1-1.59.7,1.836,1.836,0,0,1-1.426-.537A2.293,2.293,0,0,1-3.241,9V5.188h1.552V8.947q0,.909.827.909A1.121,1.121,0,0,0,.223,9.307V5.188H1.781V11H.32ZM4.59,11H3.032V2.75H4.59ZM9.015,9.394a.5.5,0,0,0-.282-.448,3.2,3.2,0,0,0-.905-.293Q5.755,8.218,5.755,6.891A1.6,1.6,0,0,1,6.4,5.6a2.589,2.589,0,0,1,1.678-.518,2.787,2.787,0,0,1,1.77.521,1.642,1.642,0,0,1,.663,1.354H8.956a.751.751,0,0,0-.215-.551.909.909,0,0,0-.671-.218.929.929,0,0,0-.607.177.56.56,0,0,0-.215.451.478.478,0,0,0,.244.416,2.514,2.514,0,0,0,.824.274,6.734,6.734,0,0,1,.978.26,1.606,1.606,0,0,1,1.23,1.563,1.516,1.516,0,0,1-.682,1.286,2.943,2.943,0,0,1-1.762.491,3.073,3.073,0,0,1-1.3-.26,2.176,2.176,0,0,1-.889-.714,1.66,1.66,0,0,1-.322-.98H7.044a.81.81,0,0,0,.306.634,1.214,1.214,0,0,0,.763.22,1.124,1.124,0,0,0,.674-.169A.526.526,0,0,0,9.015,9.394ZM13.162,11H11.6V5.188h1.558ZM11.513,3.685a.764.764,0,0,1,.234-.575,1.007,1.007,0,0,1,1.27,0,.76.76,0,0,1,.236.575.762.762,0,0,1-.239.58,1,1,0,0,1-1.262,0A.762.762,0,0,1,11.513,3.685ZM14.2,8.041A3.447,3.447,0,0,1,14.531,6.5a2.438,2.438,0,0,1,.959-1.047,2.8,2.8,0,0,1,1.453-.371,2.646,2.646,0,0,1,1.92.72,2.889,2.889,0,0,1,.83,1.955l.011.4a3.038,3.038,0,0,1-.747,2.146,2.6,2.6,0,0,1-2,.808,2.608,2.608,0,0,1-2.006-.806A3.091,3.091,0,0,1,14.2,8.11Zm1.552.11a2.172,2.172,0,0,0,.312,1.267,1.119,1.119,0,0,0,1.772.005,2.377,2.377,0,0,0,.317-1.385,2.151,2.151,0,0,0-.317-1.259,1.03,1.03,0,0,0-.892-.446,1.013,1.013,0,0,0-.881.444A2.417,2.417,0,0,0,15.751,8.151Zm1.5-5.4h1.692L17.453,4.415H16.191Zm4.839,2.438.048.671a2.029,2.029,0,0,1,1.67-.779,1.686,1.686,0,0,1,1.375.542,2.531,2.531,0,0,1,.462,1.622V11H24.092V7.275a1.011,1.011,0,0,0-.215-.719.96.96,0,0,0-.714-.223,1.067,1.067,0,0,0-.983.56V11H20.628V5.188Z" transform="translate(731.051 1808)" fill="#12263f"/>
      <path id="Trazado_901263" data-name="Trazado 901263" d="M-24.4-.988a2.8,2.8,0,0,1-1.23.808A5.151,5.151,0,0,1-27.4.107a3.49,3.49,0,0,1-1.781-.443,2.956,2.956,0,0,1-1.182-1.286A4.527,4.527,0,0,1-30.784-3.6v-.532a4.808,4.808,0,0,1,.395-2.028,2.92,2.92,0,0,1,1.139-1.311,3.28,3.28,0,0,1,1.743-.454,3.266,3.266,0,0,1,2.175.663A2.835,2.835,0,0,1-24.4-5.333h-1.568a1.559,1.559,0,0,0-.475-.983,1.518,1.518,0,0,0-1.012-.312,1.429,1.429,0,0,0-1.251.618,3.248,3.248,0,0,0-.435,1.837v.5a3.092,3.092,0,0,0,.467,1.858,1.6,1.6,0,0,0,1.37.628,1.787,1.787,0,0,0,1.294-.387V-2.922h-1.466V-4.109H-24.4Zm4.684.4a1.947,1.947,0,0,1-1.59.7A1.836,1.836,0,0,1-22.736-.43,2.293,2.293,0,0,1-23.238-2V-5.812h1.552v3.759q0,.909.827.909a1.121,1.121,0,0,0,1.085-.549V-5.812h1.558V0h-1.461ZM-13.677,0a1.724,1.724,0,0,1-.156-.521A1.878,1.878,0,0,1-15.3.107a2.063,2.063,0,0,1-1.415-.494,1.589,1.589,0,0,1-.561-1.246,1.642,1.642,0,0,1,.685-1.418,3.379,3.379,0,0,1,1.979-.5h.714v-.333a.958.958,0,0,0-.207-.645.813.813,0,0,0-.653-.242.925.925,0,0,0-.615.188.639.639,0,0,0-.223.516h-1.552A1.559,1.559,0,0,1-16.836-5a2.059,2.059,0,0,1,.881-.674,3.21,3.21,0,0,1,1.278-.244,2.536,2.536,0,0,1,1.705.54,1.888,1.888,0,0,1,.631,1.517v2.519a2.778,2.778,0,0,0,.231,1.251V0Zm-1.284-1.08a1.337,1.337,0,0,0,.634-.153,1,1,0,0,0,.43-.411v-1h-.58q-1.166,0-1.241.806l-.005.091a.621.621,0,0,0,.2.478A.793.793,0,0,0-14.961-1.08Zm7.079-3.276A4.217,4.217,0,0,0-8.441-4.4,1.137,1.137,0,0,0-9.6-3.8V0h-1.552V-5.812h1.466l.043.693a1.438,1.438,0,0,1,1.294-.8,1.626,1.626,0,0,1,.483.07Zm.4,1.407a3.5,3.5,0,0,1,.61-2.165A1.978,1.978,0,0,1-5.2-5.919a1.78,1.78,0,0,1,1.4.634V-8.25h1.558V0h-1.4l-.075-.618A1.827,1.827,0,0,1-5.213.107,1.973,1.973,0,0,1-6.859-.7,3.615,3.615,0,0,1-7.479-2.949Zm1.552.11a2.307,2.307,0,0,0,.285,1.257.927.927,0,0,0,.827.437A1.038,1.038,0,0,0-3.8-1.754v-2.3a1.023,1.023,0,0,0-1-.61Q-5.927-4.667-5.927-2.838ZM2.328,0a1.724,1.724,0,0,1-.156-.521A1.878,1.878,0,0,1,.706.107,2.063,2.063,0,0,1-.709-.387,1.589,1.589,0,0,1-1.27-1.633,1.642,1.642,0,0,1-.585-3.051a3.379,3.379,0,0,1,1.979-.5h.714v-.333A.958.958,0,0,0,1.9-4.528a.813.813,0,0,0-.653-.242.925.925,0,0,0-.615.188.639.639,0,0,0-.223.516H-1.141A1.559,1.559,0,0,1-.83-5a2.059,2.059,0,0,1,.881-.674,3.21,3.21,0,0,1,1.278-.244,2.536,2.536,0,0,1,1.705.54,1.888,1.888,0,0,1,.631,1.517v2.519A2.778,2.778,0,0,0,3.9-.091V0ZM1.045-1.08a1.337,1.337,0,0,0,.634-.153,1,1,0,0,0,.43-.411v-1h-.58q-1.166,0-1.241.806l-.005.091a.621.621,0,0,0,.2.478A.793.793,0,0,0,1.045-1.08ZM10.09-2.852A3.485,3.485,0,0,1,9.48-.7,1.955,1.955,0,0,1,7.834.107,1.811,1.811,0,0,1,6.41-.5V2.234H4.858V-5.812H6.3l.054.569a1.824,1.824,0,0,1,1.472-.677,1.968,1.968,0,0,1,1.67.795,3.58,3.58,0,0,1,.6,2.191ZM8.537-2.97A2.3,2.3,0,0,0,8.25-4.226a.935.935,0,0,0-.835-.442,1.016,1.016,0,0,0-1,.56v2.387a1.033,1.033,0,0,0,1.015.576Q8.537-1.144,8.537-2.97Zm2.272.011A3.447,3.447,0,0,1,11.142-4.5,2.438,2.438,0,0,1,12.1-5.548a2.8,2.8,0,0,1,1.453-.371,2.646,2.646,0,0,1,1.92.72,2.889,2.889,0,0,1,.83,1.955l.011.4A3.038,3.038,0,0,1,15.568-.7a2.6,2.6,0,0,1-2,.808A2.608,2.608,0,0,1,11.559-.7a3.091,3.091,0,0,1-.749-2.191Zm1.552.11a2.172,2.172,0,0,0,.312,1.267,1.028,1.028,0,0,0,.892.438,1.03,1.03,0,0,0,.881-.433,2.377,2.377,0,0,0,.317-1.385,2.151,2.151,0,0,0-.317-1.259,1.03,1.03,0,0,0-.892-.446,1.013,1.013,0,0,0-.881.444A2.417,2.417,0,0,0,12.362-2.849ZM18.909,0H17.351V-8.25h1.558Zm3.454-1.9,1.08-3.916h1.622L23.1,0H21.621l-1.96-5.812h1.622Zm3.062-1.063A3.447,3.447,0,0,1,25.757-4.5a2.438,2.438,0,0,1,.959-1.047,2.8,2.8,0,0,1,1.453-.371,2.646,2.646,0,0,1,1.92.72,2.889,2.889,0,0,1,.83,1.955l.011.4A3.038,3.038,0,0,1,30.183-.7a2.6,2.6,0,0,1-2,.808A2.608,2.608,0,0,1,26.173-.7a3.091,3.091,0,0,1-.749-2.191Zm1.552.11a2.172,2.172,0,0,0,.312,1.267,1.028,1.028,0,0,0,.892.438,1.03,1.03,0,0,0,.881-.433,2.377,2.377,0,0,0,.317-1.385,2.151,2.151,0,0,0-.317-1.259,1.03,1.03,0,0,0-.892-.446,1.013,1.013,0,0,0-.881.444A2.417,2.417,0,0,0,26.976-2.849Z" transform="translate(679.051 1707)" fill="#12263f"/>
      <path id="Trazado_901262" data-name="Trazado 901262" d="M-34.685-1.758h-3.082L-38.353,0h-1.869l3.176-8.531h1.629L-32.224,0h-1.869Zm-2.607-1.424h2.133l-1.072-3.193Zm7.031-3.158.053.732a2.213,2.213,0,0,1,1.822-.85,1.84,1.84,0,0,1,1.5.592,2.761,2.761,0,0,1,.5,1.77V0h-1.693V-4.064a1.1,1.1,0,0,0-.234-.784,1.048,1.048,0,0,0-.779-.244,1.164,1.164,0,0,0-1.072.611V0h-1.693V-6.34ZM-23.312,0h-1.7V-6.34h1.7Zm-1.8-7.98a.834.834,0,0,1,.255-.627.958.958,0,0,1,.694-.246.96.96,0,0,1,.691.246.829.829,0,0,1,.258.627.831.831,0,0,1-.261.633.962.962,0,0,1-.688.246.962.962,0,0,1-.688-.246A.831.831,0,0,1-25.11-7.98ZM-20.13,0h-1.7V-9h1.7Zm3.182,0h-1.7V-9h1.7Zm1.131-3.229a3.76,3.76,0,0,1,.363-1.682,2.659,2.659,0,0,1,1.046-1.143,3.051,3.051,0,0,1,1.585-.4,2.887,2.887,0,0,1,2.095.785,3.151,3.151,0,0,1,.905,2.133l.012.434a3.314,3.314,0,0,1-.814,2.341,2.831,2.831,0,0,1-2.186.882A2.845,2.845,0,0,1-15-.762a3.372,3.372,0,0,1-.817-2.391Zm1.693.12a2.37,2.37,0,0,0,.34,1.382,1.121,1.121,0,0,0,.973.478,1.124,1.124,0,0,0,.961-.472A2.593,2.593,0,0,0-11.5-3.232,2.346,2.346,0,0,0-11.851-4.6a1.124,1.124,0,0,0-.973-.487,1.105,1.105,0,0,0-.961.484A2.637,2.637,0,0,0-14.124-3.108Zm8.08-.108a3.821,3.821,0,0,1,.665-2.361A2.158,2.158,0,0,1-3.56-6.457a1.942,1.942,0,0,1,1.529.691V-9h1.7V0H-1.86l-.082-.674A1.993,1.993,0,0,1-3.571.117a2.152,2.152,0,0,1-1.8-.882A3.944,3.944,0,0,1-6.044-3.217Zm1.693.12A2.516,2.516,0,0,0-4.04-1.725a1.011,1.011,0,0,0,.9.477A1.133,1.133,0,0,0-2.03-1.913V-4.427a1.116,1.116,0,0,0-1.1-.665Q-4.351-5.092-4.351-3.1ZM3.9.117A3.112,3.112,0,0,1,1.629-.738,3.041,3.041,0,0,1,.753-3.018v-.164A3.83,3.83,0,0,1,1.122-4.89,2.709,2.709,0,0,1,2.168-6.05a2.936,2.936,0,0,1,1.544-.407,2.631,2.631,0,0,1,2.048.82,3.333,3.333,0,0,1,.747,2.326v.691H2.47a1.573,1.573,0,0,0,.5,1,1.5,1.5,0,0,0,1.046.375A1.828,1.828,0,0,0,5.54-1.957l.832.932a2.542,2.542,0,0,1-1.031.841A3.383,3.383,0,0,1,3.9.117ZM3.706-5.092a1.058,1.058,0,0,0-.817.341,1.768,1.768,0,0,0-.4.977H4.843v-.135a1.261,1.261,0,0,0-.3-.874A1.092,1.092,0,0,0,3.706-5.092Zm6.5,1.875a3.716,3.716,0,0,1,.694-2.35,2.25,2.25,0,0,1,1.872-.891,1.973,1.973,0,0,1,1.623.715l.07-.6H16V-.211a2.71,2.71,0,0,1-.378,1.447,2.427,2.427,0,0,1-1.063.938,3.739,3.739,0,0,1-1.605.322A3.476,3.476,0,0,1,11.6,2.218a2.413,2.413,0,0,1-1-.718l.75-1.031a1.984,1.984,0,0,0,1.535.709,1.452,1.452,0,0,0,1.049-.36,1.352,1.352,0,0,0,.375-1.022v-.34a1.959,1.959,0,0,1-1.541.662,2.244,2.244,0,0,1-1.849-.894,3.715,3.715,0,0,1-.706-2.37ZM11.9-3.1a2.326,2.326,0,0,0,.346,1.357,1.1,1.1,0,0,0,.949.492,1.175,1.175,0,0,0,1.107-.583V-4.509a1.172,1.172,0,0,0-1.1-.583,1.106,1.106,0,0,0-.958.5A2.622,2.622,0,0,0,11.9-3.1Zm5.139-.132a3.76,3.76,0,0,1,.363-1.682,2.659,2.659,0,0,1,1.046-1.143,3.051,3.051,0,0,1,1.585-.4,2.887,2.887,0,0,1,2.095.785,3.151,3.151,0,0,1,.905,2.133l.012.434a3.314,3.314,0,0,1-.814,2.341,2.831,2.831,0,0,1-2.186.882,2.845,2.845,0,0,1-2.188-.879,3.372,3.372,0,0,1-.817-2.391Zm1.693.12a2.37,2.37,0,0,0,.34,1.382,1.121,1.121,0,0,0,.973.478,1.124,1.124,0,0,0,.961-.472,2.593,2.593,0,0,0,.346-1.511A2.346,2.346,0,0,0,21.009-4.6a1.124,1.124,0,0,0-.973-.487,1.105,1.105,0,0,0-.961.484A2.637,2.637,0,0,0,18.735-3.108ZM25.679-6.34l.053.709a2.228,2.228,0,0,1,1.822-.826,1.691,1.691,0,0,1,1.682.967,2.177,2.177,0,0,1,1.9-.967,1.891,1.891,0,0,1,1.535.6,2.761,2.761,0,0,1,.5,1.808V0h-1.7V-4.052a1.212,1.212,0,0,0-.211-.79.933.933,0,0,0-.744-.25,1.057,1.057,0,0,0-1.055.728L29.476,0H27.782V-4.046a1.2,1.2,0,0,0-.217-.8.943.943,0,0,0-.738-.247,1.1,1.1,0,0,0-1.043.6V0H24.091V-6.34ZM38.153,0a1.88,1.88,0,0,1-.17-.568,2.049,2.049,0,0,1-1.6.686A2.251,2.251,0,0,1,34.84-.422a1.734,1.734,0,0,1-.612-1.359,1.792,1.792,0,0,1,.747-1.547,3.686,3.686,0,0,1,2.159-.545h.779v-.363a1.045,1.045,0,0,0-.226-.7.887.887,0,0,0-.712-.264A1.009,1.009,0,0,0,36.3-5a.7.7,0,0,0-.243.563H34.368a1.7,1.7,0,0,1,.34-1.02,2.246,2.246,0,0,1,.961-.735,3.5,3.5,0,0,1,1.395-.267,2.767,2.767,0,0,1,1.86.589,2.06,2.06,0,0,1,.688,1.655v2.748A3.031,3.031,0,0,0,39.864-.1V0Zm-1.4-1.178a1.458,1.458,0,0,0,.691-.167,1.1,1.1,0,0,0,.469-.448v-1.09H37.28q-1.271,0-1.354.879l-.006.1a.678.678,0,0,0,.223.521A.865.865,0,0,0,36.753-1.178Z" transform="translate(631.051 1681)" fill="#12263f"/>
      <path id="Trazado_901261" data-name="Trazado 901261" d="M-71.895-2.052a.827.827,0,0,0-.322-.7,4.227,4.227,0,0,0-1.16-.516A8.224,8.224,0,0,1-74.7-3.8a2.168,2.168,0,0,1-1.332-1.939,1.888,1.888,0,0,1,.357-1.131,2.33,2.33,0,0,1,1.026-.776,3.861,3.861,0,0,1,1.5-.279,3.515,3.515,0,0,1,1.493.3,2.378,2.378,0,0,1,1.018.857,2.242,2.242,0,0,1,.363,1.257h-1.611a1.055,1.055,0,0,0-.338-.835,1.391,1.391,0,0,0-.951-.3,1.486,1.486,0,0,0-.918.25.788.788,0,0,0-.328.658.755.755,0,0,0,.384.639,4.339,4.339,0,0,0,1.131.483,4.885,4.885,0,0,1,2,1.026,2.043,2.043,0,0,1,.628,1.525A1.882,1.882,0,0,1-71.046-.47a3.362,3.362,0,0,1-2.068.577,3.993,3.993,0,0,1-1.644-.33,2.6,2.6,0,0,1-1.131-.905,2.318,2.318,0,0,1-.389-1.332h1.617q0,1.294,1.547,1.294a1.5,1.5,0,0,0,.9-.234A.76.76,0,0,0-71.895-2.052Zm2.363-.908A3.447,3.447,0,0,1-69.2-4.5a2.438,2.438,0,0,1,.959-1.047,2.8,2.8,0,0,1,1.453-.371,2.646,2.646,0,0,1,1.92.72,2.889,2.889,0,0,1,.83,1.955l.011.4A3.038,3.038,0,0,1-64.773-.7a2.6,2.6,0,0,1-2,.808A2.608,2.608,0,0,1-68.782-.7a3.091,3.091,0,0,1-.749-2.191Zm1.552.11a2.172,2.172,0,0,0,.312,1.267,1.028,1.028,0,0,0,.892.438,1.03,1.03,0,0,0,.881-.433,2.377,2.377,0,0,0,.317-1.385A2.151,2.151,0,0,0-65.9-4.221a1.03,1.03,0,0,0-.892-.446,1.013,1.013,0,0,0-.881.444A2.417,2.417,0,0,0-67.979-2.849Zm10.141,0A3.485,3.485,0,0,1-58.448-.7a1.955,1.955,0,0,1-1.646.808A1.811,1.811,0,0,1-61.518-.5V2.234H-63.07V-5.812h1.439l.054.569a1.824,1.824,0,0,1,1.472-.677,1.968,1.968,0,0,1,1.67.795,3.58,3.58,0,0,1,.6,2.191Zm-1.552-.118a2.3,2.3,0,0,0-.287-1.255.935.935,0,0,0-.835-.442,1.016,1.016,0,0,0-1,.56v2.387a1.033,1.033,0,0,0,1.015.576Q-59.391-1.144-59.391-2.97Zm2.272.011A3.447,3.447,0,0,1-56.786-4.5a2.438,2.438,0,0,1,.959-1.047,2.8,2.8,0,0,1,1.453-.371,2.646,2.646,0,0,1,1.92.72,2.889,2.889,0,0,1,.83,1.955l.011.4A3.038,3.038,0,0,1-52.36-.7a2.6,2.6,0,0,1-2,.808A2.608,2.608,0,0,1-56.37-.7a3.091,3.091,0,0,1-.749-2.191Zm1.552.11a2.172,2.172,0,0,0,.312,1.267,1.028,1.028,0,0,0,.892.438,1.03,1.03,0,0,0,.881-.433,2.377,2.377,0,0,0,.317-1.385,2.151,2.151,0,0,0-.317-1.259,1.03,1.03,0,0,0-.892-.446,1.013,1.013,0,0,0-.881.444A2.417,2.417,0,0,0-55.567-2.849Zm8.175-1.507A4.217,4.217,0,0,0-47.95-4.4a1.137,1.137,0,0,0-1.155.6V0h-1.552V-5.812h1.466l.043.693a1.438,1.438,0,0,1,1.294-.8,1.626,1.626,0,0,1,.483.07Zm2.874-2.884v1.429h.994v1.139h-.994v2.9a.693.693,0,0,0,.124.462.62.62,0,0,0,.473.14,2.475,2.475,0,0,0,.457-.038V-.032a3.2,3.2,0,0,1-.94.14,1.482,1.482,0,0,1-1.665-1.649V-4.673h-.849V-5.812h.849V-7.24ZM-39.985.107a2.853,2.853,0,0,1-2.081-.784,2.787,2.787,0,0,1-.8-2.089v-.15a3.511,3.511,0,0,1,.338-1.566,2.483,2.483,0,0,1,.959-1.063,2.691,2.691,0,0,1,1.415-.373,2.412,2.412,0,0,1,1.877.752,3.056,3.056,0,0,1,.685,2.132V-2.4h-3.7a1.442,1.442,0,0,0,.454.913,1.372,1.372,0,0,0,.959.344,1.675,1.675,0,0,0,1.4-.65l.763.854a2.33,2.33,0,0,1-.945.771A3.1,3.1,0,0,1-39.985.107Zm-.177-4.775a.97.97,0,0,0-.749.313,1.62,1.62,0,0,0-.368.9h2.159v-.124a1.156,1.156,0,0,0-.279-.8A1,1,0,0,0-40.162-4.667Zm8.6,3.523a1.018,1.018,0,0,0,.7-.236.828.828,0,0,0,.279-.628h1.456a1.991,1.991,0,0,1-.322,1.082,2.126,2.126,0,0,1-.867.763,2.715,2.715,0,0,1-1.217.271A2.523,2.523,0,0,1-33.5-.685a3.135,3.135,0,0,1-.72-2.189v-.1A3.1,3.1,0,0,1-33.5-5.119a2.494,2.494,0,0,1,1.96-.8,2.444,2.444,0,0,1,1.748.62,2.2,2.2,0,0,1,.669,1.652H-30.58a1.067,1.067,0,0,0-.279-.737.931.931,0,0,0-.709-.283.935.935,0,0,0-.819.4,2.291,2.291,0,0,0-.277,1.283v.161a2.32,2.32,0,0,0,.274,1.291A.947.947,0,0,0-31.558-1.144ZM-25.564.107a2.853,2.853,0,0,1-2.081-.784,2.787,2.787,0,0,1-.8-2.089v-.15a3.511,3.511,0,0,1,.338-1.566,2.483,2.483,0,0,1,.959-1.063,2.691,2.691,0,0,1,1.415-.373,2.412,2.412,0,0,1,1.877.752,3.056,3.056,0,0,1,.685,2.132V-2.4h-3.7a1.442,1.442,0,0,0,.454.913,1.372,1.372,0,0,0,.959.344,1.675,1.675,0,0,0,1.4-.65l.763.854a2.33,2.33,0,0,1-.945.771A3.1,3.1,0,0,1-25.564.107Zm-.177-4.775a.97.97,0,0,0-.749.313,1.62,1.62,0,0,0-.368.9H-24.7v-.124a1.156,1.156,0,0,0-.279-.8A1,1,0,0,0-25.741-4.667Zm4.877-1.144.048.671a2.029,2.029,0,0,1,1.67-.779,1.686,1.686,0,0,1,1.375.542,2.531,2.531,0,0,1,.462,1.622V0h-1.552V-3.725a1.011,1.011,0,0,0-.215-.719.96.96,0,0,0-.714-.223,1.067,1.067,0,0,0-.983.56V0h-1.552V-5.812Zm6.59-1.429v1.429h.994v1.139h-.994v2.9a.693.693,0,0,0,.124.462.62.62,0,0,0,.473.14,2.475,2.475,0,0,0,.457-.038V-.032a3.2,3.2,0,0,1-.94.14,1.482,1.482,0,0,1-1.665-1.649V-4.673h-.849V-5.812h.849V-7.24ZM-9.15-4.356A4.217,4.217,0,0,0-9.708-4.4a1.137,1.137,0,0,0-1.155.6V0h-1.552V-5.812h1.466l.043.693a1.438,1.438,0,0,1,1.294-.8,1.626,1.626,0,0,1,.483.07ZM-5.2,0a1.724,1.724,0,0,1-.156-.521A1.878,1.878,0,0,1-6.819.107,2.063,2.063,0,0,1-8.234-.387,1.589,1.589,0,0,1-8.8-1.633,1.642,1.642,0,0,1-8.11-3.051a3.379,3.379,0,0,1,1.979-.5h.714v-.333a.958.958,0,0,0-.207-.645.813.813,0,0,0-.653-.242.925.925,0,0,0-.615.188.639.639,0,0,0-.223.516H-8.666A1.559,1.559,0,0,1-8.355-5a2.059,2.059,0,0,1,.881-.674A3.21,3.21,0,0,1-6.2-5.919a2.536,2.536,0,0,1,1.705.54,1.888,1.888,0,0,1,.631,1.517v2.519A2.778,2.778,0,0,0-3.628-.091V0ZM-6.48-1.08a1.337,1.337,0,0,0,.634-.153,1,1,0,0,0,.43-.411v-1H-6q-1.166,0-1.241.806l-.005.091a.621.621,0,0,0,.2.478A.793.793,0,0,0-6.48-1.08ZM-1.029,0H-2.586V-8.25h1.558ZM2.747-2.949a3.5,3.5,0,0,1,.61-2.165,1.978,1.978,0,0,1,1.668-.806,1.78,1.78,0,0,1,1.4.634V-8.25H7.984V0h-1.4L6.507-.618A1.827,1.827,0,0,1,5.014.107,1.973,1.973,0,0,1,3.368-.7,3.615,3.615,0,0,1,2.747-2.949Zm1.552.11a2.307,2.307,0,0,0,.285,1.257.927.927,0,0,0,.827.437,1.038,1.038,0,0,0,1.015-.61v-2.3a1.023,1.023,0,0,0-1-.61Q4.3-4.667,4.3-2.838ZM11.862.107A2.853,2.853,0,0,1,9.781-.677a2.787,2.787,0,0,1-.8-2.089v-.15a3.511,3.511,0,0,1,.338-1.566,2.483,2.483,0,0,1,.959-1.063,2.691,2.691,0,0,1,1.415-.373,2.412,2.412,0,0,1,1.877.752,3.056,3.056,0,0,1,.685,2.132V-2.4h-3.7a1.442,1.442,0,0,0,.454.913,1.372,1.372,0,0,0,.959.344,1.675,1.675,0,0,0,1.4-.65l.763.854a2.33,2.33,0,0,1-.945.771A3.1,3.1,0,0,1,11.862.107Zm-.177-4.775a.97.97,0,0,0-.749.313,1.62,1.62,0,0,0-.368.9h2.159v-.124a1.156,1.156,0,0,0-.279-.8A1,1,0,0,0,11.685-4.667ZM16.771,0H15.214V-8.25h1.558Zm7.283-4.356A4.217,4.217,0,0,0,23.5-4.4a1.137,1.137,0,0,0-1.155.6V0H20.789V-5.812h1.466l.043.693a1.438,1.438,0,0,1,1.294-.8,1.626,1.626,0,0,1,.483.07Zm.312,1.4A3.447,3.447,0,0,1,24.7-4.5a2.438,2.438,0,0,1,.959-1.047,2.8,2.8,0,0,1,1.453-.371,2.646,2.646,0,0,1,1.92.72,2.889,2.889,0,0,1,.83,1.955l.011.4A3.038,3.038,0,0,1,29.125-.7a2.6,2.6,0,0,1-2,.808A2.608,2.608,0,0,1,25.115-.7a3.091,3.091,0,0,1-.749-2.191Zm1.552.11a2.172,2.172,0,0,0,.312,1.267,1.028,1.028,0,0,0,.892.438A1.03,1.03,0,0,0,28-1.577a2.377,2.377,0,0,0,.317-1.385A2.151,2.151,0,0,0,28-4.221a1.03,1.03,0,0,0-.892-.446,1.013,1.013,0,0,0-.881.444A2.417,2.417,0,0,0,25.918-2.849Zm4.667-.1a3.5,3.5,0,0,1,.61-2.165,1.978,1.978,0,0,1,1.668-.806,1.78,1.78,0,0,1,1.4.634V-8.25h1.558V0h-1.4l-.075-.618a1.827,1.827,0,0,1-1.493.725A1.973,1.973,0,0,1,31.206-.7,3.615,3.615,0,0,1,30.586-2.949Zm1.552.11a2.307,2.307,0,0,0,.285,1.257.927.927,0,0,0,.827.437,1.038,1.038,0,0,0,1.015-.61v-2.3a1.023,1.023,0,0,0-1-.61Q32.138-4.667,32.138-2.838ZM40.393,0a1.724,1.724,0,0,1-.156-.521,1.878,1.878,0,0,1-1.466.628,2.063,2.063,0,0,1-1.415-.494,1.589,1.589,0,0,1-.561-1.246,1.642,1.642,0,0,1,.685-1.418,3.379,3.379,0,0,1,1.979-.5h.714v-.333a.958.958,0,0,0-.207-.645.813.813,0,0,0-.653-.242.925.925,0,0,0-.615.188.639.639,0,0,0-.223.516H36.924A1.559,1.559,0,0,1,37.235-5a2.059,2.059,0,0,1,.881-.674,3.21,3.21,0,0,1,1.278-.244,2.536,2.536,0,0,1,1.705.54,1.888,1.888,0,0,1,.631,1.517v2.519a2.778,2.778,0,0,0,.231,1.251V0ZM39.11-1.08a1.337,1.337,0,0,0,.634-.153,1,1,0,0,0,.43-.411v-1h-.58q-1.166,0-1.241.806l-.005.091a.621.621,0,0,0,.2.478A.793.793,0,0,0,39.11-1.08Zm5.269-4.732.048.65a2.042,2.042,0,0,1,1.67-.757,1.55,1.55,0,0,1,1.542.886,2,2,0,0,1,1.746-.886,1.733,1.733,0,0,1,1.407.551,2.531,2.531,0,0,1,.462,1.657V0H49.7V-3.715a1.111,1.111,0,0,0-.193-.724.856.856,0,0,0-.682-.229A.969.969,0,0,0,47.854-4l.005,4H46.307V-3.709a1.1,1.1,0,0,0-.2-.732.864.864,0,0,0-.677-.226,1.006,1.006,0,0,0-.956.549V0H42.923V-5.812ZM54.084,0H52.527V-5.812h1.558ZM52.435-7.315a.764.764,0,0,1,.234-.575.878.878,0,0,1,.636-.226.88.88,0,0,1,.634.226.76.76,0,0,1,.236.575.762.762,0,0,1-.239.58.882.882,0,0,1-.631.226.882.882,0,0,1-.631-.226A.762.762,0,0,1,52.435-7.315Zm5.6,7.423a2.853,2.853,0,0,1-2.081-.784,2.787,2.787,0,0,1-.8-2.089v-.15a3.511,3.511,0,0,1,.338-1.566,2.483,2.483,0,0,1,.959-1.063,2.691,2.691,0,0,1,1.415-.373,2.412,2.412,0,0,1,1.877.752,3.056,3.056,0,0,1,.685,2.132V-2.4h-3.7a1.442,1.442,0,0,0,.454.913,1.372,1.372,0,0,0,.959.344,1.675,1.675,0,0,0,1.4-.65L60.3-.94a2.33,2.33,0,0,1-.945.771A3.1,3.1,0,0,1,58.037.107ZM57.86-4.667a.97.97,0,0,0-.749.313,1.62,1.62,0,0,0-.368.9H58.9v-.124a1.156,1.156,0,0,0-.279-.8A1,1,0,0,0,57.86-4.667Zm4.877-1.144.048.671a2.029,2.029,0,0,1,1.67-.779,1.686,1.686,0,0,1,1.375.542,2.531,2.531,0,0,1,.462,1.622V0H64.74V-3.725a1.011,1.011,0,0,0-.215-.719.96.96,0,0,0-.714-.223,1.067,1.067,0,0,0-.983.56V0H61.276V-5.812Zm6.59-1.429v1.429h.994v1.139h-.994v2.9a.693.693,0,0,0,.124.462.62.62,0,0,0,.473.14,2.475,2.475,0,0,0,.457-.038V-.032a3.2,3.2,0,0,1-.94.14,1.482,1.482,0,0,1-1.665-1.649V-4.673h-.849V-5.812h.849V-7.24Zm1.456,4.281A3.447,3.447,0,0,1,71.116-4.5a2.438,2.438,0,0,1,.959-1.047,2.8,2.8,0,0,1,1.453-.371,2.646,2.646,0,0,1,1.92.72,2.889,2.889,0,0,1,.83,1.955l.011.4A3.038,3.038,0,0,1,75.542-.7a2.6,2.6,0,0,1-2,.808A2.608,2.608,0,0,1,71.532-.7a3.091,3.091,0,0,1-.749-2.191Zm1.552.11a2.172,2.172,0,0,0,.312,1.267,1.028,1.028,0,0,0,.892.438,1.03,1.03,0,0,0,.881-.433,2.377,2.377,0,0,0,.317-1.385,2.151,2.151,0,0,0-.317-1.259,1.03,1.03,0,0,0-.892-.446,1.013,1.013,0,0,0-.881.444A2.417,2.417,0,0,0,72.335-2.849Z" transform="translate(583.051 1643)" fill="#12263f"/>
      <path id="Trazado_901264" data-name="Trazado 901264" d="M-27.6-2.863h-1.284V0H-30.5V-7.82h2.906a3.285,3.285,0,0,1,2.138.618A2.132,2.132,0,0,1-24.7-5.457a2.406,2.406,0,0,1-.346,1.335,2.363,2.363,0,0,1-1.05.851l1.692,3.2V0h-1.729Zm-1.284-1.305h1.3a1.331,1.331,0,0,0,.94-.309,1.1,1.1,0,0,0,.333-.851,1.182,1.182,0,0,0-.314-.87,1.306,1.306,0,0,0-.964-.317h-1.294Zm5.065,1.208A3.447,3.447,0,0,1-23.49-4.5a2.438,2.438,0,0,1,.959-1.047,2.8,2.8,0,0,1,1.453-.371,2.646,2.646,0,0,1,1.92.72,2.889,2.889,0,0,1,.83,1.955l.011.4A3.038,3.038,0,0,1-19.065-.7a2.6,2.6,0,0,1-2,.808A2.608,2.608,0,0,1-23.074-.7a3.091,3.091,0,0,1-.749-2.191Zm1.552.11a2.172,2.172,0,0,0,.312,1.267,1.028,1.028,0,0,0,.892.438,1.03,1.03,0,0,0,.881-.433,2.377,2.377,0,0,0,.317-1.385,2.151,2.151,0,0,0-.317-1.259,1.03,1.03,0,0,0-.892-.446,1.013,1.013,0,0,0-.881.444A2.417,2.417,0,0,0-22.271-2.849Zm4.667-.1a3.5,3.5,0,0,1,.61-2.165,1.978,1.978,0,0,1,1.668-.806,1.78,1.78,0,0,1,1.4.634V-8.25h1.558V0h-1.4l-.075-.618a1.827,1.827,0,0,1-1.493.725A1.973,1.973,0,0,1-16.983-.7,3.615,3.615,0,0,1-17.6-2.949Zm1.552.11a2.307,2.307,0,0,0,.285,1.257.927.927,0,0,0,.827.437,1.038,1.038,0,0,0,1.015-.61v-2.3a1.023,1.023,0,0,0-1-.61Q-16.052-4.667-16.052-2.838ZM-7.8,0a1.724,1.724,0,0,1-.156-.521A1.878,1.878,0,0,1-9.418.107a2.063,2.063,0,0,1-1.415-.494,1.589,1.589,0,0,1-.561-1.246,1.642,1.642,0,0,1,.685-1.418,3.379,3.379,0,0,1,1.979-.5h.714v-.333a.958.958,0,0,0-.207-.645.813.813,0,0,0-.653-.242.925.925,0,0,0-.615.188.639.639,0,0,0-.223.516h-1.552A1.559,1.559,0,0,1-10.954-5a2.059,2.059,0,0,1,.881-.674A3.21,3.21,0,0,1-8.8-5.919a2.536,2.536,0,0,1,1.705.54,1.888,1.888,0,0,1,.631,1.517v2.519A2.778,2.778,0,0,0-6.228-.091V0ZM-9.08-1.08a1.337,1.337,0,0,0,.634-.153,1,1,0,0,0,.43-.411v-1H-8.6q-1.166,0-1.241.806l-.005.091a.621.621,0,0,0,.2.478A.793.793,0,0,0-9.08-1.08Zm5.269-4.732.048.65a2.042,2.042,0,0,1,1.67-.757,1.55,1.55,0,0,1,1.542.886A2,2,0,0,1,1.2-5.919,1.733,1.733,0,0,1,2.6-5.368a2.531,2.531,0,0,1,.462,1.657V0H1.507V-3.715a1.111,1.111,0,0,0-.193-.724.856.856,0,0,0-.682-.229A.969.969,0,0,0-.336-4L-.33,0H-1.883V-3.709a1.1,1.1,0,0,0-.2-.732.864.864,0,0,0-.677-.226,1.006,1.006,0,0,0-.956.549V0H-5.266V-5.812ZM5.895,0H4.337V-5.812H5.895ZM4.246-7.315a.764.764,0,0,1,.234-.575.878.878,0,0,1,.636-.226.88.88,0,0,1,.634.226.76.76,0,0,1,.236.575.762.762,0,0,1-.239.58.882.882,0,0,1-.631.226.882.882,0,0,1-.631-.226A.762.762,0,0,1,4.246-7.315ZM9.848.107A2.853,2.853,0,0,1,7.767-.677a2.787,2.787,0,0,1-.8-2.089v-.15A3.511,3.511,0,0,1,7.3-4.482a2.483,2.483,0,0,1,.959-1.063,2.691,2.691,0,0,1,1.415-.373,2.412,2.412,0,0,1,1.877.752,3.056,3.056,0,0,1,.685,2.132V-2.4h-3.7a1.442,1.442,0,0,0,.454.913,1.372,1.372,0,0,0,.959.344,1.675,1.675,0,0,0,1.4-.65l.763.854a2.33,2.33,0,0,1-.945.771A3.1,3.1,0,0,1,9.848.107ZM9.671-4.667a.97.97,0,0,0-.749.313,1.62,1.62,0,0,0-.368.9h2.159v-.124a1.156,1.156,0,0,0-.279-.8A1,1,0,0,0,9.671-4.667Zm4.877-1.144.048.671a2.029,2.029,0,0,1,1.67-.779,1.686,1.686,0,0,1,1.375.542A2.531,2.531,0,0,1,18.1-3.754V0H16.551V-3.725a1.011,1.011,0,0,0-.215-.719.96.96,0,0,0-.714-.223,1.067,1.067,0,0,0-.983.56V0H13.087V-5.812Zm6.59-1.429v1.429h.994v1.139h-.994v2.9a.693.693,0,0,0,.124.462.62.62,0,0,0,.473.14,2.475,2.475,0,0,0,.457-.038V-.032a3.2,3.2,0,0,1-.94.14,1.482,1.482,0,0,1-1.665-1.649V-4.673h-.849V-5.812h.849V-7.24Zm1.456,4.281A3.447,3.447,0,0,1,22.927-4.5a2.438,2.438,0,0,1,.959-1.047,2.8,2.8,0,0,1,1.453-.371,2.646,2.646,0,0,1,1.92.72,2.889,2.889,0,0,1,.83,1.955l.011.4A3.038,3.038,0,0,1,27.352-.7a2.6,2.6,0,0,1-2,.808A2.608,2.608,0,0,1,23.343-.7a3.091,3.091,0,0,1-.749-2.191Zm1.552.11a2.172,2.172,0,0,0,.312,1.267,1.028,1.028,0,0,0,.892.438,1.03,1.03,0,0,0,.881-.433,2.377,2.377,0,0,0,.317-1.385,2.151,2.151,0,0,0-.317-1.259,1.03,1.03,0,0,0-.892-.446,1.013,1.013,0,0,0-.881.444A2.417,2.417,0,0,0,24.146-2.849Zm-44.674,10.9a3.5,3.5,0,0,1,.61-2.165,1.978,1.978,0,0,1,1.668-.806,1.78,1.78,0,0,1,1.4.634V2.75h1.558V11h-1.4l-.075-.618a1.827,1.827,0,0,1-1.493.725,1.973,1.973,0,0,1-1.646-.808A3.615,3.615,0,0,1-20.528,8.051Zm1.552.11a2.307,2.307,0,0,0,.285,1.257.927.927,0,0,0,.827.437,1.038,1.038,0,0,0,1.015-.61v-2.3a1.023,1.023,0,0,0-1-.61Q-18.976,6.333-18.976,8.162Zm7.563,2.946a2.853,2.853,0,0,1-2.081-.784,2.787,2.787,0,0,1-.8-2.089v-.15a3.511,3.511,0,0,1,.338-1.566A2.483,2.483,0,0,1-13,5.454a2.691,2.691,0,0,1,1.415-.373,2.412,2.412,0,0,1,1.877.752,3.056,3.056,0,0,1,.685,2.132V8.6h-3.7a1.442,1.442,0,0,0,.454.913,1.372,1.372,0,0,0,.959.344,1.675,1.675,0,0,0,1.4-.65l.763.854a2.33,2.33,0,0,1-.945.771A3.1,3.1,0,0,1-11.414,11.107Zm-.177-4.775a.97.97,0,0,0-.749.313,1.62,1.62,0,0,0-.368.9h2.159V7.417a1.156,1.156,0,0,0-.279-.8A1,1,0,0,0-11.591,6.333ZM-.167,8.148a3.519,3.519,0,0,1-.6,2.178,1.975,1.975,0,0,1-1.665.781,1.814,1.814,0,0,1-1.509-.725l-.07.618H-5.4V2.75h1.552V5.709a1.768,1.768,0,0,1,1.413-.628,1.991,1.991,0,0,1,1.668.781,3.524,3.524,0,0,1,.6,2.2ZM-1.719,8.03A2.325,2.325,0,0,0-2,6.739a.943.943,0,0,0-.833-.407,1.024,1.024,0,0,0-1.021.609v2.3a1.037,1.037,0,0,0,1.031.614.959.959,0,0,0,.988-.743A3.846,3.846,0,0,0-1.719,8.03Zm2.267.011A3.447,3.447,0,0,1,.881,6.5,2.438,2.438,0,0,1,1.84,5.452a2.8,2.8,0,0,1,1.453-.371,2.646,2.646,0,0,1,1.92.72,2.889,2.889,0,0,1,.83,1.955l.011.4A3.038,3.038,0,0,1,5.307,10.3a2.6,2.6,0,0,1-2,.808A2.608,2.608,0,0,1,1.3,10.3,3.091,3.091,0,0,1,.548,8.11Zm1.552.11a2.172,2.172,0,0,0,.312,1.267,1.028,1.028,0,0,0,.892.438,1.03,1.03,0,0,0,.881-.433A2.377,2.377,0,0,0,4.5,8.038a2.151,2.151,0,0,0-.317-1.259,1.03,1.03,0,0,0-.892-.446,1.013,1.013,0,0,0-.881.444A2.417,2.417,0,0,0,2.1,8.151ZM8.647,11H7.09V2.75H8.647Zm4.646,0a1.724,1.724,0,0,1-.156-.521,1.878,1.878,0,0,1-1.466.628,2.063,2.063,0,0,1-1.415-.494,1.589,1.589,0,0,1-.561-1.246,1.642,1.642,0,0,1,.685-1.418,3.379,3.379,0,0,1,1.979-.5h.714V7.117a.958.958,0,0,0-.207-.645.813.813,0,0,0-.653-.242.925.925,0,0,0-.615.188.639.639,0,0,0-.223.516H9.824A1.559,1.559,0,0,1,10.135,6a2.059,2.059,0,0,1,.881-.674,3.21,3.21,0,0,1,1.278-.244A2.536,2.536,0,0,1,14,5.621a1.888,1.888,0,0,1,.631,1.517V9.657a2.778,2.778,0,0,0,.231,1.251V11ZM12.01,9.92a1.337,1.337,0,0,0,.634-.153,1,1,0,0,0,.43-.411v-1h-.58q-1.166,0-1.241.806l-.005.091a.621.621,0,0,0,.2.478A.793.793,0,0,0,12.01,9.92Zm6.961-.526a.5.5,0,0,0-.282-.448,3.2,3.2,0,0,0-.905-.293Q15.71,8.218,15.71,6.891A1.6,1.6,0,0,1,16.352,5.6a2.589,2.589,0,0,1,1.678-.518A2.787,2.787,0,0,1,19.8,5.6a1.642,1.642,0,0,1,.663,1.354H18.912a.751.751,0,0,0-.215-.551.909.909,0,0,0-.671-.218.929.929,0,0,0-.607.177.56.56,0,0,0-.215.451.478.478,0,0,0,.244.416,2.514,2.514,0,0,0,.824.274,6.734,6.734,0,0,1,.978.26A1.606,1.606,0,0,1,20.48,9.33a1.516,1.516,0,0,1-.682,1.286,2.943,2.943,0,0,1-1.762.491,3.073,3.073,0,0,1-1.3-.26,2.176,2.176,0,0,1-.889-.714,1.66,1.66,0,0,1-.322-.98H17a.81.81,0,0,0,.306.634,1.214,1.214,0,0,0,.763.22,1.124,1.124,0,0,0,.674-.169A.526.526,0,0,0,18.971,9.394Z" transform="translate(381.051 1715)" fill="#12263f"/>
      <path id="Trazado_901266" data-name="Trazado 901266" d="M-30.591-7.82v5.151a2.637,2.637,0,0,1-.8,2.03,3.1,3.1,0,0,1-2.194.747,3.131,3.131,0,0,1-2.175-.725,2.592,2.592,0,0,1-.822-1.993V-7.82h1.611v5.162a1.49,1.49,0,0,0,.368,1.12,1.412,1.412,0,0,0,1.018.352q1.359,0,1.38-1.429v-5.2Zm2.648,2.009.048.671a2.029,2.029,0,0,1,1.67-.779,1.686,1.686,0,0,1,1.375.542,2.531,2.531,0,0,1,.462,1.622V0H-25.94V-3.725a1.011,1.011,0,0,0-.215-.719.96.96,0,0,0-.714-.223,1.067,1.067,0,0,0-.983.56V0H-29.4V-5.812ZM-21.573,0h-1.558V-5.812h1.558Zm-1.649-7.315a.764.764,0,0,1,.234-.575.878.878,0,0,1,.636-.226.88.88,0,0,1,.634.226.76.76,0,0,1,.236.575.762.762,0,0,1-.239.58.882.882,0,0,1-.631.226.882.882,0,0,1-.631-.226A.762.762,0,0,1-23.222-7.315Zm2.686,4.356A3.447,3.447,0,0,1-20.2-4.5a2.438,2.438,0,0,1,.959-1.047,2.8,2.8,0,0,1,1.453-.371,2.646,2.646,0,0,1,1.92.72,2.889,2.889,0,0,1,.83,1.955l.011.4A3.038,3.038,0,0,1-15.778-.7a2.6,2.6,0,0,1-2,.808A2.608,2.608,0,0,1-19.787-.7a3.091,3.091,0,0,1-.749-2.191Zm1.552.11a2.172,2.172,0,0,0,.312,1.267,1.028,1.028,0,0,0,.892.438,1.03,1.03,0,0,0,.881-.433,2.377,2.377,0,0,0,.317-1.385A2.151,2.151,0,0,0-16.9-4.221a1.03,1.03,0,0,0-.892-.446,1.013,1.013,0,0,0-.881.444A2.417,2.417,0,0,0-18.984-2.849Zm1.5-5.4h1.692l-1.488,1.665h-1.262Zm4.839,2.438.048.671a2.029,2.029,0,0,1,1.67-.779,1.686,1.686,0,0,1,1.375.542,2.531,2.531,0,0,1,.462,1.622V0h-1.552V-3.725a1.011,1.011,0,0,0-.215-.719.96.96,0,0,0-.714-.223,1.067,1.067,0,0,0-.983.56V0h-1.552V-5.812ZM-2.5.107A2.853,2.853,0,0,1-4.582-.677a2.787,2.787,0,0,1-.8-2.089v-.15a3.511,3.511,0,0,1,.338-1.566,2.483,2.483,0,0,1,.959-1.063,2.691,2.691,0,0,1,1.415-.373,2.412,2.412,0,0,1,1.877.752A3.056,3.056,0,0,1-.11-3.035V-2.4h-3.7a1.442,1.442,0,0,0,.454.913,1.372,1.372,0,0,0,.959.344A1.675,1.675,0,0,0-1-1.794l.763.854a2.33,2.33,0,0,1-.945.771A3.1,3.1,0,0,1-2.5.107Zm-.177-4.775a.97.97,0,0,0-.749.313,1.62,1.62,0,0,0-.368.9h2.159v-.124a1.156,1.156,0,0,0-.279-.8A1,1,0,0,0-2.677-4.667Zm6.6,3.062a.5.5,0,0,0-.282-.448,3.2,3.2,0,0,0-.905-.293Q.658-2.782.658-4.109A1.6,1.6,0,0,1,1.3-5.4a2.589,2.589,0,0,1,1.678-.518,2.787,2.787,0,0,1,1.77.521,1.642,1.642,0,0,1,.663,1.354H3.859a.751.751,0,0,0-.215-.551.909.909,0,0,0-.671-.218.929.929,0,0,0-.607.177.56.56,0,0,0-.215.451.478.478,0,0,0,.244.416,2.514,2.514,0,0,0,.824.274,6.734,6.734,0,0,1,.978.26A1.606,1.606,0,0,1,5.427-1.67,1.516,1.516,0,0,1,4.745-.384,2.943,2.943,0,0,1,2.984.107a3.073,3.073,0,0,1-1.3-.26A2.176,2.176,0,0,1,.8-.867a1.66,1.66,0,0,1-.322-.98H1.947a.81.81,0,0,0,.306.634,1.214,1.214,0,0,0,.763.22,1.124,1.124,0,0,0,.674-.169A.526.526,0,0,0,3.918-1.606ZM8.285-7.24v1.429h.994v1.139H8.285v2.9a.693.693,0,0,0,.124.462.62.62,0,0,0,.473.14,2.475,2.475,0,0,0,.457-.038V-.032a3.2,3.2,0,0,1-.94.14A1.482,1.482,0,0,1,6.733-1.542V-4.673H5.884V-5.812h.849V-7.24Zm5.124,2.884A4.217,4.217,0,0,0,12.85-4.4a1.137,1.137,0,0,0-1.155.6V0H10.143V-5.812H11.61l.043.693a1.438,1.438,0,0,1,1.294-.8,1.626,1.626,0,0,1,.483.07ZM15.794,0H14.236V-5.812h1.558ZM14.145-7.315a.764.764,0,0,1,.234-.575.878.878,0,0,1,.636-.226.88.88,0,0,1,.634.226.76.76,0,0,1,.236.575.762.762,0,0,1-.239.58.882.882,0,0,1-.631.226.882.882,0,0,1-.631-.226A.762.762,0,0,1,14.145-7.315ZM20.44,0a1.724,1.724,0,0,1-.156-.521,1.878,1.878,0,0,1-1.466.628A2.063,2.063,0,0,1,17.4-.387a1.589,1.589,0,0,1-.561-1.246,1.642,1.642,0,0,1,.685-1.418,3.379,3.379,0,0,1,1.979-.5h.714v-.333a.958.958,0,0,0-.207-.645.813.813,0,0,0-.653-.242.925.925,0,0,0-.615.188.639.639,0,0,0-.223.516H16.97A1.559,1.559,0,0,1,17.281-5a2.059,2.059,0,0,1,.881-.674,3.21,3.21,0,0,1,1.278-.244,2.536,2.536,0,0,1,1.705.54,1.888,1.888,0,0,1,.631,1.517v2.519a2.778,2.778,0,0,0,.231,1.251V0ZM19.156-1.08a1.337,1.337,0,0,0,.634-.153,1,1,0,0,0,.43-.411v-1h-.58q-1.166,0-1.241.806l-.005.091a.621.621,0,0,0,.2.478A.793.793,0,0,0,19.156-1.08Zm3.572-1.869a3.5,3.5,0,0,1,.61-2.165,1.978,1.978,0,0,1,1.668-.806,1.78,1.78,0,0,1,1.4.634V-8.25h1.558V0h-1.4l-.075-.618a1.827,1.827,0,0,1-1.493.725A1.973,1.973,0,0,1,23.348-.7,3.615,3.615,0,0,1,22.728-2.949Zm1.552.11a2.307,2.307,0,0,0,.285,1.257.927.927,0,0,0,.827.437,1.038,1.038,0,0,0,1.015-.61v-2.3a1.023,1.023,0,0,0-1-.61Q24.28-4.667,24.28-2.838ZM32.535,0a1.724,1.724,0,0,1-.156-.521,1.878,1.878,0,0,1-1.466.628A2.063,2.063,0,0,1,29.5-.387a1.589,1.589,0,0,1-.561-1.246,1.642,1.642,0,0,1,.685-1.418,3.379,3.379,0,0,1,1.979-.5h.714v-.333a.958.958,0,0,0-.207-.645.813.813,0,0,0-.653-.242.925.925,0,0,0-.615.188.639.639,0,0,0-.223.516H29.066A1.559,1.559,0,0,1,29.377-5a2.059,2.059,0,0,1,.881-.674,3.21,3.21,0,0,1,1.278-.244,2.536,2.536,0,0,1,1.705.54,1.888,1.888,0,0,1,.631,1.517v2.519A2.778,2.778,0,0,0,34.1-.091V0ZM31.252-1.08a1.337,1.337,0,0,0,.634-.153,1,1,0,0,0,.43-.411v-1h-.58q-1.166,0-1.241.806l-.005.091a.621.621,0,0,0,.2.478A.793.793,0,0,0,31.252-1.08ZM-40.981,8.051a3.5,3.5,0,0,1,.61-2.165A1.978,1.978,0,0,1-38.7,5.081a1.78,1.78,0,0,1,1.4.634V2.75h1.558V11h-1.4l-.075-.618a1.827,1.827,0,0,1-1.493.725,1.973,1.973,0,0,1-1.646-.808A3.615,3.615,0,0,1-40.981,8.051Zm1.552.11a2.307,2.307,0,0,0,.285,1.257.927.927,0,0,0,.827.437,1.038,1.038,0,0,0,1.015-.61v-2.3a1.023,1.023,0,0,0-1-.61Q-39.429,6.333-39.429,8.162Zm7.563,2.946a2.853,2.853,0,0,1-2.081-.784,2.787,2.787,0,0,1-.8-2.089v-.15a3.511,3.511,0,0,1,.338-1.566,2.483,2.483,0,0,1,.959-1.063,2.691,2.691,0,0,1,1.415-.373,2.412,2.412,0,0,1,1.877.752,3.056,3.056,0,0,1,.685,2.132V8.6h-3.7a1.442,1.442,0,0,0,.454.913,1.372,1.372,0,0,0,.959.344,1.675,1.675,0,0,0,1.4-.65l.763.854a2.33,2.33,0,0,1-.945.771A3.1,3.1,0,0,1-31.867,11.107Zm-.177-4.775a.97.97,0,0,0-.749.313,1.62,1.62,0,0,0-.368.9H-31V7.417a1.156,1.156,0,0,0-.279-.8A1,1,0,0,0-32.044,6.333ZM-26.958,11h-1.558V2.75h1.558Zm6.692.107a2.853,2.853,0,0,1-2.081-.784,2.787,2.787,0,0,1-.8-2.089v-.15a3.511,3.511,0,0,1,.338-1.566,2.483,2.483,0,0,1,.959-1.063,2.691,2.691,0,0,1,1.415-.373,2.412,2.412,0,0,1,1.877.752,3.056,3.056,0,0,1,.685,2.132V8.6h-3.7a1.442,1.442,0,0,0,.454.913,1.372,1.372,0,0,0,.959.344,1.675,1.675,0,0,0,1.4-.65l.763.854a2.33,2.33,0,0,1-.945.771A3.1,3.1,0,0,1-20.265,11.107Zm-.177-4.775a.97.97,0,0,0-.749.313,1.62,1.62,0,0,0-.368.9H-19.4V7.417a1.156,1.156,0,0,0-.279-.8A1,1,0,0,0-20.442,6.333Zm5.092-1.144v6.128a2.079,2.079,0,0,1-.51,1.5,1.939,1.939,0,0,1-1.472.534,3.156,3.156,0,0,1-.768-.091v-1.23a2.914,2.914,0,0,0,.489.048q.7,0,.7-.747V5.188Zm-1.681-1.5A.764.764,0,0,1-16.8,3.11a.878.878,0,0,1,.636-.226.878.878,0,0,1,.636.226.764.764,0,0,1,.234.575.762.762,0,0,1-.239.58.882.882,0,0,1-.631.226.882.882,0,0,1-.631-.226A.762.762,0,0,1-17.032,3.685Zm5.57,7.423a2.853,2.853,0,0,1-2.081-.784,2.787,2.787,0,0,1-.8-2.089v-.15a3.511,3.511,0,0,1,.338-1.566,2.483,2.483,0,0,1,.959-1.063,2.691,2.691,0,0,1,1.415-.373,2.412,2.412,0,0,1,1.877.752,3.056,3.056,0,0,1,.685,2.132V8.6h-3.7a1.442,1.442,0,0,0,.454.913,1.372,1.372,0,0,0,.959.344,1.675,1.675,0,0,0,1.4-.65l.763.854a2.33,2.33,0,0,1-.945.771A3.1,3.1,0,0,1-11.462,11.107Zm-.177-4.775a.97.97,0,0,0-.749.313,1.62,1.62,0,0,0-.368.9H-10.6V7.417a1.156,1.156,0,0,0-.279-.8A1,1,0,0,0-11.639,6.333ZM-.22,8.148A3.485,3.485,0,0,1-.83,10.3a1.955,1.955,0,0,1-1.646.808A1.811,1.811,0,0,1-3.9,10.5v2.739H-5.452V5.188h1.439l.054.569a1.824,1.824,0,0,1,1.472-.677,1.968,1.968,0,0,1,1.67.795,3.58,3.58,0,0,1,.6,2.191ZM-1.772,8.03A2.3,2.3,0,0,0-2.06,6.774.935.935,0,0,0-2.9,6.333a1.016,1.016,0,0,0-1,.56V9.279a1.033,1.033,0,0,0,1.015.576Q-1.772,9.856-1.772,8.03ZM4.007,6.644A4.217,4.217,0,0,0,3.448,6.6a1.137,1.137,0,0,0-1.155.6V11H.741V5.188H2.208l.043.693a1.438,1.438,0,0,1,1.294-.8,1.626,1.626,0,0,1,.483.07Zm.312,1.4A3.447,3.447,0,0,1,4.651,6.5,2.438,2.438,0,0,1,5.61,5.452a2.8,2.8,0,0,1,1.453-.371,2.646,2.646,0,0,1,1.92.72,2.889,2.889,0,0,1,.83,1.955l.011.4A3.038,3.038,0,0,1,9.077,10.3a2.6,2.6,0,0,1-2,.808A2.608,2.608,0,0,1,5.068,10.3,3.091,3.091,0,0,1,4.318,8.11Zm1.552.11a2.172,2.172,0,0,0,.312,1.267,1.028,1.028,0,0,0,.892.438,1.03,1.03,0,0,0,.881-.433,2.377,2.377,0,0,0,.317-1.385,2.151,2.151,0,0,0-.317-1.259,1.03,1.03,0,0,0-.892-.446,1.013,1.013,0,0,0-.881.444A2.417,2.417,0,0,0,5.871,8.151Zm10.141,0A3.485,3.485,0,0,1,15.4,10.3a1.955,1.955,0,0,1-1.646.808,1.811,1.811,0,0,1-1.423-.612v2.739H10.78V5.188h1.439l.054.569a1.824,1.824,0,0,1,1.472-.677,1.968,1.968,0,0,1,1.67.795,3.58,3.58,0,0,1,.6,2.191ZM14.459,8.03a2.3,2.3,0,0,0-.287-1.255.935.935,0,0,0-.835-.442,1.016,1.016,0,0,0-1,.56V9.279a1.033,1.033,0,0,0,1.015.576Q14.459,9.856,14.459,8.03Zm5.994,2.38a1.947,1.947,0,0,1-1.59.7,1.836,1.836,0,0,1-1.426-.537A2.293,2.293,0,0,1,16.935,9V5.188h1.552V8.947q0,.909.827.909A1.121,1.121,0,0,0,20.4,9.307V5.188h1.558V11H20.5ZM24.766,11H23.208V2.75h1.558Zm4.426-1.606a.5.5,0,0,0-.282-.448A3.2,3.2,0,0,0,28,8.653q-2.073-.435-2.073-1.762A1.6,1.6,0,0,1,26.573,5.6a2.589,2.589,0,0,1,1.678-.518,2.787,2.787,0,0,1,1.77.521,1.642,1.642,0,0,1,.663,1.354H29.133a.751.751,0,0,0-.215-.551.909.909,0,0,0-.671-.218.929.929,0,0,0-.607.177.56.56,0,0,0-.215.451.478.478,0,0,0,.244.416,2.514,2.514,0,0,0,.824.274,6.734,6.734,0,0,1,.978.26A1.606,1.606,0,0,1,30.7,9.33a1.516,1.516,0,0,1-.682,1.286,2.943,2.943,0,0,1-1.762.491,3.073,3.073,0,0,1-1.3-.26,2.176,2.176,0,0,1-.889-.714,1.66,1.66,0,0,1-.322-.98h1.472a.81.81,0,0,0,.306.634,1.214,1.214,0,0,0,.763.22,1.124,1.124,0,0,0,.674-.169A.526.526,0,0,0,29.192,9.394Zm2.267-1.354A3.447,3.447,0,0,1,31.792,6.5a2.438,2.438,0,0,1,.959-1.047A2.8,2.8,0,0,1,34.2,5.081a2.646,2.646,0,0,1,1.92.72,2.889,2.889,0,0,1,.83,1.955l.011.4a3.038,3.038,0,0,1-.747,2.146,2.894,2.894,0,0,1-4.01,0,3.091,3.091,0,0,1-.749-2.191Zm1.552.11a2.172,2.172,0,0,0,.312,1.267,1.119,1.119,0,0,0,1.772.005,2.377,2.377,0,0,0,.317-1.385,2.151,2.151,0,0,0-.317-1.259,1.03,1.03,0,0,0-.892-.446,1.013,1.013,0,0,0-.881.444A2.417,2.417,0,0,0,33.011,8.151Zm8.175-1.507a4.217,4.217,0,0,0-.559-.043,1.137,1.137,0,0,0-1.155.6V11H37.92V5.188h1.466l.043.693a1.438,1.438,0,0,1,1.294-.8,1.626,1.626,0,0,1,.483.07Z" transform="translate(362.051 1955)" fill="#12263f"/>
      <path id="Trazado_901059" data-name="Trazado 901059" d="M-4375.557-9763.113l-39.478,74.468,91.7-126.945" transform="translate(4797.933 11621.659)" fill="none" stroke="#2d3bf3" stroke-width="2"/>
      <line id="Línea_242" data-name="Línea 242" x2="90.112" y2="47.77" transform="translate(410.62 1718.226)" fill="none" stroke="#2d3bf3" stroke-width="2"/>
      <line id="Línea_243" data-name="Línea 243" y1="27.142" x2="77.084" transform="translate(531.131 1684.57)" fill="none" stroke="#2d3bf3" stroke-width="2"/>
      <line id="Línea_244" data-name="Línea 244" y1="10.857" x2="66.227" transform="translate(525.703 1650.914)" fill="none" stroke="#2d3bf3" stroke-width="2"/>
      <line id="Línea_245" data-name="Línea 245" x2="45.599" transform="translate(660.328 1811.595)" fill="none" stroke="#2d3bf3" stroke-width="2"/>
      <line id="Línea_246" data-name="Línea 246" y1="23" transform="translate(670.051 1711)" fill="none" stroke="#2d3bf3" stroke-width="2"/>
    </g>
  </g>
</svg>
