<svg xmlns="http://www.w3.org/2000/svg" xmlns:xlink="http://www.w3.org/1999/xlink" width="100.209" height="100.209" viewBox="0 0 100.209 100.209">
  <defs>
    <filter id="Trazado_874925" x="0" y="0" width="100.209" height="100.209" filterUnits="userSpaceOnUse">
      <feOffset dy="3" input="SourceAlpha"/>
      <feGaussianBlur stdDeviation="3" result="blur"/>
      <feFlood flood-opacity="0.161"/>
      <feComposite operator="in" in2="blur"/>
      <feComposite in="SourceGraphic"/>
    </filter>
  </defs>
  <g id="Grupo_1110388" data-name="Grupo 1110388" transform="translate(-921.051 -990)">
    <g transform="matrix(1, 0, 0, 1, 921.05, 990)" filter="url(#Trazado_874925)">
      <g id="Trazado_874925-2" data-name="Trazado 874925" transform="translate(9 6)" fill="#efd42f">
        <path d="M 41.10445785522461 80.70938110351562 C 35.75723266601562 80.70938110351562 30.57073974609375 79.66245269775391 25.6890811920166 77.59768676757812 C 20.97318649291992 75.60303497314453 16.73756408691406 72.74720001220703 13.09988117218018 69.10951232910156 C 9.462186813354492 65.47181701660156 6.606351852416992 61.23620986938477 4.611693382263184 56.52031326293945 C 2.546928405761719 51.63864517211914 1.499999046325684 46.4521598815918 1.499999046325684 41.10492706298828 C 1.499999046325684 35.75723266601562 2.546928405761719 30.57073783874512 4.611693382263184 25.68907928466797 C 6.606351852416992 20.97318458557129 9.462186813354492 16.7375602722168 13.09988117218018 13.09987831115723 C 16.73756408691406 9.462184906005859 20.97318649291992 6.606349468231201 25.6890811920166 4.611690521240234 C 30.57073974609375 2.546925783157349 35.75723266601562 1.499996423721313 41.10445785522461 1.499996423721313 C 46.45169448852539 1.499996423721313 51.63817596435547 2.546925783157349 56.51984786987305 4.611690521240234 C 61.23574066162109 6.606349468231201 65.47135162353516 9.462184906005859 69.10904693603516 13.09987831115723 C 72.74672698974609 16.7375602722168 75.60256195068359 20.97318458557129 77.59722137451172 25.68907928466797 C 79.6619873046875 30.57073783874512 80.70891571044922 35.75723266601562 80.70891571044922 41.10445404052734 C 80.70891571044922 46.4521598815918 79.6619873046875 51.63864517211914 77.59722137451172 56.52031326293945 C 75.60256195068359 61.23620986938477 72.74672698974609 65.47181701660156 69.10904693603516 69.10951232910156 C 65.47135162353516 72.74720001220703 61.23574066162109 75.60303497314453 56.51984786987305 77.59768676757812 C 51.63817596435547 79.66245269775391 46.45169448852539 80.70938110351562 41.10445785522461 80.70938110351562 Z" stroke="none"/>
        <path d="M 41.10445785522461 3 C 35.95907211303711 3 30.96917724609375 4.007049560546875 26.27340316772461 5.993194580078125 C 21.73631286621094 7.912239074707031 17.66094970703125 10.66011810302734 14.16053771972656 14.16053009033203 C 10.66012573242188 17.66095733642578 7.9122314453125 21.73630523681641 5.993202209472656 26.27341079711914 C 4.007057189941406 30.96918487548828 3.000007629394531 35.95906448364258 3.000007629394531 41.10493087768555 C 3.000007629394531 46.25031661987305 4.007057189941406 51.24021148681641 5.993202209472656 55.93598175048828 C 7.9122314453125 60.47307586669922 10.66012573242188 64.54843902587891 14.16053771972656 68.04885101318359 C 17.66094970703125 71.54926300048828 21.73631286621094 74.29715728759766 26.27340316772461 76.2161865234375 C 30.96917724609375 78.20233154296875 35.95907211303711 79.20938110351562 41.10445785522461 79.20938110351562 C 46.24984359741211 79.20938110351562 51.23973846435547 78.20233154296875 55.93550872802734 76.2161865234375 C 60.47260284423828 74.29715728759766 64.54796600341797 71.54926300048828 68.04837799072266 68.04885101318359 C 71.54878997802734 64.54843902587891 74.29668426513672 60.47307586669922 76.21571350097656 55.93598175048828 C 78.20185852050781 51.24021148681641 79.20890808105469 46.25031661987305 79.20890808105469 41.10446548461914 C 79.20890808105469 35.95906448364258 78.20185852050781 30.96918487548828 76.21571350097656 26.27341079711914 C 74.29668426513672 21.73630523681641 71.54878997802734 17.66095733642578 68.04837799072266 14.16053009033203 C 64.54796600341797 10.66011810302734 60.47260284423828 7.912239074707031 55.93550872802734 5.993194580078125 C 51.23973846435547 4.007049560546875 46.24984359741211 3 41.10445785522461 3 M 41.10445785522461 0 C 63.80583190917969 0 82.20890808105469 18.40309143066406 82.20890808105469 41.10446548461914 L 82.20890808105469 41.10493087768555 C 82.20890808105469 63.80630493164062 63.80583190917969 82.20938110351562 41.10445785522461 82.20938110351562 C 18.40308380126953 82.20938110351562 7.62939453125e-06 63.80630493164062 7.62939453125e-06 41.10493087768555 L 7.62939453125e-06 41.10446548461914 C 7.62939453125e-06 18.40309143066406 18.40308380126953 0 41.10445785522461 0 Z" stroke="none" fill="#fff"/>
      </g>
    </g>
    <g id="Grupo_1110387" data-name="Grupo 1110387" transform="translate(940.051 1006)">
      <g id="Grupo_1110385" data-name="Grupo 1110385" transform="translate(0.902 0.902)">
        <circle id="Elipse_11623" data-name="Elipse 11623" cx="29.889" cy="29.889" r="29.889" fill="#454f58"/>
        <circle id="Elipse_11624" data-name="Elipse 11624" cx="21.07" cy="21.07" r="21.07" transform="translate(8.819 8.819)" fill="#dfdfdd"/>
        <path id="Trazado_900361" data-name="Trazado 900361" d="M282.894,129.534l-3.5,3.5a1.987,1.987,0,0,1-3.393-1.4v-4.948A15.656,15.656,0,0,1,282.894,129.534Z" transform="translate(-243.707 -112.344)" fill="#a9abac"/>
        <path id="Trazado_900362" data-name="Trazado 900362" d="M185.594,126.679v4.948a1.987,1.987,0,0,1-3.393,1.4l-3.5-3.5A15.656,15.656,0,0,1,185.594,126.679Z" transform="translate(-158.11 -112.344)" fill="#a9abac"/>
        <path id="Trazado_900363" data-name="Trazado 900363" d="M131.63,185.591h-4.948a15.655,15.655,0,0,1,2.855-6.892l3.5,3.5A1.987,1.987,0,0,1,131.63,185.591Z" transform="translate(-112.347 -158.108)" fill="#a9abac"/>
        <path id="Trazado_900364" data-name="Trazado 900364" d="M133.035,279.392l-3.5,3.5A15.645,15.645,0,0,1,126.682,276h4.948A1.987,1.987,0,0,1,133.035,279.392Z" transform="translate(-112.347 -243.705)" fill="#a9abac"/>
        <path id="Trazado_900365" data-name="Trazado 900365" d="M185.594,329.616v4.948a15.656,15.656,0,0,1-6.892-2.855l3.5-3.5A1.987,1.987,0,0,1,185.594,329.616Z" transform="translate(-158.11 -289.121)" fill="#a9abac"/>
        <path id="Trazado_900366" data-name="Trazado 900366" d="M282.894,331.709A15.655,15.655,0,0,1,276,334.564v-4.948a1.987,1.987,0,0,1,3.393-1.4Z" transform="translate(-243.707 -289.121)" fill="#a9abac"/>
        <path id="Trazado_900367" data-name="Trazado 900367" d="M334.567,276a15.655,15.655,0,0,1-2.855,6.892l-3.5-3.5a1.987,1.987,0,0,1,1.4-3.393Z" transform="translate(-289.124 -243.705)" fill="#a9abac"/>
        <path id="Trazado_900368" data-name="Trazado 900368" d="M334.567,185.591h-4.948a1.987,1.987,0,0,1-1.4-3.393l3.5-3.5A15.655,15.655,0,0,1,334.567,185.591Z" transform="translate(-289.124 -158.108)" fill="#a9abac"/>
        <circle id="Elipse_11625" data-name="Elipse 11625" cx="3.5" cy="3.5" r="3.5" transform="translate(26.098 26.68)" fill="#a9abac"/>
      </g>
      <g id="Grupo_1110386" data-name="Grupo 1110386">
        <path id="Trazado_900369" data-name="Trazado 900369" d="M52.564,9.018A30.792,30.792,0,0,0,12.26,6.2a.9.9,0,1,0,1.087,1.44A28.987,28.987,0,0,1,59.778,30.791a28.987,28.987,0,0,1-49.484,20.5A28.961,28.961,0,0,1,10.678,9.92a.9.9,0,1,0-1.252-1.3,30.79,30.79,0,1,0,43.138.4Z"/>
        <path id="Trazado_900370" data-name="Trazado 900370" d="M111.063,109.3a.9.9,0,0,0,1.269-.129,21.976,21.976,0,1,0-2.566,2.658.9.9,0,1,0-1.189-1.357,20.165,20.165,0,1,1,2.357-2.441A.9.9,0,0,0,111.063,109.3Z" transform="translate(-64.506 -64.507)"/>
        <path id="Trazado_900371" data-name="Trazado 900371" d="M223.89,219.5a4.39,4.39,0,1,0,4.39,4.39A4.4,4.4,0,0,0,223.89,219.5Zm0,6.976a2.586,2.586,0,1,1,2.586-2.586A2.589,2.589,0,0,1,223.89,226.476Z" transform="translate(-193.099 -193.099)"/>
        <path id="Trazado_900372" data-name="Trazado 900372" d="M150.938,134.3a16.639,16.639,0,1,0-14.1,16.446A16.817,16.817,0,0,0,150.938,134.3Zm-4.075-7.887a14.858,14.858,0,0,1,1.9,4.58h-3.857a1.093,1.093,0,0,1-.767-1.853Zm-9.257-6.575a14.858,14.858,0,0,1,4.58,1.9l-2.727,2.726a1.092,1.092,0,0,1-1.853-.767Zm-6.615,0v3.857a1.1,1.1,0,0,1-1.853.767l-2.727-2.726A14.857,14.857,0,0,1,130.991,119.837Zm-9.257,6.575,2.726,2.727a1.092,1.092,0,0,1-.767,1.853h-3.857A14.858,14.858,0,0,1,121.734,126.412Zm0,15.774a14.846,14.846,0,0,1-1.9-4.579h3.857a1.093,1.093,0,0,1,.767,1.853Zm9.257,6.576a14.861,14.861,0,0,1-4.58-1.9l2.727-2.726a1.092,1.092,0,0,1,1.853.767v3.857Zm6.615,0v-3.857a1.094,1.094,0,0,1,1.853-.767l2.727,2.726A14.86,14.86,0,0,1,137.607,148.762Zm9.257-6.575-2.726-2.727a1.093,1.093,0,0,1,.767-1.853h3.857A14.861,14.861,0,0,1,146.864,142.187Zm2.26-7.381q-.017.5-.067,1h-4.151a2.913,2.913,0,0,0-2.043,4.933l2.935,2.936a14.759,14.759,0,0,1-1.839,1.889l-.287.237-2.935-2.934a2.912,2.912,0,0,0-4.933,2.043v4.151c-.3.03-.6.053-.9.065q-.606.024-1.212,0c-.3-.012-.6-.035-.9-.065v-4.151a2.919,2.919,0,0,0-4.933-2.043l-2.936,2.935c-.079.065-1.012-.9-1.12-1.009a14.884,14.884,0,0,1-1.006-1.118l2.935-2.935a2.912,2.912,0,0,0-2.043-4.933h-4.151a14.54,14.54,0,0,1,0-3.007h4.151a2.911,2.911,0,0,0,2.043-4.933l-2.935-2.936a14.917,14.917,0,0,1,2.126-2.126l2.935,2.934a2.912,2.912,0,0,0,4.933-2.043v-4.151a13.6,13.6,0,0,1,3.007,0v4.151a2.92,2.92,0,0,0,4.933,2.043l2.936-2.935a14.923,14.923,0,0,1,2.126,2.126l-2.935,2.935A2.913,2.913,0,0,0,144.9,132.8h4.151c.012.115.024.229.033.345A14.83,14.83,0,0,1,149.124,134.806Z" transform="translate(-103.508 -103.509)"/>
        <circle id="Elipse_11626" data-name="Elipse 11626" cx="1.143" cy="1.143" r="1.143" transform="translate(29.648 22.913)"/>
        <circle id="Elipse_11627" data-name="Elipse 11627" cx="1.143" cy="1.143" r="1.143" transform="translate(36.384 29.648)"/>
        <circle id="Elipse_11628" data-name="Elipse 11628" cx="1.143" cy="1.143" r="1.143" transform="translate(29.648 36.384)"/>
        <circle id="Elipse_11629" data-name="Elipse 11629" cx="1.143" cy="1.143" r="1.143" transform="translate(22.913 29.648)"/>
      </g>
    </g>
  </g>
</svg>
