<svg xmlns="http://www.w3.org/2000/svg" xmlns:xlink="http://www.w3.org/1999/xlink" width="102.031" height="102.032" viewBox="0 0 102.031 102.032">
  <defs>
    <filter id="Trazado_874925" x="0" y="0" width="102.031" height="102.032" filterUnits="userSpaceOnUse">
      <feOffset dy="3" input="SourceAlpha"/>
      <feGaussianBlur stdDeviation="3" result="blur"/>
      <feFlood flood-opacity="0.161"/>
      <feComposite operator="in" in2="blur"/>
      <feComposite in="SourceGraphic"/>
    </filter>
  </defs>
  <g id="Grupo_1110296" data-name="Grupo 1110296" transform="translate(9 6)">
    <g transform="matrix(1, 0, 0, 1, -9, -6)" filter="url(#Trazado_874925)">
      <g id="Trazado_874925-2" data-name="Trazado 874925" transform="translate(9 6)" fill="#f3d913">
        <path d="M 42.01539611816406 82.53173828125 C 36.54519653320312 82.53173828125 31.23941993713379 81.46073150634766 26.24544334411621 79.34844207763672 C 21.42109107971191 77.30789184570312 17.08805465698242 74.38636016845703 13.36670207977295 70.66500091552734 C 9.645360946655273 66.94361877441406 6.723843097686768 62.61056137084961 4.68330192565918 57.78617477416992 C 2.571031332015991 52.79216384887695 1.500019669532776 47.48635101318359 1.500019669532776 42.01611709594727 C 1.500019669532776 36.5453987121582 2.571031332015991 31.23957443237305 4.68330192565918 26.24557495117188 C 6.723843097686768 21.42117500305176 9.645360946655273 17.08811569213867 13.36670207977295 13.3667516708374 C 17.08805465698242 9.64537525177002 21.42109107971191 6.723845481872559 26.24544334411621 4.683304309844971 C 31.23941993713379 2.57101035118103 36.54519653320312 1.499998569488525 42.01539611816406 1.499998569488525 C 47.485595703125 1.499998569488525 52.79137420654297 2.57101035118103 57.78535079956055 4.683304309844971 C 62.60971450805664 6.723845481872559 66.9427490234375 9.64537525177002 70.66409301757812 13.3667516708374 C 74.38544464111328 17.08811569213867 77.30696105957031 21.42117500305176 79.34748840332031 26.24557495117188 C 81.45976257324219 31.23957443237305 82.53076934814453 36.5453987121582 82.53076934814453 42.01563262939453 C 82.53076934814453 47.48635101318359 81.45976257324219 52.79217529296875 79.34748840332031 57.78617477416992 C 77.30696105957031 62.61056137084961 74.38544464111328 66.94363403320312 70.66409301757812 70.66500091552734 C 66.9427490234375 74.38636016845703 62.60971450805664 77.30789184570312 57.78535079956055 79.34844207763672 C 52.79137420654297 81.46073150634766 47.485595703125 82.53173828125 42.01539611816406 82.53173828125 Z" stroke="none"/>
        <path d="M 42.01539611816406 3 C 36.74703598022461 3 31.63784790039062 4.031150817871094 26.82976913452148 6.064804077148438 C 22.18420791625977 8.02972412109375 18.01143646240234 10.84330749511719 14.42735290527344 14.42739868164062 C 10.84329223632812 18.01149749755859 8.029716491699219 22.18429565429688 6.064811706542969 26.82989501953125 C 4.031158447265625 31.63800430297852 3.000007629394531 36.74723052978516 3.000007629394531 42.01610946655273 C 3.000007629394531 47.28450775146484 4.031158447265625 52.39373779296875 6.064811706542969 57.20184326171875 C 8.029716491699219 61.84744262695312 10.84329223632812 66.02024078369141 14.42735290527344 69.60433959960938 C 18.01143646240234 73.18843078613281 22.18420791625977 76.00201416015625 26.82976913452148 77.96693420410156 C 31.63784790039062 80.00058746337891 36.74703598022461 81.03173828125 42.01539611816406 81.03173828125 C 47.28375625610352 81.03173828125 52.3929443359375 80.00058746337891 57.20101165771484 77.96693420410156 C 61.84658050537109 76.00201416015625 66.01935577392578 73.18843078613281 69.60342407226562 69.60433959960938 C 73.1875 66.02024078369141 76.00106048583984 61.84744262695312 77.96598052978516 57.20184326171875 C 79.99962615966797 52.39373779296875 81.03076934814453 47.28450775146484 81.03076934814453 42.01562881469727 C 81.03076934814453 36.74723052978516 79.99962615966797 31.63800430297852 77.96598052978516 26.82989501953125 C 76.00106048583984 22.18429565429688 73.1875 18.01149749755859 69.60342407226562 14.42739868164062 C 66.01935577392578 10.84330749511719 61.84658050537109 8.02972412109375 57.20101165771484 6.064804077148438 C 52.3929443359375 4.031150817871094 47.28375625610352 3 42.01539611816406 3 M 42.01539611816406 0 C 65.2198486328125 0 84.03076934814453 18.81102752685547 84.03076934814453 42.01562881469727 L 84.03076934814453 42.01610946655273 C 84.03076934814453 65.22071075439453 65.2198486328125 84.03173828125 42.01539611816406 84.03173828125 C 18.81094360351562 84.03173828125 7.62939453125e-06 65.22071075439453 7.62939453125e-06 42.01610946655273 L 7.62939453125e-06 42.01562881469727 C 7.62939453125e-06 18.81102752685547 18.81094360351562 0 42.01539611816406 0 Z" stroke="none" fill="#fff"/>
      </g>
    </g>
    <g id="Layer_2" data-name="Layer 2" transform="translate(12.836 12.836)">
      <path id="Trazado_897972" data-name="Trazado 897972" d="M56.238,25.554l-2.418-.3a24.631,24.631,0,0,0-1.177-4.421l1.936-1.467a1.834,1.834,0,0,0,.481-2.384l-2.048-3.548a1.834,1.834,0,0,0-2.3-.773l-2.244.947a24.847,24.847,0,0,0-3.235-3.235l.947-2.238a1.834,1.834,0,0,0-.773-2.3L41.859,3.784a1.834,1.834,0,0,0-2.379.481L38.013,6.2a24.63,24.63,0,0,0-4.421-1.177l-.3-2.418A1.834,1.834,0,0,0,31.47,1h-4.1a1.834,1.834,0,0,0-1.82,1.607l-.3,2.417A24.63,24.63,0,0,0,20.83,6.2L19.363,4.265a1.834,1.834,0,0,0-2.384-.481L13.437,5.832a1.834,1.834,0,0,0-.773,2.3l.947,2.244a24.847,24.847,0,0,0-3.235,3.235l-2.244-.947a1.834,1.834,0,0,0-2.3.773L3.784,16.985a1.834,1.834,0,0,0,.481,2.384L6.2,20.836a24.631,24.631,0,0,0-1.177,4.421l-2.418.3A1.834,1.834,0,0,0,1,27.374v4.1a1.834,1.834,0,0,0,1.607,1.82l2.417.3A24.63,24.63,0,0,0,6.2,38.014L4.265,39.481a1.834,1.834,0,0,0-.481,2.379l2.048,3.548a1.834,1.834,0,0,0,2.3.773l2.244-.947a24.847,24.847,0,0,0,3.235,3.235l-.947,2.243a1.834,1.834,0,0,0,.773,2.3l3.548,2.048a1.834,1.834,0,0,0,2.384-.481l1.467-1.936a24.63,24.63,0,0,0,4.421,1.177l.3,2.418a1.834,1.834,0,0,0,1.814,1.606h4.1a1.834,1.834,0,0,0,1.82-1.607l.3-2.417a24.63,24.63,0,0,0,4.421-1.177l1.467,1.936a1.834,1.834,0,0,0,2.379.481l3.548-2.048a1.834,1.834,0,0,0,.773-2.3l-.947-2.244a24.846,24.846,0,0,0,3.235-3.235l2.244.947a1.834,1.834,0,0,0,2.3-.773l2.048-3.548a1.834,1.834,0,0,0-.481-2.379l-1.936-1.467a24.63,24.63,0,0,0,1.177-4.421l2.418-.3a1.834,1.834,0,0,0,1.605-1.819v-4.1a1.834,1.834,0,0,0-1.607-1.82ZM29.5,48.755A19.293,19.293,0,1,1,48.792,29.462,19.293,19.293,0,0,1,29.5,48.755Z" transform="translate(-0.083 -0.083)" fill="#f8c460"/>
      <path id="Trazado_897973" data-name="Trazado 897973" d="M24.926,18.452l-.647-.648a2.751,2.751,0,0,0-3.885,0l1.295,1.3A1.831,1.831,0,1,1,19.1,21.689l-1.3-1.3a2.751,2.751,0,0,0,0,3.885l.648.647a2.751,2.751,0,0,0,3.884,0L36.579,39.169a2.751,2.751,0,0,0,0,3.884l.647.648a2.751,2.751,0,0,0,3.885,0l-1.295-1.3a1.831,1.831,0,1,1,2.589-2.589l1.3,1.3a2.751,2.751,0,0,0,0-3.885l-.648-.647a2.751,2.751,0,0,0-3.884,0L24.926,22.336a2.751,2.751,0,0,0,0-3.884Z" transform="translate(-1.414 -1.414)" fill="#d6e4e8"/>
      <path id="Trazado_897974" data-name="Trazado 897974" d="M38.6,42.633l-.647-.647a2.751,2.751,0,0,1,0-3.884L23.711,23.859a2.751,2.751,0,0,1-3.884,0l-.647-.647a2.742,2.742,0,0,1-.8-1.938l-.57-.571a2.751,2.751,0,0,0,0,3.885l.647.647a2.751,2.751,0,0,0,3.884,0L36.579,39.477a2.751,2.751,0,0,0,0,3.884l.647.647a2.751,2.751,0,0,0,3.885,0l-.571-.57A2.742,2.742,0,0,1,38.6,42.633Z" transform="translate(-1.414 -1.721)" fill="#baced3"/>
      <path id="Trazado_897975" data-name="Trazado 897975" d="M25.782,33.368l3.841,3.841L23.136,43.7a2.715,2.715,0,1,1-3.84-3.84Z" transform="translate(-1.538 -2.775)" fill="#7a838b"/>
      <path id="Trazado_897976" data-name="Trazado 897976" d="M27.8,35.557l-6.488,6.487a2.7,2.7,0,0,1-2.681.675,2.677,2.677,0,0,0,.675,1.159,2.714,2.714,0,0,0,3.84,0l6.488-6.487Z" transform="translate(-1.549 -2.957)" fill="#5d6972"/>
      <path id="Trazado_897977" data-name="Trazado 897977" d="M39.856,20.14l3.2-.64-.64,3.2L29.7,35.416l-2.561-2.561Z" transform="translate(-2.257 -1.621)" fill="#d6e4e8"/>
      <path id="Trazado_897978" data-name="Trazado 897978" d="M42.06,19.729a6.912,6.912,0,0,1-1.892,3.535L28.934,34.5l.917.917L42.564,22.7l.642-3.2Z" transform="translate(-2.406 -1.621)" fill="#baced3"/>
      <path id="Trazado_897979" data-name="Trazado 897979" d="M45.934,51.175A28.435,28.435,0,0,1,8.711,13.951L8.129,13.7a1.834,1.834,0,0,0-2.3.773L3.78,18.026a1.834,1.834,0,0,0,.481,2.384L6.2,21.877A24.63,24.63,0,0,0,5.02,26.3L2.6,26.6A1.834,1.834,0,0,0,1,28.418v4.1a1.834,1.834,0,0,0,1.607,1.82l2.417.3A24.63,24.63,0,0,0,6.2,39.058L4.265,40.525A1.834,1.834,0,0,0,3.784,42.9l2.048,3.548a1.834,1.834,0,0,0,2.3.773l2.244-.947a24.847,24.847,0,0,0,3.235,3.235l-.947,2.243a1.834,1.834,0,0,0,.773,2.3l3.548,2.048a1.834,1.834,0,0,0,2.384-.481l1.467-1.936a24.63,24.63,0,0,0,4.421,1.177l.3,2.418a1.834,1.834,0,0,0,1.814,1.606h4.1a1.834,1.834,0,0,0,1.82-1.607l.3-2.417a24.63,24.63,0,0,0,4.421-1.177l1.467,1.936a1.834,1.834,0,0,0,2.379.481l3.548-2.048a1.834,1.834,0,0,0,.773-2.3Z" transform="translate(-0.083 -1.128)" fill="#faaf42"/>
      <path id="Trazado_897980" data-name="Trazado 897980" d="M30.25,10A20.211,20.211,0,1,0,50.461,30.211,20.211,20.211,0,0,0,30.25,10Zm0,38.587A18.377,18.377,0,1,1,48.627,30.21,18.377,18.377,0,0,1,30.25,48.587Z" transform="translate(-0.835 -0.832)"/>
      <path id="Trazado_897981" data-name="Trazado 897981" d="M56.268,24.561l-1.751-.219a25.663,25.663,0,0,0-.869-3.269l1.4-1.061a2.751,2.751,0,0,0,.722-3.567l-2.045-3.55a2.751,2.751,0,0,0-3.455-1.159l-1.626.686a25.928,25.928,0,0,0-2.391-2.391l.687-1.624a2.751,2.751,0,0,0-1.16-3.456L42.234,2.906a2.756,2.756,0,0,0-3.568.722l-1.061,1.4a25.727,25.727,0,0,0-3.269-.87l-.219-1.75A2.751,2.751,0,0,0,31.387,0h-4.1a2.751,2.751,0,0,0-2.729,2.41l-.219,1.75a25.726,25.726,0,0,0-3.269.87l-1.061-1.4a2.756,2.756,0,0,0-3.568-.722L12.9,4.951a2.751,2.751,0,0,0-1.16,3.456l.686,1.625a25.929,25.929,0,0,0-2.391,2.391l-1.624-.687a2.751,2.751,0,0,0-3.456,1.159l-2.045,3.55a2.751,2.751,0,0,0,.722,3.567l1.4,1.062a25.663,25.663,0,0,0-.869,3.269l-1.751.219A2.751,2.751,0,0,0,0,27.291v4.1a2.751,2.751,0,0,0,2.41,2.729l1.751.219a25.664,25.664,0,0,0,.869,3.269l-1.4,1.061a2.751,2.751,0,0,0-.722,3.567l2.049,3.55a2.756,2.756,0,0,0,3.45,1.159l1.626-.686a25.928,25.928,0,0,0,2.391,2.391l-.687,1.624a2.751,2.751,0,0,0,1.16,3.456l3.548,2.048a2.755,2.755,0,0,0,3.568-.722l1.061-1.4a25.726,25.726,0,0,0,3.269.87l.219,1.75a2.751,2.751,0,0,0,2.729,2.406h4.1a2.751,2.751,0,0,0,2.729-2.41l.219-1.75a25.727,25.727,0,0,0,3.269-.87l1.061,1.4a2.756,2.756,0,0,0,3.568.722l3.548-2.048a2.751,2.751,0,0,0,1.16-3.452l-.686-1.625a25.927,25.927,0,0,0,2.391-2.391l1.625.685a2.751,2.751,0,0,0,3.455-1.157l2.048-3.55a2.751,2.751,0,0,0-.722-3.567l-1.4-1.062a25.665,25.665,0,0,0,.869-3.269l1.751-.219a2.751,2.751,0,0,0,2.406-2.729v-4.1a2.751,2.751,0,0,0-2.41-2.729Zm.576,6.826a.917.917,0,0,1-.8.91l-2.418.3a.917.917,0,0,0-.79.756A23.718,23.718,0,0,1,51.7,37.613a.917.917,0,0,0,.306,1.049l1.936,1.467a.917.917,0,0,1,.241,1.192l-2.048,3.55a.917.917,0,0,1-1.151.384l-2.244-.946a.917.917,0,0,0-1.065.256,24.107,24.107,0,0,1-3.117,3.117.917.917,0,0,0-.259,1.061l.946,2.243a.917.917,0,0,1-.386,1.151l-3.544,2.05a.917.917,0,0,1-1.192-.24l-1.467-1.936a.917.917,0,0,0-1.05-.306,23.81,23.81,0,0,1-4.257,1.133.917.917,0,0,0-.755.789l-.3,2.418a.917.917,0,0,1-.91.8H27.291a.917.917,0,0,1-.91-.8l-.3-2.418a.917.917,0,0,0-.755-.789A23.81,23.81,0,0,1,21.065,51.7a.917.917,0,0,0-1.05.306l-1.467,1.936a.917.917,0,0,1-1.192.24l-3.549-2.049a.917.917,0,0,1-.385-1.151l.946-2.243a.917.917,0,0,0-.259-1.061,24.108,24.108,0,0,1-3.117-3.117.917.917,0,0,0-1.062-.259l-2.238.946a.917.917,0,0,1-1.15-.385l-2.051-3.55a.917.917,0,0,1,.241-1.192L6.67,38.658a.917.917,0,0,0,.306-1.049,23.718,23.718,0,0,1-1.133-4.256.917.917,0,0,0-.79-.756l-2.418-.3a.917.917,0,0,1-.8-.907v-4.1a.917.917,0,0,1,.8-.91l2.418-.3a.917.917,0,0,0,.79-.756,23.718,23.718,0,0,1,1.133-4.256.917.917,0,0,0-.306-1.049L4.735,18.55a.917.917,0,0,1-.241-1.192l2.048-3.55a.917.917,0,0,1,1.151-.384l2.244.946A.917.917,0,0,0,11,14.114,24.107,24.107,0,0,1,14.119,11a.917.917,0,0,0,.259-1.061l-.952-2.242a.917.917,0,0,1,.386-1.151l3.549-2.051a.917.917,0,0,1,1.192.24L20.02,6.669a.917.917,0,0,0,1.05.306,23.81,23.81,0,0,1,4.257-1.133.917.917,0,0,0,.755-.789l.3-2.418a.917.917,0,0,1,.906-.8h4.1a.917.917,0,0,1,.91.8l.3,2.418a.917.917,0,0,0,.755.789,23.81,23.81,0,0,1,4.257,1.133.917.917,0,0,0,1.05-.306l1.467-1.936a.917.917,0,0,1,1.192-.24L44.87,6.544a.917.917,0,0,1,.385,1.151l-.946,2.243A.917.917,0,0,0,44.564,11a24.108,24.108,0,0,1,3.117,3.117.917.917,0,0,0,1.062.259l2.244-.947a.917.917,0,0,1,1.15.385l2.049,3.545a.917.917,0,0,1-.241,1.192L52.008,20.02a.917.917,0,0,0-.306,1.049,23.718,23.718,0,0,1,1.133,4.256.917.917,0,0,0,.79.756l2.418.3a.917.917,0,0,1,.8.91Z" transform="translate(0 0)"/>
      <path id="Trazado_897982" data-name="Trazado 897982" d="M39.169,35.282l-4.628-4.627,7.6-7.6a.917.917,0,0,0,.25-.468l.642-3.2a.917.917,0,0,0-1.084-1.081l-3.2.642a.926.926,0,0,0-.469.25l-7.6,7.6-4.623-4.63a3.667,3.667,0,0,0-.567-4.449l-.647-.647a3.662,3.662,0,0,0-5.181,0,.917.917,0,0,0,0,1.3l1.295,1.3a.917.917,0,0,1,0,1.293.935.935,0,0,1-1.293,0l-1.3-1.293a.917.917,0,0,0-1.3,0,3.667,3.667,0,0,0,0,5.181l.647.647a3.667,3.667,0,0,0,4.45.566L26.8,30.689l-.584.585a.917.917,0,0,0-1.284.006l-6.487,6.487A3.633,3.633,0,0,0,23.578,42.9l6.488-6.488a.917.917,0,0,0,.006-1.284l.585-.585,4.625,4.624a3.667,3.667,0,0,0,.567,4.449l.647.647a3.662,3.662,0,0,0,5.181,0,.917.917,0,0,0,0-1.3l-1.295-1.3a.917.917,0,0,1,0-1.293.935.935,0,0,1,1.293,0l1.3,1.295a.917.917,0,0,0,1.3,0,3.667,3.667,0,0,0,0-5.181l-.647-.647a3.667,3.667,0,0,0-4.45-.563Zm.211-14.589,1.58-.316-.314,1.582L28.775,33.827l-1.264-1.263ZM22.9,24.195a.917.917,0,0,0-1.3,0,1.834,1.834,0,0,1-2.587,0l-.648-.648a1.834,1.834,0,0,1-.473-1.764l.472.471a2.813,2.813,0,0,0,3.887,0,2.751,2.751,0,0,0,0-3.886l-.473-.474a1.863,1.863,0,0,1,1.767.476l.647.647a1.834,1.834,0,0,1,0,2.587.917.917,0,0,0,0,1.3l5.19,5.194-1.292,1.291ZM22.28,41.6a1.8,1.8,0,1,1-2.543-2.545l5.838-5.838,2.544,2.544Zm21.164-2.046-.473-.472a2.813,2.813,0,0,0-3.886,0,2.751,2.751,0,0,0,0,3.886l.473.474a1.864,1.864,0,0,1-1.767-.476l-.647-.647a1.834,1.834,0,0,1,0-2.587.917.917,0,0,0,0-1.3l-5.19-5.194,1.293-1.293,5.194,5.193a.917.917,0,0,0,1.3,0,1.834,1.834,0,0,1,2.587,0l.648.648a1.834,1.834,0,0,1,.474,1.765Z" transform="translate(-1.331 -1.33)"/>
      <path id="Trazado_897983" data-name="Trazado 897983" d="M26.232,37.269a.917.917,0,0,0-1.3,0l-3.667,3.667a.917.917,0,1,0,1.3,1.3l3.667-3.667A.917.917,0,0,0,26.232,37.269Z" transform="translate(-1.746 -3.077)"/>
    </g>
  </g>
</svg>
