<svg xmlns="http://www.w3.org/2000/svg" xmlns:xlink="http://www.w3.org/1999/xlink" width="518" height="293" viewBox="0 0 518 293">
  <defs>
    <clipPath id="clip-path">
      <rect id="Rectángulo_404476" data-name="Rectángulo 404476" width="336.418" height="212.819" fill="none"/>
    </clipPath>
    <clipPath id="clip-path-4">
      <rect id="Rectángulo_404467" data-name="Rectángulo 404467" width="126.737" height="61.758" fill="none"/>
    </clipPath>
  </defs>
  <g id="Grupo_1110368" data-name="Grupo 1110368" transform="translate(-841.051 -1825)">
    <g id="Rectángulo_404369" data-name="Rectángulo 404369" transform="translate(841.051 1825)" fill="#fff" stroke="#2d3bf3" stroke-width="2">
      <rect width="518" height="293" rx="8" stroke="none"/>
      <rect x="1" y="1" width="516" height="291" rx="7" fill="none"/>
    </g>
    <rect id="Rectángulo_404370" data-name="Rectángulo 404370" width="161" height="92" rx="8" transform="translate(1198.051 1825)" fill="#2d3bf3"/>
    <g id="Grupo_1110367" data-name="Grupo 1110367">
      <g id="Rectángulo_404554" data-name="Rectángulo 404554" transform="translate(1149.051 1902)" fill="#bebec3" stroke="#000" stroke-width="1">
        <rect width="16" height="167" stroke="none"/>
        <rect x="0.5" y="0.5" width="15" height="166" fill="none"/>
      </g>
      <g id="Grupo_1110366" data-name="Grupo 1110366" transform="translate(866.507 1879.5)">
        <rect id="Rectángulo_404468" data-name="Rectángulo 404468" width="11.611" height="2.852" transform="translate(24.328 51.283)" fill="#c0bfc4"/>
        <rect id="Rectángulo_404469" data-name="Rectángulo 404469" width="11.611" height="2.852" transform="translate(24.328 51.283)" fill="none" stroke="#000" stroke-linejoin="round" stroke-width="1"/>
        <path id="Trazado_900087" data-name="Trazado 900087" d="M21.431,149.088v12.425h2.993l3.463,12.154H52.664l7.333-7.6,30.419-4.685v-6.018h1.63v18.308h16.567l7.231-7.231h39l2.529-2.529h5.288V151.762h6.315l2.1-3.163V138.142l-4.074-6.683H122.1l-14.293-14.293H94.218v-3.521H90.688v-11.95H89.33V94.5l-3.158-3.123H25.1L21.567,94.9v6.79H20.073v47.393Z" transform="translate(-8.374 -38.121)" fill="#bebec3"/>
        <path id="Trazado_900088" data-name="Trazado 900088" d="M21.431,149.088v12.425h2.993l3.463,12.154H52.664l7.333-7.6,30.419-4.685v-6.018h1.63v18.308h16.567l7.231-7.231h39l2.529-2.529h5.288V151.762h6.315l2.1-3.163V138.142l-4.074-6.683H122.1l-14.293-14.293H94.218v-3.521H90.688v-11.95H89.33V94.5l-3.158-3.123H25.1L21.567,94.9v6.79H20.073v47.393Z" transform="translate(-8.374 -38.121)" fill="none" stroke="#000" stroke-linejoin="round" stroke-width="1"/>
        <rect id="Rectángulo_404470" data-name="Rectángulo 404470" width="5.024" height="8.691" transform="translate(8.032 77.56)" fill="#c0bfc4"/>
        <rect id="Rectángulo_404471" data-name="Rectángulo 404471" width="5.024" height="8.691" transform="translate(8.032 77.56)" fill="none" stroke="#000" stroke-linejoin="round" stroke-width="1"/>
        <rect id="Rectángulo_404472" data-name="Rectángulo 404472" width="4.617" height="6.315" transform="translate(3.415 89.171)" fill="#c0bfc4"/>
        <rect id="Rectángulo_404473" data-name="Rectángulo 404473" width="4.617" height="6.315" transform="translate(3.415 89.171)" fill="none" stroke="#000" stroke-linejoin="round" stroke-width="1"/>
        <rect id="Rectángulo_404474" data-name="Rectángulo 404474" width="3.123" height="8.691" transform="translate(0.291 77.56)" fill="#c0bfc4"/>
        <g id="Grupo_1110361" data-name="Grupo 1110361">
          <g id="Grupo_1110360" data-name="Grupo 1110360" clip-path="url(#clip-path)">
            <rect id="Rectángulo_404475" data-name="Rectángulo 404475" width="3.123" height="8.691" transform="translate(0.291 77.56)" fill="none" stroke="#000" stroke-linejoin="round" stroke-width="1"/>
          </g>
        </g>
        <rect id="Rectángulo_404477" data-name="Rectángulo 404477" width="3.123" height="8.691" transform="translate(0.291 101.319)" fill="#c0bfc4"/>
        <g id="Grupo_1110363" data-name="Grupo 1110363">
          <g id="Grupo_1110362" data-name="Grupo 1110362" clip-path="url(#clip-path)">
            <rect id="Rectángulo_404478" data-name="Rectángulo 404478" width="3.123" height="8.691" transform="translate(0.291 101.318)" fill="none" stroke="#000" stroke-linejoin="round" stroke-width="1"/>
          </g>
        </g>
        <rect id="Rectángulo_404480" data-name="Rectángulo 404480" width="10.055" height="8.493" transform="translate(5.995 102.474)" fill="#c0bfc4"/>
        <rect id="Rectángulo_404481" data-name="Rectángulo 404481" width="10.055" height="8.493" transform="translate(5.995 102.474)" fill="none" stroke="#000" stroke-linejoin="round" stroke-width="1"/>
        <rect id="Rectángulo_404482" data-name="Rectángulo 404482" width="7.197" height="23.901" transform="translate(2.329 94.503)" fill="#c0bfc4"/>
        <rect id="Rectángulo_404483" data-name="Rectángulo 404483" width="7.197" height="23.901" transform="translate(2.329 94.503)" fill="none" stroke="#000" stroke-linejoin="round" stroke-width="1"/>
        <rect id="Rectángulo_404484" data-name="Rectángulo 404484" width="7.673" height="17.789" transform="translate(1.853 72.4)" fill="#c0bfc4"/>
        <rect id="Rectángulo_404485" data-name="Rectángulo 404485" width="7.673" height="17.789" transform="translate(1.853 72.4)" fill="none" stroke="#000" stroke-linejoin="round" stroke-width="1"/>
        <path id="Trazado_900089" data-name="Trazado 900089" d="M178.582,163.82v-2.75h-5.3V153h-5.195v35.851h5.245v-9.031h5.245Z" transform="translate(-70.128 -63.834)" fill="#c6eefa"/>
        <path id="Trazado_900090" data-name="Trazado 900090" d="M178.582,163.82v-2.75h-5.3V153h-5.195v35.851h5.245v-9.031h5.245Z" transform="translate(-70.128 -63.834)" fill="none" stroke="#000" stroke-linejoin="round" stroke-width="1"/>
        <rect id="Rectángulo_404486" data-name="Rectángulo 404486" width="11.993" height="13.619" transform="translate(101.732 100.021)" fill="#c6eefa"/>
        <rect id="Rectángulo_404487" data-name="Rectángulo 404487" width="11.993" height="13.619" transform="translate(101.732 100.021)" fill="none" stroke="#000" stroke-linejoin="round" stroke-width="1"/>
        <g id="Grupo_1110365" data-name="Grupo 1110365">
          <g id="Grupo_1110364" data-name="Grupo 1110364" clip-path="url(#clip-path)">
            <path id="Trazado_900091" data-name="Trazado 900091" d="M436.693,171.121v5.024h6.79l26.277,11.679s18.672,2.444,23.154-7.333,1.425-8.827,1.018-10.321-1.7-5.361-3.987-6.551l-3.142-1.635V153.4s.883-8.352-11.882-9.166-23.493,9.166-24.647,10.592h-13.58Z" transform="translate(-182.188 -60.154)" fill="#c1bec2"/>
            <path id="Trazado_900092" data-name="Trazado 900092" d="M436.693,171.121v5.024h6.79l26.277,11.679s18.672,2.444,23.154-7.333,1.425-8.827,1.018-10.321-1.7-5.361-3.987-6.551l-3.142-1.635V153.4s.883-8.352-11.882-9.166-23.493,9.166-24.647,10.592h-13.58Z" transform="translate(-182.188 -60.154)" fill="none" stroke="#000" stroke-linejoin="round" stroke-width="1"/>
            <rect id="Rectángulo_404488" data-name="Rectángulo 404488" width="31.623" height="7.401" transform="translate(117.01 115.991)" fill="#71878f"/>
            <rect id="Rectángulo_404489" data-name="Rectángulo 404489" width="31.623" height="7.401" transform="translate(117.01 115.991)" fill="none" stroke="#000" stroke-linejoin="round" stroke-width="1"/>
            <rect id="Rectángulo_404490" data-name="Rectángulo 404490" width="34.907" height="13.654" transform="translate(113.726 99.986)" fill="#71878f"/>
            <rect id="Rectángulo_404491" data-name="Rectángulo 404491" width="34.907" height="13.654" transform="translate(113.726 99.986)" fill="none" stroke="#000" stroke-linejoin="round" stroke-width="1"/>
            <rect id="Rectángulo_404492" data-name="Rectángulo 404492" width="6.213" height="3.599" transform="translate(146.469 118.164)" fill="#71878f"/>
            <rect id="Rectángulo_404493" data-name="Rectángulo 404493" width="6.213" height="3.599" transform="translate(146.469 118.164)" fill="none" stroke="#000" stroke-linejoin="round" stroke-width="1"/>
            <rect id="Rectángulo_404494" data-name="Rectángulo 404494" width="6.925" height="2.58" transform="translate(206.025 104.856)" fill="#4c6879"/>
            <rect id="Rectángulo_404495" data-name="Rectángulo 404495" width="6.925" height="2.58" transform="translate(206.025 104.856)" fill="none" stroke="#000" stroke-linejoin="round" stroke-width="1"/>
            <rect id="Rectángulo_404496" data-name="Rectángulo 404496" width="17.433" height="4.481" transform="translate(245.219 103.906)" fill="#475b68"/>
            <rect id="Rectángulo_404497" data-name="Rectángulo 404497" width="17.433" height="4.481" transform="translate(245.219 103.906)" fill="none" stroke="#000" stroke-linejoin="round" stroke-width="1"/>
            <path id="Trazado_900093" data-name="Trazado 900093" d="M436.013,172.061v9.37h-7.537v3.87H424.81V168.9h3.666v3.163Z" transform="translate(-177.231 -70.464)" fill="#475b68"/>
            <path id="Trazado_900094" data-name="Trazado 900094" d="M436.013,172.061v9.37h-7.537v3.87H424.81V168.9h3.666v3.163Z" transform="translate(-177.231 -70.464)" fill="none" stroke="#000" stroke-linejoin="round" stroke-width="1"/>
            <rect id="Rectángulo_404498" data-name="Rectángulo 404498" width="23.018" height="4.481" transform="translate(210.914 103.794)" fill="#c6eefa"/>
            <rect id="Rectángulo_404499" data-name="Rectángulo 404499" width="23.018" height="4.481" transform="translate(210.914 103.794)" fill="none" stroke="#000" stroke-linejoin="round" stroke-width="1"/>
            <rect id="Rectángulo_404500" data-name="Rectángulo 404500" width="23.018" height="4.481" transform="translate(185.452 103.799)" fill="#c6eefa"/>
            <rect id="Rectángulo_404501" data-name="Rectángulo 404501" width="23.018" height="4.481" transform="translate(185.452 103.799)" fill="none" stroke="#000" stroke-linejoin="round" stroke-width="1"/>
            <rect id="Rectángulo_404502" data-name="Rectángulo 404502" width="17.433" height="4.481" transform="translate(156.731 103.687)" fill="#415e6a"/>
            <rect id="Rectángulo_404503" data-name="Rectángulo 404503" width="17.433" height="4.481" transform="translate(156.731 103.687)" fill="none" stroke="#000" stroke-linejoin="round" stroke-width="1"/>
            <path id="Trazado_900095" data-name="Trazado 900095" d="M275.567,180.085v-9.37H283.1v-3.87h3.666v16.4H283.1v-3.163Z" transform="translate(-114.967 -69.608)" fill="#475b68"/>
            <path id="Trazado_900096" data-name="Trazado 900096" d="M275.567,180.085v-9.37H283.1v-3.87h3.666v16.4H283.1v-3.163Z" transform="translate(-114.967 -69.608)" fill="none" stroke="#000" stroke-linejoin="round" stroke-width="1"/>
            <rect id="Rectángulo_404504" data-name="Rectángulo 404504" width="13.58" height="7.741" transform="translate(261.295 102.276)" fill="#c6eefa"/>
            <rect id="Rectángulo_404505" data-name="Rectángulo 404505" width="13.58" height="7.741" transform="translate(261.295 102.276)" fill="none" stroke="#000" stroke-linejoin="round" stroke-width="1"/>
            <rect id="Rectángulo_404506" data-name="Rectángulo 404506" width="5.16" height="165.825" transform="translate(287.572 23.497)" fill="#a8c9d4"/>
            <rect id="Rectángulo_404507" data-name="Rectángulo 404507" width="5.16" height="165.825" transform="translate(287.572 23.497)" fill="none" stroke="#000" stroke-linejoin="round" stroke-width="1"/>
            <rect id="Rectángulo_404508" data-name="Rectángulo 404508" width="92.394" height="13.305" transform="translate(243.631 194.273)" fill="#bebec3"/>
            <rect id="Rectángulo_404509" data-name="Rectángulo 404509" width="92.394" height="13.305" transform="translate(243.631 194.273)" fill="none" stroke="#000" stroke-linejoin="round" stroke-width="1"/>
            <path id="Trazado_900097" data-name="Trazado 900097" d="M418.21,329.8l8.43-4.95h76.318l7.646,4.95Z" transform="translate(-174.477 -135.527)" fill="#bebec3"/>
            <path id="Trazado_900098" data-name="Trazado 900098" d="M418.21,329.8l8.43-4.95h76.318l7.646,4.95Z" transform="translate(-174.477 -135.527)" fill="none" stroke="#000" stroke-linejoin="round" stroke-width="1"/>
            <path id="Trazado_900099" data-name="Trazado 900099" d="M510.429,356.173l-8.43,4.95H425.681l-7.646-4.95Z" transform="translate(-174.404 -148.595)" fill="#bebec3"/>
            <path id="Trazado_900100" data-name="Trazado 900100" d="M510.429,356.173l-8.43,4.95H425.681l-7.646-4.95Z" transform="translate(-174.404 -148.595)" fill="none" stroke="#000" stroke-linejoin="round" stroke-width="1"/>
            <rect id="Rectángulo_404510" data-name="Rectángulo 404510" width="92.394" height="13.305" transform="translate(243.631 5.242)" fill="#bebec3"/>
            <rect id="Rectángulo_404511" data-name="Rectángulo 404511" width="92.394" height="13.305" transform="translate(243.631 5.242)" fill="none" stroke="#000" stroke-linejoin="round" stroke-width="1"/>
            <path id="Trazado_900101" data-name="Trazado 900101" d="M418.21,5.451,426.64.5h76.318l7.646,4.95Z" transform="translate(-174.477 -0.209)" fill="#bebec3"/>
            <path id="Trazado_900102" data-name="Trazado 900102" d="M418.21,5.451,426.64.5h76.318l7.646,4.95Z" transform="translate(-174.477 -0.209)" fill="none" stroke="#000" stroke-linejoin="round" stroke-width="1"/>
            <path id="Trazado_900103" data-name="Trazado 900103" d="M510.429,31.824,502,36.774H425.681l-7.646-4.95Z" transform="translate(-174.404 -13.277)" fill="#bebec3"/>
            <path id="Trazado_900104" data-name="Trazado 900104" d="M510.429,31.824,502,36.774H425.681l-7.646-4.95Z" transform="translate(-174.404 -13.277)" fill="none" stroke="#000" stroke-linejoin="round" stroke-width="1"/>
            <rect id="Rectángulo_404512" data-name="Rectángulo 404512" width="19.012" height="6.518" transform="translate(280.646 101.597)" fill="#c6eefa"/>
            <rect id="Rectángulo_404513" data-name="Rectángulo 404513" width="19.012" height="6.518" transform="translate(280.646 101.597)" fill="none" stroke="#000" stroke-linejoin="round" stroke-width="1"/>
            <rect id="Rectángulo_404514" data-name="Rectángulo 404514" width="12.765" height="3.163" transform="translate(283.769 98.433)" fill="#c6eefa"/>
            <rect id="Rectángulo_404515" data-name="Rectángulo 404515" width="12.765" height="3.163" transform="translate(283.769 98.433)" fill="none" stroke="#000" stroke-linejoin="round" stroke-width="1"/>
            <rect id="Rectángulo_404516" data-name="Rectángulo 404516" width="17.654" height="4.345" transform="translate(281.325 115.991)" fill="#c6eefa"/>
            <rect id="Rectángulo_404517" data-name="Rectángulo 404517" width="17.654" height="4.345" transform="translate(281.325 115.991)" fill="none" stroke="#000" stroke-linejoin="round" stroke-width="1"/>
            <path id="Trazado_900105" data-name="Trazado 900105" d="M500.944,193.386H466.518l8.759-7.877h19.854Z" transform="translate(-194.631 -77.394)" fill="#4c6879"/>
            <path id="Trazado_900106" data-name="Trazado 900106" d="M500.944,193.386H466.518l8.759-7.877h19.854Z" transform="translate(-194.631 -77.394)" fill="none" stroke="#000" stroke-linejoin="round" stroke-width="1"/>
            <path id="Trazado_900107" data-name="Trazado 900107" d="M498.591,178.07a2.58,2.58,0,1,1-2.58-2.58,2.58,2.58,0,0,1,2.58,2.58" transform="translate(-205.859 -73.214)" fill="#4c6879"/>
            <circle id="Elipse_11620" data-name="Elipse 11620" cx="2.58" cy="2.58" r="2.58" transform="translate(287.572 102.276)" fill="none" stroke="#000" stroke-linejoin="round" stroke-width="1"/>
            <path id="Trazado_900108" data-name="Trazado 900108" d="M475.277,177.49l-8.759,7.877v-19.08l8.759,4.685Z" transform="translate(-194.632 -69.375)" fill="#4c6879"/>
            <path id="Trazado_900109" data-name="Trazado 900109" d="M475.277,177.49l-8.759,7.877v-19.08l8.759,4.685Z" transform="translate(-194.632 -69.375)" fill="none" stroke="#000" stroke-linejoin="round" stroke-width="1"/>
            <rect id="Rectángulo_404518" data-name="Rectángulo 404518" width="6.518" height="2.58" transform="translate(251.246 104.856)" fill="#30424d"/>
            <rect id="Rectángulo_404519" data-name="Rectángulo 404519" width="6.518" height="2.58" transform="translate(251.246 104.856)" fill="none" stroke="#000" stroke-linejoin="round" stroke-width="1"/>
            <rect id="Rectángulo_404520" data-name="Rectángulo 404520" width="8.963" height="12.038" transform="translate(236.987 100.015)" fill="#71878f"/>
            <rect id="Rectángulo_404521" data-name="Rectángulo 404521" width="8.963" height="12.038" transform="translate(236.987 100.015)" fill="none" stroke="#000" stroke-linejoin="round" stroke-width="1"/>
            <rect id="Rectángulo_404522" data-name="Rectángulo 404522" width="9.37" height="8.42" transform="translate(232.098 101.824)" fill="#30424d"/>
            <rect id="Rectángulo_404523" data-name="Rectángulo 404523" width="9.37" height="8.42" transform="translate(232.098 101.824)" fill="none" stroke="#000" stroke-linejoin="round" stroke-width="1"/>
            <rect id="Rectángulo_404524" data-name="Rectángulo 404524" width="6.518" height="2.58" transform="translate(161.619 104.638)" fill="#30424d"/>
            <rect id="Rectángulo_404525" data-name="Rectángulo 404525" width="6.518" height="2.58" transform="translate(161.619 104.638)" fill="none" stroke="#000" stroke-linejoin="round" stroke-width="1"/>
            <rect id="Rectángulo_404526" data-name="Rectángulo 404526" width="8.963" height="12.038" transform="translate(173.434 100.021)" fill="#71878f"/>
            <rect id="Rectángulo_404527" data-name="Rectángulo 404527" width="8.963" height="12.038" transform="translate(173.434 100.021)" fill="none" stroke="#000" stroke-linejoin="round" stroke-width="1"/>
            <rect id="Rectángulo_404528" data-name="Rectángulo 404528" width="9.37" height="8.42" transform="translate(177.915 101.83)" fill="#30424d"/>
            <rect id="Rectángulo_404529" data-name="Rectángulo 404529" width="9.37" height="8.42" transform="translate(177.915 101.83)" fill="none" stroke="#000" stroke-linejoin="round" stroke-width="1"/>
            <rect id="Rectángulo_404530" data-name="Rectángulo 404530" width="8.097" height="4.481" transform="translate(148.633 103.799)" fill="#c6eefa"/>
            <rect id="Rectángulo_404531" data-name="Rectángulo 404531" width="8.097" height="4.481" transform="translate(148.633 103.799)" fill="none" stroke="#000" stroke-linejoin="round" stroke-width="1"/>
            <rect id="Rectángulo_404532" data-name="Rectángulo 404532" width="4.328" height="28.11" transform="translate(144.305 96.911)" fill="#30424d"/>
            <rect id="Rectángulo_404533" data-name="Rectángulo 404533" width="4.328" height="28.11" transform="translate(144.305 96.911)" fill="none" stroke="#000" stroke-linejoin="round" stroke-width="1"/>
            <rect id="Rectángulo_404534" data-name="Rectángulo 404534" width="3.284" height="29.452" transform="translate(135.305 96.911)" fill="#30424d"/>
            <rect id="Rectángulo_404535" data-name="Rectángulo 404535" width="3.284" height="29.452" transform="translate(135.305 96.911)" fill="none" stroke="#000" stroke-linejoin="round" stroke-width="1"/>
            <rect id="Rectángulo_404536" data-name="Rectángulo 404536" width="3.284" height="29.452" transform="translate(128.391 96.911)" fill="#30424d"/>
            <rect id="Rectángulo_404537" data-name="Rectángulo 404537" width="3.284" height="29.452" transform="translate(128.391 96.911)" fill="none" stroke="#000" stroke-linejoin="round" stroke-width="1"/>
            <rect id="Rectángulo_404538" data-name="Rectángulo 404538" width="3.284" height="29.452" transform="translate(123.096 96.911)" fill="#30424d"/>
            <rect id="Rectángulo_404539" data-name="Rectángulo 404539" width="3.284" height="29.452" transform="translate(123.096 96.911)" fill="none" stroke="#000" stroke-linejoin="round" stroke-width="1"/>
            <rect id="Rectángulo_404540" data-name="Rectángulo 404540" width="3.284" height="29.452" transform="translate(113.725 96.911)" fill="#30424d"/>
            <rect id="Rectángulo_404541" data-name="Rectángulo 404541" width="3.284" height="29.452" transform="translate(113.725 96.911)" fill="none" stroke="#000" stroke-linejoin="round" stroke-width="1"/>
            <line id="Línea_164" data-name="Línea 164" x2="27.295" transform="translate(117.01 112.059)" fill="none" stroke="#000" stroke-linejoin="round" stroke-width="1"/>
            <rect id="Rectángulo_404542" data-name="Rectángulo 404542" width="31.623" height="7.401" transform="translate(117.01 115.991)" fill="none" stroke="#000" stroke-linejoin="round" stroke-width="1"/>
            <rect id="Rectángulo_404543" data-name="Rectángulo 404543" width="7.537" height="4.699" transform="translate(94.196 103.688)" fill="none" stroke="#000" stroke-linejoin="round" stroke-width="1"/>
            <path id="Trazado_900110" data-name="Trazado 900110" d="M160.728,159.03h-2.75v-4.278H153.09v12.086h-2.648V176.2h3.666v11.754h2.852v-5.228h3.768" transform="translate(-62.764 -64.563)" fill="none" stroke="#000" stroke-linejoin="round" stroke-width="1"/>
            <rect id="Rectángulo_404544" data-name="Rectángulo 404544" width="6.518" height="2.948" transform="translate(87.678 105.439)" fill="none" stroke="#000" stroke-linejoin="round" stroke-width="1"/>
            <path id="Trazado_900111" data-name="Trazado 900111" d="M154.562,184.481v2.92h-6.111v3.191h-2.037v-4.769h-2.852V173.1h-5.7V159.445h6.111V146.8h2.241v-4.278h3.056v3.259h5.3v2.852" transform="translate(-57.515 -59.459)" fill="none" stroke="#000" stroke-linejoin="round" stroke-width="1"/>
            <rect id="Rectángulo_404545" data-name="Rectángulo 404545" width="5.093" height="8.425" transform="translate(75.252 101.824)" fill="none" stroke="#000" stroke-linejoin="round" stroke-width="1"/>
            <rect id="Rectángulo_404546" data-name="Rectángulo 404546" width="5.839" height="8.425" transform="translate(58.82 101.452)" fill="none" stroke="#000" stroke-linejoin="round" stroke-width="1"/>
            <rect id="Rectángulo_404547" data-name="Rectángulo 404547" width="3.666" height="9.137" transform="translate(68.122 93.338)" fill="none" stroke="#000" stroke-linejoin="round" stroke-width="1"/>
            <path id="Trazado_900112" data-name="Trazado 900112" d="M126.642,184.054h-3.463v-23.9l3.463,4.17Z" transform="translate(-51.39 -66.816)" fill="none" stroke="#000" stroke-linejoin="round" stroke-width="1"/>
            <path id="Trazado_900113" data-name="Trazado 900113" d="M110.946,179.519l3.463-5.839V160.154l-3.463,4.169Z" transform="translate(-46.287 -66.816)" fill="none" stroke="#000" stroke-linejoin="round" stroke-width="1"/>
            <rect id="Rectángulo_404548" data-name="Rectángulo 404548" width="3.666" height="9.137" transform="translate(19.513 93.978)" fill="none" stroke="#000" stroke-linejoin="round" stroke-width="1"/>
            <path id="Trazado_900114" data-name="Trazado 900114" d="M27.539,185.152H31v-23.9l-3.463,4.17Z" transform="translate(-11.489 -67.274)" fill="none" stroke="#000" stroke-linejoin="round" stroke-width="1"/>
            <path id="Trazado_900115" data-name="Trazado 900115" d="M43.235,180.618l-3.463-5.839V161.252l3.463,4.169Z" transform="translate(-16.593 -67.274)" fill="none" stroke="#000" stroke-linejoin="round" stroke-width="1"/>
            <rect id="Rectángulo_404549" data-name="Rectángulo 404549" width="5.093" height="8.425" transform="translate(43.068 101.824)" fill="none" stroke="#000" stroke-linejoin="round" stroke-width="1"/>
            <rect id="Rectángulo_404550" data-name="Rectángulo 404550" width="5.839" height="8.425" transform="translate(26.636 101.865)" fill="none" stroke="#000" stroke-linejoin="round" stroke-width="1"/>
            <rect id="Rectángulo_404551" data-name="Rectángulo 404551" width="3.666" height="9.137" transform="translate(35.938 109.267)" fill="none" stroke="#000" stroke-linejoin="round" stroke-width="1"/>
            <path id="Trazado_900116" data-name="Trazado 900116" d="M71.419,162.154H67.956v23.9l3.463-4.17Z" transform="translate(-28.351 -67.651)" fill="none" stroke="#000" stroke-linejoin="round" stroke-width="1"/>
            <path id="Trazado_900117" data-name="Trazado 900117" d="M82.636,162.154H86.1v23.9l-3.463-4.17Z" transform="translate(-34.476 -67.651)" fill="none" stroke="#000" stroke-linejoin="round" stroke-width="1"/>
            <path id="Trazado_900118" data-name="Trazado 900118" d="M55.723,169.935l3.463,5.839V189.3l-3.463-4.169Z" transform="translate(-23.248 -70.897)" fill="none" stroke="#000" stroke-linejoin="round" stroke-width="1"/>
            <rect id="Rectángulo_404552" data-name="Rectángulo 404552" width="3.666" height="9.137" transform="translate(51.691 108.853)" fill="none" stroke="#000" stroke-linejoin="round" stroke-width="1"/>
            <path id="Trazado_900119" data-name="Trazado 900119" d="M98.448,169.225l-3.463,5.839V188.59l3.463-4.169Z" transform="translate(-39.628 -70.601)" fill="none" stroke="#000" stroke-linejoin="round" stroke-width="1"/>
            <path id="Trazado_900120" data-name="Trazado 900120" d="M92.046,147.995H78.066v2.92H66.717v3.157h-5.4v-3.038H47.132v-1.817H39.865L35.9,153.1H32.155v-1.171H20.073" transform="translate(-8.374 -61.744)" fill="none" stroke="#000" stroke-linejoin="round" stroke-width="1"/>
            <line id="Línea_165" data-name="Línea 165" x2="71.973" transform="translate(11.698 75.523)" fill="none" stroke="#000" stroke-linejoin="round" stroke-width="1"/>
            <line id="Línea_166" data-name="Línea 166" x2="68.815" transform="translate(13.056 63.573)" fill="none" stroke="#000" stroke-linejoin="round" stroke-width="1"/>
          </g>
        </g>
      </g>
    </g>
    <g id="Grupo_1110359" data-name="Grupo 1110359" transform="translate(1214.301 1835.957)">
      <g id="Grupo_1110358" data-name="Grupo 1110358" clip-path="url(#clip-path-4)">
        <path id="Trazado_900081" data-name="Trazado 900081" d="M53.988,123.367a8.206,8.206,0,1,0,8.206-8.206,8.215,8.215,0,0,0-8.206,8.206m3.713,0a4.492,4.492,0,1,1,4.492,4.492,4.5,4.5,0,0,1-4.492-4.492" transform="translate(-35.706 -76.163)" fill="#fff"/>
        <path id="Trazado_900082" data-name="Trazado 900082" d="M287.676,123.367a8.205,8.205,0,1,0,8.206-8.206,8.215,8.215,0,0,0-8.206,8.206m3.713,0a4.493,4.493,0,1,1,4.492,4.492,4.5,4.5,0,0,1-4.492-4.492" transform="translate(-190.258 -76.163)" fill="#fff"/>
        <path id="Trazado_900083" data-name="Trazado 900083" d="M126.737,46.275a4.067,4.067,0,0,0-1.823-3.389l.368-1.347a14.9,14.9,0,0,0,.525-3.919V31.5a14.928,14.928,0,0,0-2.369-8.06l-6.3-9.791A22.812,22.812,0,0,0,105.3,4.426C85.119-2.406,66.528.165,57.243,2.306a22.451,22.451,0,0,0-8.594,4.031A1.856,1.856,0,1,0,50.9,9.294a18.773,18.773,0,0,1,7.182-3.369c8.9-2.052,26.72-4.519,46.038,2.019a19.086,19.086,0,0,1,9.9,7.713l5.789,9a5.052,5.052,0,0,0-4.623,5.026v1.636a5.053,5.053,0,0,0,5.047,5.047h1.866V37.62a11.18,11.18,0,0,1-.394,2.941l-.449,1.645H119.3a14.56,14.56,0,0,0-27.349,0H40.162a14.56,14.56,0,0,0-27.349,0h-6.8V38.475H9.575a5.148,5.148,0,0,0,5.142-5.142V27.939L30.98,24.621v.161a5.053,5.053,0,0,0,5.047,5.047h2.789a5.03,5.03,0,0,0,3.574-1.487h59.1a2.891,2.891,0,0,0,1.9-.712l7.62-6.638a2.9,2.9,0,0,0,.539-3.738,16.135,16.135,0,0,0-8.379-6.532A82.769,82.769,0,0,0,58.736,8.784,16.035,16.035,0,0,0,51.9,12.252l-8.608,7.413a5.138,5.138,0,0,0-2.058-2.1l3.137-2.7A1.856,1.856,0,0,0,41.95,12.05l-5.686,4.9h-.237a5.052,5.052,0,0,0-4.893,3.831c-.143.043-.286.082-.431.111L12.285,24.646A12.457,12.457,0,0,0,2.3,36.868v5.747A4.069,4.069,0,0,0,0,46.275v2.008a4.072,4.072,0,0,0,4.068,4.068h8.809a14.551,14.551,0,0,0,27.222,0H65.241a1.856,1.856,0,1,0,0-3.713H40.971a14.654,14.654,0,0,0,.015-2.718H91.125a14.65,14.65,0,0,0,.015,2.718H73.9a1.856,1.856,0,1,0,0,3.713H92.012a14.551,14.551,0,0,0,27.222,0h3.434a4.073,4.073,0,0,0,4.068-4.068ZM59.57,12.4a80.018,80.018,0,0,1,8.146-1.425V24.631H43.864v-.556l10.462-9.009A12.308,12.308,0,0,1,59.57,12.4m41.615,12.228H94.225L96.27,12.573c5.244,1.3,8.978,2.29,11.754,6.1Zm-29.755,0V10.605A80.5,80.5,0,0,1,92.64,11.77L90.459,24.631Zm-36.736.152V21.994a1.336,1.336,0,0,1,1.335-1.334h2.789a1.336,1.336,0,0,1,1.334,1.334v2.789a1.347,1.347,0,0,1-1.334,1.335H36.028a1.336,1.336,0,0,1-1.335-1.335M15.646,47.2A10.842,10.842,0,1,1,26.488,58.044,10.861,10.861,0,0,1,15.646,47.2M9.575,34.762h-3.3A8.821,8.821,0,0,1,11,28.966v4.367a1.431,1.431,0,0,1-1.429,1.429M11.99,45.92A14.607,14.607,0,0,0,12,48.638H4.068a.356.356,0,0,1-.355-.355V46.275a.356.356,0,0,1,.355-.355H11.99ZM94.782,47.2a10.841,10.841,0,1,1,10.841,10.841A10.859,10.859,0,0,1,94.782,47.2m25.34-1.283h2.547a.356.356,0,0,1,.355.355v2.008a.356.356,0,0,1-.355.355h-2.562a14.7,14.7,0,0,0,.015-2.718Zm-1.229-16.242a1.336,1.336,0,0,1,1.334-1.334h1.412a13.893,13.893,0,0,1,.454,4.3h-1.866a1.336,1.336,0,0,1-1.334-1.335Z" transform="translate(0 0)" fill="#fff"/>
        <path id="Trazado_900084" data-name="Trazado 900084" d="M180.986,97.207a1.856,1.856,0,1,0,0-3.713h-2.327a1.856,1.856,0,1,0,0,3.713Z" transform="translate(-116.931 -61.833)" fill="#fff"/>
        <path id="Trazado_900085" data-name="Trazado 900085" d="M249.692,97.207a1.856,1.856,0,0,0,0-3.713h-2.327a1.856,1.856,0,1,0,0,3.713Z" transform="translate(-162.371 -61.833)" fill="#fff"/>
        <path id="Trazado_900086" data-name="Trazado 900086" d="M122.01,105.967v-2.181h-1.33v2.181a3.556,3.556,0,0,0-2.77,2.586l-4.91-.3v-3.081l-3.058-1.269-.572,4.126L74.89,105.9v-2.117H73.132l1.918-5.857H72.492l-2.4,5.857H64.661v-2l-9.749-1.1-4-2.206V93.941h-1.4v-3.8H37.652v3.037l-8.606.759V92.463H25.518v16.1h9.417v1.918H41.2v-2.757h5.559V112.2h5.594v-2.677h2.717v3.491H65.461v-2.532H67.7V109h1.119v1.484H74.41v-1.918l34.535,2.526-.414,2.987H113v-2.691l5.675.415a3.548,3.548,0,0,0,2,1.148v1.262h1.33V112.95a3.554,3.554,0,0,0,0-6.984M35.255,105.9H29.046V104.49l.935-8.719h5.274Z" transform="translate(-16.877 -59.619)" fill="red"/>
      </g>
    </g>
    <line id="Línea_162" data-name="Línea 162" x1="2" y2="29.5" transform="translate(910.551 1906.5)" fill="none" stroke="#2d3bf3" stroke-width="2"/>
    <line id="Línea_167" data-name="Línea 167" x1="2" y2="29.5" transform="translate(997.551 1947.949)" fill="none" stroke="#2d3bf3" stroke-width="2"/>
    <line id="Línea_168" data-name="Línea 168" x1="2" y2="29.5" transform="translate(965.551 2002.949)" fill="none" stroke="#2d3bf3" stroke-width="2"/>
    <line id="Línea_169" data-name="Línea 169" x1="2" y2="29.5" transform="translate(1064.551 1988.199)" fill="none" stroke="#2d3bf3" stroke-width="2"/>
    <line id="Línea_170" data-name="Línea 170" y1="40.949" x2="82.625" transform="translate(1155.925 1936.5)" fill="none" stroke="#2d3bf3" stroke-width="2"/>
    <line id="Línea_171" data-name="Línea 171" x2="62" y2="19.975" transform="translate(1091.551 1903.5)" fill="none" stroke="#2d3bf3" stroke-width="2"/>
    <line id="Línea_172" data-name="Línea 172" x1="90" y1="23.051" transform="translate(1162.551 2034.475)" fill="none" stroke="#2d3bf3" stroke-width="2"/>
    <path id="Trazado_901247" data-name="Trazado 901247" d="M-14.2-9.242l2.374,6.7,2.361-6.7h2.5V0H-8.877V-2.526l.19-4.361L-11.181,0h-1.308l-2.488-6.881.19,4.354V0h-1.9V-9.242ZM-5.71-3.5a4.073,4.073,0,0,1,.394-1.822A2.881,2.881,0,0,1-4.183-6.557,3.306,3.306,0,0,1-2.466-7,3.127,3.127,0,0,1-.2-6.145,3.414,3.414,0,0,1,.784-3.834l.013.47A3.59,3.59,0,0,1-.086-.828,3.067,3.067,0,0,1-2.453.127,3.082,3.082,0,0,1-4.824-.825a3.653,3.653,0,0,1-.885-2.59Zm1.834.13a2.567,2.567,0,0,0,.368,1.5,1.215,1.215,0,0,0,1.054.518,1.217,1.217,0,0,0,1.041-.512A2.809,2.809,0,0,0-1.038-3.5a2.542,2.542,0,0,0-.375-1.488,1.217,1.217,0,0,0-1.054-.528,1.2,1.2,0,0,0-1.041.524A2.857,2.857,0,0,0-3.875-3.367Zm8-5.189v1.688H5.3v1.346H4.123v3.428a.818.818,0,0,0,.146.546.733.733,0,0,0,.559.165,2.925,2.925,0,0,0,.54-.044v1.39A3.777,3.777,0,0,1,4.256.127,1.752,1.752,0,0,1,2.288-1.822v-3.7h-1V-6.868h1V-8.557ZM5.843-3.5a4.073,4.073,0,0,1,.394-1.822A2.881,2.881,0,0,1,7.37-6.557,3.306,3.306,0,0,1,9.087-7a3.128,3.128,0,0,1,2.269.851,3.414,3.414,0,0,1,.981,2.311l.013.47a3.59,3.59,0,0,1-.882,2.536A3.067,3.067,0,0,1,9.1.127,3.082,3.082,0,0,1,6.729-.825a3.653,3.653,0,0,1-.885-2.59Zm1.834.13a2.567,2.567,0,0,0,.368,1.5A1.215,1.215,0,0,0,9.1-1.352a1.217,1.217,0,0,0,1.041-.512A2.809,2.809,0,0,0,10.515-3.5a2.542,2.542,0,0,0-.375-1.488,1.217,1.217,0,0,0-1.054-.528,1.2,1.2,0,0,0-1.041.524A2.857,2.857,0,0,0,7.677-3.367Zm9.661-1.781a4.984,4.984,0,0,0-.66-.051,1.344,1.344,0,0,0-1.365.7V0H13.479V-6.868h1.733l.051.819A1.7,1.7,0,0,1,16.793-7a1.922,1.922,0,0,1,.571.083Z" transform="translate(917.051 1904)" fill="#12263f"/>
    <path id="Trazado_901248" data-name="Trazado 901248" d="M-23.178-4.018h-3.656V-1.53h4.291V0h-6.2V-9.242h6.183V-7.7h-4.278v2.2h3.656Zm3.352-2.85.057.768A2.414,2.414,0,0,1-17.8-7a1.832,1.832,0,0,1,1.822,1.047A2.358,2.358,0,0,1-13.911-7a2.049,2.049,0,0,1,1.663.651A2.991,2.991,0,0,1-11.7-4.386V0h-1.841V-4.39a1.313,1.313,0,0,0-.229-.856,1.011,1.011,0,0,0-.806-.27,1.145,1.145,0,0,0-1.143.789L-15.714,0h-1.834V-4.384a1.3,1.3,0,0,0-.235-.865,1.021,1.021,0,0,0-.8-.267,1.188,1.188,0,0,0-1.13.649V0h-1.834V-6.868ZM-4.1-3.371A4.159,4.159,0,0,1-4.808-.8,2.334,2.334,0,0,1-6.776.127,2.144,2.144,0,0,1-8.56-.73L-8.642,0h-1.65V-9.75h1.834v3.5A2.089,2.089,0,0,1-6.789-7a2.353,2.353,0,0,1,1.971.924,4.165,4.165,0,0,1,.714,2.6Zm-1.834-.14a2.747,2.747,0,0,0-.33-1.525,1.115,1.115,0,0,0-.984-.481A1.21,1.21,0,0,0-8.458-4.8v2.719a1.226,1.226,0,0,0,1.219.726,1.133,1.133,0,0,0,1.168-.879A4.546,4.546,0,0,0-5.938-3.51ZM.885-5.148A4.984,4.984,0,0,0,.225-5.2a1.344,1.344,0,0,0-1.365.7V0H-2.974V-6.868h1.733l.051.819A1.7,1.7,0,0,1,.34-7a1.922,1.922,0,0,1,.571.083ZM5.557,0a2.037,2.037,0,0,1-.184-.616A2.22,2.22,0,0,1,3.64.127,2.439,2.439,0,0,1,1.968-.457,1.878,1.878,0,0,1,1.3-1.93a1.941,1.941,0,0,1,.809-1.676A3.994,3.994,0,0,1,4.453-4.2H5.3v-.394a1.132,1.132,0,0,0-.244-.762.961.961,0,0,0-.771-.286,1.093,1.093,0,0,0-.727.222.755.755,0,0,0-.263.609H1.457a1.843,1.843,0,0,1,.368-1.1,2.434,2.434,0,0,1,1.041-.8A3.794,3.794,0,0,1,4.377-7a3,3,0,0,1,2.015.638,2.232,2.232,0,0,1,.746,1.793v2.977A3.284,3.284,0,0,0,7.411-.108V0ZM4.04-1.276a1.58,1.58,0,0,0,.749-.181A1.188,1.188,0,0,0,5.3-1.942V-3.123H4.612q-1.377,0-1.466.952l-.006.108A.734.734,0,0,0,3.38-1.5.937.937,0,0,0,4.04-1.276Zm4.24-2.209A4.025,4.025,0,0,1,9.033-6.03,2.437,2.437,0,0,1,11.061-7a2.138,2.138,0,0,1,1.758.774l.076-.647h1.663v6.64a2.935,2.935,0,0,1-.409,1.568A2.629,2.629,0,0,1,13,2.355a4.05,4.05,0,0,1-1.739.349,3.766,3.766,0,0,1-1.473-.3A2.614,2.614,0,0,1,8.7,1.625L9.512.508a2.149,2.149,0,0,0,1.663.768,1.573,1.573,0,0,0,1.136-.39,1.464,1.464,0,0,0,.406-1.108V-.59a2.122,2.122,0,0,1-1.669.717,2.431,2.431,0,0,1-2-.968,4.024,4.024,0,0,1-.765-2.568Zm1.834.131a2.52,2.52,0,0,0,.375,1.47,1.19,1.19,0,0,0,1.028.532,1.273,1.273,0,0,0,1.2-.631v-2.9a1.27,1.27,0,0,0-1.187-.631,1.2,1.2,0,0,0-1.038.542A2.841,2.841,0,0,0,10.115-3.354ZM20.081-.7A2.3,2.3,0,0,1,18.2.127a2.17,2.17,0,0,1-1.685-.635,2.71,2.71,0,0,1-.594-1.86v-4.5h1.834v4.442q0,1.074.978,1.074A1.325,1.325,0,0,0,20.017-2V-6.868h1.841V0H20.132ZM26.4.127A3.372,3.372,0,0,1,23.943-.8a3.294,3.294,0,0,1-.949-2.469v-.178a4.149,4.149,0,0,1,.4-1.85,2.935,2.935,0,0,1,1.133-1.257A3.18,3.18,0,0,1,26.2-7a2.85,2.85,0,0,1,2.219.889,3.611,3.611,0,0,1,.809,2.52v.749H24.854a1.7,1.7,0,0,0,.536,1.079,1.621,1.621,0,0,0,1.133.406A1.98,1.98,0,0,0,28.18-2.12l.9,1.009A2.754,2.754,0,0,1,27.965-.2,3.665,3.665,0,0,1,26.4.127Zm-.209-5.643a1.146,1.146,0,0,0-.885.37,1.915,1.915,0,0,0-.435,1.058h2.552v-.147a1.366,1.366,0,0,0-.33-.947A1.183,1.183,0,0,0,26.194-5.516Z" transform="translate(966.051 2043)" fill="#12263f"/>
    <path id="Trazado_901250" data-name="Trazado 901250" d="M-28.507-7.7h-2.831V0h-1.9V-7.7h-2.793V-9.242h7.528ZM-24.1-5.148a4.984,4.984,0,0,0-.66-.051,1.344,1.344,0,0,0-1.365.7V0h-1.834V-6.868h1.733l.051.819A1.7,1.7,0,0,1-24.642-7a1.922,1.922,0,0,1,.571.083ZM-19.424,0a2.037,2.037,0,0,1-.184-.616,2.22,2.22,0,0,1-1.733.743,2.439,2.439,0,0,1-1.673-.584,1.878,1.878,0,0,1-.663-1.473,1.941,1.941,0,0,1,.809-1.676,3.994,3.994,0,0,1,2.339-.59h.844v-.394a1.132,1.132,0,0,0-.244-.762.961.961,0,0,0-.771-.286,1.093,1.093,0,0,0-.727.222.755.755,0,0,0-.263.609h-1.834a1.843,1.843,0,0,1,.368-1.1,2.434,2.434,0,0,1,1.041-.8A3.794,3.794,0,0,1-20.6-7a3,3,0,0,1,2.015.638,2.232,2.232,0,0,1,.746,1.793v2.977A3.284,3.284,0,0,0-17.57-.108V0Zm-1.517-1.276a1.58,1.58,0,0,0,.749-.181,1.188,1.188,0,0,0,.508-.486V-3.123h-.686q-1.377,0-1.466.952l-.006.108A.734.734,0,0,0-21.6-1.5.937.937,0,0,0-20.941-1.276Zm6.2-5.592.057.793A2.4,2.4,0,0,1-12.714-7a1.993,1.993,0,0,1,1.625.641,2.991,2.991,0,0,1,.546,1.917V0h-1.834V-4.4a1.2,1.2,0,0,0-.254-.849,1.135,1.135,0,0,0-.844-.264,1.261,1.261,0,0,0-1.162.662V0h-1.834V-6.868ZM-5.434-1.9a.591.591,0,0,0-.333-.53,3.785,3.785,0,0,0-1.07-.346q-2.45-.514-2.45-2.082a1.887,1.887,0,0,1,.759-1.527A3.06,3.06,0,0,1-6.544-7a3.293,3.293,0,0,1,2.092.616,1.94,1.94,0,0,1,.784,1.6H-5.5a.888.888,0,0,0-.254-.651,1.075,1.075,0,0,0-.793-.257,1.1,1.1,0,0,0-.717.209.661.661,0,0,0-.254.533.565.565,0,0,0,.289.492,2.971,2.971,0,0,0,.974.324A7.958,7.958,0,0,1-5.1-3.821,1.9,1.9,0,0,1-3.65-1.974a1.792,1.792,0,0,1-.806,1.52A3.478,3.478,0,0,1-6.538.127,3.632,3.632,0,0,1-8.071-.181a2.572,2.572,0,0,1-1.051-.844A1.962,1.962,0,0,1-9.5-2.184h1.739a.958.958,0,0,0,.362.749,1.435,1.435,0,0,0,.9.26,1.328,1.328,0,0,0,.8-.2A.622.622,0,0,0-5.434-1.9Zm4.685-4.97.057.768A2.414,2.414,0,0,1,1.282-7,1.832,1.832,0,0,1,3.1-5.948,2.358,2.358,0,0,1,5.167-7a2.049,2.049,0,0,1,1.663.651,2.991,2.991,0,0,1,.546,1.958V0H5.535V-4.39a1.313,1.313,0,0,0-.229-.856,1.011,1.011,0,0,0-.806-.27,1.145,1.145,0,0,0-1.143.789L3.364,0H1.53V-4.384a1.3,1.3,0,0,0-.235-.865,1.021,1.021,0,0,0-.8-.267,1.188,1.188,0,0,0-1.13.649V0H-2.469V-6.868ZM10.721,0H8.88V-6.868h1.841ZM8.772-8.646a.9.9,0,0,1,.276-.679A1.037,1.037,0,0,1,9.8-9.591a1.04,1.04,0,0,1,.749.267.9.9,0,0,1,.279.679.9.9,0,0,1-.282.686,1.042,1.042,0,0,1-.746.267,1.042,1.042,0,0,1-.746-.267A.9.9,0,0,1,8.772-8.646ZM15.952-1.9a.591.591,0,0,0-.333-.53,3.785,3.785,0,0,0-1.07-.346Q12.1-3.288,12.1-4.856a1.887,1.887,0,0,1,.759-1.527A3.06,3.06,0,0,1,14.841-7a3.293,3.293,0,0,1,2.092.616,1.94,1.94,0,0,1,.784,1.6H15.882a.888.888,0,0,0-.254-.651,1.075,1.075,0,0,0-.793-.257,1.1,1.1,0,0,0-.717.209.661.661,0,0,0-.254.533.565.565,0,0,0,.289.492,2.971,2.971,0,0,0,.974.324,7.959,7.959,0,0,1,1.155.308,1.9,1.9,0,0,1,1.454,1.847,1.792,1.792,0,0,1-.806,1.52,3.478,3.478,0,0,1-2.082.581,3.632,3.632,0,0,1-1.533-.308,2.572,2.572,0,0,1-1.051-.844,1.962,1.962,0,0,1-.381-1.158h1.739a.958.958,0,0,0,.362.749,1.435,1.435,0,0,0,.9.26,1.328,1.328,0,0,0,.8-.2A.622.622,0,0,0,15.952-1.9Zm4.9,1.9H19.011V-6.868h1.841ZM18.9-8.646a.9.9,0,0,1,.276-.679,1.037,1.037,0,0,1,.752-.267,1.04,1.04,0,0,1,.749.267.9.9,0,0,1,.279.679.9.9,0,0,1-.282.686,1.042,1.042,0,0,1-.746.267,1.042,1.042,0,0,1-.746-.267A.9.9,0,0,1,18.9-8.646ZM22.077-3.5a4.073,4.073,0,0,1,.394-1.822A2.881,2.881,0,0,1,23.6-6.557,3.306,3.306,0,0,1,25.321-7a3.127,3.127,0,0,1,2.269.851,3.414,3.414,0,0,1,.981,2.311l.013.47A3.59,3.59,0,0,1,27.7-.828a3.067,3.067,0,0,1-2.368.955,3.082,3.082,0,0,1-2.371-.952,3.653,3.653,0,0,1-.885-2.59Zm1.834.13a2.567,2.567,0,0,0,.368,1.5,1.215,1.215,0,0,0,1.054.518,1.217,1.217,0,0,0,1.041-.512A2.809,2.809,0,0,0,26.749-3.5a2.542,2.542,0,0,0-.375-1.488,1.217,1.217,0,0,0-1.054-.528,1.2,1.2,0,0,0-1.041.524A2.857,2.857,0,0,0,23.912-3.367ZM25.683-9.75h2L25.924-7.782H24.432ZM31.4-6.868l.057.793A2.4,2.4,0,0,1,33.433-7a1.993,1.993,0,0,1,1.625.641A2.991,2.991,0,0,1,35.6-4.437V0H33.77V-4.4a1.2,1.2,0,0,0-.254-.849,1.135,1.135,0,0,0-.844-.264,1.261,1.261,0,0,0-1.162.662V0H29.675V-6.868Z" transform="translate(1000.051 1945)" fill="#12263f"/>
    <path id="Trazado_901251" data-name="Trazado 901251" d="M-24.835-4.018h-3.656V-1.53H-24.2V0h-6.2V-9.242h6.183V-7.7h-4.278v2.2h3.656Zm3.574-2.85V.375a2.457,2.457,0,0,1-.6,1.768,2.292,2.292,0,0,1-1.739.632,3.73,3.73,0,0,1-.908-.108V1.212a3.444,3.444,0,0,0,.578.057q.832,0,.832-.882V-6.868Zm-1.987-1.777a.9.9,0,0,1,.276-.679,1.037,1.037,0,0,1,.752-.267,1.037,1.037,0,0,1,.752.267.9.9,0,0,1,.276.679.9.9,0,0,1-.282.686,1.042,1.042,0,0,1-.746.267,1.042,1.042,0,0,1-.746-.267A.9.9,0,0,1-23.248-8.646ZM-16.666.127A3.372,3.372,0,0,1-19.125-.8a3.294,3.294,0,0,1-.949-2.469v-.178a4.149,4.149,0,0,1,.4-1.85,2.935,2.935,0,0,1,1.133-1.257A3.18,3.18,0,0,1-16.869-7a2.85,2.85,0,0,1,2.219.889,3.611,3.611,0,0,1,.809,2.52v.749h-4.374a1.7,1.7,0,0,0,.536,1.079,1.621,1.621,0,0,0,1.133.406,1.98,1.98,0,0,0,1.657-.768l.9,1.009A2.754,2.754,0,0,1-15.1-.2,3.665,3.665,0,0,1-16.666.127Zm-.209-5.643a1.146,1.146,0,0,0-.885.37A1.915,1.915,0,0,0-18.2-4.088h2.552v-.147a1.366,1.366,0,0,0-.33-.947A1.183,1.183,0,0,0-16.875-5.516Zm9.509-3.041v1.688h1.174v1.346H-7.366v3.428a.818.818,0,0,0,.146.546.733.733,0,0,0,.559.165,2.925,2.925,0,0,0,.54-.044v1.39A3.777,3.777,0,0,1-7.233.127,1.752,1.752,0,0,1-9.2-1.822v-3.7h-1V-6.868h1V-8.557Zm6.056,3.409a4.984,4.984,0,0,0-.66-.051,1.344,1.344,0,0,0-1.365.7V0H-5.17V-6.868h1.733l.051.819A1.7,1.7,0,0,1-1.857-7a1.922,1.922,0,0,1,.571.083ZM3.361,0a2.037,2.037,0,0,1-.184-.616A2.22,2.22,0,0,1,1.444.127,2.439,2.439,0,0,1-.229-.457,1.878,1.878,0,0,1-.892-1.93,1.941,1.941,0,0,1-.083-3.605,3.994,3.994,0,0,1,2.257-4.2H3.1v-.394a1.132,1.132,0,0,0-.244-.762.961.961,0,0,0-.771-.286,1.093,1.093,0,0,0-.727.222.755.755,0,0,0-.263.609H-.74a1.843,1.843,0,0,1,.368-1.1,2.434,2.434,0,0,1,1.041-.8A3.794,3.794,0,0,1,2.18-7,3,3,0,0,1,4.2-6.357a2.232,2.232,0,0,1,.746,1.793v2.977A3.284,3.284,0,0,0,5.215-.108V0ZM1.844-1.276a1.58,1.58,0,0,0,.749-.181A1.188,1.188,0,0,0,3.1-1.942V-3.123H2.415q-1.377,0-1.466.952l-.006.108a.734.734,0,0,0,.241.565A.937.937,0,0,0,1.844-1.276ZM10.071-1.9a.591.591,0,0,0-.333-.53,3.785,3.785,0,0,0-1.07-.346q-2.45-.514-2.45-2.082a1.887,1.887,0,0,1,.759-1.527A3.06,3.06,0,0,1,8.96-7a3.293,3.293,0,0,1,2.092.616,1.94,1.94,0,0,1,.784,1.6H10a.888.888,0,0,0-.254-.651,1.075,1.075,0,0,0-.793-.257,1.1,1.1,0,0,0-.717.209.661.661,0,0,0-.254.533.565.565,0,0,0,.289.492,2.971,2.971,0,0,0,.974.324,7.959,7.959,0,0,1,1.155.308,1.9,1.9,0,0,1,1.454,1.847,1.792,1.792,0,0,1-.806,1.52A3.478,3.478,0,0,1,8.966.127,3.632,3.632,0,0,1,7.433-.181a2.572,2.572,0,0,1-1.051-.844A1.962,1.962,0,0,1,6-2.184H7.741a.958.958,0,0,0,.362.749,1.435,1.435,0,0,0,.9.26,1.328,1.328,0,0,0,.8-.2A.622.622,0,0,0,10.071-1.9ZM16.2.127A3.372,3.372,0,0,1,13.736-.8a3.294,3.294,0,0,1-.949-2.469v-.178a4.149,4.149,0,0,1,.4-1.85A2.935,2.935,0,0,1,14.32-6.554,3.18,3.18,0,0,1,15.993-7a2.85,2.85,0,0,1,2.219.889,3.611,3.611,0,0,1,.809,2.52v.749H14.647a1.7,1.7,0,0,0,.536,1.079,1.621,1.621,0,0,0,1.133.406,1.98,1.98,0,0,0,1.657-.768l.9,1.009A2.754,2.754,0,0,1,17.758-.2,3.665,3.665,0,0,1,16.2.127Zm-.209-5.643a1.146,1.146,0,0,0-.885.37,1.915,1.915,0,0,0-.435,1.058h2.552v-.147a1.366,1.366,0,0,0-.33-.947A1.183,1.183,0,0,0,15.987-5.516Zm7.935.368a4.984,4.984,0,0,0-.66-.051,1.344,1.344,0,0,0-1.365.7V0H20.062V-6.868h1.733l.051.819A1.7,1.7,0,0,1,23.375-7a1.922,1.922,0,0,1,.571.083Zm.368,1.65a4.073,4.073,0,0,1,.394-1.822,2.881,2.881,0,0,1,1.133-1.238A3.306,3.306,0,0,1,27.533-7a3.127,3.127,0,0,1,2.269.851,3.414,3.414,0,0,1,.981,2.311l.013.47a3.59,3.59,0,0,1-.882,2.536,3.067,3.067,0,0,1-2.368.955,3.082,3.082,0,0,1-2.371-.952,3.653,3.653,0,0,1-.885-2.59Zm1.834.13a2.567,2.567,0,0,0,.368,1.5,1.215,1.215,0,0,0,1.054.518,1.217,1.217,0,0,0,1.041-.512A2.809,2.809,0,0,0,28.961-3.5a2.542,2.542,0,0,0-.375-1.488,1.217,1.217,0,0,0-1.054-.528,1.2,1.2,0,0,0-1.041.524A2.857,2.857,0,0,0,26.124-3.367Z" transform="translate(1060.051 1905)" fill="#12263f"/>
    <path id="Trazado_901252" data-name="Trazado 901252" d="M-30.675,0V-9.242h2.844a4.319,4.319,0,0,1,2.18.549,3.829,3.829,0,0,1,1.5,1.562,4.816,4.816,0,0,1,.54,2.3v.425a4.83,4.83,0,0,1-.53,2.292A3.8,3.8,0,0,1-25.635-.559,4.351,4.351,0,0,1-27.812,0Zm1.9-7.7v6.17h.92a2.068,2.068,0,0,0,1.708-.73,3.3,3.3,0,0,0,.6-2.088v-.489a3.351,3.351,0,0,0-.584-2.136A2.061,2.061,0,0,0-27.831-7.7Zm8.36,7.7h-1.841V-6.868h1.841ZM-22.36-8.646a.9.9,0,0,1,.276-.679,1.037,1.037,0,0,1,.752-.267,1.04,1.04,0,0,1,.749.267.9.9,0,0,1,.279.679.9.9,0,0,1-.282.686,1.042,1.042,0,0,1-.746.267,1.042,1.042,0,0,1-.746-.267A.9.9,0,0,1-22.36-8.646ZM-18.4,0V-5.522h-1.022V-6.868H-18.4v-.584a2.371,2.371,0,0,1,.663-1.793,2.569,2.569,0,0,1,1.857-.638,4.324,4.324,0,0,1,.933.126l-.019,1.41a2.339,2.339,0,0,0-.559-.057q-1.035,0-1.035.979v.557h1.365v1.346h-1.365V0Zm7.167.127A3.372,3.372,0,0,1-13.692-.8a3.294,3.294,0,0,1-.949-2.469v-.178a4.149,4.149,0,0,1,.4-1.85,2.935,2.935,0,0,1,1.133-1.257A3.18,3.18,0,0,1-11.435-7a2.85,2.85,0,0,1,2.219.889,3.611,3.611,0,0,1,.809,2.52v.749h-4.374a1.7,1.7,0,0,0,.536,1.079,1.621,1.621,0,0,0,1.133.406A1.98,1.98,0,0,0-9.455-2.12l.9,1.009A2.754,2.754,0,0,1-9.671-.2,3.665,3.665,0,0,1-11.232.127Zm-.209-5.643a1.146,1.146,0,0,0-.885.37,1.915,1.915,0,0,0-.435,1.058h2.552v-.147a1.366,1.366,0,0,0-.33-.947A1.183,1.183,0,0,0-11.442-5.516Zm7.935.368a4.984,4.984,0,0,0-.66-.051,1.344,1.344,0,0,0-1.365.7V0H-7.366V-6.868h1.733l.051.819A1.7,1.7,0,0,1-4.053-7a1.922,1.922,0,0,1,.571.083ZM.416.127A3.372,3.372,0,0,1-2.044-.8a3.294,3.294,0,0,1-.949-2.469v-.178a4.149,4.149,0,0,1,.4-1.85A2.935,2.935,0,0,1-1.46-6.554,3.18,3.18,0,0,1,.213-7a2.85,2.85,0,0,1,2.219.889,3.611,3.611,0,0,1,.809,2.52v.749H-1.133A1.7,1.7,0,0,0-.6-1.758a1.621,1.621,0,0,0,1.133.406A1.98,1.98,0,0,0,2.193-2.12l.9,1.009A2.754,2.754,0,0,1,1.977-.2,3.665,3.665,0,0,1,.416.127ZM.206-5.516a1.146,1.146,0,0,0-.885.37,1.915,1.915,0,0,0-.435,1.058H1.438v-.147a1.366,1.366,0,0,0-.33-.947A1.183,1.183,0,0,0,.206-5.516ZM5.97-6.868l.057.793A2.4,2.4,0,0,1,8-7a1.993,1.993,0,0,1,1.625.641,2.991,2.991,0,0,1,.546,1.917V0H8.338V-4.4a1.2,1.2,0,0,0-.254-.849,1.135,1.135,0,0,0-.844-.264,1.261,1.261,0,0,0-1.162.662V0H4.243V-6.868Zm8.449,5.516a1.2,1.2,0,0,0,.825-.279.979.979,0,0,0,.33-.743h1.72a2.353,2.353,0,0,1-.381,1.279,2.513,2.513,0,0,1-1.025.9A3.208,3.208,0,0,1,14.45.127a2.982,2.982,0,0,1-2.323-.936A3.705,3.705,0,0,1,11.277-3.4v-.121a3.663,3.663,0,0,1,.844-2.533A2.947,2.947,0,0,1,14.438-7a2.889,2.889,0,0,1,2.066.733,2.6,2.6,0,0,1,.79,1.952h-1.72a1.261,1.261,0,0,0-.33-.871,1.1,1.1,0,0,0-.838-.335,1.1,1.1,0,0,0-.968.467,2.708,2.708,0,0,0-.327,1.516v.191a2.742,2.742,0,0,0,.324,1.526A1.119,1.119,0,0,0,14.419-1.352ZM20.278,0H18.437V-6.868h1.841ZM18.329-8.646a.9.9,0,0,1,.276-.679,1.037,1.037,0,0,1,.752-.267,1.04,1.04,0,0,1,.749.267.9.9,0,0,1,.279.679.9.9,0,0,1-.282.686,1.042,1.042,0,0,1-.746.267,1.042,1.042,0,0,1-.746-.267A.9.9,0,0,1,18.329-8.646ZM25.768,0a2.037,2.037,0,0,1-.184-.616,2.22,2.22,0,0,1-1.733.743,2.439,2.439,0,0,1-1.673-.584,1.878,1.878,0,0,1-.663-1.473,1.941,1.941,0,0,1,.809-1.676,3.994,3.994,0,0,1,2.339-.59h.844v-.394a1.132,1.132,0,0,0-.244-.762.961.961,0,0,0-.771-.286,1.093,1.093,0,0,0-.727.222.755.755,0,0,0-.263.609H21.668a1.843,1.843,0,0,1,.368-1.1,2.434,2.434,0,0,1,1.041-.8A3.794,3.794,0,0,1,24.588-7a3,3,0,0,1,2.015.638,2.232,2.232,0,0,1,.746,1.793v2.977a3.284,3.284,0,0,0,.273,1.479V0ZM24.251-1.276A1.58,1.58,0,0,0,25-1.457a1.188,1.188,0,0,0,.508-.486V-3.123h-.686q-1.377,0-1.466.952l-.006.108a.734.734,0,0,0,.241.565A.937.937,0,0,0,24.251-1.276ZM30.694,0H28.853V-9.75h1.841Z" transform="translate(1273.051 1941)" fill="#12263f"/>
    <path id="Trazado_901253" data-name="Trazado 901253" d="M-16.967-3.079a3.27,3.27,0,0,1-1.1,2.349,3.868,3.868,0,0,1-2.618.857,3.478,3.478,0,0,1-2.8-1.2A4.906,4.906,0,0,1-24.5-4.354v-.565a5.54,5.54,0,0,1,.47-2.349A3.52,3.52,0,0,1-22.69-8.826a3.761,3.761,0,0,1,2.028-.543,3.768,3.768,0,0,1,2.577.857,3.515,3.515,0,0,1,1.13,2.406h-1.9a1.93,1.93,0,0,0-.5-1.3,1.845,1.845,0,0,0-1.3-.4,1.618,1.618,0,0,0-1.425.682,3.824,3.824,0,0,0-.486,2.117v.7a4.093,4.093,0,0,0,.454,2.19,1.588,1.588,0,0,0,1.431.692,1.88,1.88,0,0,0,1.317-.4,1.821,1.821,0,0,0,.5-1.247ZM-11.857,0a2.037,2.037,0,0,1-.184-.616,2.22,2.22,0,0,1-1.733.743,2.439,2.439,0,0,1-1.673-.584A1.878,1.878,0,0,1-16.11-1.93,1.941,1.941,0,0,1-15.3-3.605a3.994,3.994,0,0,1,2.339-.59h.844v-.394a1.132,1.132,0,0,0-.244-.762.961.961,0,0,0-.771-.286,1.093,1.093,0,0,0-.727.222.755.755,0,0,0-.263.609h-1.834a1.843,1.843,0,0,1,.368-1.1,2.434,2.434,0,0,1,1.041-.8A3.794,3.794,0,0,1-13.038-7a3,3,0,0,1,2.015.638,2.232,2.232,0,0,1,.746,1.793v2.977A3.284,3.284,0,0,0-10-.108V0Zm-1.517-1.276a1.58,1.58,0,0,0,.749-.181,1.188,1.188,0,0,0,.508-.486V-3.123H-12.8q-1.377,0-1.466.952l-.006.108a.734.734,0,0,0,.241.565A.937.937,0,0,0-13.375-1.276Zm6.449-5.592V.375a2.457,2.457,0,0,1-.6,1.768,2.292,2.292,0,0,1-1.739.632,3.73,3.73,0,0,1-.908-.108V1.212A3.444,3.444,0,0,0-9.6,1.27q.832,0,.832-.882V-6.868ZM-8.912-8.646a.9.9,0,0,1,.276-.679,1.037,1.037,0,0,1,.752-.267,1.037,1.037,0,0,1,.752.267.9.9,0,0,1,.276.679.9.9,0,0,1-.282.686,1.042,1.042,0,0,1-.746.267A1.042,1.042,0,0,1-8.63-7.96.9.9,0,0,1-8.912-8.646ZM-1.511,0a2.037,2.037,0,0,1-.184-.616A2.22,2.22,0,0,1-3.428.127,2.439,2.439,0,0,1-5.1-.457,1.878,1.878,0,0,1-5.764-1.93a1.941,1.941,0,0,1,.809-1.676A3.994,3.994,0,0,1-2.615-4.2h.844v-.394a1.132,1.132,0,0,0-.244-.762.961.961,0,0,0-.771-.286,1.093,1.093,0,0,0-.727.222.755.755,0,0,0-.263.609H-5.611a1.843,1.843,0,0,1,.368-1.1,2.434,2.434,0,0,1,1.041-.8A3.794,3.794,0,0,1-2.691-7a3,3,0,0,1,2.015.638A2.232,2.232,0,0,1,.07-4.564v2.977A3.284,3.284,0,0,0,.343-.108V0ZM-3.028-1.276a1.58,1.58,0,0,0,.749-.181,1.188,1.188,0,0,0,.508-.486V-3.123h-.686q-1.377,0-1.466.952l-.006.108a.734.734,0,0,0,.241.565A.937.937,0,0,0-3.028-1.276ZM4.431-3.485a4.139,4.139,0,0,1,.72-2.558A2.338,2.338,0,0,1,7.122-7a2.1,2.1,0,0,1,1.657.749v-3.5H10.62V0H8.963L8.874-.73A2.159,2.159,0,0,1,7.109.127,2.331,2.331,0,0,1,5.164-.828,4.272,4.272,0,0,1,4.431-3.485Zm1.834.131A2.726,2.726,0,0,0,6.6-1.869a1.1,1.1,0,0,0,.978.517,1.227,1.227,0,0,0,1.2-.721V-4.8a1.21,1.21,0,0,0-1.187-.721Q6.265-5.516,6.265-3.354ZM15.2.127A3.372,3.372,0,0,1,12.743-.8a3.294,3.294,0,0,1-.949-2.469v-.178a4.149,4.149,0,0,1,.4-1.85,2.935,2.935,0,0,1,1.133-1.257A3.18,3.18,0,0,1,15-7a2.85,2.85,0,0,1,2.219.889,3.611,3.611,0,0,1,.809,2.52v.749H13.654a1.7,1.7,0,0,0,.536,1.079,1.621,1.621,0,0,0,1.133.406A1.98,1.98,0,0,0,16.98-2.12l.9,1.009A2.754,2.754,0,0,1,16.764-.2,3.665,3.665,0,0,1,15.2.127Zm-.209-5.643a1.146,1.146,0,0,0-.885.37,1.915,1.915,0,0,0-.435,1.058h2.552v-.147a1.366,1.366,0,0,0-.33-.947A1.183,1.183,0,0,0,14.993-5.516ZM21,0H19.164V-9.75H21ZM-27.212,13.127a3.372,3.372,0,0,1-2.46-.927,3.294,3.294,0,0,1-.949-2.469V9.553a4.149,4.149,0,0,1,.4-1.85,2.935,2.935,0,0,1,1.133-1.257A3.18,3.18,0,0,1-27.416,6a2.85,2.85,0,0,1,2.219.889,3.611,3.611,0,0,1,.809,2.52v.749h-4.374a1.7,1.7,0,0,0,.536,1.079,1.621,1.621,0,0,0,1.133.406,1.98,1.98,0,0,0,1.657-.768l.9,1.009a2.754,2.754,0,0,1-1.117.911A3.665,3.665,0,0,1-27.212,13.127Zm-.209-5.643a1.146,1.146,0,0,0-.885.37,1.915,1.915,0,0,0-.435,1.058h2.552V8.765a1.366,1.366,0,0,0-.33-.947A1.183,1.183,0,0,0-27.422,7.484ZM-21.4,6.132v7.243a2.457,2.457,0,0,1-.6,1.768,2.292,2.292,0,0,1-1.739.632,3.73,3.73,0,0,1-.908-.108V14.212a3.444,3.444,0,0,0,.578.057q.832,0,.832-.882V6.132Zm-1.987-1.777a.9.9,0,0,1,.276-.679,1.037,1.037,0,0,1,.752-.267,1.037,1.037,0,0,1,.752.267.9.9,0,0,1,.276.679.9.9,0,0,1-.282.686,1.042,1.042,0,0,1-.746.267,1.042,1.042,0,0,1-.746-.267A.9.9,0,0,1-23.391,4.354Zm6.583,8.772a3.372,3.372,0,0,1-2.46-.927,3.294,3.294,0,0,1-.949-2.469V9.553a4.149,4.149,0,0,1,.4-1.85,2.935,2.935,0,0,1,1.133-1.257A3.18,3.18,0,0,1-17.012,6a2.85,2.85,0,0,1,2.219.889,3.611,3.611,0,0,1,.809,2.52v.749h-4.374a1.7,1.7,0,0,0,.536,1.079,1.621,1.621,0,0,0,1.133.406,1.98,1.98,0,0,0,1.657-.768l.9,1.009a2.754,2.754,0,0,1-1.117.911A3.665,3.665,0,0,1-16.809,13.127Zm-.209-5.643a1.146,1.146,0,0,0-.885.37,1.915,1.915,0,0,0-.435,1.058h2.552V8.765a1.366,1.366,0,0,0-.33-.947A1.183,1.183,0,0,0-17.018,7.484Zm9.509-3.041V6.132h1.174V7.478H-7.509v3.428a.818.818,0,0,0,.146.546.733.733,0,0,0,.559.165,2.926,2.926,0,0,0,.54-.044v1.39a3.777,3.777,0,0,1-1.111.165,1.752,1.752,0,0,1-1.968-1.949v-3.7h-1V6.132h1V4.443Zm6.056,3.409a4.984,4.984,0,0,0-.66-.051,1.344,1.344,0,0,0-1.365.7V13H-5.313V6.132H-3.58l.051.819A1.7,1.7,0,0,1-2,6a1.922,1.922,0,0,1,.571.083ZM3.218,13a2.037,2.037,0,0,1-.184-.616,2.22,2.22,0,0,1-1.733.743,2.439,2.439,0,0,1-1.673-.584,1.878,1.878,0,0,1-.663-1.473A1.941,1.941,0,0,1-.225,9.395,3.994,3.994,0,0,1,2.114,8.8h.844V8.411a1.132,1.132,0,0,0-.244-.762.961.961,0,0,0-.771-.286,1.093,1.093,0,0,0-.727.222.755.755,0,0,0-.263.609H-.882a1.843,1.843,0,0,1,.368-1.1,2.434,2.434,0,0,1,1.041-.8A3.794,3.794,0,0,1,2.038,6a3,3,0,0,1,2.015.638A2.232,2.232,0,0,1,4.8,8.436v2.977a3.284,3.284,0,0,0,.273,1.479V13ZM1.7,11.724a1.58,1.58,0,0,0,.749-.181,1.188,1.188,0,0,0,.508-.486V9.877H2.272q-1.377,0-1.466.952L.8,10.937a.734.734,0,0,0,.241.565A.937.937,0,0,0,1.7,11.724ZM9.928,11.1a.591.591,0,0,0-.333-.53,3.785,3.785,0,0,0-1.07-.346q-2.45-.514-2.45-2.082a1.887,1.887,0,0,1,.759-1.527A3.06,3.06,0,0,1,8.817,6a3.293,3.293,0,0,1,2.092.616,1.94,1.94,0,0,1,.784,1.6H9.858A.888.888,0,0,0,9.6,7.57a1.075,1.075,0,0,0-.793-.257,1.1,1.1,0,0,0-.717.209.661.661,0,0,0-.254.533.565.565,0,0,0,.289.492,2.971,2.971,0,0,0,.974.324,7.958,7.958,0,0,1,1.155.308,1.9,1.9,0,0,1,1.454,1.847,1.792,1.792,0,0,1-.806,1.52,3.478,3.478,0,0,1-2.082.581,3.632,3.632,0,0,1-1.533-.308,2.572,2.572,0,0,1-1.051-.844,1.962,1.962,0,0,1-.381-1.158H7.6a.958.958,0,0,0,.362.749,1.435,1.435,0,0,0,.9.26,1.328,1.328,0,0,0,.8-.2A.622.622,0,0,0,9.928,11.1Zm6.125,2.025a3.372,3.372,0,0,1-2.46-.927,3.294,3.294,0,0,1-.949-2.469V9.553a4.149,4.149,0,0,1,.4-1.85,2.935,2.935,0,0,1,1.133-1.257A3.18,3.18,0,0,1,15.85,6a2.85,2.85,0,0,1,2.219.889,3.611,3.611,0,0,1,.809,2.52v.749H14.5a1.7,1.7,0,0,0,.536,1.079,1.621,1.621,0,0,0,1.133.406,1.98,1.98,0,0,0,1.657-.768l.9,1.009a2.754,2.754,0,0,1-1.117.911A3.665,3.665,0,0,1,16.053,13.127Zm-.209-5.643a1.146,1.146,0,0,0-.885.37,1.915,1.915,0,0,0-.435,1.058h2.552V8.765a1.366,1.366,0,0,0-.33-.947A1.183,1.183,0,0,0,15.844,7.484Zm7.935.368a4.984,4.984,0,0,0-.66-.051,1.344,1.344,0,0,0-1.365.7V13H19.919V6.132h1.733l.051.819A1.7,1.7,0,0,1,23.232,6a1.922,1.922,0,0,1,.571.083Zm.368,1.65a4.073,4.073,0,0,1,.394-1.822,2.881,2.881,0,0,1,1.133-1.238A3.306,3.306,0,0,1,27.39,6a3.127,3.127,0,0,1,2.269.851,3.414,3.414,0,0,1,.981,2.311l.013.47a3.59,3.59,0,0,1-.882,2.536,3.067,3.067,0,0,1-2.368.955,3.082,3.082,0,0,1-2.371-.952,3.653,3.653,0,0,1-.885-2.59Zm1.834.13a2.567,2.567,0,0,0,.368,1.5,1.323,1.323,0,0,0,2.095.006A2.809,2.809,0,0,0,28.818,9.5a2.542,2.542,0,0,0-.375-1.488,1.217,1.217,0,0,0-1.054-.528,1.2,1.2,0,0,0-1.041.524A2.857,2.857,0,0,0,25.981,9.633Z" transform="translate(1284.051 2063)" fill="#12263f"/>
    <path id="Trazado_901249" data-name="Trazado 901249" d="M-20.173-1.9h-3.339L-24.146,0h-2.025l3.44-9.242h1.765L-17.507,0h-2.025ZM-23-3.447h2.311l-1.162-3.459Zm1.542-8.271h2L-21.214-9.75h-1.492Zm8.55,6.57a4.984,4.984,0,0,0-.66-.051,1.344,1.344,0,0,0-1.365.7V0h-1.834V-6.868h1.733l.051.819A1.7,1.7,0,0,1-13.451-7a1.922,1.922,0,0,1,.571.083Zm7.071,1.777A4.159,4.159,0,0,1-6.538-.8,2.334,2.334,0,0,1-8.506.127,2.144,2.144,0,0,1-10.29-.73l-.083.73h-1.65V-9.75h1.834v3.5A2.089,2.089,0,0,1-8.519-7a2.353,2.353,0,0,1,1.971.924,4.165,4.165,0,0,1,.714,2.6Zm-1.834-.14A2.747,2.747,0,0,0-8-5.035a1.115,1.115,0,0,0-.984-.481,1.21,1.21,0,0,0-1.206.719v2.719a1.226,1.226,0,0,0,1.219.726A1.133,1.133,0,0,0-7.8-2.231,4.546,4.546,0,0,0-7.668-3.51Zm2.679.013A4.073,4.073,0,0,1-4.6-5.319,2.881,2.881,0,0,1-3.463-6.557,3.306,3.306,0,0,1-1.746-7a3.127,3.127,0,0,1,2.269.851A3.414,3.414,0,0,1,1.5-3.834l.013.47A3.59,3.59,0,0,1,.635-.828,3.067,3.067,0,0,1-1.733.127,3.082,3.082,0,0,1-4.1-.825a3.653,3.653,0,0,1-.885-2.59Zm1.834.13a2.567,2.567,0,0,0,.368,1.5,1.215,1.215,0,0,0,1.054.518A1.217,1.217,0,0,0-.692-1.864,2.809,2.809,0,0,0-.317-3.5,2.542,2.542,0,0,0-.692-4.988a1.217,1.217,0,0,0-1.054-.528,1.2,1.2,0,0,0-1.041.524A2.857,2.857,0,0,0-3.155-3.367ZM4.583,0H2.742V-9.75H4.583ZM9.045-3.485a4.139,4.139,0,0,1,.72-2.558A2.338,2.338,0,0,1,11.737-7a2.1,2.1,0,0,1,1.657.749v-3.5h1.841V0H13.578l-.089-.73a2.159,2.159,0,0,1-1.765.857A2.331,2.331,0,0,1,9.779-.828,4.272,4.272,0,0,1,9.045-3.485Zm1.834.131a2.726,2.726,0,0,0,.336,1.486,1.1,1.1,0,0,0,.978.517,1.227,1.227,0,0,0,1.2-.721V-4.8a1.21,1.21,0,0,0-1.187-.721Q10.88-5.516,10.88-3.354ZM19.817.127A3.372,3.372,0,0,1,17.358-.8a3.294,3.294,0,0,1-.949-2.469v-.178a4.149,4.149,0,0,1,.4-1.85,2.935,2.935,0,0,1,1.133-1.257A3.18,3.18,0,0,1,19.614-7a2.85,2.85,0,0,1,2.219.889,3.611,3.611,0,0,1,.809,2.52v.749H18.269A1.7,1.7,0,0,0,18.8-1.758a1.621,1.621,0,0,0,1.133.406,1.98,1.98,0,0,0,1.657-.768l.9,1.009A2.754,2.754,0,0,1,21.379-.2,3.665,3.665,0,0,1,19.817.127Zm-.209-5.643a1.146,1.146,0,0,0-.885.37,1.915,1.915,0,0,0-.435,1.058h2.552v-.147a1.366,1.366,0,0,0-.33-.947A1.183,1.183,0,0,0,19.608-5.516ZM-31.77,4.443V6.132H-30.6V7.478H-31.77v3.428a.818.818,0,0,0,.146.546.733.733,0,0,0,.559.165,2.926,2.926,0,0,0,.54-.044v1.39a3.777,3.777,0,0,1-1.111.165A1.752,1.752,0,0,1-33.6,11.178v-3.7h-1V6.132h1V4.443Zm6.056,3.409a4.984,4.984,0,0,0-.66-.051,1.344,1.344,0,0,0-1.365.7V13h-1.834V6.132h1.733l.051.819A1.7,1.7,0,0,1-26.26,6a1.922,1.922,0,0,1,.571.083ZM-21.042,13a2.037,2.037,0,0,1-.184-.616,2.22,2.22,0,0,1-1.733.743,2.439,2.439,0,0,1-1.673-.584A1.878,1.878,0,0,1-25.3,11.07a1.941,1.941,0,0,1,.809-1.676,3.994,3.994,0,0,1,2.339-.59h.844V8.411a1.132,1.132,0,0,0-.244-.762.961.961,0,0,0-.771-.286,1.093,1.093,0,0,0-.727.222.755.755,0,0,0-.263.609h-1.834a1.843,1.843,0,0,1,.368-1.1,2.434,2.434,0,0,1,1.041-.8A3.794,3.794,0,0,1-22.223,6a3,3,0,0,1,2.015.638,2.232,2.232,0,0,1,.746,1.793v2.977a3.284,3.284,0,0,0,.273,1.479V13Zm-1.517-1.276a1.58,1.58,0,0,0,.749-.181,1.188,1.188,0,0,0,.508-.486V9.877h-.686q-1.377,0-1.466.952l-.006.108a.734.734,0,0,0,.241.565A.937.937,0,0,0-22.56,11.724Zm6.2-5.592.057.793A2.4,2.4,0,0,1-14.333,6a1.993,1.993,0,0,1,1.625.641,2.991,2.991,0,0,1,.546,1.917V13H-14V8.6a1.2,1.2,0,0,0-.254-.849,1.135,1.135,0,0,0-.844-.264,1.261,1.261,0,0,0-1.162.662V13h-1.834V6.132Zm9.312,4.97a.591.591,0,0,0-.333-.53,3.785,3.785,0,0,0-1.07-.346q-2.45-.514-2.45-2.082a1.887,1.887,0,0,1,.759-1.527A3.06,3.06,0,0,1-8.163,6a3.293,3.293,0,0,1,2.092.616,1.94,1.94,0,0,1,.784,1.6H-7.122a.888.888,0,0,0-.254-.651,1.075,1.075,0,0,0-.793-.257,1.1,1.1,0,0,0-.717.209.661.661,0,0,0-.254.533.565.565,0,0,0,.289.492,2.971,2.971,0,0,0,.974.324,7.958,7.958,0,0,1,1.155.308,1.9,1.9,0,0,1,1.454,1.847,1.792,1.792,0,0,1-.806,1.52,3.478,3.478,0,0,1-2.082.581,3.632,3.632,0,0,1-1.533-.308,2.572,2.572,0,0,1-1.051-.844,1.962,1.962,0,0,1-.381-1.158h1.739a.958.958,0,0,0,.362.749,1.435,1.435,0,0,0,.9.26,1.328,1.328,0,0,0,.8-.2A.622.622,0,0,0-7.052,11.1Zm4.685-4.97.057.768A2.414,2.414,0,0,1-.336,6,1.832,1.832,0,0,1,1.485,7.052,2.358,2.358,0,0,1,3.548,6a2.049,2.049,0,0,1,1.663.651,2.991,2.991,0,0,1,.546,1.958V13H3.917V8.61a1.313,1.313,0,0,0-.229-.856,1.011,1.011,0,0,0-.806-.27,1.145,1.145,0,0,0-1.143.789L1.746,13H-.089V8.616a1.3,1.3,0,0,0-.235-.865,1.021,1.021,0,0,0-.8-.267,1.188,1.188,0,0,0-1.13.649V13H-4.088V6.132ZM9.1,13H7.262V6.132H9.1ZM7.154,4.354a.9.9,0,0,1,.276-.679,1.037,1.037,0,0,1,.752-.267,1.04,1.04,0,0,1,.749.267.9.9,0,0,1,.279.679.9.9,0,0,1-.282.686,1.042,1.042,0,0,1-.746.267,1.042,1.042,0,0,1-.746-.267A.9.9,0,0,1,7.154,4.354ZM14.333,11.1a.591.591,0,0,0-.333-.53,3.785,3.785,0,0,0-1.07-.346q-2.45-.514-2.45-2.082a1.887,1.887,0,0,1,.759-1.527A3.06,3.06,0,0,1,13.222,6a3.293,3.293,0,0,1,2.092.616,1.94,1.94,0,0,1,.784,1.6H14.263a.888.888,0,0,0-.254-.651,1.075,1.075,0,0,0-.793-.257,1.1,1.1,0,0,0-.717.209.661.661,0,0,0-.254.533.565.565,0,0,0,.289.492,2.971,2.971,0,0,0,.974.324,7.958,7.958,0,0,1,1.155.308,1.9,1.9,0,0,1,1.454,1.847,1.792,1.792,0,0,1-.806,1.52,3.478,3.478,0,0,1-2.082.581,3.632,3.632,0,0,1-1.533-.308,2.572,2.572,0,0,1-1.051-.844,1.962,1.962,0,0,1-.381-1.158H12a.958.958,0,0,0,.362.749,1.435,1.435,0,0,0,.9.26,1.328,1.328,0,0,0,.8-.2A.622.622,0,0,0,14.333,11.1Zm4.9,1.9H17.393V6.132h1.841ZM17.285,4.354a.9.9,0,0,1,.276-.679,1.19,1.19,0,0,1,1.5,0,.9.9,0,0,1,.279.679.9.9,0,0,1-.282.686,1.177,1.177,0,0,1-1.492,0A.9.9,0,0,1,17.285,4.354ZM20.458,9.5a4.073,4.073,0,0,1,.394-1.822,2.881,2.881,0,0,1,1.133-1.238A3.306,3.306,0,0,1,23.7,6a3.127,3.127,0,0,1,2.269.851,3.414,3.414,0,0,1,.981,2.311l.013.47a3.59,3.59,0,0,1-.882,2.536,3.067,3.067,0,0,1-2.368.955,3.082,3.082,0,0,1-2.371-.952,3.653,3.653,0,0,1-.885-2.59Zm1.834.13a2.567,2.567,0,0,0,.368,1.5,1.323,1.323,0,0,0,2.095.006A2.809,2.809,0,0,0,25.13,9.5a2.542,2.542,0,0,0-.375-1.488A1.217,1.217,0,0,0,23.7,7.484a1.2,1.2,0,0,0-1.041.524A2.857,2.857,0,0,0,22.293,9.633ZM24.064,3.25h2L24.305,5.218H22.813Zm5.719,2.882.057.793A2.4,2.4,0,0,1,31.814,6a1.993,1.993,0,0,1,1.625.641,2.991,2.991,0,0,1,.546,1.917V13H32.151V8.6a1.2,1.2,0,0,0-.254-.849,1.135,1.135,0,0,0-.844-.264,1.261,1.261,0,0,0-1.162.662V13H28.057V6.132Z" transform="translate(1060.051 2029)" fill="#12263f"/>
  </g>
</svg>
