<svg xmlns="http://www.w3.org/2000/svg" xmlns:xlink="http://www.w3.org/1999/xlink" width="102.031" height="102.032" viewBox="0 0 102.031 102.032">
  <defs>
    <filter id="Trazado_874925" x="0" y="0" width="102.031" height="102.032" filterUnits="userSpaceOnUse">
      <feOffset dy="3" input="SourceAlpha"/>
      <feGaussianBlur stdDeviation="3" result="blur"/>
      <feFlood flood-opacity="0.161"/>
      <feComposite operator="in" in2="blur"/>
      <feComposite in="SourceGraphic"/>
    </filter>
  </defs>
  <g id="Grupo_1110297" data-name="Grupo 1110297" transform="translate(9 6)">
    <g transform="matrix(1, 0, 0, 1, -9, -6)" filter="url(#Trazado_874925)">
      <g id="Trazado_874925-2" data-name="Trazado 874925" transform="translate(9 6)" fill="#f3d913">
        <path d="M 42.01562881469727 82.53167724609375 C 36.54539489746094 82.53167724609375 31.23958206176758 81.46066284179688 26.24558258056641 79.34838104248047 C 21.42118263244629 77.30782318115234 17.0881233215332 74.38629913330078 13.36675834655762 70.66493225097656 C 9.645393371582031 66.94356536865234 6.723852157592773 62.61050796508789 4.683310985565186 57.7861213684082 C 2.571028709411621 52.79212188720703 1.50000524520874 47.48632049560547 1.50000524520874 42.01608657836914 C 1.50000524520874 36.54536819458008 2.571028709411621 31.23956871032715 4.683310985565186 26.24556732177734 C 6.723852157592773 21.42116737365723 9.645393371582031 17.08810997009277 13.36675834655762 13.36674404144287 C 17.0881233215332 9.645380020141602 21.42118263244629 6.723850250244141 26.24558258056641 4.683309078216553 C 31.23958206176758 2.571015119552612 36.54539489746094 1.500003337860107 42.01562881469727 1.500003337860107 C 47.48586273193359 1.500003337860107 52.79167556762695 2.571015119552612 57.78568649291992 4.683309078216553 C 62.61007690429688 6.723850250244141 66.94314575195312 9.645380020141602 70.66451263427734 13.36674404144287 C 74.38587951660156 17.08810997009277 77.30741882324219 21.42116737365723 79.34796142578125 26.24556732177734 C 81.46024322509766 31.23956871032715 82.53126525878906 36.54536819458008 82.53126525878906 42.01560211181641 C 82.53126525878906 47.48632049560547 81.46024322509766 52.79212188720703 79.34796142578125 57.7861213684082 C 77.30741882324219 62.61050796508789 74.38587951660156 66.94356536865234 70.66451263427734 70.66493225097656 C 66.94314575195312 74.38629913330078 62.61007690429688 77.30782318115234 57.78568649291992 79.34838104248047 C 52.79167556762695 81.46066284179688 47.48586273193359 82.53167724609375 42.01562881469727 82.53167724609375 Z" stroke="none"/>
        <path d="M 42.01562881469727 3 C 36.74723052978516 3 31.63801574707031 4.031143188476562 26.82989501953125 6.064811706542969 C 22.18430709838867 8.029731750488281 18.01150512695312 10.84330749511719 14.42741394042969 14.42739868164062 C 10.84332275390625 18.01148986816406 8.029731750488281 22.18429183959961 6.064811706542969 26.82989120483398 C 4.031150817871094 31.63800048828125 3 36.74720001220703 3 42.01607894897461 C 3 47.28447723388672 4.031150817871094 52.39369201660156 6.064811706542969 57.20179748535156 C 8.029731750488281 61.84738540649414 10.84332275390625 66.02018737792969 14.42741394042969 69.60427856445312 C 18.01150512695312 73.18836975097656 22.18430709838867 76.00196075439453 26.82989501953125 77.96688079833984 C 31.63801574707031 80.00053405761719 36.74723052978516 81.03167724609375 42.01562881469727 81.03167724609375 C 47.28402709960938 81.03167724609375 52.39324188232422 80.00053405761719 57.20134735107422 77.96688079833984 C 61.84694671630859 76.00196075439453 66.01974487304688 73.18836975097656 69.60384368896484 69.60427856445312 C 73.18793487548828 66.02018737792969 76.00152587890625 61.84738540649414 77.96644592285156 57.20179748535156 C 80.00010681152344 52.39369201660156 81.03125762939453 47.28447723388672 81.03125762939453 42.01559829711914 C 81.03125762939453 36.74720001220703 80.00010681152344 31.63800048828125 77.96644592285156 26.82989120483398 C 76.00152587890625 22.18429183959961 73.18793487548828 18.01148986816406 69.60384368896484 14.42739868164062 C 66.01974487304688 10.84330749511719 61.84694671630859 8.029731750488281 57.20134735107422 6.064811706542969 C 52.39324188232422 4.031143188476562 47.28402709960938 3 42.01562881469727 3 M 42.01562881469727 0 C 65.22021484375 0 84.03125762939453 18.81102752685547 84.03125762939453 42.01559829711914 L 84.03125762939453 42.01607894897461 C 84.03125762939453 65.22066497802734 65.22021484375 84.03167724609375 42.01562881469727 84.03167724609375 C 18.81102752685547 84.03167724609375 0 65.22066497802734 0 42.01607894897461 L 0 42.01559829711914 C 0 18.81102752685547 18.81102752685547 0 42.01562881469727 0 Z" stroke="none" fill="#fff"/>
      </g>
    </g>
    <g id="Grupo_1110560" data-name="Grupo 1110560" transform="translate(14.633 16.239)">
      <path id="Trazado_901199" data-name="Trazado 901199" d="M10,2H45.167V49.955H10Z" transform="translate(-0.201 -0.201)" fill="#c8cded"/>
      <path id="Trazado_901200" data-name="Trazado 901200" d="M42.769,46.758V2H10V48.357H41.171A1.6,1.6,0,0,0,42.769,46.758Z" transform="translate(-0.201 -0.201)" fill="#e2e7f6"/>
      <path id="Trazado_901201" data-name="Trazado 901201" d="M15,33H42.175v1.6H15Z" transform="translate(-1.204 -6.424)" fill="#c8cded"/>
      <path id="Trazado_901202" data-name="Trazado 901202" d="M15,37H42.175v1.6H15Z" transform="translate(-1.204 -7.227)" fill="#c8cded"/>
      <path id="Trazado_901203" data-name="Trazado 901203" d="M23,39.993h2.4l3.2-3.2V32h.8a2.4,2.4,0,0,1,2.4,2.4v5.595h6.394a1.6,1.6,0,0,1,1.6,1.6v9.591a1.6,1.6,0,0,1-1.6,1.6H28.595l-3.2-1.6H23Z" transform="translate(-2.81 -6.223)" fill="#f2b9a1"/>
      <path id="Trazado_901204" data-name="Trazado 901204" d="M10,53.788H20.39V41H10" transform="translate(-0.201 -8.03)" fill="#3b5892"/>
      <path id="Trazado_901205" data-name="Trazado 901205" d="M17.993,49.792V41H10V51.39h6.394A1.6,1.6,0,0,0,17.993,49.792Z" transform="translate(-0.201 -8.03)" fill="#4c6cb5"/>
      <g id="Grupo_1110559" data-name="Grupo 1110559" transform="translate(29.781 36.167)">
        <path id="Trazado_901206" data-name="Trazado 901206" d="M35,53h7.193v1.6H35Z" transform="translate(-35 -46.606)" fill="#e29f88"/>
        <path id="Trazado_901207" data-name="Trazado 901207" d="M35,49h7.193v1.6H35Z" transform="translate(-35 -45.803)" fill="#e29f88"/>
        <path id="Trazado_901208" data-name="Trazado 901208" d="M35,45h7.193v1.6H35Z" transform="translate(-35 -45)" fill="#e29f88"/>
      </g>
      <circle id="Elipse_11646" data-name="Elipse 11646" cx="9" cy="9" r="9" transform="translate(18.383 4.777)" fill="#559b2d"/>
      <path id="Trazado_901209" data-name="Trazado 901209" d="M25,17.394l3.2,3.2L36.19,12.6l-1.6-1.6L28.2,17.394l-1.6-1.6Z" transform="translate(-3.212 -2.007)" fill="#f2f2f2"/>
      <path id="Trazado_901210" data-name="Trazado 901210" d="M44.966,1H9.8a.8.8,0,0,0-.8.8V49.754a.8.8,0,0,0,.8.8H44.966a.8.8,0,0,0,.8-.8V1.8A.8.8,0,0,0,44.966,1ZM10.6,33.769H19.39v11.19H10.6ZM44.167,48.955H10.6v-2.4H20.19a.8.8,0,0,0,.8-.8H22.4l3.028,1.519a.8.8,0,0,0,.357.08h9.591a2.4,2.4,0,0,0,2.4-2.4V35.368a2.4,2.4,0,0,0-2.4-2.4H29.781v-1.6H40.97v-1.6H29.781v-1.6H40.97v-1.6H29.336a3.187,3.187,0,0,0-2.753-1.6h-.8a.8.8,0,0,0-.8.8v.8H13.8v1.6h11.19v1.6H13.8v1.6H23.855l-1.6,1.6H20.989a.8.8,0,0,0-.8-.8H10.6V2.6H44.167ZM20.989,34.569h1.6a.8.8,0,0,0,.565-.234l3.2-3.2a.8.8,0,0,0,.234-.565v-4a1.6,1.6,0,0,1,1.6,1.6v5.595a.8.8,0,0,0,.8.8h6.394a.8.8,0,0,1,.8.8v.8H29.781v1.6h6.394v1.6H29.781v1.6h6.394v1.6H29.781v1.6h6.394v.8a.8.8,0,0,1-.8.8h-9.4L22.945,44.24a.8.8,0,0,0-.357-.08h-1.6Z"/>
      <path id="Trazado_901211" data-name="Trazado 901211" d="M29.591,24.182A9.591,9.591,0,1,0,20,14.591,9.591,9.591,0,0,0,29.591,24.182Zm0-17.584A7.993,7.993,0,1,1,21.6,14.591,7.993,7.993,0,0,1,29.591,6.6Z" transform="translate(-2.208 -0.803)"/>
      <path id="Trazado_901212" data-name="Trazado 901212" d="M28,21.19a.8.8,0,0,0,.565-.234l7.993-7.993a.8.8,0,0,0,0-1.13l-1.6-1.6a.8.8,0,0,0-1.13,0L28,16.063,26.963,15.03a.8.8,0,0,0-1.13,0l-1.6,1.6a.8.8,0,0,0,0,1.13l3.2,3.2A.8.8,0,0,0,28,21.19Zm-1.6-4.465,1.033,1.033a.8.8,0,0,0,1.13,0l5.829-5.829.468.468L28,19.26l-2.067-2.067Z" transform="translate(-3.011 -1.807)"/>
    </g>
  </g>
</svg>
