<svg xmlns="http://www.w3.org/2000/svg" xmlns:xlink="http://www.w3.org/1999/xlink" width="102.031" height="102.032" viewBox="0 0 102.031 102.032">
  <defs>
    <filter id="Trazado_874925" x="0" y="0" width="102.031" height="102.032" filterUnits="userSpaceOnUse">
      <feOffset dy="3" input="SourceAlpha"/>
      <feGaussianBlur stdDeviation="3" result="blur"/>
      <feFlood flood-opacity="0.161"/>
      <feComposite operator="in" in2="blur"/>
      <feComposite in="SourceGraphic"/>
    </filter>
  </defs>
  <g id="Grupo_1110302" data-name="Grupo 1110302" transform="translate(8.949 6.273)">
    <g transform="matrix(1, 0, 0, 1, -8.95, -6.27)" filter="url(#Trazado_874925)">
      <g id="Trazado_874925-2" data-name="Trazado 874925" transform="translate(9 6)" fill="#f3d913">
        <path d="M 42.01562881469727 82.53167724609375 C 36.54539489746094 82.53167724609375 31.23958206176758 81.46066284179688 26.24558258056641 79.34838104248047 C 21.42118263244629 77.30782318115234 17.0881233215332 74.38629913330078 13.36675834655762 70.66493225097656 C 9.645393371582031 66.94356536865234 6.723852157592773 62.61050796508789 4.683310985565186 57.7861213684082 C 2.571028709411621 52.79212188720703 1.50000524520874 47.48632049560547 1.50000524520874 42.01608657836914 C 1.50000524520874 36.54536819458008 2.571028709411621 31.23956871032715 4.683310985565186 26.24556732177734 C 6.723852157592773 21.42116737365723 9.645393371582031 17.08810997009277 13.36675834655762 13.36674404144287 C 17.0881233215332 9.645380020141602 21.42118263244629 6.723850250244141 26.24558258056641 4.683309078216553 C 31.23958206176758 2.571015119552612 36.54539489746094 1.500003337860107 42.01562881469727 1.500003337860107 C 47.48586273193359 1.500003337860107 52.79167556762695 2.571015119552612 57.78568649291992 4.683309078216553 C 62.61007690429688 6.723850250244141 66.94314575195312 9.645380020141602 70.66451263427734 13.36674404144287 C 74.38587951660156 17.08810997009277 77.30741882324219 21.42116737365723 79.34796142578125 26.24556732177734 C 81.46024322509766 31.23956871032715 82.53126525878906 36.54536819458008 82.53126525878906 42.01560211181641 C 82.53126525878906 47.48632049560547 81.46024322509766 52.79212188720703 79.34796142578125 57.7861213684082 C 77.30741882324219 62.61050796508789 74.38587951660156 66.94356536865234 70.66451263427734 70.66493225097656 C 66.94314575195312 74.38629913330078 62.61007690429688 77.30782318115234 57.78568649291992 79.34838104248047 C 52.79167556762695 81.46066284179688 47.48586273193359 82.53167724609375 42.01562881469727 82.53167724609375 Z" stroke="none"/>
        <path d="M 42.01562881469727 3 C 36.74723052978516 3 31.63801574707031 4.031143188476562 26.82989501953125 6.064811706542969 C 22.18430709838867 8.029731750488281 18.01150512695312 10.84330749511719 14.42741394042969 14.42739868164062 C 10.84332275390625 18.01148986816406 8.029731750488281 22.18429183959961 6.064811706542969 26.82989120483398 C 4.031150817871094 31.63800048828125 3 36.74720001220703 3 42.01607894897461 C 3 47.28447723388672 4.031150817871094 52.39369201660156 6.064811706542969 57.20179748535156 C 8.029731750488281 61.84738540649414 10.84332275390625 66.02018737792969 14.42741394042969 69.60427856445312 C 18.01150512695312 73.18836975097656 22.18430709838867 76.00196075439453 26.82989501953125 77.96688079833984 C 31.63801574707031 80.00053405761719 36.74723052978516 81.03167724609375 42.01562881469727 81.03167724609375 C 47.28402709960938 81.03167724609375 52.39324188232422 80.00053405761719 57.20134735107422 77.96688079833984 C 61.84694671630859 76.00196075439453 66.01974487304688 73.18836975097656 69.60384368896484 69.60427856445312 C 73.18793487548828 66.02018737792969 76.00152587890625 61.84738540649414 77.96644592285156 57.20179748535156 C 80.00010681152344 52.39369201660156 81.03125762939453 47.28447723388672 81.03125762939453 42.01559829711914 C 81.03125762939453 36.74720001220703 80.00010681152344 31.63800048828125 77.96644592285156 26.82989120483398 C 76.00152587890625 22.18429183959961 73.18793487548828 18.01148986816406 69.60384368896484 14.42739868164062 C 66.01974487304688 10.84330749511719 61.84694671630859 8.029731750488281 57.20134735107422 6.064811706542969 C 52.39324188232422 4.031143188476562 47.28402709960938 3 42.01562881469727 3 M 42.01562881469727 0 C 65.22021484375 0 84.03125762939453 18.81102752685547 84.03125762939453 42.01559829711914 L 84.03125762939453 42.01607894897461 C 84.03125762939453 65.22066497802734 65.22021484375 84.03167724609375 42.01562881469727 84.03167724609375 C 18.81102752685547 84.03167724609375 0 65.22066497802734 0 42.01607894897461 L 0 42.01559829711914 C 0 18.81102752685547 18.81102752685547 0 42.01562881469727 0 Z" stroke="none" fill="#fff"/>
      </g>
    </g>
    <g id="Filled_outline" data-name="Filled outline" transform="translate(17.051 16.727)">
      <path id="Trazado_901213" data-name="Trazado 901213" d="M38.623,17H18.764L18,20.055v6.874H39.386V20.055Z" transform="translate(-3.779 -3.543)" fill="#dd3e46"/>
      <path id="Trazado_901214" data-name="Trazado 901214" d="M18,21h2.291a1.528,1.528,0,0,1,1.528,1.528v1.528H18Z" transform="translate(-3.779 -4.488)" fill="#fff69a"/>
      <path id="Trazado_901215" data-name="Trazado 901215" d="M0,0H3.819V1.528A1.528,1.528,0,0,1,2.291,3.055H0Z" transform="translate(35.607 19.567) rotate(180)" fill="#fff69a"/>
      <path id="Trazado_901216" data-name="Trazado 901216" d="M26,24h9.166v1.528H26Z" transform="translate(-5.669 -5.196)" fill="#f4f4e6"/>
      <path id="Trazado_901217" data-name="Trazado 901217" d="M20.528,7h16.8a1.528,1.528,0,0,1,1.528,1.528v6.11H19V8.528A1.528,1.528,0,0,1,20.528,7Z" transform="translate(-4.015 -1.181)" fill="#87cee9"/>
      <path id="Trazado_901218" data-name="Trazado 901218" d="M15,13h3.055v3.055H15Z" transform="translate(-3.071 -2.598)" fill="#c13340"/>
      <path id="Trazado_901219" data-name="Trazado 901219" d="M45,13h3.055v3.055H45Z" transform="translate(-10.157 -2.598)" fill="#c13340"/>
      <path id="Trazado_901220" data-name="Trazado 901220" d="M9.11,48.245H3V46.718l2.291-4.583V7H9.11Z" transform="translate(-0.236 -1.181)" fill="#aabece"/>
      <path id="Trazado_901221" data-name="Trazado 901221" d="M59.11,48.245H53V7h3.819V42.135l2.291,4.583Z" transform="translate(-12.046 -1.181)" fill="#aabece"/>
      <path id="Trazado_901222" data-name="Trazado 901222" d="M40,30h4.583v4.583H40Z" transform="translate(-8.976 -6.614)" fill="#394d5c"/>
      <path id="Trazado_901223" data-name="Trazado 901223" d="M18,30h4.583v4.583H18Z" transform="translate(-3.779 -6.614)" fill="#394d5c"/>
      <path id="Trazado_901224" data-name="Trazado 901224" d="M38,36v3.055h4.583V42.11h6.874V36Z" transform="translate(-8.503 -8.031)" fill="#cfdfe8"/>
      <path id="Trazado_901225" data-name="Trazado 901225" d="M44,39h2.291v1.528H44Z" transform="translate(-9.92 -8.739)" fill="#aabece"/>
      <path id="Trazado_901226" data-name="Trazado 901226" d="M22.457,36v3.055H17.874V42.11H11V36Z" transform="translate(-2.126 -8.031)" fill="#cfdfe8"/>
      <path id="Trazado_901227" data-name="Trazado 901227" d="M17,39h2.291v1.528H17Z" transform="translate(-3.543 -8.739)" fill="#aabece"/>
      <g id="Grupo_1110563" data-name="Grupo 1110563" transform="translate(2.764 2.764)">
        <path id="Trazado_901228" data-name="Trazado 901228" d="M8,56H9.528v1.528H8Z" transform="translate(-4.181 -15.518)" fill="#5a6470"/>
        <path id="Trazado_901229" data-name="Trazado 901229" d="M53,56h2.291v1.528H53Z" transform="translate(-14.81 -15.518)" fill="#5a6470"/>
        <path id="Trazado_901230" data-name="Trazado 901230" d="M3,3h9.166V6.055H3Z" transform="translate(-3 -3)" fill="#5a6470"/>
        <path id="Trazado_901231" data-name="Trazado 901231" d="M49,3h9.166V6.055H49Z" transform="translate(-13.865 -3)" fill="#5a6470"/>
        <path id="Trazado_901232" data-name="Trazado 901232" d="M28,55h6.11v4.583H28Z" transform="translate(-8.905 -15.282)" fill="#5a6470"/>
      </g>
      <path id="Trazado_901233" data-name="Trazado 901233" d="M30,51h3.055v3.055H30Z" transform="translate(-6.614 -11.574)" fill="#ffd782"/>
      <path id="Trazado_901234" data-name="Trazado 901234" d="M31,42h1.528v4.583H31Z" transform="translate(-6.85 -9.448)" fill="#fcf05a"/>
      <path id="Trazado_901235" data-name="Trazado 901235" d="M0,0H3.241V1.528H0Z" transform="translate(27.423 36.594) rotate(-45)" fill="#fcf05a"/>
      <path id="Trazado_901236" data-name="Trazado 901236" d="M0,0H1.528V3.241H0Z" transform="translate(19.022 35.382) rotate(-45)" fill="#fcf05a"/>
      <path id="Trazado_901237" data-name="Trazado 901237" d="M26,24h9.166v1.528H26Z" transform="translate(-5.669 -5.196)"/>
      <path id="Trazado_901238" data-name="Trazado 901238" d="M37.135,6.583H40.19V27.205H36.371V16.512a.764.764,0,0,0-.023-.186l-.527-2.106H37.9a.764.764,0,0,0,.764-.764V10.4a.764.764,0,0,0-.764-.764H35.607V7.347a2.291,2.291,0,0,0-2.291-2.291h-16.8a2.291,2.291,0,0,0-2.291,2.291V9.638H11.929a.764.764,0,0,0-.764.764v3.055a.764.764,0,0,0,.764.764h2.078l-.527,2.106a.764.764,0,0,0-.023.186V27.205H9.638V6.583h3.055V2H2V6.583H4.291V40.774L2,45.356v2.472H9.638V34.843h6.874V31.788H21.1V27.205H19.567V24.15H30.261v3.055H28.733v4.583h4.583v3.055H40.19V47.828h7.638V45.356l-2.291-4.583V6.583h2.291V2H37.135Zm-22.15,16.04V20.331H18.04a.764.764,0,0,0,.764-.764V18.04a2.291,2.291,0,0,0-2.291-2.291H15.2l.382-1.528H34.247l.382,1.528H33.316a2.291,2.291,0,0,0-2.291,2.291v1.528a.764.764,0,0,0,.764.764h3.055v2.291Zm1.528-5.347a.764.764,0,0,1,.764.764V18.8H14.985V17.276ZM34.843,18.8H32.552V18.04a.764.764,0,0,1,.764-.764h1.528Zm2.291-7.638v1.528H35.607V11.166ZM15.748,7.347a.764.764,0,0,1,.764-.764h16.8a.764.764,0,0,1,.764.764v5.347H15.748Zm-3.055,3.819h1.528v1.528H12.693ZM3.528,5.055V3.528h7.638V5.055ZM8.11,43.245H6.583v1.528H8.11V46.3H3.528v-.584l2.291-4.583V6.583H8.11ZM19.567,30.261h-6.11v1.528h1.528v1.528H9.638V28.733h9.929ZM18.04,27.205H14.985V24.15H18.04ZM31.788,24.15h3.055v3.055H31.788Zm3.055,9.166V31.788h1.528V30.261h-6.11V28.733H40.19v4.583ZM46.3,45.717V46.3H41.718V44.773h1.528V43.245H41.718V6.583h2.291V41.134ZM38.662,3.528H46.3V5.055H38.662Z"/>
      <path id="Trazado_901239" data-name="Trazado 901239" d="M28.528,53.055H27v6.11h7.638v-6.11H33.11V50H28.528Zm4.583,4.583H28.528V54.583H33.11Zm-3.055-6.11h1.528v1.528H30.055Z" transform="translate(-5.905 -11.338)"/>
      <path id="Trazado_901240" data-name="Trazado 901240" d="M31,42h1.528v4.583H31Z" transform="translate(-6.85 -9.448)"/>
      <path id="Trazado_901241" data-name="Trazado 901241" d="M0,0H3.241V1.528H0Z" transform="translate(27.423 36.594) rotate(-45)"/>
      <path id="Trazado_901242" data-name="Trazado 901242" d="M0,0H1.528V3.241H0Z" transform="translate(19.022 35.382) rotate(-45)"/>
    </g>
  </g>
</svg>
